<?xml version="1.0" standalone="no"?>
<!DOCTYPE svg PUBLIC "-//W3C//DTD SVG 1.1//EN" "http://www.w3.org/Graphics/SVG/1.1/DTD/svg11.dtd" >
<svg xmlns="http://www.w3.org/2000/svg" xmlns:xlink="http://www.w3.org/1999/xlink" version="1.1">
<metadata></metadata>
<defs>
<font id="coco_gothicregular" horiz-adv-x="497" >
<font-face units-per-em="2000" ascent="1600" descent="-400" />
<missing-glyph horiz-adv-x="627" />
<glyph unicode="ff" horiz-adv-x="1133" d="M508 1493q22 0 35 -14t13 -38v-69q0 -20 -12 -34.5t-32 -15.5q-71 -3 -110 -40.5t-39 -128.5v-155h367v156q0 70 18 131t56.5 106.5t99 72.5t146.5 29q22 0 35 -14t13 -38v-69q0 -20 -12 -34.5t-32 -15.5q-71 -3 -110 -40.5t-39 -128.5v-155h145q22 0 35 -12t13 -39v-52 q0 -26 -13 -41t-35 -15h-145v-788q0 -25 -16.5 -38t-35.5 -13h-75q-24 0 -36 14t-12 37v788h-367v-788q0 -25 -16.5 -38t-35.5 -13h-75q-24 0 -36 14t-12 37v788h-104q-22 0 -36 15t-14 41v52q0 27 14 39t36 12h104v156q0 70 18 131t56.5 106.5t99 72.5t146.5 29z" />
<glyph unicode="fi" horiz-adv-x="1146" d="M984 44q0 -22 -12 -33t-33 -11h-83q-45 0 -45 44v780h-419v-773q0 -25 -16.5 -38t-35.5 -13h-75q-24 0 -36 14t-12 37v773h-104q-22 0 -36 15t-14 41v52q0 27 14 39t36 12h104v171q0 70 18 131t56.5 106.5t99 72.5t146.5 29q22 0 35 -14t13 -38v-69q0 -20 -12 -34.5 t-32 -15.5q-71 -3 -110 -40.5t-39 -128.5v-170h547q20 0 32.5 -12t12.5 -32v-895zM772 1259q0 26 10 49t27 40t39.5 27t48.5 10q27 0 50 -10t40 -27t26.5 -40t9.5 -49t-9.5 -48.5t-26.5 -39.5t-40 -27t-50 -10q-26 0 -48.5 10t-39.5 27t-27 39.5t-10 48.5z" />
<glyph unicode="ffi" horiz-adv-x="1795" d="M1633 895v-5v-846q0 -22 -12 -33t-33 -11h-83q-45 0 -45 44v795h-419v-788q0 -25 -16.5 -38t-35.5 -13h-75q-24 0 -36 14t-12 37v788h-474v-788q0 -25 -16.5 -38t-35.5 -13h-75q-24 0 -36 14t-12 37v788h-104q-22 0 -36 15t-14 41v52q0 27 14 39t36 12h104v156 q0 70 18 131t56.5 106.5t99 72.5t146.5 29q22 0 35 -14t13 -38v-69q0 -20 -12 -34.5t-32 -15.5q-71 -3 -110 -40.5t-39 -128.5v-155h474v156q0 70 18 131t56.5 106.5t99 72.5t146.5 29q22 0 35 -14t13 -38v-69q0 -20 -12 -34.5t-32 -15.5q-71 -3 -110 -40.5t-39 -128.5v-155 h544q22 0 35 -12t13 -39v-4v-4v-44zM1421 1259q0 26 10 49t27 40t39.5 27t48.5 10q27 0 50 -10t40 -27t26.5 -40t9.5 -49t-9.5 -48.5t-26.5 -39.5t-40 -27t-50 -10q-26 0 -48.5 10t-39.5 27t-27 39.5t-10 48.5z" />
<glyph unicode=" "  horiz-adv-x="627" />
<glyph unicode="&#x09;" horiz-adv-x="627" />
<glyph unicode="&#xa0;" horiz-adv-x="627" />
<glyph unicode="!" d="M335 450q0 -22 -12 -33t-33 -11h-83q-45 0 -45 44v991q0 20 11.5 32t33.5 12h83q20 0 32.5 -12t12.5 -32v-991zM120 94q0 26 10 49t27 40t39.5 27t48.5 10q27 0 50 -10t40 -27t26.5 -40t9.5 -49t-9.5 -48.5t-26.5 -39.5t-40 -27t-50 -10q-26 0 -48.5 10t-39.5 27 t-27 39.5t-10 48.5z" />
<glyph unicode="&#x22;" horiz-adv-x="832" d="M162 1442q0 44 44 44h84q21 0 33 -11t12 -33v-335q0 -29 -13.5 -37.5t-33.5 -8.5h-82q-44 0 -44 46v335zM487 1442q0 44 44 44h84q44 0 44 -44v-335q0 -29 -13 -37.5t-33 -8.5h-82q-44 0 -44 46v335z" />
<glyph unicode="#" horiz-adv-x="1034" d="M413 570h207v343h-207v-343zM620 1441q0 18 11 31t33 13h83q18 0 32 -12t14 -32v-354h119q18 0 31 -11.5t13 -32.5v-84q0 -18 -12 -32t-32 -14h-119v-343h119q18 0 31 -11t13 -33v-82q0 -18 -12 -33t-32 -15h-119v-352q0 -44 -46 -44h-83q-44 0 -44 44v352h-207v-352 q0 -44 -47 -44h-82q-44 0 -44 44v352h-110q-46 0 -46 48v82q0 44 46 44h110v343h-110q-46 0 -46 46v84q0 44 46 44h110v354q0 18 11 31t33 13h82q18 0 32.5 -12t14.5 -32v-354h207v354z" />
<glyph unicode="$" horiz-adv-x="1283" d="M1002 1177q-24 21 -60 49t-82 53t-101 42.5t-118 17.5q-85 0 -146 -21t-100.5 -55.5t-58 -77.5t-18.5 -86q0 -51 31.5 -88.5t82 -65t114 -47.5t128.5 -38q59 -16 121.5 -34t121.5 -40.5t111 -52.5t91 -71t61.5 -94.5t22.5 -123.5q0 -98 -36 -177.5t-100 -138.5 t-150.5 -95.5t-188.5 -47.5v-145q0 -45 -47 -45h-82q-44 0 -44 45v146q-132 15 -248 77t-199 170q-16 21 -16 36q0 17 18 32l64 53q7 5 15.5 8t15.5 3t13.5 -4t12.5 -9.5t11 -10.5l7 -7q44 -46 98.5 -80.5t109 -58t105 -35.5t86.5 -12q42 0 86.5 7.5t87 23t80.5 39t66.5 55 t45 71.5t16.5 88q0 61 -33.5 103t-90 71.5t-129.5 50.5t-151 41q-123 32 -215.5 69t-154 84.5t-92 106.5t-30.5 135q0 82 29.5 151.5t84 122.5t132.5 87.5t175 45.5v137q0 18 11 31t33 13h82q19 0 33 -12t14 -32v-137q52 -8 103.5 -24.5t99.5 -40.5t91.5 -54t79.5 -65 q13 -13 26 -28t13 -28q0 -15 -16 -31l-60 -58q-14 -14 -27 -14q-16 0 -36 20z" />
<glyph unicode="%" horiz-adv-x="1857" d="M96 1126q0 80 30 150t82 122.5t122.5 82.5t150.5 30t150 -30t122.5 -82.5t82.5 -122.5t30 -150t-30 -150.5t-82.5 -122.5t-122.5 -82t-150 -30t-150.5 30t-122.5 82t-82 122.5t-30 150.5zM1000 364q0 80 30 150t82.5 122.5t122.5 82.5t150 30t150.5 -30t122.5 -82.5 t82 -122.5t30 -150t-30 -150t-82 -122.5t-122.5 -82.5t-150.5 -30t-150 30t-122.5 82.5t-82.5 122.5t-30 150zM1154 364q0 -49 18 -91t49 -73t73.5 -49t90.5 -18t90 18t73 49t49 73t18 91q0 52 -19 94.5t-51 72.5t-73.5 46.5t-86.5 16.5q-48 0 -90.5 -18t-73.5 -49t-49 -73 t-18 -90zM250 1126q0 -48 18 -90.5t49 -73.5t73 -49t91 -18q48 0 90 18t73 49t49 73.5t18 90.5t-18 90.5t-49 73.5t-73 49t-90 18q-49 0 -91 -18t-73 -49t-49 -73.5t-18 -90.5zM1159 1441q11 26 23.5 35t37.5 9h90q41 0 41 -25q0 -5 -2 -11.5t-2 -12.5q0 -1 1 -1 q-172 -351 -339.5 -699.5t-338.5 -700.5q-8 -17 -20 -26t-30 -9h-105q-33 0 -33 21v7t4 14z" />
<glyph unicode="&#x26;" horiz-adv-x="1676" d="M1642 594q-14 -53 -44.5 -97t-72.5 -75.5t-93 -49t-105 -17.5q-41 0 -78 10l-118 29q-11 -105 -55 -183t-111.5 -129.5t-153 -77.5t-179.5 -26q-102 0 -193 34t-159.5 95t-108.5 145.5t-40 186.5q0 144 63 243.5t172 158.5q-61 46 -97 118t-36 160q0 81 32 149.5 t86.5 118t126.5 77t151 27.5t150 -23.5t125 -70.5t85.5 -116.5t31.5 -161.5q0 -44 -43 -44h-81q-23 0 -36.5 11.5t-13.5 32.5q0 97 -56 154t-160 57q-56 0 -98.5 -17.5t-70.5 -47t-42 -68.5t-14 -81q0 -41 15.5 -77t43 -63.5t66.5 -45.5t87 -24q23 -3 34.5 -11.5t11.5 -25.5 q0 -2 -0.5 -4t-0.5 -4l-16 -73q-3 -23 -13 -31t-29 -8q-148 0 -224.5 -79.5t-76.5 -228.5q0 -66 26 -120.5t71 -93.5t104.5 -60t126.5 -21q60 0 116.5 18.5t101 55.5t73 91t33.5 126l-177 44q-39 9 -39 46v8t2 9l16 66q5 19 17.5 30.5t30.5 11.5q5 0 15 -2l470 -117 q22 -5 39 -5q24 0 47.5 6.5t44 19.5t35.5 31t22 41l2 6q9 38 46 38q4 0 8 -0.5t9 -1.5l62 -15q19 -5 28.5 -16.5t9.5 -28.5q0 -4 -2 -14z" />
<glyph unicode="'" horiz-adv-x="528" d="M162 1442q0 44 44 44h84q21 0 33 -11t12 -33v-335q0 -29 -13.5 -37.5t-33.5 -8.5h-82q-44 0 -44 46v335z" />
<glyph unicode="(" d="M347 -253q-137 217 -210.5 467.5t-73.5 524.5t73.5 524.5t210.5 467.5q12 20 32 20q13 0 25 -9l71 -50q20 -14 20 -37q0 -14 -9 -26q-127 -201 -189 -426t-62 -464q0 -241 62.5 -464.5t188.5 -428.5q9 -12 9 -27q0 -10 -4.5 -20t-15.5 -17l-71 -46q-12 -9 -25 -9 q-20 0 -32 20z" />
<glyph unicode=")" d="M151 -253q-12 -20 -32 -20q-13 0 -25 9l-71 46q-11 7 -15.5 17t-4.5 20q0 15 9 27q126 205 188.5 428.5t62.5 464.5q0 239 -62 464t-189 426q-9 12 -9 26q0 23 20 37l71 50q12 9 25 9q20 0 32 -20q137 -217 210.5 -467.5t73.5 -524.5t-73.5 -524.5t-210.5 -467.5z" />
<glyph unicode="*" horiz-adv-x="983" d="M612 711l200 17q20 0 32 -13.5t12 -39.5v-65q0 -20 -10.5 -38t-33.5 -18q-48 5 -96 9t-104 8l115 -164q6 -12 6 -22q0 -25 -30 -43l-56 -33q-17 -10 -34 -10q-24 0 -37 21l-86 181l-84 -181q-13 -22 -36 -22q-15 0 -32 10l-57 32q-14 8 -22.5 20.5t-9.5 26.5q0 9 6 20 q28 38 56 78t58 86l-183 -17q-29 0 -44 9.5t-15 38.5v73q0 26 10 39.5t34 13.5q46 -5 93.5 -9t104.5 -8l-106 151q-14 23 -14 39q0 11 6 19.5t20 16.5l63 36q20 11 34 11q15 0 30 -21t30 -51.5t30 -66t29 -64.5l78 168q10 17 19.5 26.5t23.5 9.5q11 0 28 -9l62 -37 q32 -19 32 -41q0 -12 -7 -23z" />
<glyph unicode="+" horiz-adv-x="900" d="M536 316q0 -18 -11.5 -31t-32.5 -13h-83q-18 0 -32.5 12t-14.5 32v235h-233q-44 0 -44 46v84q0 44 44 44h233v232q0 47 47 47h83q44 0 44 -47v-232h234q19 0 31.5 -11.5t12.5 -32.5v-84q0 -18 -12 -32t-32 -14h-234v-235z" />
<glyph unicode="," horiz-adv-x="528" d="M120 91q0 28 10.5 52.5t28.5 42.5t42.5 28t51.5 10q29 0 53.5 -10.5t42.5 -29t28 -45t10 -59.5q0 -70 -14 -122t-33.5 -86.5t-40 -51.5t-33.5 -17q-8 0 -12.5 1.5t-10.5 6.5l-31 24q-7 6 -11 14.5t-4 15.5q0 9 4.5 14.5t10.5 13.5q9 9 15.5 23t6.5 35v7q-23 4 -43.5 16 t-36.5 30t-25 40.5t-9 46.5z" />
<glyph unicode="-" horiz-adv-x="1034" d="M845 639q18 0 31 -11.5t13 -32.5v-84q0 -18 -12 -32t-32 -14h-637q-47 0 -47 46v84q0 44 47 44h637z" />
<glyph unicode="." horiz-adv-x="528" d="M120 94q0 26 10 49t27 40t39.5 27t48.5 10q27 0 50 -10t40 -27t26.5 -40t9.5 -49t-9.5 -48.5t-26.5 -39.5t-40 -27t-50 -10q-26 0 -48.5 10t-39.5 27t-27 39.5t-10 48.5z" />
<glyph unicode="/" horiz-adv-x="994" d="M689 1441q11 26 24 35t38 9h89q32 0 40.5 -10.5t-3.5 -41.5q-38 -88 -84.5 -201t-98.5 -239t-106 -258.5t-106 -258.5t-99 -239.5t-84 -201.5q-15 -35 -50 -35h-105q-24 0 -30.5 11.5t1.5 31.5z" />
<glyph unicode="0" horiz-adv-x="1707" d="M853 1505q105 0 202.5 -27t182 -77t154.5 -119.5t119.5 -155t77 -183.5t27.5 -204q0 -105 -27 -202.5t-77 -182t-119.5 -154t-154.5 -119t-183 -76.5t-204 -27t-203 27t-182 77t-154.5 119.5t-119 154t-76.5 182t-27 203.5q0 105 27 202.5t77 182.5t119.5 155 t154.5 119.5t182.5 77t203.5 27.5zM262 742q0 -123 46 -230.5t126.5 -188t188 -126.5t230.5 -46q121 0 228.5 46t187 126.5t126 188t46.5 230.5q0 81 -21 156t-59.5 140.5t-92 119t-119 92t-140.5 59.5t-156 21q-123 0 -230.5 -46.5t-188 -126t-126.5 -187t-46 -228.5z" />
<glyph unicode="1" horiz-adv-x="682" d="M450 1485q47 0 47 -44v-1397q0 -44 -46 -44h-83q-44 0 -44 44v1246q-17 -8 -37.5 -18t-41 -18.5t-38 -14.5t-28.5 -6q-26 0 -26 28v100q0 17 8 27t25 18q42 19 79 35.5t79 36.5q2 1 10.5 4t16.5 3h79z" />
<glyph unicode="2" horiz-adv-x="1291" d="M193 0q-20 0 -33.5 14t-13.5 34v78q0 12 6 26l682 667q32 31 53.5 59t34 55.5t18 55t5.5 58.5q0 61 -25 113t-68.5 89.5t-101 58.5t-122.5 21q-64 0 -120.5 -23t-99 -63t-67 -94.5t-24.5 -118.5v-39q-4 -25 -14.5 -31t-30.5 -6h-85q-19 0 -31 9t-12 32v35q0 102 39 187 t105 146.5t154 96t186 34.5q102 0 192 -31t157.5 -89t106.5 -139.5t39 -183.5q0 -97 -37.5 -178.5t-95.5 -139.5q-25 -25 -71 -69.5t-102.5 -99t-118 -113.5t-118 -113t-103 -98.5t-71.5 -68.5h701q20 0 33.5 -10.5t13.5 -33.5v-79q0 -18 -13.5 -33t-33.5 -15h-914z" />
<glyph unicode="3" horiz-adv-x="1104" d="M91 428q0 26 8.5 35t28.5 9h97q23 0 30 -12t7 -35q0 -59 24.5 -109.5t66 -88t96.5 -59t115 -21.5q63 0 119 24t98 65.5t66.5 97t24.5 118.5t-24.5 117.5t-66.5 95t-98 63.5t-119 23q-44 0 -44 43v78q0 44 48 44q43 0 81.5 15.5t67 43t45 65.5t16.5 82q0 45 -16.5 83.5 t-45.5 66t-68 43.5t-84 16t-83.5 -16t-66.5 -43.5t-44 -66t-16 -83.5q0 -24 -9.5 -34t-32.5 -10h-89q-21 0 -29.5 12t-8.5 33q0 78 30 146.5t81.5 119.5t120.5 80t147 29t147 -29t120.5 -80t81.5 -119.5t30 -146.5q0 -86 -34.5 -157t-93.5 -122q51 -31 92 -72.5t70.5 -91.5 t45.5 -108t16 -122q0 -98 -37.5 -184t-102 -150t-151 -100.5t-184.5 -36.5q-99 0 -185.5 33t-150 92.5t-100.5 142t-37 181.5z" />
<glyph unicode="4" horiz-adv-x="1242" d="M142 255q-28 0 -40 14t-12 32q0 25 13 49.5t39 65.5q158 247 313.5 496t318.5 494q20 30 35 46t30.5 23.5t35.5 9t49 1.5q26 0 41 -15.5t15 -48.5v-2.5v-14.5v-37.5v-72v-118.5t-0.5 -176.5t-0.5 -245.5v-327h115q54 0 54 -54v-68q0 -51 -54 -51h-115v-203q0 -52 -52 -52 h-68q-52 0 -52 52v203h-665zM807 428v713q-119 -178 -230 -356.5t-231 -356.5h461z" />
<glyph unicode="5" horiz-adv-x="1212" d="M117 483q0 34 28 34h115q31 0 31 -34q0 -69 26 -130.5t71.5 -107t106.5 -72t131 -26.5q69 0 130.5 26.5t107 72t72 107t26.5 130.5q0 70 -26.5 131t-72 106t-107 71t-130.5 26q-66 0 -126.5 -23.5t-106.5 -67.5l-4 -5q-8 -9 -21 -18t-42 -9h-128q-14 0 -23 10.5t-11 30.5 l66 709q0 43 41 43h687q43 0 43 -45v-90q0 -40 -45 -40h-555l-35 -397q62 35 127 55t128 20q106 0 198.5 -40t161.5 -108.5t108.5 -161t39.5 -197.5t-39.5 -197t-108.5 -160.5t-161.5 -108t-198.5 -39.5q-105 0 -196.5 39.5t-160 108t-108 160.5t-39.5 197z" />
<glyph unicode="6" horiz-adv-x="1198" d="M88 490q0 72 19.5 138t52.5 124l396 690q14 24 27 34t39 10h104q37 0 37 -17q0 -5 -1.5 -14t-7.5 -20q-43 -75 -73.5 -127.5t-52.5 -91l-38 -66.5t-31 -54t-30.5 -53.5t-36.5 -63.5q23 9 49.5 14.5t55.5 5.5q106 0 198.5 -39.5t161.5 -108.5t109 -162t40 -199 q0 -107 -40 -199.5t-109 -161.5t-161.5 -108.5t-198.5 -39.5t-198.5 39.5t-161.5 108.5t-109 161.5t-40 199.5zM263 490q0 -71 25.5 -133t70.5 -108.5t106 -73t132 -26.5q70 0 130.5 26.5t105 73t70 108.5t25.5 133q0 70 -25.5 132.5t-70 109t-105 74t-130.5 27.5 q-71 0 -132 -27.5t-106 -74t-70.5 -109t-25.5 -132.5z" />
<glyph unicode="7" horiz-adv-x="1100" d="M999 1485q26 0 39.5 -15.5t13.5 -35.5q0 -17 -4.5 -30t-11.5 -25l-691 -1337q-6 -14 -19 -28t-39 -14h-109q-22 0 -29.5 5t-7.5 16q0 5 3 19t13 28l642 1243h-667q-53 0 -53 53v70q0 51 53 51h867z" />
<glyph unicode="8" horiz-adv-x="1109" d="M172 1122q0 78 30 147.5t81.5 121.5t121 82t147.5 30q79 0 148.5 -30t121 -82t81.5 -121.5t30 -147.5q0 -82 -32 -153t-88 -124q48 -32 87 -74t67 -92.5t43 -108t15 -119.5q0 -98 -37 -183.5t-101 -149.5t-150.5 -101t-184.5 -37q-97 0 -183 37t-150 101t-101 149.5 t-37 183.5q0 62 15 119.5t42.5 107.5t66.5 92.5t86 74.5q-55 52 -87 123.5t-32 153.5zM249 453q0 -62 24 -117t65.5 -96.5t96.5 -65.5t117 -24t117.5 24t97 65.5t66 96.5t24.5 117t-24.5 117.5t-66 97t-97 66t-117.5 24.5t-117 -24.5t-96.5 -66t-65.5 -97t-24 -117.5z M349 1120q0 -44 15.5 -81.5t42.5 -65.5t64 -44t81 -16q43 0 81 16t66.5 44t44.5 65.5t16 81.5q0 43 -16 81.5t-44.5 66.5t-66.5 44.5t-81 16.5q-44 0 -81 -16.5t-64 -44.5t-42.5 -66.5t-15.5 -81.5z" />
<glyph unicode="9" horiz-adv-x="1196" d="M1107 992q0 -72 -19.5 -138t-52.5 -124l-395 -688q-14 -24 -28 -33.5t-39 -9.5h-104q-37 0 -37 16q0 5 1.5 13.5t7.5 19.5q36 62 63.5 110t49.5 86t40 69.5t35 61.5t35 61t39 68q-23 -9 -50 -15t-56 -6q-105 0 -198 39.5t-162 108.5t-109 162t-40 199t40 199t109 162 t162 109t198 40q70 0 135.5 -18t122 -51t103 -79.5t80 -103t51.5 -122t18 -136.5zM932 992q0 71 -26 133.5t-71 109t-106 73t-132 26.5q-70 0 -130.5 -26.5t-105 -73t-70 -109t-25.5 -133.5q0 -70 25.5 -132.5t70 -109t105 -73.5t130.5 -27q71 0 132 27t106 73.5t71 109 t26 132.5z" />
<glyph unicode=":" d="M120 94q0 26 10 49t27 40t39.5 27t48.5 10q27 0 50 -10t40 -27t26.5 -40t9.5 -49t-9.5 -48.5t-26.5 -39.5t-40 -27t-50 -10q-26 0 -48.5 10t-39.5 27t-27 39.5t-10 48.5zM120 874q0 26 10 49t27 40t39.5 27t48.5 10q27 0 50 -10t40 -27t26.5 -40t9.5 -49t-9.5 -48.5 t-26.5 -39.5t-40 -27t-50 -10q-26 0 -48.5 10t-39.5 27t-27 39.5t-10 48.5z" />
<glyph unicode=";" d="M116 90q0 28 10.5 52.5t28.5 42.5t42.5 28t51.5 10q29 0 53.5 -10.5t42.5 -29t28 -45t10 -59.5q0 -70 -14 -122t-33.5 -86.5t-40 -51.5t-33.5 -17q-8 0 -12.5 1.5t-10.5 6.5l-31 24q-7 6 -11 14.5t-4 15.5q0 10 4.5 17.5t10.5 15.5l1 2v-1q8 8 14.5 20t6.5 32v7 q-23 4 -43.5 16t-36.5 30t-25 40.5t-9 46.5zM120 874q0 26 10 49t27 40t39.5 27t48.5 10q27 0 50 -10t40 -27t26.5 -40t9.5 -49t-9.5 -48.5t-26.5 -39.5t-40 -27t-50 -10q-26 0 -48.5 10t-39.5 27t-27 39.5t-10 48.5z" />
<glyph unicode="&#x3c;" horiz-adv-x="876" d="M590 1046q5 5 14 12t18 7q11 0 17.5 -6t13.5 -13l57 -59q6 -7 12.5 -14t6.5 -18q0 -12 -3.5 -17.5t-11.5 -13.5l-374 -373l374 -372q8 -8 11.5 -13.5t3.5 -17.5q0 -11 -6.5 -18t-12.5 -14l-57 -59q-7 -7 -13.5 -13t-17.5 -6q-9 0 -18 7t-14 12l-468 467q-4 4 -9 11.5 t-5 16.5q0 8 5 15t9 12z" />
<glyph unicode="=" horiz-adv-x="1034" d="M835 778q18 0 31 -11t13 -33v-83q0 -18 -12 -32t-32 -14h-641q-47 0 -47 46v83q0 44 47 44h641zM835 487q18 0 31 -11t13 -33v-83q0 -18 -12 -32t-32 -14h-641q-47 0 -47 46v83q0 44 47 44h641z" />
<glyph unicode="&#x3e;" horiz-adv-x="838" d="M758 579q4 -5 9 -12t5 -15q0 -9 -5 -16.5t-9 -11.5l-468 -467q-5 -5 -14 -12t-18 -7q-11 0 -17.5 6t-13.5 13l-57 59q-6 7 -12.5 14t-6.5 18q0 12 3.5 17.5t11.5 13.5l374 372l-374 373q-8 8 -11.5 13.5t-3.5 17.5q0 11 6.5 18t12.5 14l57 59q7 7 13.5 13t17.5 6 q9 0 18 -7t14 -12z" />
<glyph unicode="?" horiz-adv-x="1137" d="M641 379q0 -17 -10 -26.5t-23 -9.5h-108q-16 0 -25 11t-9 25v164q0 52 17.5 93t46 74.5t65 62t74.5 55.5q40 28 78 57.5t67.5 64t47.5 77t18 97.5q0 65 -25 119t-68.5 93t-101.5 60.5t-125 21.5q-51 0 -106.5 -17.5t-102 -54t-76.5 -92.5t-30 -133v-24q0 -17 -10 -25.5 t-23 -8.5h-106q-17 0 -25.5 11t-8.5 22v15q0 111 40.5 198t108 147t156 91.5t185.5 31.5q102 0 191 -32t155.5 -89.5t104.5 -138t38 -176.5q0 -83 -24 -147.5t-61 -115t-81.5 -88t-86.5 -66.5q-31 -22 -59.5 -44t-50 -46t-34.5 -51.5t-13 -60.5v-145zM434 94q0 26 10 49 t27 40t39.5 27t48.5 10q27 0 50 -10t40 -27t26.5 -40t9.5 -49t-9.5 -48.5t-26.5 -39.5t-40 -27t-50 -10q-26 0 -48.5 10t-39.5 27t-27 39.5t-10 48.5z" />
<glyph unicode="@" horiz-adv-x="1896" d="M1392 -148q4 1 7.5 1.5t8.5 0.5q3 -1 16.5 -16t28.5 -35t26.5 -39.5t11.5 -28.5q0 -18 -19 -28q-105 -63 -218.5 -95.5t-240.5 -32.5q-125 0 -240 32.5t-215 91.5t-182.5 141.5t-141 183t-90.5 215.5t-32 240q0 124 32.5 240t91 218t141.5 186.5t183.5 145t216.5 94 t242 33.5q101 0 199.5 -24t187.5 -70.5t164 -114.5t130 -155.5t86 -193.5t31 -229q0 -124 -20 -225.5t-66 -173.5t-122 -111.5t-187 -39.5q-13 0 -40 3.5t-56.5 14.5t-57 32t-40.5 57q-19 -24 -46 -49.5t-61.5 -46t-76.5 -33.5t-91 -13q-95 0 -177 36t-142 98t-94.5 145.5 t-34.5 179.5q0 95 34.5 178.5t94.5 145.5t142 98t177 36q49 0 91 -12.5t75.5 -34t59 -51t42.5 -63.5q5 28 11.5 55t11.5 56q3 20 10 27t30 7h47q20 0 28 -10t8 -22v-589q0 -28 5.5 -44.5t15.5 -24.5t22.5 -10.5t27.5 -2.5q67 0 109.5 30t66.5 82t33 121.5t9 149.5 q0 129 -48 243t-132 199.5t-198 135t-245 49.5q-108 0 -206 -26.5t-183 -75.5t-153.5 -118t-117.5 -154.5t-75.5 -185t-26.5 -208.5q0 -99 28 -191t78.5 -172.5t119.5 -147.5t151.5 -115t175 -74.5t188.5 -26.5q49 0 94.5 6.5t90.5 19.5t91 33.5t94 48.5q6 3 10 3zM653 487 q0 -61 23 -113.5t62.5 -91t92 -60.5t111.5 -22q60 0 112 22t91 60.5t61 91t22 113.5q0 59 -22 111.5t-61 91.5t-91 62t-112 23q-59 0 -111.5 -23t-92 -62t-62.5 -91.5t-23 -111.5z" />
<glyph unicode="A" horiz-adv-x="1433" d="M232 40q-16 -40 -55 -40h-86q-43 0 -43 32q0 9 2 19q1 4 3 7q108 260 190.5 458.5t143.5 345t103 246.5t69 165.5t42 100.5t22 51.5t8 19.5l1 3q4 11 13.5 24t36.5 13h59q25 0 34.5 -13t14.5 -24l576 -1391q0 -1 3.5 -10t3.5 -15q0 -16 -12.5 -24t-32.5 -8h-86 q-20 0 -33.5 10.5t-20.5 27.5l-116 287h-727zM417 495h585l-291 732z" />
<glyph unicode="B" horiz-adv-x="1357" d="M1180 1097q0 -90 -36.5 -168.5t-99.5 -133.5q48 -26 88 -64.5t68 -86.5t43.5 -102.5t15.5 -112.5q0 -86 -31.5 -163.5t-86.5 -136.5t-131 -94t-164 -35h-638q-20 0 -33 11.5t-13 32.5v1393q0 48 46 48h571q85 0 158 -29t127 -81t85 -123t31 -155zM335 684v-514h510 q49 0 92.5 21t76 56.5t51.5 82.5t19 99q0 50 -18.5 96t-51 81.5t-76.5 56.5t-94 21h-509zM1004 1096q0 50 -17 90t-47 68.5t-71.5 44t-91.5 15.5h-442v-460h441q49 0 91 19t72.5 52t47.5 77t17 94z" />
<glyph unicode="C" horiz-adv-x="1410" d="M1307 1355q11 -8 18.5 -16t7.5 -19q0 -8 -4.5 -17.5t-9.5 -16.5l-42 -66q-16 -23 -34 -23q-7 1 -16 4.5t-20 11.5q-75 54 -165.5 85t-183.5 31q-131 0 -240.5 -48t-188.5 -129.5t-123 -188.5t-44 -225q0 -124 49 -231.5t131 -186.5t189 -124t223 -45q39 0 76.5 4.5 t75.5 15.5t78.5 29t84.5 45q9 4 19.5 11.5t20 15t18.5 12.5t15 5q19 0 34 -25l46 -76q7 -13 7 -28q0 -21 -23 -34q-95 -69 -209 -108.5t-246 -39.5q-106 0 -203 27t-182 77t-154.5 119.5t-119 154t-76.5 182t-27 203.5q0 105 27 202.5t77 182.5t119.5 155t154.5 119.5 t182.5 77t203.5 27.5q126 0 240.5 -39t213.5 -111z" />
<glyph unicode="D" horiz-adv-x="1491" d="M162 1437q0 48 46 48h448q105 0 201 -26.5t178.5 -74.5t150 -115.5t115 -150t73.5 -178t26 -199.5q0 -102 -26.5 -197t-74.5 -177t-116 -150t-150.5 -116t-178 -74.5t-198.5 -26.5h-448q-19 0 -32.5 9.5t-13.5 33.5v1394zM668 170q82 0 155.5 22t136 61.5t112.5 94 t85 119t54 137.5t19 149q0 127 -46.5 231t-125 177t-183 113t-219.5 40h-321v-1144h333z" />
<glyph unicode="E" horiz-adv-x="1285" d="M1168 1485q45 0 45 -47v-81q0 -18 -12 -32t-35 -14h-831v-442h661q18 0 31 -11t13 -35v-82q0 -18 -11 -32t-33 -14h-661v-521h840q45 0 45 -47v-83q0 -44 -44 -44h-970q-44 0 -44 42v1397q0 46 44 46h962z" />
<glyph unicode="F" horiz-adv-x="1254" d="M162 1439q0 46 44 46h950q46 0 46 -47v-81q0 -18 -12.5 -32t-33.5 -14h-821v-517h92h112t122 -0.5t122.5 -0.5h112h92.5q18 0 31 -11t13 -35v-82q0 -18 -11.5 -32t-32.5 -14h-653v-577q0 -42 -47 -42h-82q-44 0 -44 42v1397z" />
<glyph unicode="G" horiz-adv-x="1452" d="M1164 613q0 44 44 44h84q19 0 32.5 -11.5t13.5 -32.5v-444q0 -11 -5.5 -21.5t-21.5 -21.5l-5 -3q-94 -69 -209 -107t-246 -38q-106 0 -203 27t-182 77t-154.5 119.5t-119 154t-76.5 182t-27 203.5q0 105 27 202t77 182t119.5 155t154.5 120t182.5 77.5t203.5 27.5 q141 0 274 -52q25 -10 60 -26t67 -35t54.5 -39t22.5 -39q0 -12 -7 -22l-44 -72q-14 -23 -34 -23q-7 0 -17 3.5t-21 11.5q-74 54 -165 85.5t-188 31.5q-130 0 -239 -49t-187.5 -131t-122.5 -188.5t-44 -221.5q0 -123 47.5 -230t128.5 -186.5t188 -125t226 -45.5q52 0 99 8 t87.5 21t72.5 29.5t53 32.5v370z" />
<glyph unicode="H" horiz-adv-x="1547" d="M1218 1441q0 18 12 31t32 13h82q18 0 32.5 -12t14.5 -32v-1397q0 -44 -47 -44h-82q-44 0 -44 44v651h-883v-651q0 -44 -48 -44h-81q-44 0 -44 44v1397q0 18 11.5 31t32.5 13h83q18 0 32 -13t14 -31v-576h883v576z" />
<glyph unicode="I" d="M335 44q0 -22 -12 -33t-33 -11h-83q-45 0 -45 44v1397q0 20 11.5 32t33.5 12h83q20 0 32.5 -12t12.5 -32v-1397z" />
<glyph unicode="J" horiz-adv-x="800" d="M14 90q-10 10 -10 25q0 14 16 30l59 64q9 11 16 12.5t12 1.5q11 0 22 -9q10 -10 24 -21.5t33.5 -22t45 -17.5t59.5 -7q38 0 71.5 14.5t58 39.5t38.5 58.5t14 71.5v1112q0 18 10.5 30.5t32.5 12.5h85q20 0 32 -11.5t12 -32.5v-1111q0 -75 -28 -139.5t-76 -112 t-112.5 -74.5t-137.5 -27q-81 0 -152 29.5t-125 83.5z" />
<glyph unicode="K" horiz-adv-x="1469" d="M335 44q0 -44 -46 -44h-83q-44 0 -44 44v1397q0 18 11 31t33 13h84q18 0 31.5 -12t13.5 -32v-744l716 757q25 31 47 31h173q15 0 20.5 -3.5t5.5 -9.5q0 -7 -6.5 -15t-11.5 -13l-560 -590q172 -204 347.5 -404.5t340.5 -409.5q9 -11 11.5 -14.5t2.5 -6.5q0 -5 -5 -12 t-16 -7h-172q-16 0 -31 16t-30 36q-143 171 -283.5 339t-282.5 339l-266 -276v-410z" />
<glyph unicode="L" horiz-adv-x="1148" d="M1056 171q18 0 31 -12t13 -34v-81q0 -18 -12 -31t-32 -13h-850q-44 0 -44 44v1397q0 18 12 31t34 13h83q19 0 31.5 -11.5t12.5 -32.5v-1270h721z" />
<glyph unicode="M" horiz-adv-x="1853" d="M888 64q-25 0 -40 37l-459 1081l-111 -1138q0 -44 -45 -44h-84q-45 0 -45 44q36 352 72 698.5t73 698.5q0 19 13.5 31.5t33.5 12.5h125q17 0 27.5 -10.5t16.5 -28.5l463 -1115q117 281 232.5 557.5t231.5 557.5q5 18 16 28.5t27 10.5h129q20 0 32 -13t12 -31l146 -1397 q0 -44 -45 -44h-84q-45 0 -45 44l-112 1138l-459 -1081q-15 -37 -42 -37h-79z" />
<glyph unicode="N" horiz-adv-x="1583" d="M1284 0q-22 0 -37 19l-912 1197v-1172q0 -44 -46 -44h-83q-44 0 -44 44v1395q0 20 12 33t32 13h111q23 0 38 -20l898 -1169v1150q2 18 13.5 28.5t30.5 10.5h82q18 0 33 -12t15 -32v-1397q0 -44 -48 -44h-95z" />
<glyph unicode="O" horiz-adv-x="1706" d="M853 1505q105 0 202.5 -27t182 -77t154.5 -119.5t119.5 -155t77 -183.5t27.5 -204q0 -105 -27 -202.5t-77 -182t-119.5 -154t-154.5 -119t-183 -76.5t-204 -27t-203 27t-182 77t-154.5 119.5t-119 154t-76.5 182t-27 203.5q0 105 27 202.5t77 182.5t119.5 155 t154.5 119.5t182.5 77t203.5 27.5zM262 742q0 -123 46 -230.5t126.5 -188t188 -126.5t230.5 -46q121 0 228.5 46t187 126.5t126 188t46.5 230.5q0 81 -21 156t-59.5 140.5t-92 119t-119 92t-140.5 59.5t-156 21q-123 0 -230.5 -46.5t-188 -126t-126.5 -187t-46 -228.5z" />
<glyph unicode="P" horiz-adv-x="1259" d="M162 1437q0 48 46 48h497q98 0 182.5 -37t146.5 -100.5t97.5 -148t35.5 -178.5q0 -93 -35 -176.5t-96.5 -146.5t-145 -100t-180.5 -37h-375v-517q0 -44 -45 -44h-84q-44 0 -44 44v1393zM994 1023q0 58 -22.5 110.5t-61.5 92.5t-92 64t-113 24h-370v-583h370 q59 0 111.5 23.5t92 64t62.5 93t23 111.5z" />
<glyph unicode="Q" horiz-adv-x="1706" d="M262 742q0 -123 46 -230.5t126.5 -188t188 -126.5t230.5 -46q121 0 228.5 46t187 126.5t126 188t46.5 230.5q0 81 -21 156t-59.5 140.5t-92 119t-119 92t-140.5 59.5t-156 21q-123 0 -230.5 -46.5t-188 -126t-126.5 -187t-46 -228.5zM853 1505q105 0 202.5 -27t182 -77 t154.5 -119.5t119.5 -155t77 -183.5t27.5 -204q0 -98 -23.5 -189t-67 -171.5t-104.5 -148t-136 -119t-162.5 -84.5t-182.5 -44v-258q-3 -44 -48 -44h-82q-44 0 -44 46v256q-95 10 -182.5 43t-163 84.5t-136.5 119.5t-104.5 149t-67 172.5t-23.5 189.5q0 105 27 202.5 t77 182.5t119.5 155t154.5 119.5t182.5 77t203.5 27.5z" />
<glyph unicode="R" horiz-adv-x="1342" d="M1083 1014q0 60 -23 114t-63 95.5t-95 66t-118 24.5h-449v-599h452q63 0 117 24t93.5 65t62.5 95.5t23 114.5zM162 1437q0 23 12 35.5t32 12.5h578q99 0 184.5 -37t149 -101.5t100 -150.5t36.5 -183q0 -71 -20 -136t-56 -120.5t-86 -99t-111 -71.5l263 -542q5 -12 5 -18 q0 -11 -9.5 -18.5t-26.5 -7.5h-101q-20 0 -31.5 10t-19.5 28l-242 509q-11 -2 -23 -2.5t-32 -0.5h-429v-500q0 -44 -44 -44h-85q-44 0 -44 44v1393z" />
<glyph unicode="S" horiz-adv-x="1283" d="M1002 1177q-24 21 -60 49t-82 53t-101 42.5t-118 17.5q-85 0 -146 -21t-100.5 -55.5t-58 -77.5t-18.5 -86q0 -51 31.5 -88.5t82 -65t114 -47.5t128.5 -38q59 -16 121.5 -34t121.5 -40.5t111 -52.5t91 -71t61.5 -94.5t22.5 -123.5q0 -107 -43.5 -193t-119.5 -146 t-178 -92.5t-219 -32.5q-78 0 -153 16t-144 48t-129.5 79.5t-108.5 109.5q-16 21 -16 36q0 17 18 32l64 53q7 5 15.5 8t15.5 3t13.5 -4t12.5 -9.5t11 -10.5l7 -7q44 -46 98.5 -80.5t109 -58t105 -35.5t86.5 -12q42 0 86.5 7.5t87 23t80.5 39t66.5 55t45 71.5t16.5 88 q0 61 -33.5 103t-90 71.5t-129.5 50.5t-151 41q-123 32 -215.5 69t-154 84.5t-92 106.5t-30.5 135q0 91 36.5 167t103.5 131t162 85t212 30q60 0 123 -14t122 -39.5t113 -60t96 -76.5q13 -13 26 -28t13 -28q0 -15 -16 -31l-60 -58q-14 -14 -27 -14q-16 0 -36 20z" />
<glyph unicode="T" horiz-adv-x="1223" d="M1117 1485q18 0 32 -11t16 -33v-82q0 -20 -12.5 -34t-35.5 -14h-427v-1266q0 -19 -11.5 -32t-34.5 -13h-81q-20 0 -33 12.5t-13 32.5v1266h-429q-20 0 -32.5 11.5t-12.5 36.5v82q0 20 12.5 32t32.5 12h1029z" />
<glyph unicode="U" horiz-adv-x="1504" d="M317 607q0 -97 30.5 -181.5t86.5 -146.5t136.5 -98t181.5 -36q106 0 188 36t137.5 98.5t84 147t28.5 180.5v834q0 18 13.5 31t33.5 13h76q19 0 35 -12t16 -32v-854q0 -138 -48 -250.5t-131.5 -192.5t-195 -124t-237.5 -44t-237 48t-194.5 131.5t-131.5 194.5t-48 237v854 q0 15 11.5 29.5t30.5 14.5h87q15 0 31 -13t16 -31v-834z" />
<glyph unicode="V" horiz-adv-x="1437" d="M236 1444q19 -48 45.5 -114t58 -144t66.5 -164t70.5 -173t70.5 -171.5t66 -160t56.5 -137.5t43.5 -105q17 43 42.5 105t56.5 137.5t65 160t69.5 172t70.5 173.5t66 164t58 144.5t46 114.5q7 17 20.5 28t34.5 11h87q44 0 44 -34q0 -5 -2 -14t-3 -10l-574 -1387 q-2 -5 -5 -12t-8.5 -13t-14.5 -10.5t-24 -4.5h-58q-21 0 -33.5 13.5t-17.5 24.5l-568 1365q-3 6 -8 19.5t-6 30.5q0 32 43 32h88q20 0 34 -11t20 -30z" />
<glyph unicode="W" horiz-adv-x="2131" d="M1194 1457q5 13 14 20.5t22 7.5h111q19 0 27 -8t8 -22q0 -6 -3 -16l-229 -551q65 -158 129.5 -314t129.5 -314q121 298 242 592.5t242 593.5q8 18 20 28.5t34 10.5h84q21 0 32 -8t11 -22q0 -3 -1 -7t-2 -6l-582 -1398q-1 -5 -4 -8l-3 -6t-8 -12.5t-14 -12t-21 -5.5h-61 q-26 0 -36.5 13.5t-12.5 24.5l-268 641l-265 -635q-5 -24 -22 -34t-33 -10h-54q-12 0 -20 4.5t-14 10.5t-9.5 12.5t-5.5 11.5l-581 1400q0 2 -1.5 6.5t-1.5 9.5q0 30 37 30h97q34 0 52 -45l481 -1180z" />
<glyph unicode="X" horiz-adv-x="1335" d="M1245 44q11 -16 11 -27q0 -17 -29 -17h-121q-35 0 -60 37l-378 557l-376 -557q-13 -18 -27 -27.5t-32 -9.5h-122q-28 0 -28 17q0 10 11 27l475 697q-63 93 -126.5 186.5t-124 182.5t-117 171.5t-105.5 152.5q-14 23 -14 33q0 11 10 14.5t30 3.5h109q20 0 32.5 -9.5 t32.5 -34.5l372 -552l376 552q20 25 35 34.5t40 9.5h97q41 0 41 -17q0 -12 -15 -33l-472 -694z" />
<glyph unicode="Y" horiz-adv-x="1319" d="M89 1434q-13 19 -13 30q0 21 30 21h130q10 -1 16 -2t11 -5.5t10.5 -12.5t14.5 -22l371 -611l377 619q12 20 21.5 26t24.5 8h137q24 0 24 -18q0 -4 -2.5 -11.5t-8.5 -15.5q-123 -198 -242 -392.5t-244 -392.5v-608q0 -47 -45 -47h-86q-42 0 -42 47v602z" />
<glyph unicode="Z" horiz-adv-x="1278" d="M113 0q-20 0 -34 13.5t-14 33.5v90q0 7 2 17t11 19l878 1138h-822q-47 0 -47 46v84q0 44 47 44h1011q19 0 33 -13t14 -33v-93q0 -19 -9 -31l-874 -1141h840q19 0 32 -11.5t13 -35.5v-80q0 -18 -12.5 -32.5t-32.5 -14.5h-1036z" />
<glyph unicode="[" d="M138 1678q0 20 11.5 32t32.5 12h269q21 0 33 -11.5t12 -32.5v-84q0 -46 -45 -46h-139v-1609h139q19 0 32 -12.5t13 -33.5v-84q-2 -44 -45 -44h-269q-44 0 -44 44v1869z" />
<glyph unicode="\" horiz-adv-x="930" d="M849 42q5 -13 5 -21q0 -21 -33 -21h-105q-36 0 -50 35l-579 1400q-5 11 -5 22q0 19 14.5 23.5t26.5 4.5h92q24 0 37 -9t24 -35z" />
<glyph unicode="]" d="M358 -197q0 -45 -44 -45h-267q-43 0 -46 45v84q0 20 14 32.5t32 12.5h138v1609h-138q-46 0 -46 46v84q0 20 13 32t33 12h267q44 0 44 -44v-1868z" />
<glyph unicode="^" horiz-adv-x="977" d="M832 1345q5 -5 12 -14t7 -18q0 -11 -6 -17.5t-13 -13.5l-49 -47q-7 -6 -14 -12.5t-18 -6.5q-12 0 -17.5 3.5t-13.5 11.5l-233 234l-232 -234q-8 -8 -13.5 -11.5t-17.5 -3.5q-11 0 -18 6.5t-14 12.5l-49 47q-7 7 -13 13.5t-6 17.5q0 9 7 18t12 14l317 318q4 4 11.5 9 t16.5 5q8 0 15 -5t12 -9z" />
<glyph unicode="_" horiz-adv-x="903" d="M858 -121q19 0 31.5 -11t12.5 -33v-84q0 -18 -12 -32t-32 -14h-811q-47 0 -47 46v84q0 44 47 44h811z" />
<glyph unicode="`" horiz-adv-x="517" d="M146 1426q-8 17 -10.5 26t-2.5 14q0 12 8.5 15.5t21.5 3.5h80q19 0 30.5 -10t23.5 -32l88 -205q6 -15 7.5 -22t3.5 -14q0 -14 -6.5 -21t-26.5 -7h-73q-34 0 -53 42z" />
<glyph unicode="a" horiz-adv-x="1188" d="M861 144q-23 -33 -50.5 -63t-63 -52.5t-82 -35.5t-106.5 -13q-105 0 -193 39.5t-151.5 108.5t-99 161.5t-35.5 198.5t35 199t98.5 162t151.5 109t194 40q61 0 107.5 -14t82.5 -37t62.5 -53t49.5 -62l7 100q2 25 12 38t36 13h58q21 0 37 -13.5t16 -37.5v-888 q0 -20 -15.5 -32t-37.5 -12h-64q-26 0 -37.5 14t-11.5 37v93zM247 488q0 -71 22 -133t63 -108t98.5 -73t128.5 -27q72 0 128 26t94.5 71t59 107t20.5 134q0 70 -19.5 133t-58 110t-95 75t-129.5 28q-72 0 -130 -27.5t-98.5 -74t-62 -109t-21.5 -132.5z" />
<glyph unicode="b" horiz-adv-x="1186" d="M162 1436q0 23 16.5 36t42.5 13h58q28 0 42 -13t14 -36v-595q48 70 124 113.5t178 43.5q96 0 180 -40t146 -109t97.5 -162t35.5 -199t-35.5 -198.5t-97.5 -161.5t-146 -108.5t-180 -39.5q-97 0 -175 42.5t-127 110.5v-82q0 -25 -15.5 -38t-41.5 -13h-60q-27 0 -41.5 13.5 t-14.5 37.5v1385zM318 487q0 -70 24.5 -132.5t66.5 -109t97 -74t115 -27.5t114.5 27.5t96 74t66.5 109t25 132.5t-25 132.5t-66.5 109.5t-96 74t-114.5 27t-115 -27t-97 -74t-66.5 -109.5t-24.5 -132.5z" />
<glyph unicode="c" horiz-adv-x="1023" d="M602 137q60 0 121 24t109 65q8 6 17.5 10.5t18.5 4.5q14 0 22 -12l55 -81q2 -5 4.5 -10t2.5 -7q0 -16 -11 -26.5t-21 -16.5q-66 -47 -146.5 -79.5t-171.5 -32.5q-107 0 -200.5 40t-163 109.5t-109.5 163t-40 200.5q0 106 40 200t109.5 163.5t163 110t200.5 40.5 q80 0 154.5 -24.5t154.5 -79.5h-2q16 -12 24.5 -20.5t8.5 -19.5q0 -5 -2 -12t-4 -10l-55 -86l1 1q-10 -12 -26 -12q-5 0 -13.5 4.5t-18.5 11.5q-47 37 -102.5 61.5t-119.5 24.5q-72 0 -136 -28t-112 -76.5t-76 -112.5t-28 -136t28 -136t76 -112t112 -76t136 -28z" />
<glyph unicode="d" horiz-adv-x="1188" d="M1031 51q0 -24 -14.5 -37.5t-41.5 -13.5h-60q-26 0 -41.5 13t-15.5 38v82q-24 -34 -53 -62t-65.5 -48.5t-81.5 -31.5t-102 -11q-105 0 -189.5 39.5t-144.5 108.5t-92.5 161.5t-32.5 198.5t32.5 199t92.5 162t144.5 109t189.5 40q57 0 102 -11.5t81.5 -32t65.5 -49.5 t53 -64v595q0 23 14 36t42 13h58q26 0 42.5 -13t16.5 -36v-1385zM875 487q0 70 -22 132.5t-61.5 109.5t-95.5 74t-124 27q-75 0 -131.5 -27t-94.5 -74t-57 -109.5t-19 -132.5t19 -132.5t57 -109t94.5 -74t131.5 -27.5q67 0 123 27.5t96 74t62 109t22 132.5z" />
<glyph unicode="e" horiz-adv-x="1064" d="M561 144q26 0 55.5 4t58 13t54.5 22.5t45 33.5q11 9 27 16.5t28 7.5q11 0 20.5 -4t14.5 -12l41 -69q9 -15 9 -23q0 -15 -11 -28t-23 -21q-29 -23 -67.5 -43t-81 -34t-86.5 -22t-84 -8q-98 0 -184 40t-150 109.5t-101 162.5t-37 200q0 106 37 199.5t101 163t150 110 t184 40.5q91 0 172.5 -37t143 -101t97 -150t35.5 -184v-23q0 -30 -10.5 -48t-28 -28t-41 -13t-50.5 -3h-614q9 -60 35.5 -110t66 -85.5t89 -55.5t105.5 -20zM839 562q-10 56 -36.5 105.5t-64.5 86.5t-84.5 58.5t-97.5 21.5t-97 -21.5t-83 -58.5t-64 -86.5t-40 -105.5h567z " />
<glyph unicode="f" horiz-adv-x="649" d="M537 1493q22 0 35 -14t13 -38v-69q0 -20 -12 -34.5t-32 -15.5q-71 -3 -110 -40.5t-39 -128.5v-170h145q22 0 35 -12t13 -39v-52q0 -26 -13 -41t-35 -15h-145v-773q0 -25 -16.5 -38t-35.5 -13h-75q-24 0 -36 14t-12 37v773h-104q-22 0 -36 15t-14 41v52q0 27 14 39t36 12 h104v171q0 70 18 131t56.5 106.5t99 72.5t146.5 29z" />
<glyph unicode="g" horiz-adv-x="1192" d="M844 149q-23 -31 -55.5 -61.5t-71 -55t-82 -39.5t-89.5 -15q-102 0 -187.5 40t-147.5 109.5t-96.5 162.5t-34.5 199t36 199.5t99 162.5t148 109t183 40q51 0 95.5 -12t82 -33t67.5 -49t53 -59v81q0 23 12.5 37t41.5 14h65q23 0 40 -13.5t17 -37.5v-833q0 -127 -37 -221.5 t-102 -157.5t-153.5 -94t-191.5 -31q-85 0 -151 19t-125 56h1q-14 8 -19 13t-5 14q0 5 4 12.5t5 9.5l56 95q5 6 10.5 9.5t18.5 3.5q5 0 11 -2.5t11 -5.5q38 -26 86 -42.5t96 -16.5q55 0 110 18.5t99.5 54t72 86t27.5 114.5v120zM250 488q0 -71 23.5 -133t64 -108.5 t94.5 -73.5t115 -27q58 0 111.5 26.5t95 72t66 107t24.5 130.5q0 70 -23.5 133.5t-63.5 111.5t-94.5 76t-115.5 28t-115 -27.5t-94.5 -74t-64 -109t-23.5 -132.5z" />
<glyph unicode="h" horiz-adv-x="1164" d="M162 1440q0 20 11.5 32.5t33.5 12.5h82q19 0 32.5 -12.5t13.5 -32.5v-574q22 26 48.5 50.5t58 43t69 29.5t81.5 11q95 0 171 -35.5t129 -97t81.5 -143.5t28.5 -176v-504q0 -22 -13 -33t-33 -11h-82q-22 0 -34 9.5t-12 34.5v543q0 51 -19.5 95.5t-53 77t-78 51t-93.5 18.5 q-48 0 -92 -18.5t-78 -50.5t-55 -75.5t-24 -92.5v-548q0 -44 -44 -44h-84q-45 0 -45 44v1396z" />
<glyph unicode="i" d="M335 44q0 -22 -12 -33t-33 -11h-83q-45 0 -45 44v895q0 20 11.5 32t33.5 12h83q20 0 32.5 -12t12.5 -32v-895zM123 1259q0 26 10 49t27 40t39.5 27t48.5 10q27 0 50 -10t40 -27t26.5 -40t9.5 -49t-9.5 -48.5t-26.5 -39.5t-40 -27t-50 -10q-26 0 -48.5 10t-39.5 27 t-27 39.5t-10 48.5z" />
<glyph unicode="j" d="M18 -399q-22 0 -35.5 13t-13.5 36v65q0 24 13.5 37.5t36.5 14.5h6q29 2 54 16.5t43 36.5t28.5 50t10.5 57v1005q0 26 15 38.5t38 12.5h68q26 0 39 -14t13 -37v-1005q0 -67 -25.5 -125.5t-68.5 -102.5t-100.5 -70.5t-121.5 -27.5zM123 1259q0 26 10 49t27 40t39.5 27 t48.5 10q27 0 50 -10t40 -27t26.5 -40t9.5 -49t-9.5 -48.5t-26.5 -39.5t-40 -27t-50 -10q-26 0 -48.5 10t-39.5 27t-27 39.5t-10 48.5z" />
<glyph unicode="k" horiz-adv-x="1146" d="M162 1441q0 18 11.5 31t32.5 13h83q18 0 32 -12t14 -32v-849l346 363q11 11 22 19t31 8h140q16 0 23.5 -6.5t7.5 -15.5q0 -12 -3.5 -17t-13.5 -16l-306 -313q86 -105 152 -185t114.5 -139t82 -99.5t54.5 -66.5q50 -62 57 -69q8 -8 13 -17.5t5 -14.5q0 -9 -8.5 -16 t-24.5 -7h-139q-14 0 -29 8t-27 24l-369 460l-128 -132v-316q0 -44 -47 -44h-82q-44 0 -44 44v1397z" />
<glyph unicode="l" d="M335 44q0 -22 -12 -33t-33 -11h-83q-45 0 -45 44v1397q0 20 11.5 32t33.5 12h83q20 0 32.5 -12t12.5 -32v-1397z" />
<glyph unicode="m" horiz-adv-x="1761" d="M335 846q20 28 44 55t54 48t67 34t84 13q59 0 110 -16.5t93 -44.5t74.5 -65t53.5 -78q23 44 52.5 82t67.5 66t84 44t102 16q85 0 154.5 -33.5t119 -90.5t76.5 -132t27 -158v-535q0 -25 -14 -38t-36 -13h-71q-53 0 -53 49v540q0 50 -14.5 93.5t-41.5 76t-66 51.5t-88 19 q-48 0 -92.5 -18.5t-79 -51t-55 -77t-20.5 -96.5v-535q0 -51 -49 -51h-80q-25 0 -34.5 12t-9.5 37v540q0 50 -17 93.5t-47.5 76t-72 51.5t-90.5 19q-48 0 -90.5 -18.5t-74 -51t-49.5 -76t-18 -92.5v-547q0 -22 -12 -33t-32 -11h-83q-46 0 -46 44v891q0 20 12.5 32t32.5 12 h75q22 0 33 -12t13 -32z" />
<glyph unicode="n" horiz-adv-x="1164" d="M335 845q23 28 53.5 56t67.5 50t78.5 35.5t86.5 13.5q86 0 158.5 -32.5t125 -89t82 -132.5t29.5 -163v-532q0 -25 -14 -38t-34 -13h-82q-26 0 -35 12t-9 37v534q0 50 -19.5 95t-53.5 78.5t-78.5 53t-94.5 19.5q-48 0 -93.5 -18.5t-81.5 -50.5t-59.5 -75.5t-26.5 -92.5 v-548q0 -22 -12 -33t-32 -11h-82q-47 0 -47 44v891q0 20 13 32t32 12h75q20 0 32 -12t14 -32z" />
<glyph unicode="o" horiz-adv-x="1220" d="M88 489q0 106 40 200t109.5 163.5t162.5 110t200 40.5q106 0 200 -40.5t163.5 -110t110 -163.5t40.5 -200q0 -107 -40.5 -200.5t-110 -163t-163.5 -109.5t-200 -40q-107 0 -200 40t-162.5 109.5t-109.5 163t-40 200.5zM250 489q0 -72 27.5 -136t75.5 -112t111.5 -76 t135.5 -28t136 28t112.5 76t76.5 112t28 136t-28 136t-76.5 112.5t-112.5 76.5t-136 28t-135.5 -28t-111.5 -76.5t-75.5 -112.5t-27.5 -136z" />
<glyph unicode="p" horiz-adv-x="1182" d="M162 932q0 24 14.5 37.5t40.5 13.5h52q26 0 41 -14t17 -37l7 -88q24 33 55.5 62t69.5 50.5t82 33.5t92 12q97 0 180.5 -39.5t145.5 -108.5t97.5 -162t35.5 -199q0 -107 -35.5 -199.5t-97.5 -161.5t-145.5 -108.5t-180.5 -39.5q-103 0 -176.5 41.5t-120.5 110.5v-471 q0 -23 -14.5 -36.5t-42.5 -13.5h-59q-26 0 -42 13.5t-16 36.5v1267zM334 489q0 -71 22.5 -133t62 -108.5t92.5 -73t114 -26.5t113.5 26.5t91.5 73t61 108.5t22 133q0 70 -22 132.5t-61 109t-91.5 74t-113.5 27.5t-114 -27t-92 -73.5t-61.5 -108t-23.5 -130.5v-4z" />
<glyph unicode="q" horiz-adv-x="1171" d="M1019 -335q0 -23 -16 -36.5t-42 -13.5h-59q-28 0 -42.5 13.5t-14.5 36.5v471q-47 -69 -120.5 -110.5t-176.5 -41.5q-97 0 -180.5 39.5t-145.5 108.5t-97.5 161.5t-35.5 199.5q0 106 35.5 199t97.5 162t145.5 108.5t180.5 39.5q48 0 92 -12t82 -33.5t69.5 -50.5t55.5 -62 l7 88q2 23 17 37t41 14h52q26 0 40.5 -13.5t14.5 -37.5v-1267zM847 493q-1 69 -23.5 130.5t-61.5 108t-92 73.5t-114 27t-113.5 -27.5t-91.5 -74t-61 -109t-22 -132.5q0 -71 22 -133t61 -108.5t91.5 -73t113.5 -26.5t114 26.5t92.5 73t62 108.5t22.5 133v4z" />
<glyph unicode="r" horiz-adv-x="803" d="M335 865q12 23 31.5 46.5t47 43t64 32t83.5 12.5q45 0 85 -15.5t66 -35.5q27 -20 27 -35q0 -4 -1.5 -8.5t-3.5 -6.5l-50 -93q-7 -13 -14.5 -16.5t-14.5 -2.5t-12.5 4t-7.5 4q-20 13 -46 22t-52 11q-45 0 -82.5 -24t-64 -61.5t-41 -84.5t-14.5 -92v-521q0 -44 -44 -44h-83 q-46 0 -46 44v891q0 20 13 32t31 12h73q21 0 33.5 -13t12.5 -31z" />
<glyph unicode="s" horiz-adv-x="850" d="M78 201q-4 12 -2.5 21.5t12.5 17.5l101 41q19 7 30 -4.5t16 -26.5q11 -31 34 -52t50 -33.5t53.5 -18t46.5 -5.5q33 0 66.5 9t60.5 25.5t44 41t17 54.5q0 33 -17 57t-45.5 42t-65.5 31.5t-78 24.5q-66 18 -120 45t-92.5 64.5t-59.5 84.5t-21 105q0 61 23.5 113t65.5 89 t101 58t131 21q55 0 100 -13.5t81 -38.5t65.5 -60.5t54.5 -80.5q5 -9 6 -13.5t1 -9.5q0 -8 -6 -13.5t-15 -11.5q-10 -6 -21 -14.5t-22 -15.5t-21 -12t-17 -5q-9 0 -14.5 2t-9.5 6.5t-8 11t-10 15.5q-29 39 -69 68t-94 29q-36 0 -65.5 -10.5t-50.5 -28t-33 -40.5t-12 -47 q0 -30 15 -52.5t38 -38.5t52.5 -27t58.5 -18q2 0 4 -1t4 -1q157 -36 245 -116.5t88 -198.5q0 -67 -26.5 -120.5t-74 -91t-112.5 -57.5t-142 -20q-54 0 -108.5 14t-101 41.5t-81.5 68.5t-50 95z" />
<glyph unicode="t" horiz-adv-x="656" d="M503 -15q-8 -1 -16 -1.5t-16 -0.5q-48 0 -93 7t-79.5 32t-55 72.5t-20.5 127.5v601h-121q-24 0 -36.5 8.5t-12.5 34.5v75q0 26 12.5 33.5t36.5 7.5h121v283q0 17 8 25.5t26 13.5l101 15q25 0 32 -16.5t7 -36.5v-284h147q23 0 34 -10t11 -36v-65q0 -48 -45 -48h-147v-537 q0 -51 5 -78.5t17.5 -41t32.5 -16.5t50 -4q23 0 37 -13t14 -37v-63q0 -23 -13.5 -34.5t-36.5 -13.5z" />
<glyph unicode="u" horiz-adv-x="1136" d="M818 44q-5 23 -9 45t-8 45q-23 -29 -50.5 -57t-61 -50t-73 -35t-85.5 -13q-86 0 -161 32.5t-130.5 89t-87.5 132t-32 162.5v533q0 26 14 39t34 13h81q27 0 36 -12t9 -38v-537q0 -50 21 -94t56.5 -77t81 -52t95.5 -19q48 0 93 18.5t79.5 51t56 76t24.5 93.5v545 q0 22 12 33.5t33 11.5h82q46 0 46 -45v-891q0 -20 -12 -32t-32 -12h-66q-23 0 -34.5 12.5t-11.5 31.5z" />
<glyph unicode="v" horiz-adv-x="983" d="M496 270l275 678q14 35 53 35h84q42 0 42 -33q0 -5 -2.5 -16.5t-4.5 -13.5l-365 -881q-10 -24 -23 -31.5t-31 -7.5h-58q-26 0 -35 9t-17 29l-361 870q-2 5 -6.5 16.5t-4.5 26.5q0 32 43 32h85q20 0 32.5 -9.5t20.5 -26.5z" />
<glyph unicode="w" horiz-adv-x="1547" d="M236 943q31 -81 66 -169.5l70 -177t68.5 -172t62.5 -153.5q38 97 84 210.5t94 234.5l89 228q7 17 20 28t34 11h85q21 0 33 -9t12 -26q0 -5 -2 -13.5t-3 -10.5q-20 -49 -40.5 -98t-41.5 -98q28 -73 57 -146.5t57 -140.5l70 -171q29 70 62 154t68 172.5t70 177.5t67 170 q6 16 20.5 27.5t34.5 11.5h84q22 0 34.5 -9t12.5 -26q0 -5 -2.5 -13.5t-3.5 -10.5l-366 -885q0 1 -2.5 -5t-8.5 -13.5t-16 -14t-25 -6.5h-58q-25 0 -36 14.5t-15 23.5l-194 469l-193 -468q-1 -2 -3 -7.5t-7 -12.5t-13.5 -12t-22.5 -5l-3 -2h-61q-13 0 -22 4t-15 10 t-9.5 12.5t-5.5 11.5l-365 886q0 -1 -2 7t-2 19q0 33 43 33h84q20 0 34 -11.5t22 -28.5z" />
<glyph unicode="x" horiz-adv-x="1012" d="M922 44q6 -10 10 -16.5t4 -11.5q0 -8 -9 -12t-23 -4h-119q-19 0 -32.5 9t-27.5 26l-225 350l-223 -347q-14 -20 -28 -29t-34 -9h-117q-15 0 -24 4.5t-9 12.5q0 5 4.5 14t11.5 19q80 117 159.5 232.5t159.5 233.5q-38 55 -65 95.5t-49 72t-39.5 58t-36.5 54t-41 59 t-51 74.5q-7 10 -11.5 19t-4.5 14q0 11 11.5 15t30.5 4h102q25 0 37.5 -9t30.5 -34l186 -290l97 152q22 35 44.5 70.5t45.5 70.5q17 22 29.5 31t35.5 9h102q20 0 32 -4t12 -15q0 -4 -4.5 -13.5t-10.5 -17.5q-30 -44 -52.5 -76.5t-41.5 -60.5t-37 -54t-39.5 -57.5t-48 -71.5 t-63.5 -95z" />
<glyph unicode="y" horiz-adv-x="1048" d="M976 890q-130 -310 -256 -621.5t-256 -619.5q-15 -35 -53 -35h-80q-46 0 -46 34q0 9 4 21l144 351l-368 890q-6 14 -7.5 24.5t-1.5 14.5q0 32 43 32h85q19 0 32.5 -9.5t19.5 -26.5q33 -87 69 -178.5t72.5 -183.5t73 -183t72.5 -178l286 726q8 18 21 25.5t33 7.5h82 q25 0 36 -11t11 -29q0 -5 -2 -14.5t-14 -36.5z" />
<glyph unicode="z" horiz-adv-x="1034" d="M153 0q-22 0 -37.5 15.5t-15.5 36.5v61q0 8 2 16.5t7 15.5q33 38 80.5 92t102 115.5t112.5 127.5t112.5 127.5t102 115.5t80.5 92h-537q-24 0 -37.5 13t-13.5 42v59q0 25 13.5 38.5t37.5 13.5h705q23 0 38.5 -11t15.5 -34v-71q0 -28 -5.5 -40.5t-22.5 -27.5l-556 -634 h537q22 0 36.5 -12t14.5 -38v-61q0 -19 -14.5 -35.5t-36.5 -16.5h-721z" />
<glyph unicode="{" horiz-adv-x="600" d="M609 1715q49 -3 49 -43v-84q0 -20 -12 -33t-32 -13q-32 0 -63.5 -15.5t-57 -41.5t-41 -60t-15.5 -72v-470q0 -34 -17.5 -71.5t-55.5 -69.5q73 -57 73 -140v-476q0 -14 7 -28q3 -42 20.5 -69t41 -44t50.5 -27.5t49.5 -19.5t37.5 -20t15 -29v-84q0 -41 -44 -44 q-93 11 -159 47t-108.5 93t-62.5 133.5t-20 168.5v334q0 20 -7 41t-19 38t-29.5 28t-38.5 11h-38q-44 0 -44 45v85q0 21 12 32.5t32 11.5h34q27 0 45.5 10t30.5 27t17 39t5 46v320q0 87 19.5 162.5t59 133.5t99.5 95.5t141 48.5z" />
<glyph unicode="|" horiz-adv-x="502" d="M162 1485q0 18 11 31t33 13h82q19 0 33 -12t14 -32v-1868q0 -45 -47 -45h-82q-44 0 -44 45v1868z" />
<glyph unicode="}" horiz-adv-x="600" d="M-15 1716q88 -11 153.5 -46.5t109.5 -92.5t66 -134.5t22 -171.5v-320q0 -24 5 -46t16.5 -39t30 -27t45.5 -10h34q44 0 44 -44v-85q0 -45 -44 -45h-38q-21 0 -38 -11t-29.5 -28t-19 -38t-6.5 -41v-334q0 -95 -21 -172t-64.5 -133.5t-109.5 -91.5t-156 -45q-44 3 -44 44v84 q0 20 15 31t37 18q28 8 58 21t55 34.5t40.5 53.5t15.5 79v476q0 83 73 140q-38 32 -55.5 69.5t-17.5 71.5v470q0 38 -15.5 72t-40 59.5t-56 40.5t-62.5 17q-21 0 -34 12t-13 34v84q0 41 44 44z" />
<glyph unicode="~" horiz-adv-x="1318" d="M271 418q-5 -5 -12.5 -8t-12.5 -3q-8 0 -15 3.5t-15 8.5q-17 13 -38 31t-34 28q-8 8 -10.5 13.5t-2.5 16.5q0 4 3 10.5t6.5 13t7 11t4.5 5.5q67 90 145 128t172 38q50 0 100 -19t97 -50l88 -57q52 -33 110 -33q33 0 63.5 11t53.5 33q15 14 32.5 37.5t32.5 38.5 q5 5 12.5 8t12.5 3q8 0 15 -3.5t15 -8.5q17 -13 38 -31t34 -28q8 -8 10.5 -13.5t2.5 -16.5q0 -4 -3 -10.5t-7 -13t-7 -11t-4 -5.5q-67 -90 -145 -128t-172 -38q-50 0 -100 19t-97 49l-88 58q-53 33 -110 33q-33 0 -63.5 -11t-53.5 -33q-15 -14 -32.5 -37.5t-32.5 -38.5z" />
<glyph unicode="&#xa1;" d="M162.021 512.027q0 21.999 11.999 32.998t32.998 10.999h82.9951q44.9971 0 44.9971 -43.9971v-990.939q0 -19.999 -11.499 -31.998t-33.498 -11.999h-82.9951q-19.999 0 -32.498 11.999t-12.499 31.998v990.939zM377.008 868.006q0 -25.998 -10 -48.9971 q-9.99902 -22.999 -26.998 -39.998t-39.498 -26.998q-22.498 -9.99902 -48.4971 -9.99902q-26.998 0 -49.9971 9.99902q-22.998 9.99902 -39.9971 26.998t-26.498 39.998q-9.5 22.999 -9.5 48.9971t9.5 48.4971q9.49902 22.498 26.498 39.4971t39.9971 26.999 q22.999 9.99902 49.9971 9.99902q25.999 0 48.4971 -9.99902q22.499 -10 39.498 -26.999t26.998 -39.4971q10 -22.499 10 -48.4971z" />
<glyph unicode="&#xa2;" horiz-adv-x="976" d="M551 144q26 0 53.5 4.5t54 14.5t51 24t43.5 34q11 9 27 16.5t28 7.5q11 0 20.5 -4t14.5 -12l41 -69q9 -15 9 -23q0 -15 -11 -28t-23 -21q-45 -36 -105.5 -64t-124.5 -39v-140q0 -44 -44 -44h-83q-46 0 -46 44v143q-81 18 -150 63.5t-119.5 111.5t-79 149.5t-28.5 176.5 t28.5 176.5t79 150t119.5 112t150 63.5v133q0 20 13 32t31 12h82q22 0 34.5 -13t12.5 -31v-128q57 -9 111.5 -32.5t106.5 -64.5q15 -14 25 -25.5t10 -22.5q1 -5 -4 -16t-10 -20l-35 -62q-12 -18 -37 -18q-10 0 -19.5 4t-17.5 9q-46 40 -97.5 63t-110.5 23 q-62 0 -116.5 -27.5t-95 -74.5t-64.5 -109.5t-24 -133.5t24 -133.5t64.5 -109.5t95 -74.5t116.5 -27.5z" />
<glyph unicode="&#xa3;" horiz-adv-x="1201" d="M595 771q32 0 32 -34v-103q0 -15 -8 -24.5t-24 -9.5h-260v-427h741q14 0 23 -8.5t9 -24.5v-105q0 -14 -8.5 -24.5t-23.5 -10.5h-881q-32 0 -32 30v570h-40q-32 0 -32 34v103q0 14 8.5 24t23.5 10h40v219q0 117 45 213t122.5 164.5t181.5 106t222 37.5q99 0 188.5 -31 t162.5 -89h-1q13 -10 19 -17t7 -12t-1 -9.5t-6 -10.5l-5 -9l1 1l-49 -86v1q-15 -23 -37 -10h1l-43 32q-48 32 -110 55t-127 23q-83 0 -156 -25t-127 -72t-85 -114t-31 -151v-216h260z" />
<glyph unicode="&#xa4;" horiz-adv-x="1078" d="M370 552q0 -35 13 -66t36 -54t53.5 -36t66.5 -13t66.5 13t53.5 36t36 54t13 66q0 36 -13 67t-36 54t-53.5 36t-66.5 13t-66.5 -13t-53.5 -36t-36 -54t-13 -67zM266 955q15 15 29 15q18 0 33 -15l105 -106q32 8 58 13t48 5q20 0 46 -5t57 -13l108 106q13 13 29 13 q20 0 35 -15l128 -128q15 -15 15 -31t-15 -31l-106 -107q8 -32 13 -58t5 -46q0 -21 -5 -47.5t-13 -57.5l106 -106q15 -15 15 -31q0 -19 -15 -31l-128 -127q-13 -13 -35 -13q-18 0 -29 11l-108 105q-63 -17 -103 -17q-41 0 -106 17l-105 -105q-16 -16 -31 -16q-18 0 -31 16 l-127 127q-14 11 -14 35q0 8 3 16t8 13l106 106q-8 31 -13 57.5t-5 47.5q0 20 5 46t13 58l-106 107q-13 15 -13 29q0 19 16 35z" />
<glyph unicode="&#xa5;" horiz-adv-x="1300" d="M999 463q13 0 22.5 -8.5t9.5 -23.5v-70q0 -14 -8.5 -24.5t-23.5 -10.5h-272v-279q0 -47 -45 -47h-86q-42 0 -42 47v279h-235q-33 0 -33 35v70q0 32 33 32h235v128h-235q-33 0 -33 36v67q0 33 33 33h187l-436 707q-13 19 -13 30q0 21 30 21h130q10 -1 16 -2t11 -5.5 t10.5 -12.5t14.5 -22l371 -611l377 619q12 20 21.5 26t24.5 8h137q24 0 24 -18q0 -4 -2.5 -11.5t-8.5 -15.5q-112 -180 -220.5 -356.5t-220.5 -356.5h227q13 0 22.5 -8t9.5 -25v-67q0 -14 -8.5 -25t-23.5 -11h-272v-128h272z" />
<glyph unicode="&#xa6;" d="M162 1476q0 18 11 31t33 13h81q18 0 33 -12t15 -32v-746q0 -44 -48 -44h-81q-44 0 -44 44v746zM162 372q0 18 11 31t33 13h81q18 0 33 -12t15 -32v-746q0 -44 -48 -44h-81q-44 0 -44 44v746z" />
<glyph unicode="&#xa7;" horiz-adv-x="1175" d="M856 1263q-31 34 -69.5 58.5t-77.5 41t-74.5 24.5t-60.5 8q-44 0 -90 -12.5t-84.5 -38t-63 -63t-24.5 -86.5q0 -42 24.5 -69.5t66 -47t97 -34.5t118.5 -34q87 -26 149 -55.5t101.5 -65.5t58.5 -79t19 -95q0 -83 -40.5 -145.5t-115.5 -100.5q34 -18 62.5 -39.5t49.5 -49 t32.5 -61.5t11.5 -77q0 -76 -31.5 -139t-86.5 -108.5t-129.5 -70.5t-159.5 -25q-170 0 -301 101q-23 18 -41.5 36t-31.5 34t-19.5 27.5t-6.5 16.5q0 7 5.5 14.5t13.5 12.5l58 39q11 7 19 7q7 0 10.5 -2.5t14.5 -10.5l2 -7q30 -34 68.5 -58.5t77.5 -41t74.5 -24.5t60.5 -8 q45 0 91.5 12.5t85 38t63 62.5t24.5 87q0 41 -24 68.5t-65 47.5t-97 36t-119 35q-86 27 -148 56t-102.5 64t-60 77.5t-19.5 95.5q0 81 39.5 142.5t111.5 99.5q-68 35 -109.5 90.5t-41.5 138.5q0 76 31.5 139.5t86.5 108.5t129.5 70t159.5 25q86 0 159.5 -24t141.5 -75 q23 -18 41 -36t30.5 -34t19 -27.5t6.5 -16.5q0 -14 -16 -27l-59 -39q-7 -4 -11.5 -6.5t-8.5 -2.5q-7 0 -11.5 3.5t-12.5 11.5zM539 878q-58 0 -100.5 -14t-70.5 -36.5t-42 -51t-14 -57.5q0 -12 5 -36.5t29.5 -50.5t75.5 -48.5t143 -31.5h14q58 0 100 14t69 36.5t40 51 t13 57.5q0 20 -4 36.5t-9 31.5q-14 16 -39 34t-57 32t-71 23.5t-82 9.5z" />
<glyph unicode="&#xa8;" horiz-adv-x="884" d="M138 1267q0 26 10 49t27 40t39.5 27t48.5 10q27 0 50 -10t40 -27t26.5 -40t9.5 -49t-9.5 -48.5t-26.5 -39.5t-40 -27t-50 -10q-26 0 -48.5 10t-39.5 27t-27 39.5t-10 48.5zM510 1269q0 26 10 49t27 40t39.5 27t48.5 10q27 0 50 -10t40 -27t26.5 -40t9.5 -49t-9.5 -48.5 t-26.5 -39.5t-40 -27t-50 -10q-26 0 -48.5 10t-39.5 27t-27 39.5t-10 48.5z" />
<glyph unicode="&#xa9;" horiz-adv-x="1756" d="M880 1505q104 0 201 -27t181.5 -77t154 -119.5t119.5 -155t77.5 -183.5t27.5 -204q0 -104 -27 -201t-77 -181.5t-119.5 -154t-154.5 -119.5t-183 -77.5t-204 -27.5q-104 0 -201 27t-181.5 77t-154.5 119.5t-120 155t-77.5 183.5t-27.5 204q0 104 27 200.5t77 181 t119.5 154.5t155 120t183.5 77.5t204 27.5zM572 1269q-112 -66 -186.5 -164t-106.5 -211t-19 -234t77 -233q41 -70 98.5 -126t127 -96t147.5 -61.5t158.5 -22t161 21t154.5 68.5q75 42 133.5 101t99 128t62 146t23 157t-18.5 159t-62 152q-64 111 -162 182.5t-212.5 100.5 t-237.5 13t-237 -81zM1142 1122q23 -17 13 -40l-59 -99q-17 -23 -40 -6q-76 55 -172 55q-61 0 -114 -23t-92.5 -62.5t-62.5 -93t-23 -114.5q0 -62 23 -115t62.5 -92t92.5 -61t114 -22q50 0 93 13t81 42q24 16 40 -7l59 -99q10 -20 -13 -37q-115 -79 -260 -79q-95 0 -178 36 t-145 98t-98 145t-36 178t37 178.5t100 146t147.5 99t179.5 36.5q72 0 132.5 -19.5t118.5 -57.5z" />
<glyph unicode="&#xaa;" horiz-adv-x="1023" d="M854 795q0 -8 -2 -12q-8 -4 -14 -4h-119q-20 0 -20 16v94q-41 -57 -92 -91t-121 -34q-76 0 -143 28.5t-116.5 78t-78 116.5t-28.5 143t28.5 143t78 116.5t116.5 78t143 28.5q77 0 130 -38t86 -104l27 111q0 20 19 20h90q7 0 15 -4q1 -2 1 -13v-673zM852 783q2 0 3 1 l-4 -4q1 1 1 3zM266 1130q0 -46 17 -85.5t46 -69t69 -46t86 -16.5t85.5 16.5t69 46t46 69t16.5 85.5v9q-2 44 -20 82t-47 66.5t-67.5 45t-82.5 16.5q-46 0 -86 -17t-69 -46t-46 -69.5t-17 -86.5z" />
<glyph unicode="&#xab;" horiz-adv-x="1379" d="M143 528q-5 5 -8 14.5t-3 16.5q0 13 13 26l521 519q5 5 15.5 8t17.5 3q18 0 31 -13l53 -55q13 -13 13 -28q0 -7 -2 -17.5t-9 -15.5l-429 -432l429 -429q5 -5 8 -15.5t3 -17.5q0 -18 -13 -30l-57 -58q-5 -5 -12 -8t-15 -3q-18 0 -34.5 15t-31.5 29l-245 245t-245 246z M599 528q-5 5 -8 14.5t-3 16.5q0 13 13 26l521 519q5 5 15.5 8t17.5 3q18 0 31 -13l53 -55q13 -13 13 -28q0 -7 -2 -17.5t-9 -15.5l-429 -432l429 -429q5 -5 8 -15.5t3 -17.5q0 -18 -13 -30l-57 -58q-5 -5 -12 -8t-15 -3q-18 0 -34.5 15t-31.5 29l-245 245t-245 246z" />
<glyph unicode="&#xac;" horiz-adv-x="1162" d="M968 373q0 -13 -9 -22.5t-24 -9.5h-89q-15 0 -26.5 9t-11.5 23v265h-631q-35 0 -35 34v92q0 32 35 32h758q15 0 24 -8t9 -24v-391z" />
<glyph unicode="&#xad;" horiz-adv-x="1057" d="M855 639q18 0 31 -11.5t13 -32.5v-84q0 -18 -12 -32t-32 -14h-637q-47 0 -47 46v84q0 44 47 44h637z" />
<glyph unicode="&#xae;" horiz-adv-x="1756" d="M880 1505q104 0 201 -27t181.5 -77t154 -119.5t119.5 -155t77.5 -183.5t27.5 -204q0 -104 -27 -201t-77 -181.5t-119.5 -154t-154.5 -119.5t-183 -77.5t-204 -27.5q-104 0 -201 27t-181.5 77t-154.5 119.5t-120 155t-77.5 183.5t-27.5 204q0 104 27 200.5t77 181 t119.5 154.5t155 120t183.5 77.5t204 27.5zM572 1269q-112 -66 -186.5 -164t-106.5 -211t-19 -234t77 -233q41 -70 98.5 -126t127 -96t147.5 -61.5t158.5 -22t161 21t154.5 68.5q75 42 133.5 101t99 128t62 146t23 157t-18.5 159t-62 152q-64 111 -162 182.5t-212.5 100.5 t-237.5 13t-237 -81zM559 1135q0 29 26 29h348q56 -3 105 -25t85 -59t57 -86t21 -105q0 -78 -36.5 -140t-97.5 -100l143 -301q0 -2 1 -3.5t1 -3.5q0 -20 -26 -20h-123q-15 0 -22 18l-126 275h-198v-269q0 -24 -26 -24h-106q-11 0 -18.5 5.5t-7.5 18.5v790zM1045 891 q0 22 -8.5 43.5t-23.5 38t-36.5 27t-48.5 10.5h-211v-240h211q26 0 47.5 9.5t37 25.5t24 38t8.5 48z" />
<glyph unicode="&#xaf;" horiz-adv-x="975" d="M100 1312q0 35 36 35h701q36 0 36 -35v-77q0 -11 -8.5 -25t-27.5 -14h-701q-36 0 -36 39v77z" />
<glyph unicode="&#xb0;" horiz-adv-x="651" d="M326 1261q46 0 86 -17t70 -47t47 -70t17 -86q0 -47 -17.5 -87.5t-47.5 -70t-70 -46t-85 -16.5t-85 16.5t-70 46t-47.5 70t-17.5 87.5q0 46 17 86t46.5 70t69.5 47t87 17zM326 1164q-27 0 -49.5 -9.5t-39 -26.5t-26 -39.5t-9.5 -47.5q0 -54 35 -89t89 -35q25 0 47.5 9.5 t39.5 26t26.5 39t9.5 49.5q0 25 -9.5 47.5t-26.5 39.5t-39.5 26.5t-47.5 9.5z" />
<glyph unicode="&#xb1;" horiz-adv-x="994" d="M582 317q0 -18 -11.5 -31t-32.5 -13h-82q-19 0 -33.5 12t-14.5 32v234h-232q-45 0 -45 46v84q0 44 45 44h232v233q0 46 48 46h82q44 0 44 -46v-233h235q18 0 31 -11t13 -33v-84q0 -18 -12 -32t-32 -14h-235v-234zM817 174q18 0 31 -11.5t13 -32.5v-84q0 -18 -12 -32 t-32 -14h-641q-45 0 -45 46v84q0 44 45 44h641z" />
<glyph unicode="&#xb2;" horiz-adv-x="836" d="M367 807h304q26 0 26 -26v-92q0 -12 -7.5 -19.5t-18.5 -7.5h-506q-11 0 -20 7.5t-9 19.5v83q0 2 1.5 5t3.5 8l358 368q25 26 32.5 43.5t7.5 42.5q0 23 -10 44t-27 37t-40 25.5t-48 9.5q-26 0 -48 -10t-38.5 -27.5t-25.5 -39.5t-9 -46v-46q0 -24 -25 -24h-101 q-13 0 -18.5 8t-5.5 16v46q0 57 21.5 105t58.5 83t86 54.5t105 19.5t107 -18t90 -50.5t62.5 -79t23.5 -103.5q0 -60 -24 -107.5t-59 -79.5z" />
<glyph unicode="&#xb3;" horiz-adv-x="757" d="M359 1025q-25 0 -25 16v4v103q0 25 25 25t41.5 8t26.5 20t13.5 26.5t3.5 28.5t-2 30t-9.5 29.5t-23 22t-42.5 8.5q-24 0 -38.5 -8t-22.5 -21.5t-10.5 -30.5t-2.5 -36q0 -14 -6 -20.5t-21 -6.5h-94q-25 0 -25 24q0 64 18 108.5t48.5 73t71.5 41.5t87 13q45 0 85.5 -17.5 t71 -47.5t48 -70.5t17.5 -86.5q0 -86 -53 -139q25 -17 45 -37t33.5 -45t20.5 -57t7 -74q0 -56 -20 -104.5t-56 -84.5t-85.5 -56.5t-109.5 -20.5q-56 0 -105 12t-85 44t-57 89t-21 147q0 18 24 24h101q24 0 24 -24q0 -43 9 -70.5t25 -43.5t37.5 -22.5t47.5 -6.5 q58 0 89.5 30.5t31.5 88.5q0 64 -30.5 89t-107.5 25z" />
<glyph unicode="&#xb4;" d="M322 1216q-19 -42 -53 -42h-73q-20 0 -26.5 7t-6.5 21q2 7 3.5 14t7.5 22l88 205q12 22 23.5 32t30.5 10h80q13 0 21.5 -3.5t8.5 -15.5q0 -5 -2.5 -14t-10.5 -26z" />
<glyph unicode="&#xb5;" horiz-adv-x="1245" d="M588 153q48 0 93.5 19t81.5 51t59.5 75.5t26.5 93.5v548q0 22 12 33t32 11h82q47 0 47 -44v-891q0 -20 -13 -32t-32 -12h-75q-20 0 -32 12t-14 32l-7 90q-22 -27 -50.5 -53.5t-63 -47.5t-74 -34.5t-81.5 -13.5q-41 0 -76.5 10t-66 27.5t-56 40.5t-46.5 48v-457 q0 -20 -13.5 -32.5t-32.5 -12.5h-82q-22 0 -33.5 12.5t-11.5 32.5v1279q0 44 45 44h84q44 0 44 -44v-548q3 -49 23.5 -92t54 -75t77 -50.5t90.5 -19.5h8z" />
<glyph unicode="&#xb6;" horiz-adv-x="1397" d="M1251 1483q13 0 22.5 -8.5t9.5 -24.5v-105q0 -14 -9 -24.5t-23 -10.5h-165v-1277q0 -33 -35 -33h-105q-33 0 -33 33v1277h-241v-1277q0 -33 -34 -33h-106q-15 0 -24 8t-9 25v649q-89 0 -167 31.5t-136 86t-92 127t-34 154.5q0 83 31.5 156t86 128t127.5 86.5t155 31.5 h458q2 0 4 0.5t4 0.5q4 1 10 1h105h6.5t8.5 -2h185z" />
<glyph unicode="&#xb7;" horiz-adv-x="455" d="M110 553q0 26 10 49t27 40t39.5 27t48.5 10q27 0 50 -10t40 -27t26.5 -40t9.5 -49t-9.5 -48.5t-26.5 -39.5t-40 -27t-50 -10q-26 0 -48.5 10t-39.5 27t-27 39.5t-10 48.5z" />
<glyph unicode="&#xb8;" horiz-adv-x="557" d="M290 -6q0 -20 8.5 -42t38.5 -42q26 -17 50.5 -33.5t44 -38.5t31.5 -50.5t12 -68.5q-5 -66 -62.5 -117t-178.5 -86q-8 -2 -14 -2q-14 0 -24.5 10t-18 24.5t-11.5 30t-4 27.5q0 21 20 28q69 14 108 41t39 58q0 17 -7 29.5t-19 23t-27.5 20t-32.5 20.5q-20 9 -38 23.5 t-31 33.5t-20.5 41t-7.5 46v34q0 20 8 23.5t23 3.5h86q20 0 23.5 -12.5t3.5 -24.5z" />
<glyph unicode="&#xb9;" horiz-adv-x="469" d="M57 1404q0 21 24 35l88 44q6 4 18 4h99q26 0 26 -24v-768q0 -24 -24 -24h-101q-24 0 -24 22v638l-75 -37q-2 -3 -7 -3q-2 0 -2 -2q-11 0 -16.5 7.5t-5.5 19.5v88z" />
<glyph unicode="&#xba;" horiz-adv-x="1023" d="M118 1137q0 76 28.5 143t78 116.5t116.5 78t143 28.5t143 -28.5t116.5 -78t78 -116.5t28.5 -143t-28.5 -143t-78 -116.5t-116.5 -78t-143 -28.5t-143 28.5t-116.5 78t-78 116.5t-28.5 143zM264 1137q0 -45 17.5 -85t47 -69.5t69 -46.5t84.5 -17q46 0 85.5 17t69 46.5 t46 69.5t16.5 85t-16.5 85t-46 69.5t-69 46.5t-85.5 17q-45 0 -84.5 -17t-69 -46.5t-47 -69.5t-17.5 -85z" />
<glyph unicode="&#xbb;" horiz-adv-x="1382" d="M1251 528q-124 -125 -245.5 -246t-245.5 -245q-14 -14 -30.5 -29t-35.5 -15q-8 0 -14.5 3t-11.5 8l-57 58q-13 12 -13 30q0 7 3 17.5t8 15.5l429 429l-429 432q-7 5 -9 15.5t-2 17.5q0 15 13 28l53 55q12 13 30 13q7 0 17.5 -3t15.5 -8l522 -519q13 -13 13 -26 q0 -7 -3 -16.5t-8 -14.5zM795 528q-124 -125 -245.5 -246t-245.5 -245q-14 -14 -30.5 -29t-35.5 -15q-8 0 -14.5 3t-11.5 8l-57 58q-13 12 -13 30q0 7 3 17.5t8 15.5l429 429l-429 432q-7 5 -9 15.5t-2 17.5q0 15 13 28l53 55q12 13 30 13q7 0 17.5 -3t15.5 -8l522 -519 q13 -13 13 -26q0 -7 -3 -16.5t-8 -14.5z" />
<glyph unicode="&#xbc;" horiz-adv-x="1485" d="M754 121q-17 0 -24 10.5t-7 22.5q0 7 2.5 13t6.5 13l371 634q7 11 11.5 14t10.5 3h104q10 0 16 -9t6 -17v-530h81q12 0 21.5 -5.5t9.5 -18.5v-104q0 -10 -9.5 -18t-21.5 -8h-81v-99q0 -12 -6 -18t-21 -6h-99q-24 0 -24 24v99h-347zM1101 275v270l-156 -270h156zM111 1404 q0 21 24 35l88 44q6 4 18 4h99q26 0 26 -24v-768q0 -24 -24 -24h-101q-24 0 -24 22v638l-75 -37q-2 -3 -7 -3q-2 0 -2 -2q-11 0 -16.5 7.5t-5.5 19.5v88zM960 1441q8 18 23.5 31t40.5 13h48q20 0 35 -8t15 -23q0 -11 -2 -13l-763 -1397q-12 -25 -21.5 -34.5t-31.5 -9.5h-70 q-42 0 -42 26q0 -2 1 2.5t3 15.5z" />
<glyph unicode="&#xbd;" horiz-adv-x="1485" d="M960 1441q8 18 23.5 31t40.5 13h48q20 0 35 -8t15 -23q0 -11 -2 -13l-763 -1397q-12 -25 -21.5 -34.5t-31.5 -9.5h-70q-42 0 -42 26q0 -2 1 2.5t3 15.5zM111 1404q0 21 24 35l88 44q6 4 18 4h99q26 0 26 -24v-768q0 -24 -24 -24h-101q-24 0 -24 22v638l-75 -37 q-2 -3 -7 -3q-2 0 -2 -2q-11 0 -16.5 7.5t-5.5 19.5v88zM1069 144h304q26 0 26 -26v-92q0 -12 -7.5 -19.5t-18.5 -7.5h-506q-11 0 -20 7.5t-9 19.5v83q0 2 1.5 5t3.5 8l358 368q25 26 32.5 43.5t7.5 42.5q0 23 -10 44t-27 37t-40 25.5t-48 9.5q-26 0 -48 -10t-38.5 -27.5 t-25.5 -39.5t-9 -46v-46q0 -24 -25 -24h-101q-13 0 -18.5 8t-5.5 16v46q0 57 21.5 105t58.5 83t86 54.5t105 19.5t107 -18t90 -50.5t62.5 -79t23.5 -103.5q0 -60 -24 -107.5t-59 -79.5z" />
<glyph unicode="&#xbe;" horiz-adv-x="1533" d="M1102 1441q8 18 23.5 31t40.5 13h48q20 0 35 -8t15 -23q0 -11 -2 -13l-763 -1397q-12 -25 -21.5 -34.5t-31.5 -9.5h-70q-42 0 -42 26q0 -2 1 2.5t3 15.5zM350 1047q-25 0 -25 16v4v103q0 25 25 25t41.5 8t26.5 20t13.5 26.5t3.5 28.5t-2 30t-9.5 29.5t-23 22t-42.5 8.5 q-24 0 -38.5 -8t-22.5 -21.5t-10.5 -30.5t-2.5 -36q0 -14 -6 -20.5t-21 -6.5h-94q-25 0 -25 24q0 64 18 108.5t48.5 73t71.5 41.5t87 13q45 0 85.5 -17.5t71 -47.5t48 -70.5t17.5 -86.5q0 -86 -53 -139q25 -17 45 -37t33.5 -45t20.5 -57t7 -74q0 -56 -20 -104.5t-56 -84.5 t-85.5 -56.5t-109.5 -20.5q-56 0 -105 12t-85 44t-57 89t-21 147q0 18 24 24h101q24 0 24 -24q0 -43 9 -70.5t25 -43.5t37.5 -22.5t47.5 -6.5q58 0 89.5 30.5t31.5 88.5q0 64 -30.5 89t-107.5 25zM810 123q-17 0 -24 10.5t-7 22.5q0 7 2.5 13t6.5 13l371 634q7 11 11.5 14 t10.5 3h104q10 0 16 -9t6 -17v-530h81q12 0 21.5 -5.5t9.5 -18.5v-104q0 -10 -9.5 -18t-21.5 -8h-81v-99q0 -12 -6 -18t-21 -6h-99q-24 0 -24 24v99h-347zM1157 277v270l-156 -270h156z" />
<glyph unicode="&#xbf;" horiz-adv-x="1137" d="M482.039 599.023q0 16.999 9.99902 26.498q10 9.49902 22.999 9.49902h107.993q15.999 0 24.999 -10.999q8.99902 -10.999 8.99902 -24.998v-163.99q0 -51.9971 -17.499 -92.9941q-17.499 -40.998 -45.9971 -74.4961t-64.9961 -61.9961t-74.4951 -55.4961 q-39.998 -27.998 -77.9951 -57.4971q-37.998 -29.498 -67.4961 -63.9961q-29.498 -34.4971 -47.4971 -76.9951q-17.999 -42.4971 -17.999 -97.4941q0 -64.9961 24.998 -118.992q24.999 -53.9971 68.4961 -92.9941q43.4971 -38.998 101.494 -60.4971 q57.9961 -21.498 124.992 -21.498q50.9971 0 106.493 17.499q55.4971 17.498 101.994 53.9961t76.4951 92.4941q29.998 55.9971 29.998 132.992v23.999q0 16.999 10 25.498q9.99902 8.49902 22.998 8.49902h105.994q16.999 0 25.498 -10.999t8.49902 -21.999v-14.999 q0 -110.993 -40.4971 -197.987q-40.4971 -86.9951 -107.993 -146.991t-155.99 -91.4941q-88.4951 -31.498 -185.489 -31.498q-101.993 0 -190.988 31.998q-88.9941 31.998 -155.49 89.4941q-66.4961 57.4971 -104.494 137.991q-37.9971 80.4951 -37.9971 176.489 q0 82.9951 23.998 147.491q23.999 64.4961 60.9961 114.993q36.998 50.4971 81.4951 87.9951q44.4971 37.4971 86.4951 66.4951q30.998 21.999 59.4961 43.998q28.498 21.998 49.9971 45.9971q21.499 23.998 34.498 51.4971q12.999 27.498 12.999 60.4961v144.991z M689.026 884.006q0 -25.998 -9.99902 -48.9971q-10 -22.999 -26.999 -39.998t-39.4971 -26.998q-22.499 -9.99902 -48.4971 -9.99902q-26.998 0 -49.9971 9.99902q-22.998 9.99902 -39.9971 26.998t-26.499 39.998q-9.49902 22.999 -9.49902 48.9971t9.49902 48.4971 q9.5 22.498 26.499 39.4971t39.9971 26.999q22.999 9.99902 49.9971 9.99902q25.998 0 48.4971 -9.99902q22.498 -10 39.4971 -26.999t26.999 -39.4971q9.99902 -22.499 9.99902 -48.4971z" />
<glyph unicode="&#xc0;" horiz-adv-x="1471" d="M232 40q-16 -40 -55 -40h-86q-43 0 -43 32q0 9 2 19q1 4 3 7q108 260 190.5 458.5t143.5 345t103 246.5t69 165.5t42 100.5t22 51.5t8 19.5l1 3q4 11 13.5 24t36.5 13h59q25 0 34.5 -13t14.5 -24l576 -1391q0 -1 3.5 -10t3.5 -15q0 -16 -12.5 -24t-32.5 -8h-86 q-20 0 -33.5 10.5t-20.5 27.5l-116 287h-727zM417 495h585l-291 732zM518 1930q-8 17 -10.5 26t-2.5 14q0 12 8.5 15.5t21.5 3.5h80q19 0 30.5 -10t23.5 -32l88 -205q6 -15 7.5 -22t3.5 -14q0 -14 -6.5 -21t-26.5 -7h-73q-34 0 -53 42z" />
<glyph unicode="&#xc1;" horiz-adv-x="1471" d="M232 40q-16 -40 -55 -40h-86q-43 0 -43 32q0 9 2 19q1 4 3 7q108 260 190.5 458.5t143.5 345t103 246.5t69 165.5t42 100.5t22 51.5t8 19.5l1 3q4 11 13.5 24t36.5 13h59q25 0 34.5 -13t14.5 -24l576 -1391q0 -1 3.5 -10t3.5 -15q0 -16 -12.5 -24t-32.5 -8h-86 q-20 0 -33.5 10.5t-20.5 27.5l-116 287h-727zM417 495h585l-291 732zM860 1721q-19 -42 -53 -42h-73q-20 0 -26.5 7t-6.5 21q2 7 3.5 14t7.5 22l88 205q12 22 23.5 32t30.5 10h80q13 0 21.5 -3.5t8.5 -15.5q0 -5 -2.5 -14t-10.5 -26z" />
<glyph unicode="&#xc2;" horiz-adv-x="1471" d="M232 40q-16 -40 -55 -40h-86q-43 0 -43 32q0 9 2 19q1 4 3 7q108 260 190.5 458.5t143.5 345t103 246.5t69 165.5t42 100.5t22 51.5t8 19.5l1 3q4 11 13.5 24t36.5 13h59q25 0 34.5 -13t14.5 -24l576 -1391q0 -1 3.5 -10t3.5 -15q0 -16 -12.5 -24t-32.5 -8h-86 q-20 0 -33.5 10.5t-20.5 27.5l-116 287h-727zM417 495h585l-291 732zM1027 1762q4 -4 8.5 -11t4.5 -14q0 -8 -4 -13.5t-9 -10.5l-47 -43q-5 -5 -11 -9.5t-13 -4.5q-5 0 -11.5 2t-11.5 9l-190 191l-191 -191q-5 -7 -10 -9t-13 -2q-6 0 -12.5 4.5t-12.5 9.5l-45 43 q-5 5 -9.5 10.5t-4.5 13.5q0 7 5 14t9 11l262 263q3 3 9 6.5t13 3.5q5 0 11.5 -3.5t10.5 -7.5z" />
<glyph unicode="&#xc3;" horiz-adv-x="1471" d="M232 40q-16 -40 -55 -40h-86q-43 0 -43 32q0 9 2 19q1 4 3 7q108 260 190.5 458.5t143.5 345t103 246.5t69 165.5t42 100.5t22 51.5t8 19.5l1 3q4 11 13.5 24t36.5 13h59q25 0 34.5 -13t14.5 -24l576 -1391q0 -1 3.5 -10t3.5 -15q0 -16 -12.5 -24t-32.5 -8h-86 q-20 0 -33.5 10.5t-20.5 27.5l-116 287h-727zM417 495h585l-291 732zM508 1688q-7 -7 -15 -7t-19 8t-23.5 20t-20.5 19q-5 5 -6.5 8.5t-1.5 10.5q0 5 6 14.5t7 11.5q42 59 90 83t106 24q30 0 61 -12t59 -32l55 -38q31 -21 67 -21q42 0 72 28q10 9 20.5 24.5t20.5 25.5 q5 7 15 7q7 0 18 -8t23.5 -20t20.5 -18q5 -6 6.5 -9.5t1.5 -10.5q0 -5 -6 -15t-7 -10q-42 -59 -89.5 -83.5t-105.5 -24.5q-31 0 -62 12t-59 32l-55 38q-30 21 -67 21q-44 0 -72 -28q-9 -9 -19.5 -24.5t-20.5 -25.5z" />
<glyph unicode="&#xc4;" horiz-adv-x="1471" d="M232 40q-16 -40 -55 -40h-86q-43 0 -43 32q0 9 2 19q1 4 3 7q108 260 190.5 458.5t143.5 345t103 246.5t69 165.5t42 100.5t22 51.5t8 19.5l1 3q4 11 13.5 24t36.5 13h59q25 0 34.5 -13t14.5 -24l576 -1391q0 -1 3.5 -10t3.5 -15q0 -16 -12.5 -24t-32.5 -8h-86 q-20 0 -33.5 10.5t-20.5 27.5l-116 287h-727zM417 495h585l-291 732zM436 1771q0 26 10 49t27 40t39.5 27t48.5 10q27 0 50 -10t40 -27t26.5 -40t9.5 -49t-9.5 -48.5t-26.5 -39.5t-40 -27t-50 -10q-26 0 -48.5 10t-39.5 27t-27 39.5t-10 48.5zM808 1773q0 26 10 49t27 40 t39.5 27t48.5 10q27 0 50 -10t40 -27t26.5 -40t9.5 -49t-9.5 -48.5t-26.5 -39.5t-40 -27t-50 -10q-26 0 -48.5 10t-39.5 27t-27 39.5t-10 48.5z" />
<glyph unicode="&#xc5;" horiz-adv-x="1471" d="M232 40q-16 -40 -55 -40h-86q-43 0 -43 32q0 9 2 19q1 4 3 7q108 260 190.5 458.5t143.5 345t103 246.5t69 165.5t42 100.5t22 51.5t8 19.5l1 3q4 11 13.5 24t36.5 13h59q25 0 34.5 -13t14.5 -24l576 -1391q0 -1 3.5 -10t3.5 -15q0 -16 -12.5 -24t-32.5 -8h-86 q-20 0 -33.5 10.5t-20.5 27.5l-116 287h-727zM417 495h585l-291 732zM745 2052q43 0 81.5 -16.5t67.5 -45.5t45.5 -67.5t16.5 -81.5q0 -44 -16.5 -82t-45.5 -66.5t-67.5 -44.5t-81.5 -16q-44 0 -82 16t-66.5 44.5t-44.5 66.5t-16 82q0 43 16 81.5t44.5 67.5t66.5 45.5 t82 16.5zM745 1946q-23 0 -42 -8t-32.5 -22.5t-21.5 -33.5t-8 -41q0 -45 29.5 -74.5t74.5 -29.5q22 0 41 8t33.5 21.5t22.5 32.5t8 42q0 45 -30 75t-75 30z" />
<glyph unicode="&#xc6;" horiz-adv-x="2303" d="M271 40q-17 -21 -33.5 -30.5t-33.5 -9.5h-131q-34 0 -34 19q0 7 3 14t6.5 12.5t6.5 9t2 3.5q211 260 372 458.5t280 345t201 246.5t135 165.5t81.5 100.5t42 51.5t16 19.5l2.5 3q8 11 22 24t41 13h953q45 0 45 -47v-81q0 -18 -12 -32t-35 -14h-821v-442h651q18 0 31 -11 t13 -35v-82q0 -18 -11 -32t-33 -14h-651v-521h830q45 0 45 -47v-83q0 -44 -44 -44h-960q-44 0 -44 42v283h-710zM636 495h571v705z" />
<glyph unicode="&#xc7;" horiz-adv-x="1410" d="M1307 1355q11 -8 18.5 -16t7.5 -19q0 -8 -4.5 -17.5t-9.5 -16.5l-42 -66q-16 -23 -34 -23q-7 1 -16 4.5t-20 11.5q-75 54 -165.5 85t-183.5 31q-131 0 -240.5 -48t-188.5 -129.5t-123 -188.5t-44 -225q0 -124 49 -231.5t131 -186.5t189 -124t223 -45q39 0 76.5 4.5 t75.5 15.5t78.5 29t84.5 45q9 4 19.5 11.5t20 15t18.5 12.5t15 5q19 0 34 -25l46 -76q7 -13 7 -28q0 -21 -23 -34q-95 -69 -209 -108.5t-246 -39.5q-106 0 -203 27t-182 77t-154.5 119.5t-119 154t-76.5 182t-27 203.5q0 105 27 202.5t77 182.5t119.5 155t154.5 119.5 t182.5 77t203.5 27.5q126 0 240.5 -39t213.5 -111zM897 -6q0 -20 8.5 -42t38.5 -42q26 -17 50.5 -33.5t44 -38.5t31.5 -50.5t12 -68.5q-5 -66 -62.5 -117t-178.5 -86q-8 -2 -14 -2q-14 0 -24.5 10t-18 24.5t-11.5 30t-4 27.5q0 21 20 28q69 14 108 41t39 58q0 17 -7 29.5 t-19 23t-27.5 20t-32.5 20.5q-20 9 -38 23.5t-31 33.5t-20.5 41t-7.5 46v34q0 20 8 23.5t23 3.5h86q20 0 23.5 -12.5t3.5 -24.5z" />
<glyph unicode="&#xc8;" horiz-adv-x="1285" d="M1168 1485q45 0 45 -47v-81q0 -18 -12 -32t-35 -14h-831v-442h661q18 0 31 -11t13 -35v-82q0 -18 -11 -32t-33 -14h-661v-521h840q45 0 45 -47v-83q0 -44 -44 -44h-970q-44 0 -44 42v1397q0 46 44 46h962zM537 1930q-8 17 -10.5 26t-2.5 14q0 12 8.5 15.5t21.5 3.5h80 q19 0 30.5 -10t23.5 -32l88 -205q6 -15 7.5 -22t3.5 -14q0 -14 -6.5 -21t-26.5 -7h-73q-34 0 -53 42z" />
<glyph unicode="&#xc9;" horiz-adv-x="1285" d="M1168 1485q45 0 45 -47v-81q0 -18 -12 -32t-35 -14h-831v-442h661q18 0 31 -11t13 -35v-82q0 -18 -11 -32t-33 -14h-661v-521h840q45 0 45 -47v-83q0 -44 -44 -44h-970q-44 0 -44 42v1397q0 46 44 46h962zM764 1720q-19 -42 -53 -42h-73q-20 0 -26.5 7t-6.5 21 q2 7 3.5 14t7.5 22l88 205q12 22 23.5 32t30.5 10h80q13 0 21.5 -3.5t8.5 -15.5q0 -5 -2.5 -14t-10.5 -26z" />
<glyph unicode="&#xca;" horiz-adv-x="1285" d="M1168 1485q45 0 45 -47v-81q0 -18 -12 -32t-35 -14h-831v-442h661q18 0 31 -11t13 -35v-82q0 -18 -11 -32t-33 -14h-661v-521h840q45 0 45 -47v-83q0 -44 -44 -44h-970q-44 0 -44 42v1397q0 46 44 46h962zM976 1762q4 -4 8.5 -11t4.5 -14q0 -8 -4 -13.5t-9 -10.5l-47 -43 q-5 -5 -11 -9.5t-13 -4.5q-5 0 -11.5 2t-11.5 9l-190 191l-191 -191q-5 -7 -10 -9t-13 -2q-6 0 -12.5 4.5t-12.5 9.5l-45 43q-5 5 -9.5 10.5t-4.5 13.5q0 7 5 14t9 11l262 263q3 3 9 6.5t13 3.5q5 0 11.5 -3.5t10.5 -7.5z" />
<glyph unicode="&#xcb;" horiz-adv-x="1285" d="M1168 1485q45 0 45 -47v-81q0 -18 -12 -32t-35 -14h-831v-442h661q18 0 31 -11t13 -35v-82q0 -18 -11 -32t-33 -14h-661v-521h840q45 0 45 -47v-83q0 -44 -44 -44h-970q-44 0 -44 42v1397q0 46 44 46h962zM387 1773q0 26 10 49t27 40t39.5 27t48.5 10q27 0 50 -10t40 -27 t26.5 -40t9.5 -49t-9.5 -48.5t-26.5 -39.5t-40 -27t-50 -10q-26 0 -48.5 10t-39.5 27t-27 39.5t-10 48.5zM741 1773q0 26 10 49t27 40t39.5 27t48.5 10q27 0 50 -10t40 -27t26.5 -40t9.5 -49t-9.5 -48.5t-26.5 -39.5t-40 -27t-50 -10q-26 0 -48.5 10t-39.5 27t-27 39.5 t-10 48.5z" />
<glyph unicode="&#xcc;" d="M335 44q0 -22 -12 -33t-33 -11h-83q-45 0 -45 44v1397q0 20 11.5 32t33.5 12h83q20 0 32.5 -12t12.5 -32v-1397zM69 1930q-8 17 -10.5 26t-2.5 14q0 12 8.5 15.5t21.5 3.5h80q19 0 30.5 -10t23.5 -32l88 -205q6 -15 7.5 -22t3.5 -14q0 -14 -6.5 -21t-26.5 -7h-73 q-34 0 -53 42z" />
<glyph unicode="&#xcd;" d="M335 44q0 -22 -12 -33t-33 -11h-83q-45 0 -45 44v1397q0 20 11.5 32t33.5 12h83q20 0 32.5 -12t12.5 -32v-1397zM317 1720q-19 -42 -53 -42h-73q-20 0 -26.5 7t-6.5 21q2 7 3.5 14t7.5 22l88 205q12 22 23.5 32t30.5 10h80q13 0 21.5 -3.5t8.5 -15.5q0 -5 -2.5 -14 t-10.5 -26z" />
<glyph unicode="&#xce;" d="M335 44q0 -22 -12 -33t-33 -11h-83q-45 0 -45 44v1397q0 20 11.5 32t33.5 12h83q20 0 32.5 -12t12.5 -32v-1397zM542 1762q4 -4 8.5 -11t4.5 -14q0 -8 -4 -13.5t-9 -10.5l-47 -43q-5 -5 -11 -9.5t-13 -4.5q-5 0 -11.5 2t-11.5 9l-190 191l-191 -191q-5 -7 -10 -9t-13 -2 q-6 0 -12.5 4.5t-12.5 9.5l-45 43q-5 5 -9.5 10.5t-4.5 13.5q0 7 5 14t9 11l262 263q3 3 9 6.5t13 3.5q5 0 11.5 -3.5t10.5 -7.5z" />
<glyph unicode="&#xcf;" horiz-adv-x="517" d="M335 44q0 -22 -12 -33t-33 -11h-83q-45 0 -45 44v1397q0 20 11.5 32t33.5 12h83q20 0 32.5 -12t12.5 -32v-1397zM-67 1773q0 26 10 49t27 40t39.5 27t48.5 10q27 0 50 -10t40 -27t26.5 -40t9.5 -49t-9.5 -48.5t-26.5 -39.5t-40 -27t-50 -10q-26 0 -48.5 10t-39.5 27 t-27 39.5t-10 48.5zM287 1773q0 26 10 49t27 40t39.5 27t48.5 10q27 0 50 -10t40 -27t26.5 -40t9.5 -49t-9.5 -48.5t-26.5 -39.5t-40 -27t-50 -10q-26 0 -48.5 10t-39.5 27t-27 39.5t-10 48.5z" />
<glyph unicode="&#xd0;" horiz-adv-x="1480" d="M162 1437q0 48 46 48h466q107 0 204 -26t180 -74t150 -116t114.5 -150.5t73.5 -178t26 -199.5q0 -103 -26.5 -197.5t-75 -177t-116.5 -150t-151 -115.5t-179 -74.5t-200 -26.5h-466q-18 0 -32 8.5t-14 33.5v605h-110q-29 0 -29 31v116q0 27 29 27h110v616zM670 191 q122 0 225 45t177.5 121.5t116.5 178.5t42 216q0 122 -44 222t-120 171t-177 110t-216 39h-321v-1103h317z" />
<glyph unicode="&#xd1;" horiz-adv-x="1583" d="M1284 0q-22 0 -37 19l-912 1197v-1172q0 -44 -46 -44h-83q-44 0 -44 44v1395q0 20 12 33t32 13h111q23 0 38 -20l898 -1169v1150q2 18 13.5 28.5t30.5 10.5h82q18 0 33 -12t15 -32v-1397q0 -44 -48 -44h-95zM555 1688q-7 -7 -15 -7t-19 8t-23.5 20t-20.5 19 q-5 5 -6.5 8.5t-1.5 10.5q0 5 6 14.5t7 11.5q42 59 90 83t106 24q30 0 61 -12t59 -32l55 -38q31 -21 67 -21q42 0 72 28q10 9 20.5 24.5t20.5 25.5q5 7 15 7q7 0 18 -8t23.5 -20t20.5 -18q5 -6 6.5 -9.5t1.5 -10.5q0 -5 -6 -15t-7 -10q-42 -59 -89.5 -83.5t-105.5 -24.5 q-31 0 -62 12t-59 32l-55 38q-30 21 -67 21q-44 0 -72 -28q-9 -9 -19.5 -24.5t-20.5 -25.5z" />
<glyph unicode="&#xd2;" horiz-adv-x="1706" d="M853 1505q105 0 202.5 -27t182 -77t154.5 -119.5t119.5 -155t77 -183.5t27.5 -204q0 -105 -27 -202.5t-77 -182t-119.5 -154t-154.5 -119t-183 -76.5t-204 -27t-203 27t-182 77t-154.5 119.5t-119 154t-76.5 182t-27 203.5q0 105 27 202.5t77 182.5t119.5 155 t154.5 119.5t182.5 77t203.5 27.5zM262 742q0 -123 46 -230.5t126.5 -188t188 -126.5t230.5 -46q121 0 228.5 46t187 126.5t126 188t46.5 230.5q0 81 -21 156t-59.5 140.5t-92 119t-119 92t-140.5 59.5t-156 21q-123 0 -230.5 -46.5t-188 -126t-126.5 -187t-46 -228.5z M660 1930q-8 17 -10.5 26t-2.5 14q0 12 8.5 15.5t21.5 3.5h80q19 0 30.5 -10t23.5 -32l88 -205q6 -15 7.5 -22t3.5 -14q0 -14 -6.5 -21t-26.5 -7h-73q-34 0 -53 42z" />
<glyph unicode="&#xd3;" horiz-adv-x="1706" d="M853 1505q105 0 202.5 -27t182 -77t154.5 -119.5t119.5 -155t77 -183.5t27.5 -204q0 -105 -27 -202.5t-77 -182t-119.5 -154t-154.5 -119t-183 -76.5t-204 -27t-203 27t-182 77t-154.5 119.5t-119 154t-76.5 182t-27 203.5q0 105 27 202.5t77 182.5t119.5 155 t154.5 119.5t182.5 77t203.5 27.5zM262 742q0 -123 46 -230.5t126.5 -188t188 -126.5t230.5 -46q121 0 228.5 46t187 126.5t126 188t46.5 230.5q0 81 -21 156t-59.5 140.5t-92 119t-119 92t-140.5 59.5t-156 21q-123 0 -230.5 -46.5t-188 -126t-126.5 -187t-46 -228.5z M898 1720q-19 -42 -53 -42h-73q-20 0 -26.5 7t-6.5 21q2 7 3.5 14t7.5 22l88 205q12 22 23.5 32t30.5 10h80q13 0 21.5 -3.5t8.5 -15.5q0 -5 -2.5 -14t-10.5 -26z" />
<glyph unicode="&#xd4;" horiz-adv-x="1706" d="M853 1505q105 0 202.5 -27t182 -77t154.5 -119.5t119.5 -155t77 -183.5t27.5 -204q0 -105 -27 -202.5t-77 -182t-119.5 -154t-154.5 -119t-183 -76.5t-204 -27t-203 27t-182 77t-154.5 119.5t-119 154t-76.5 182t-27 203.5q0 105 27 202.5t77 182.5t119.5 155 t154.5 119.5t182.5 77t203.5 27.5zM262 742q0 -123 46 -230.5t126.5 -188t188 -126.5t230.5 -46q121 0 228.5 46t187 126.5t126 188t46.5 230.5q0 81 -21 156t-59.5 140.5t-92 119t-119 92t-140.5 59.5t-156 21q-123 0 -230.5 -46.5t-188 -126t-126.5 -187t-46 -228.5z M1137 1762q4 -4 8.5 -11t4.5 -14q0 -8 -4 -13.5t-9 -10.5l-47 -43q-5 -5 -11 -9.5t-13 -4.5q-5 0 -11.5 2t-11.5 9l-190 191l-191 -191q-5 -7 -10 -9t-13 -2q-6 0 -12.5 4.5t-12.5 9.5l-45 43q-5 5 -9.5 10.5t-4.5 13.5q0 7 5 14t9 11l262 263q3 3 9 6.5t13 3.5 q5 0 11.5 -3.5t10.5 -7.5z" />
<glyph unicode="&#xd5;" horiz-adv-x="1706" d="M853 1505q105 0 202.5 -27t182 -77t154.5 -119.5t119.5 -155t77 -183.5t27.5 -204q0 -105 -27 -202.5t-77 -182t-119.5 -154t-154.5 -119t-183 -76.5t-204 -27t-203 27t-182 77t-154.5 119.5t-119 154t-76.5 182t-27 203.5q0 105 27 202.5t77 182.5t119.5 155 t154.5 119.5t182.5 77t203.5 27.5zM262 742q0 -123 46 -230.5t126.5 -188t188 -126.5t230.5 -46q121 0 228.5 46t187 126.5t126 188t46.5 230.5q0 81 -21 156t-59.5 140.5t-92 119t-119 92t-140.5 59.5t-156 21q-123 0 -230.5 -46.5t-188 -126t-126.5 -187t-46 -228.5z M617 1688q-7 -7 -15 -7t-19 8t-23.5 20t-20.5 19q-5 5 -6.5 8.5t-1.5 10.5q0 5 6 14.5t7 11.5q42 59 90 83t106 24q30 0 61 -12t59 -32l55 -38q31 -21 67 -21q42 0 72 28q10 9 20.5 24.5t20.5 25.5q5 7 15 7q7 0 18 -8t23.5 -20t20.5 -18q5 -6 6.5 -9.5t1.5 -10.5 q0 -5 -6 -15t-7 -10q-42 -59 -89.5 -83.5t-105.5 -24.5q-31 0 -62 12t-59 32l-55 38q-30 21 -67 21q-44 0 -72 -28q-9 -9 -19.5 -24.5t-20.5 -25.5z" />
<glyph unicode="&#xd6;" horiz-adv-x="1706" d="M853 1505q105 0 202.5 -27t182 -77t154.5 -119.5t119.5 -155t77 -183.5t27.5 -204q0 -105 -27 -202.5t-77 -182t-119.5 -154t-154.5 -119t-183 -76.5t-204 -27t-203 27t-182 77t-154.5 119.5t-119 154t-76.5 182t-27 203.5q0 105 27 202.5t77 182.5t119.5 155 t154.5 119.5t182.5 77t203.5 27.5zM262 742q0 -123 46 -230.5t126.5 -188t188 -126.5t230.5 -46q121 0 228.5 46t187 126.5t126 188t46.5 230.5q0 81 -21 156t-59.5 140.5t-92 119t-119 92t-140.5 59.5t-156 21q-123 0 -230.5 -46.5t-188 -126t-126.5 -187t-46 -228.5z M542 1751q0 26 10 49t27 40t39.5 27t48.5 10q27 0 50 -10t40 -27t26.5 -40t9.5 -49t-9.5 -48.5t-26.5 -39.5t-40 -27t-50 -10q-26 0 -48.5 10t-39.5 27t-27 39.5t-10 48.5zM914 1753q0 26 10 49t27 40t39.5 27t48.5 10q27 0 50 -10t40 -27t26.5 -40t9.5 -49t-9.5 -48.5 t-26.5 -39.5t-40 -27t-50 -10q-26 0 -48.5 10t-39.5 27t-27 39.5t-10 48.5z" />
<glyph unicode="&#xd7;" horiz-adv-x="933" d="M586 638l171 -171q13 -13 14 -29.5t-14 -32.5l-58 -57q-13 -13 -31.5 -15t-33.5 12l-171 170l-169 -169q-30 -30 -62 0l-57 58q-18 17 -18 33.5t15 31.5l169 169l-169 169q-32 32 3 65l57 58q32 30 62 0l169 -170l171 171q15 14 33.5 12t31.5 -15l58 -57q15 -16 14 -32.5 t-14 -29.5z" />
<glyph unicode="&#xd8;" horiz-adv-x="1703" d="M853 1505q57 0 110.5 -8t105.5 -23l90 207q11 26 24 35t38 9h89q23 0 33.5 -5t10.5 -19q0 -11 -7 -28q-8 -18 -23.5 -54t-33.5 -75.5t-34.5 -77.5t-25.5 -61q86 -49 157 -119t122 -156t79 -185t28 -206q0 -105 -27 -202.5t-77 -182t-119.5 -154t-154.5 -119t-183 -76.5 t-204 -27q-54 0 -105.5 7t-101.5 21l-99 -205q-8 -17 -19.5 -26t-30.5 -9h-105q-34 0 -34 23q0 7 5 20l121 263q-88 49 -160.5 119t-124 156t-80 186t-28.5 208q0 105 27 202.5t77 182.5t119.5 155t154.5 119.5t182.5 77t203.5 27.5zM262 742q0 -123 46 -230.5t126.5 -188 t188 -126.5t230.5 -46q121 0 228.5 46t187 126.5t126 188t46.5 230.5q0 81 -21 156t-59.5 140.5t-92 119t-119 92t-140.5 59.5t-156 21q-123 0 -230.5 -46.5t-188 -126t-126.5 -187t-46 -228.5z" />
<glyph unicode="&#xd9;" horiz-adv-x="1504" d="M317 607q0 -97 30.5 -181.5t86.5 -146.5t136.5 -98t181.5 -36q106 0 188 36t137.5 98.5t84 147t28.5 180.5v834q0 18 13.5 31t33.5 13h76q19 0 35 -12t16 -32v-854q0 -138 -48 -250.5t-131.5 -192.5t-195 -124t-237.5 -44t-237 48t-194.5 131.5t-131.5 194.5t-48 237v854 q0 15 11.5 29.5t30.5 14.5h87q15 0 31 -13t16 -31v-834zM568 1930q-8 17 -10.5 26t-2.5 14q0 12 8.5 15.5t21.5 3.5h80q19 0 30.5 -10t23.5 -32l88 -205q6 -15 7.5 -22t3.5 -14q0 -14 -6.5 -21t-26.5 -7h-73q-34 0 -53 42z" />
<glyph unicode="&#xda;" horiz-adv-x="1504" d="M317 607q0 -97 30.5 -181.5t86.5 -146.5t136.5 -98t181.5 -36q106 0 188 36t137.5 98.5t84 147t28.5 180.5v834q0 18 13.5 31t33.5 13h76q19 0 35 -12t16 -32v-854q0 -138 -48 -250.5t-131.5 -192.5t-195 -124t-237.5 -44t-237 48t-194.5 131.5t-131.5 194.5t-48 237v854 q0 15 11.5 29.5t30.5 14.5h87q15 0 31 -13t16 -31v-834zM823 1720q-19 -42 -53 -42h-73q-20 0 -26.5 7t-6.5 21q2 7 3.5 14t7.5 22l88 205q12 22 23.5 32t30.5 10h80q13 0 21.5 -3.5t8.5 -15.5q0 -5 -2.5 -14t-10.5 -26z" />
<glyph unicode="&#xdb;" horiz-adv-x="1504" d="M317 607q0 -97 30.5 -181.5t86.5 -146.5t136.5 -98t181.5 -36q106 0 188 36t137.5 98.5t84 147t28.5 180.5v834q0 18 13.5 31t33.5 13h76q19 0 35 -12t16 -32v-854q0 -138 -48 -250.5t-131.5 -192.5t-195 -124t-237.5 -44t-237 48t-194.5 131.5t-131.5 194.5t-48 237v854 q0 15 11.5 29.5t30.5 14.5h87q15 0 31 -13t16 -31v-834zM1035 1762q4 -4 8.5 -11t4.5 -14q0 -8 -4 -13.5t-9 -10.5l-47 -43q-5 -5 -11 -9.5t-13 -4.5q-5 0 -11.5 2t-11.5 9l-190 191l-191 -191q-5 -7 -10 -9t-13 -2q-6 0 -12.5 4.5t-12.5 9.5l-45 43q-5 5 -9.5 10.5 t-4.5 13.5q0 7 5 14t9 11l262 263q3 3 9 6.5t13 3.5q5 0 11.5 -3.5t10.5 -7.5z" />
<glyph unicode="&#xdc;" horiz-adv-x="1504" d="M317 607q0 -97 30.5 -181.5t86.5 -146.5t136.5 -98t181.5 -36q106 0 188 36t137.5 98.5t84 147t28.5 180.5v834q0 18 13.5 31t33.5 13h76q19 0 35 -12t16 -32v-854q0 -138 -48 -250.5t-131.5 -192.5t-195 -124t-237.5 -44t-237 48t-194.5 131.5t-131.5 194.5t-48 237v854 q0 15 11.5 29.5t30.5 14.5h87q15 0 31 -13t16 -31v-834zM442 1751q0 26 10 49t27 40t39.5 27t48.5 10q27 0 50 -10t40 -27t26.5 -40t9.5 -49t-9.5 -48.5t-26.5 -39.5t-40 -27t-50 -10q-26 0 -48.5 10t-39.5 27t-27 39.5t-10 48.5zM814 1753q0 26 10 49t27 40t39.5 27 t48.5 10q27 0 50 -10t40 -27t26.5 -40t9.5 -49t-9.5 -48.5t-26.5 -39.5t-40 -27t-50 -10q-26 0 -48.5 10t-39.5 27t-27 39.5t-10 48.5z" />
<glyph unicode="&#xdd;" horiz-adv-x="1319" d="M89 1434q-13 19 -13 30q0 21 30 21h130q10 -1 16 -2t11 -5.5t10.5 -12.5t14.5 -22l371 -611l377 619q12 20 21.5 26t24.5 8h137q24 0 24 -18q0 -4 -2.5 -11.5t-8.5 -15.5q-123 -198 -242 -392.5t-244 -392.5v-608q0 -47 -45 -47h-86q-42 0 -42 47v602zM760 1720 q-19 -42 -53 -42h-73q-20 0 -26.5 7t-6.5 21q2 7 3.5 14t7.5 22l88 205q12 22 23.5 32t30.5 10h80q13 0 21.5 -3.5t8.5 -15.5q0 -5 -2.5 -14t-10.5 -26z" />
<glyph unicode="&#xde;" horiz-adv-x="1280" d="M335 1215h370q98 0 182.5 -37t146.5 -100.5t97.5 -148t35.5 -178.5q0 -93 -35 -176.5t-96.5 -146.5t-145 -100t-180.5 -37h-375v-247q0 -44 -45 -44h-84q-44 0 -44 44v1398q0 20 11.5 32t33.5 12h83q20 0 32.5 -12t12.5 -32v-227zM994 753q0 58 -22.5 110.5t-61.5 92.5 t-92 64t-113 24h-370v-583h370q59 0 111.5 23.5t92 64t62.5 93t23 111.5z" />
<glyph unicode="&#xdf;" horiz-adv-x="1153" d="M563 145q66 1 122 22t97 58.5t64 92t23 123.5q0 74 -23.5 130t-66.5 93.5t-103.5 56.5t-134.5 19q-35 0 -35 30v106q0 33 33 33q50 0 91.5 16.5t71.5 45t46.5 66.5t16.5 82t-12.5 84.5t-39.5 71t-68.5 49t-99.5 18.5q-48 0 -87 -14.5t-66 -40.5t-42 -61t-15 -77l-1 -1490 q0 -22 -12 -33t-33 -11h-83q-45 0 -45 44v1483q0 88 33 155t87.5 112t124.5 68t144 23q79 0 149.5 -28t123 -78.5t83 -119.5t30.5 -150q0 -86 -35.5 -157t-101.5 -122q113 -63 178.5 -162t65.5 -244q0 -102 -37 -187.5t-101.5 -147t-153 -96t-190.5 -35.5h-5q-12 0 -19.5 9 t-10.5 19v99q0 21 9 33t28 12z" />
<glyph unicode="&#xe0;" horiz-adv-x="1188" d="M861 144q-23 -33 -50.5 -63t-63 -52.5t-82 -35.5t-106.5 -13q-105 0 -193 39.5t-151.5 108.5t-99 161.5t-35.5 198.5t35 199t98.5 162t151.5 109t194 40q61 0 107.5 -14t82.5 -37t62.5 -53t49.5 -62l7 100q2 25 12 38t36 13h58q21 0 37 -13.5t16 -37.5v-888 q0 -20 -15.5 -32t-37.5 -12h-64q-26 0 -37.5 14t-11.5 37v93zM247 488q0 -71 22 -133t63 -108t98.5 -73t128.5 -27q72 0 128 26t94.5 71t59 107t20.5 134q0 70 -19.5 133t-58 110t-95 75t-129.5 28q-72 0 -130 -27.5t-98.5 -74t-62 -109t-21.5 -132.5zM411 1426 q-8 17 -10.5 26t-2.5 14q0 12 8.5 15.5t21.5 3.5h80q19 0 30.5 -10t23.5 -32l88 -205q6 -15 7.5 -22t3.5 -14q0 -14 -6.5 -21t-26.5 -7h-73q-34 0 -53 42z" />
<glyph unicode="&#xe1;" horiz-adv-x="1188" d="M861 144q-23 -33 -50.5 -63t-63 -52.5t-82 -35.5t-106.5 -13q-105 0 -193 39.5t-151.5 108.5t-99 161.5t-35.5 198.5t35 199t98.5 162t151.5 109t194 40q61 0 107.5 -14t82.5 -37t62.5 -53t49.5 -62l7 100q2 25 12 38t36 13h58q21 0 37 -13.5t16 -37.5v-888 q0 -20 -15.5 -32t-37.5 -12h-64q-26 0 -37.5 14t-11.5 37v93zM247 488q0 -71 22 -133t63 -108t98.5 -73t128.5 -27q72 0 128 26t94.5 71t59 107t20.5 134q0 70 -19.5 133t-58 110t-95 75t-129.5 28q-72 0 -130 -27.5t-98.5 -74t-62 -109t-21.5 -132.5zM629 1216 q-19 -42 -53 -42h-73q-20 0 -26.5 7t-6.5 21q2 7 3.5 14t7.5 22l88 205q12 22 23.5 32t30.5 10h80q13 0 21.5 -3.5t8.5 -15.5q0 -5 -2.5 -14t-10.5 -26z" />
<glyph unicode="&#xe2;" horiz-adv-x="1188" d="M861 144q-23 -33 -50.5 -63t-63 -52.5t-82 -35.5t-106.5 -13q-105 0 -193 39.5t-151.5 108.5t-99 161.5t-35.5 198.5t35 199t98.5 162t151.5 109t194 40q61 0 107.5 -14t82.5 -37t62.5 -53t49.5 -62l7 100q2 25 12 38t36 13h58q21 0 37 -13.5t16 -37.5v-888 q0 -20 -15.5 -32t-37.5 -12h-64q-26 0 -37.5 14t-11.5 37v93zM247 488q0 -71 22 -133t63 -108t98.5 -73t128.5 -27q72 0 128 26t94.5 71t59 107t20.5 134q0 70 -19.5 133t-58 110t-95 75t-129.5 28q-72 0 -130 -27.5t-98.5 -74t-62 -109t-21.5 -132.5zM847 1258 q4 -4 8.5 -11t4.5 -14q0 -8 -4 -13.5t-9 -10.5l-47 -43q-5 -5 -11 -9.5t-13 -4.5q-5 0 -11.5 2t-11.5 9l-190 191l-191 -191q-5 -7 -10 -9t-13 -2q-6 0 -12.5 4.5t-12.5 9.5l-45 43q-5 5 -9.5 10.5t-4.5 13.5q0 7 5 14t9 11l262 263q3 3 9 6.5t13 3.5q5 0 11.5 -3.5 t10.5 -7.5z" />
<glyph unicode="&#xe3;" horiz-adv-x="1188" d="M861 144q-23 -33 -50.5 -63t-63 -52.5t-82 -35.5t-106.5 -13q-105 0 -193 39.5t-151.5 108.5t-99 161.5t-35.5 198.5t35 199t98.5 162t151.5 109t194 40q61 0 107.5 -14t82.5 -37t62.5 -53t49.5 -62l7 100q2 25 12 38t36 13h58q21 0 37 -13.5t16 -37.5v-888 q0 -20 -15.5 -32t-37.5 -12h-64q-26 0 -37.5 14t-11.5 37v93zM247 488q0 -71 22 -133t63 -108t98.5 -73t128.5 -27q72 0 128 26t94.5 71t59 107t20.5 134q0 70 -19.5 133t-58 110t-95 75t-129.5 28q-72 0 -130 -27.5t-98.5 -74t-62 -109t-21.5 -132.5zM328 1160 q-7 -7 -15 -7t-19 8t-23.5 20t-20.5 19q-5 5 -6.5 8.5t-1.5 10.5q0 5 6 14.5t7 11.5q42 59 90 83t106 24q30 0 61 -12t59 -32l55 -38q31 -21 67 -21q42 0 72 28q10 9 20.5 24.5t20.5 25.5q5 7 15 7q7 0 18 -8t23.5 -20t20.5 -18q5 -6 6.5 -9.5t1.5 -10.5q0 -5 -6 -15t-7 -10 q-42 -59 -89.5 -83.5t-105.5 -24.5q-31 0 -62 12t-59 32l-55 38q-30 21 -67 21q-44 0 -72 -28q-9 -9 -19.5 -24.5t-20.5 -25.5z" />
<glyph unicode="&#xe4;" horiz-adv-x="1188" d="M861 144q-23 -33 -50.5 -63t-63 -52.5t-82 -35.5t-106.5 -13q-105 0 -193 39.5t-151.5 108.5t-99 161.5t-35.5 198.5t35 199t98.5 162t151.5 109t194 40q61 0 107.5 -14t82.5 -37t62.5 -53t49.5 -62l7 100q2 25 12 38t36 13h58q21 0 37 -13.5t16 -37.5v-888 q0 -20 -15.5 -32t-37.5 -12h-64q-26 0 -37.5 14t-11.5 37v93zM247 488q0 -71 22 -133t63 -108t98.5 -73t128.5 -27q72 0 128 26t94.5 71t59 107t20.5 134q0 70 -19.5 133t-58 110t-95 75t-129.5 28q-72 0 -130 -27.5t-98.5 -74t-62 -109t-21.5 -132.5zM245 1267q0 26 10 49 t27 40t39.5 27t48.5 10q27 0 50 -10t40 -27t26.5 -40t9.5 -49t-9.5 -48.5t-26.5 -39.5t-40 -27t-50 -10q-26 0 -48.5 10t-39.5 27t-27 39.5t-10 48.5zM617 1269q0 26 10 49t27 40t39.5 27t48.5 10q27 0 50 -10t40 -27t26.5 -40t9.5 -49t-9.5 -48.5t-26.5 -39.5t-40 -27 t-50 -10q-26 0 -48.5 10t-39.5 27t-27 39.5t-10 48.5z" />
<glyph unicode="&#xe5;" horiz-adv-x="1188" d="M861 144q-23 -33 -50.5 -63t-63 -52.5t-82 -35.5t-106.5 -13q-105 0 -193 39.5t-151.5 108.5t-99 161.5t-35.5 198.5t35 199t98.5 162t151.5 109t194 40q61 0 107.5 -14t82.5 -37t62.5 -53t49.5 -62l7 100q2 25 12 38t36 13h58q21 0 37 -13.5t16 -37.5v-888 q0 -20 -15.5 -32t-37.5 -12h-64q-26 0 -37.5 14t-11.5 37v93zM247 488q0 -71 22 -133t63 -108t98.5 -73t128.5 -27q72 0 128 26t94.5 71t59 107t20.5 134q0 70 -19.5 133t-58 110t-95 75t-129.5 28q-72 0 -130 -27.5t-98.5 -74t-62 -109t-21.5 -132.5zM566 1610 q43 0 81.5 -16.5t67.5 -45.5t45.5 -67.5t16.5 -81.5q0 -44 -16.5 -82t-45.5 -66.5t-67.5 -44.5t-81.5 -16q-44 0 -82 16t-66.5 44.5t-44.5 66.5t-16 82q0 43 16 81.5t44.5 67.5t66.5 45.5t82 16.5zM566 1504q-23 0 -42 -8t-32.5 -22.5t-21.5 -33.5t-8 -41q0 -45 29.5 -74.5 t74.5 -29.5q22 0 41 8t33.5 21.5t22.5 32.5t8 42q0 45 -30 75t-75 30z" />
<glyph unicode="&#xe6;" horiz-adv-x="1935" d="M245 488q0 -71 22 -133t63 -108t98.5 -73t128.5 -27q72 0 128 26t94.5 71t59 107t20.5 134q0 70 -19.5 133t-58 110t-95 75t-129.5 28q-72 0 -130 -27.5t-98.5 -74t-62 -109t-21.5 -132.5zM1686 551q-14 67 -44.5 121t-73.5 91.5t-95 57.5t-108 20q-50 0 -98.5 -21.5 t-89 -59.5t-70 -91.5t-42.5 -117.5h621zM859 144q-23 -33 -50.5 -63t-63 -52.5t-82 -35.5t-106.5 -13q-105 0 -193 39.5t-151.5 108.5t-99 161.5t-35.5 198.5t35 199t98.5 162t151.5 109t194 40q61 0 107.5 -14t82.5 -37t62.5 -53t49.5 -62l7 100q2 25 12 38t36 13h58 q21 0 37 -13.5t16 -37.5v-102q64 77 154 119t193 42q88 0 169 -33.5t144.5 -95t103.5 -149t46 -195.5v-18q0 -28 -9 -43.5t-25.5 -23t-39 -9t-48.5 -1.5h-642q12 -67 42.5 -120.5t72.5 -91t92.5 -58t101.5 -20.5q121 0 227 85q11 9 22 18.5t22 9.5t20 -12l44 -57 q13 -17 13 -28q0 -8 -5 -13.5t-18 -16.5q-69 -58 -147 -97.5t-169 -39.5q-109 0 -203.5 47t-160.5 128v-113q0 -20 -15.5 -32t-37.5 -12h-64q-26 0 -37.5 14t-11.5 37v93z" />
<glyph unicode="&#xe7;" horiz-adv-x="1023" d="M602 137q60 0 121 24t109 65q8 6 17.5 10.5t18.5 4.5q14 0 22 -12l55 -81q2 -5 4.5 -10t2.5 -7q0 -16 -11 -26.5t-21 -16.5q-66 -47 -146.5 -79.5t-171.5 -32.5q-107 0 -200.5 40t-163 109.5t-109.5 163t-40 200.5q0 106 40 200t109.5 163.5t163 110t200.5 40.5 q80 0 154.5 -24.5t154.5 -79.5h-2q16 -12 24.5 -20.5t8.5 -19.5q0 -5 -2 -12t-4 -10l-55 -86l1 1q-10 -12 -26 -12q-5 0 -13.5 4.5t-18.5 11.5q-47 37 -102.5 61.5t-119.5 24.5q-72 0 -136 -28t-112 -76.5t-76 -112.5t-28 -136t28 -136t76 -112t112 -76t136 -28zM633 -6 q0 -20 8.5 -42t38.5 -42q26 -17 50.5 -33.5t44 -38.5t31.5 -50.5t12 -68.5q-5 -66 -62.5 -117t-178.5 -86q-8 -2 -14 -2q-14 0 -24.5 10t-18 24.5t-11.5 30t-4 27.5q0 21 20 28q69 14 108 41t39 58q0 17 -7 29.5t-19 23t-27.5 20t-32.5 20.5q-20 9 -38 23.5t-31 33.5 t-20.5 41t-7.5 46v34q0 20 8 23.5t23 3.5h86q20 0 23.5 -12.5t3.5 -24.5z" />
<glyph unicode="&#xe8;" horiz-adv-x="1097" d="M561 144q26 0 55.5 4t58 13t54.5 22.5t45 33.5q11 9 27 16.5t28 7.5q11 0 20.5 -4t14.5 -12l41 -69q9 -15 9 -23q0 -15 -11 -28t-23 -21q-29 -23 -67.5 -43t-81 -34t-86.5 -22t-84 -8q-98 0 -184 40t-150 109.5t-101 162.5t-37 200q0 106 37 199.5t101 163t150 110 t184 40.5q91 0 172.5 -37t143 -101t97 -150t35.5 -184v-23q0 -30 -10.5 -48t-28 -28t-41 -13t-50.5 -3h-614q9 -60 35.5 -110t66 -85.5t89 -55.5t105.5 -20zM839 562q-10 56 -36.5 105.5t-64.5 86.5t-84.5 58.5t-97.5 21.5t-97 -21.5t-83 -58.5t-64 -86.5t-40 -105.5h567z M391 1426q-8 17 -10.5 26t-2.5 14q0 12 8.5 15.5t21.5 3.5h80q19 0 30.5 -10t23.5 -32l88 -205q6 -15 7.5 -22t3.5 -14q0 -14 -6.5 -21t-26.5 -7h-73q-34 0 -53 42z" />
<glyph unicode="&#xe9;" horiz-adv-x="1097" d="M561 144q26 0 55.5 4t58 13t54.5 22.5t45 33.5q11 9 27 16.5t28 7.5q11 0 20.5 -4t14.5 -12l41 -69q9 -15 9 -23q0 -15 -11 -28t-23 -21q-29 -23 -67.5 -43t-81 -34t-86.5 -22t-84 -8q-98 0 -184 40t-150 109.5t-101 162.5t-37 200q0 106 37 199.5t101 163t150 110 t184 40.5q91 0 172.5 -37t143 -101t97 -150t35.5 -184v-23q0 -30 -10.5 -48t-28 -28t-41 -13t-50.5 -3h-614q9 -60 35.5 -110t66 -85.5t89 -55.5t105.5 -20zM839 562q-10 56 -36.5 105.5t-64.5 86.5t-84.5 58.5t-97.5 21.5t-97 -21.5t-83 -58.5t-64 -86.5t-40 -105.5h567z M659 1216q-19 -42 -53 -42h-73q-20 0 -26.5 7t-6.5 21q2 7 3.5 14t7.5 22l88 205q12 22 23.5 32t30.5 10h80q13 0 21.5 -3.5t8.5 -15.5q0 -5 -2.5 -14t-10.5 -26z" />
<glyph unicode="&#xea;" horiz-adv-x="1097" d="M561 144q26 0 55.5 4t58 13t54.5 22.5t45 33.5q11 9 27 16.5t28 7.5q11 0 20.5 -4t14.5 -12l41 -69q9 -15 9 -23q0 -15 -11 -28t-23 -21q-29 -23 -67.5 -43t-81 -34t-86.5 -22t-84 -8q-98 0 -184 40t-150 109.5t-101 162.5t-37 200q0 106 37 199.5t101 163t150 110 t184 40.5q91 0 172.5 -37t143 -101t97 -150t35.5 -184v-23q0 -30 -10.5 -48t-28 -28t-41 -13t-50.5 -3h-614q9 -60 35.5 -110t66 -85.5t89 -55.5t105.5 -20zM839 562q-10 56 -36.5 105.5t-64.5 86.5t-84.5 58.5t-97.5 21.5t-97 -21.5t-83 -58.5t-64 -86.5t-40 -105.5h567z M859 1258q4 -4 8.5 -11t4.5 -14q0 -8 -4 -13.5t-9 -10.5l-47 -43q-5 -5 -11 -9.5t-13 -4.5q-5 0 -11.5 2t-11.5 9l-190 191l-191 -191q-5 -7 -10 -9t-13 -2q-6 0 -12.5 4.5t-12.5 9.5l-45 43q-5 5 -9.5 10.5t-4.5 13.5q0 7 5 14t9 11l262 263q3 3 9 6.5t13 3.5 q5 0 11.5 -3.5t10.5 -7.5z" />
<glyph unicode="&#xeb;" horiz-adv-x="1097" d="M561 144q26 0 55.5 4t58 13t54.5 22.5t45 33.5q11 9 27 16.5t28 7.5q11 0 20.5 -4t14.5 -12l41 -69q9 -15 9 -23q0 -15 -11 -28t-23 -21q-29 -23 -67.5 -43t-81 -34t-86.5 -22t-84 -8q-98 0 -184 40t-150 109.5t-101 162.5t-37 200q0 106 37 199.5t101 163t150 110 t184 40.5q91 0 172.5 -37t143 -101t97 -150t35.5 -184v-23q0 -30 -10.5 -48t-28 -28t-41 -13t-50.5 -3h-614q9 -60 35.5 -110t66 -85.5t89 -55.5t105.5 -20zM839 562q-10 56 -36.5 105.5t-64.5 86.5t-84.5 58.5t-97.5 21.5t-97 -21.5t-83 -58.5t-64 -86.5t-40 -105.5h567z M288 1267q0 26 10 49t27 40t39.5 27t48.5 10q27 0 50 -10t40 -27t26.5 -40t9.5 -49t-9.5 -48.5t-26.5 -39.5t-40 -27t-50 -10q-26 0 -48.5 10t-39.5 27t-27 39.5t-10 48.5zM660 1269q0 26 10 49t27 40t39.5 27t48.5 10q27 0 50 -10t40 -27t26.5 -40t9.5 -49t-9.5 -48.5 t-26.5 -39.5t-40 -27t-50 -10q-26 0 -48.5 10t-39.5 27t-27 39.5t-10 48.5z" />
<glyph unicode="&#xec;" d="M335 44q0 -44 -44 -44h-83q-46 0 -46 44v895q0 20 13 32t31 12h82q22 0 34.5 -13t12.5 -31v-895zM76 1426q-8 17 -10.5 26t-2.5 14q0 12 8.5 15.5t21.5 3.5h80q19 0 30.5 -10t23.5 -32l88 -205q6 -15 7.5 -22t3.5 -14q0 -14 -6.5 -21t-26.5 -7h-73q-34 0 -53 42z" />
<glyph unicode="&#xed;" d="M335 44q0 -44 -44 -44h-83q-46 0 -46 44v895q0 20 13 32t31 12h82q22 0 34.5 -13t12.5 -31v-895zM328 1216q-19 -42 -53 -42h-73q-20 0 -26.5 7t-6.5 21q2 7 3.5 14t7.5 22l88 205q12 22 23.5 32t30.5 10h80q13 0 21.5 -3.5t8.5 -15.5q0 -5 -2.5 -14t-10.5 -26z" />
<glyph unicode="&#xee;" d="M335 44q0 -44 -44 -44h-83q-46 0 -46 44v895q0 20 13 32t31 12h82q22 0 34.5 -13t12.5 -31v-895zM542 1258q4 -4 8.5 -11t4.5 -14q0 -8 -4 -13.5t-9 -10.5l-47 -43q-5 -5 -11 -9.5t-13 -4.5q-5 0 -11.5 2t-11.5 9l-190 191l-191 -191q-5 -7 -10 -9t-13 -2q-6 0 -12.5 4.5 t-12.5 9.5l-45 43q-5 5 -9.5 10.5t-4.5 13.5q0 7 5 14t9 11l262 263q3 3 9 6.5t13 3.5q5 0 11.5 -3.5t10.5 -7.5z" />
<glyph unicode="&#xef;" d="M335 44q0 -44 -44 -44h-83q-46 0 -46 44v895q0 20 13 32t31 12h82q22 0 34.5 -13t12.5 -31v-895zM-39 1267q0 26 10 49t27 40t39.5 27t48.5 10q27 0 50 -10t40 -27t26.5 -40t9.5 -49t-9.5 -48.5t-26.5 -39.5t-40 -27t-50 -10q-26 0 -48.5 10t-39.5 27t-27 39.5t-10 48.5z M333 1269q0 26 10 49t27 40t39.5 27t48.5 10q27 0 50 -10t40 -27t26.5 -40t9.5 -49t-9.5 -48.5t-26.5 -39.5t-40 -27t-50 -10q-26 0 -48.5 10t-39.5 27t-27 39.5t-10 48.5z" />
<glyph unicode="&#xf0;" horiz-adv-x="1148" d="M1002 1472q11 11 23.5 11t20.5 -13l48 -64q10 -10 9.5 -24t-11.5 -25l-125 -99q31 -56 53 -121.5t35.5 -137t19.5 -147.5t6 -152q0 -98 -5 -184.5t-30 -165.5q-21 -78 -63 -144.5t-102 -114.5t-136.5 -75t-167.5 -27q-102 0 -191 38.5t-154.5 104.5t-103 155t-37.5 190 q0 102 38.5 191t104.5 155t155 103.5t190 37.5q42 0 84.5 -8t81.5 -24.5t73 -41t61 -56.5q-3 36 -7.5 75t-12.5 78t-19.5 77t-26.5 73l-110 -88q-14 -10 -26.5 -7t-22.5 16l-50 62q-19 24 6 46l115 90q-30 23 -66.5 37t-81.5 14l-2 4q-35 0 -44 10.5t-9 33.5q0 4 -0.5 18.5 t-1.5 30.5q-1 18 -2 41q0 33 11.5 41t43.5 8l2 -2q98 0 172.5 -31t131.5 -86zM883 477q0 63 -24 118.5t-65 96.5t-96.5 65t-118.5 24q-62 0 -117 -24t-96.5 -65t-65.5 -96.5t-24 -118.5t24 -117.5t65.5 -95.5t96.5 -64.5t117 -23.5q63 0 118.5 23.5t96.5 64.5t65 95.5 t24 117.5z" />
<glyph unicode="&#xf1;" horiz-adv-x="1164" d="M335 845q23 28 53.5 56t67.5 50t78.5 35.5t86.5 13.5q86 0 158.5 -32.5t125 -89t82 -132.5t29.5 -163v-532q0 -25 -14 -38t-34 -13h-82q-26 0 -35 12t-9 37v534q0 50 -19.5 95t-53.5 78.5t-78.5 53t-94.5 19.5q-48 0 -93.5 -18.5t-81.5 -50.5t-59.5 -75.5t-26.5 -92.5 v-548q0 -22 -12 -33t-32 -11h-82q-47 0 -47 44v891q0 20 13 32t32 12h75q20 0 32 -12t14 -32zM340 1177q-7 -7 -15 -7t-19 8t-23.5 20t-20.5 19q-5 5 -6.5 8.5t-1.5 10.5q0 5 6 14.5t7 11.5q42 59 90 83t106 24q30 0 61 -12t59 -32l55 -38q31 -21 67 -21q42 0 72 28 q10 9 20.5 24.5t20.5 25.5q5 7 15 7q7 0 18 -8t23.5 -20t20.5 -18q5 -6 6.5 -9.5t1.5 -10.5q0 -5 -6 -15t-7 -10q-42 -59 -89.5 -83.5t-105.5 -24.5q-31 0 -62 12t-59 32l-55 38q-30 21 -67 21q-44 0 -72 -28q-9 -9 -19.5 -24.5t-20.5 -25.5z" />
<glyph unicode="&#xf2;" horiz-adv-x="1220" d="M88 489q0 106 40 200t109.5 163.5t162.5 110t200 40.5q106 0 200 -40.5t163.5 -110t110 -163.5t40.5 -200q0 -107 -40.5 -200.5t-110 -163t-163.5 -109.5t-200 -40q-107 0 -200 40t-162.5 109.5t-109.5 163t-40 200.5zM250 489q0 -72 27.5 -136t75.5 -112t111.5 -76 t135.5 -28t136 28t112.5 76t76.5 112t28 136t-28 136t-76.5 112.5t-112.5 76.5t-136 28t-135.5 -28t-111.5 -76.5t-75.5 -112.5t-27.5 -136zM407 1426q-8 17 -10.5 26t-2.5 14q0 12 8.5 15.5t21.5 3.5h80q19 0 30.5 -10t23.5 -32l88 -205q6 -15 7.5 -22t3.5 -14 q0 -14 -6.5 -21t-26.5 -7h-73q-34 0 -53 42z" />
<glyph unicode="&#xf3;" horiz-adv-x="1220" d="M88 489q0 106 40 200t109.5 163.5t162.5 110t200 40.5q106 0 200 -40.5t163.5 -110t110 -163.5t40.5 -200q0 -107 -40.5 -200.5t-110 -163t-163.5 -109.5t-200 -40q-107 0 -200 40t-162.5 109.5t-109.5 163t-40 200.5zM250 489q0 -72 27.5 -136t75.5 -112t111.5 -76 t135.5 -28t136 28t112.5 76t76.5 112t28 136t-28 136t-76.5 112.5t-112.5 76.5t-136 28t-135.5 -28t-111.5 -76.5t-75.5 -112.5t-27.5 -136zM657 1216q-19 -42 -53 -42h-73q-20 0 -26.5 7t-6.5 21q2 7 3.5 14t7.5 22l88 205q12 22 23.5 32t30.5 10h80q13 0 21.5 -3.5 t8.5 -15.5q0 -5 -2.5 -14t-10.5 -26z" />
<glyph unicode="&#xf4;" horiz-adv-x="1220" d="M88 489q0 106 40 200t109.5 163.5t162.5 110t200 40.5q106 0 200 -40.5t163.5 -110t110 -163.5t40.5 -200q0 -107 -40.5 -200.5t-110 -163t-163.5 -109.5t-200 -40q-107 0 -200 40t-162.5 109.5t-109.5 163t-40 200.5zM250 489q0 -72 27.5 -136t75.5 -112t111.5 -76 t135.5 -28t136 28t112.5 76t76.5 112t28 136t-28 136t-76.5 112.5t-112.5 76.5t-136 28t-135.5 -28t-111.5 -76.5t-75.5 -112.5t-27.5 -136zM880 1258q4 -4 8.5 -11t4.5 -14q0 -8 -4 -13.5t-9 -10.5l-47 -43q-5 -5 -11 -9.5t-13 -4.5q-5 0 -11.5 2t-11.5 9l-190 191 l-191 -191q-5 -7 -10 -9t-13 -2q-6 0 -12.5 4.5t-12.5 9.5l-45 43q-5 5 -9.5 10.5t-4.5 13.5q0 7 5 14t9 11l262 263q3 3 9 6.5t13 3.5q5 0 11.5 -3.5t10.5 -7.5z" />
<glyph unicode="&#xf5;" horiz-adv-x="1220" d="M88 489q0 106 40 200t109.5 163.5t162.5 110t200 40.5q106 0 200 -40.5t163.5 -110t110 -163.5t40.5 -200q0 -107 -40.5 -200.5t-110 -163t-163.5 -109.5t-200 -40q-107 0 -200 40t-162.5 109.5t-109.5 163t-40 200.5zM250 489q0 -72 27.5 -136t75.5 -112t111.5 -76 t135.5 -28t136 28t112.5 76t76.5 112t28 136t-28 136t-76.5 112.5t-112.5 76.5t-136 28t-135.5 -28t-111.5 -76.5t-75.5 -112.5t-27.5 -136zM363 1180q-7 -7 -15 -7t-19 8t-23.5 20t-20.5 19q-5 5 -6.5 8.5t-1.5 10.5q0 5 6 14.5t7 11.5q42 59 90 83t106 24q30 0 61 -12 t59 -32l55 -38q31 -21 67 -21q42 0 72 28q10 9 20.5 24.5t20.5 25.5q5 7 15 7q7 0 18 -8t23.5 -20t20.5 -18q5 -6 6.5 -9.5t1.5 -10.5q0 -5 -6 -15t-7 -10q-42 -59 -89.5 -83.5t-105.5 -24.5q-31 0 -62 12t-59 32l-55 38q-30 21 -67 21q-44 0 -72 -28q-9 -9 -19.5 -24.5 t-20.5 -25.5z" />
<glyph unicode="&#xf6;" horiz-adv-x="1220" d="M88 489q0 106 40 200t109.5 163.5t162.5 110t200 40.5q106 0 200 -40.5t163.5 -110t110 -163.5t40.5 -200q0 -107 -40.5 -200.5t-110 -163t-163.5 -109.5t-200 -40q-107 0 -200 40t-162.5 109.5t-109.5 163t-40 200.5zM250 489q0 -72 27.5 -136t75.5 -112t111.5 -76 t135.5 -28t136 28t112.5 76t76.5 112t28 136t-28 136t-76.5 112.5t-112.5 76.5t-136 28t-135.5 -28t-111.5 -76.5t-75.5 -112.5t-27.5 -136zM281 1267q0 26 10 49t27 40t39.5 27t48.5 10q27 0 50 -10t40 -27t26.5 -40t9.5 -49t-9.5 -48.5t-26.5 -39.5t-40 -27t-50 -10 q-26 0 -48.5 10t-39.5 27t-27 39.5t-10 48.5zM653 1269q0 26 10 49t27 40t39.5 27t48.5 10q27 0 50 -10t40 -27t26.5 -40t9.5 -49t-9.5 -48.5t-26.5 -39.5t-40 -27t-50 -10q-26 0 -48.5 10t-39.5 27t-27 39.5t-10 48.5z" />
<glyph unicode="&#xf7;" horiz-adv-x="903" d="M334 881q0 26 10 48.5t27 39.5t39.5 27t48.5 10q27 0 50 -10t40 -27t26.5 -39.5t9.5 -48.5t-9.5 -49t-26.5 -40t-40 -27t-50 -10q-26 0 -48.5 10t-39.5 27t-27 40t-10 49zM334 101q0 26 10 48.5t27 39.5t39.5 27t48.5 10q27 0 50 -10t40 -27t26.5 -39.5t9.5 -48.5 t-9.5 -49t-26.5 -40t-40 -27t-50 -10q-26 0 -48.5 10t-39.5 27t-27 40t-10 49zM136 403q-47 0 -47 44v84q0 46 47 46h637q20 0 32 -14t12 -32v-84q0 -21 -13 -32.5t-31 -11.5h-637z" />
<glyph unicode="&#xf8;" horiz-adv-x="1220" d="M88 489q0 106 40 200t109.5 163.5t162.5 110t200 40.5q49 0 96 -9l42 101q10 22 21.5 30t32.5 8h77q28 0 35.5 -9.5t-3.5 -35.5l-61 -145q61 -32 111.5 -79.5t86.5 -106t56 -126.5t20 -142q0 -107 -40.5 -200.5t-110 -163t-163.5 -109.5t-200 -40q-39 0 -76.5 5.5 t-72.5 16.5l-50 -120q-14 -30 -43 -30h-91q-41 0 -25 37l72 177q-51 34 -93 80t-71.5 100.5t-45.5 117t-16 129.5zM250 489q0 -72 27.5 -136t75.5 -112t111.5 -76t135.5 -28t136 28t112.5 76t76.5 112t28 136t-28 136t-76.5 112.5t-112.5 76.5t-136 28t-135.5 -28 t-111.5 -76.5t-75.5 -112.5t-27.5 -136z" />
<glyph unicode="&#xf9;" horiz-adv-x="1136" d="M818 44q-5 23 -9 45t-8 45q-23 -29 -50.5 -57t-61 -50t-73 -35t-85.5 -13q-86 0 -161 32.5t-130.5 89t-87.5 132t-32 162.5v533q0 26 14 39t34 13h81q27 0 36 -12t9 -38v-537q0 -50 21 -94t56.5 -77t81 -52t95.5 -19q48 0 93 18.5t79.5 51t56 76t24.5 93.5v545 q0 22 12 33.5t33 11.5h82q46 0 46 -45v-891q0 -20 -12 -32t-32 -12h-66q-23 0 -34.5 12.5t-11.5 31.5zM445 1426q-8 17 -10.5 26t-2.5 14q0 12 8.5 15.5t21.5 3.5h80q19 0 30.5 -10t23.5 -32l88 -205q6 -15 7.5 -22t3.5 -14q0 -14 -6.5 -21t-26.5 -7h-73q-34 0 -53 42z" />
<glyph unicode="&#xfa;" horiz-adv-x="1136" d="M818 44q-5 23 -9 45t-8 45q-23 -29 -50.5 -57t-61 -50t-73 -35t-85.5 -13q-86 0 -161 32.5t-130.5 89t-87.5 132t-32 162.5v533q0 26 14 39t34 13h81q27 0 36 -12t9 -38v-537q0 -50 21 -94t56.5 -77t81 -52t95.5 -19q48 0 93 18.5t79.5 51t56 76t24.5 93.5v545 q0 22 12 33.5t33 11.5h82q46 0 46 -45v-891q0 -20 -12 -32t-32 -12h-66q-23 0 -34.5 12.5t-11.5 31.5zM616 1216q-19 -42 -53 -42h-73q-20 0 -26.5 7t-6.5 21q2 7 3.5 14t7.5 22l88 205q12 22 23.5 32t30.5 10h80q13 0 21.5 -3.5t8.5 -15.5q0 -5 -2.5 -14t-10.5 -26z" />
<glyph unicode="&#xfb;" horiz-adv-x="1136" d="M818 44q-5 23 -9 45t-8 45q-23 -29 -50.5 -57t-61 -50t-73 -35t-85.5 -13q-86 0 -161 32.5t-130.5 89t-87.5 132t-32 162.5v533q0 26 14 39t34 13h81q27 0 36 -12t9 -38v-537q0 -50 21 -94t56.5 -77t81 -52t95.5 -19q48 0 93 18.5t79.5 51t56 76t24.5 93.5v545 q0 22 12 33.5t33 11.5h82q46 0 46 -45v-891q0 -20 -12 -32t-32 -12h-66q-23 0 -34.5 12.5t-11.5 31.5zM854 1258q4 -4 8.5 -11t4.5 -14q0 -8 -4 -13.5t-9 -10.5l-47 -43q-5 -5 -11 -9.5t-13 -4.5q-5 0 -11.5 2t-11.5 9l-190 191l-191 -191q-5 -7 -10 -9t-13 -2 q-6 0 -12.5 4.5t-12.5 9.5l-45 43q-5 5 -9.5 10.5t-4.5 13.5q0 7 5 14t9 11l262 263q3 3 9 6.5t13 3.5q5 0 11.5 -3.5t10.5 -7.5z" />
<glyph unicode="&#xfc;" horiz-adv-x="1136" d="M818 44q-5 23 -9 45t-8 45q-23 -29 -50.5 -57t-61 -50t-73 -35t-85.5 -13q-86 0 -161 32.5t-130.5 89t-87.5 132t-32 162.5v533q0 26 14 39t34 13h81q27 0 36 -12t9 -38v-537q0 -50 21 -94t56.5 -77t81 -52t95.5 -19q48 0 93 18.5t79.5 51t56 76t24.5 93.5v545 q0 22 12 33.5t33 11.5h82q46 0 46 -45v-891q0 -20 -12 -32t-32 -12h-66q-23 0 -34.5 12.5t-11.5 31.5zM246 1267q0 26 10 49t27 40t39.5 27t48.5 10q27 0 50 -10t40 -27t26.5 -40t9.5 -49t-9.5 -48.5t-26.5 -39.5t-40 -27t-50 -10q-26 0 -48.5 10t-39.5 27t-27 39.5 t-10 48.5zM618 1269q0 26 10 49t27 40t39.5 27t48.5 10q27 0 50 -10t40 -27t26.5 -40t9.5 -49t-9.5 -48.5t-26.5 -39.5t-40 -27t-50 -10q-26 0 -48.5 10t-39.5 27t-27 39.5t-10 48.5z" />
<glyph unicode="&#xfd;" horiz-adv-x="1048" d="M976 890q-130 -310 -256 -621.5t-256 -619.5q-15 -35 -53 -35h-80q-46 0 -46 34q0 9 4 21l144 351l-368 890q-6 14 -7.5 24.5t-1.5 14.5q0 32 43 32h85q19 0 32.5 -9.5t19.5 -26.5q33 -87 69 -178.5t72.5 -183.5t73 -183t72.5 -178l286 726q8 18 21 25.5t33 7.5h82 q25 0 36 -11t11 -29q0 -5 -2 -14.5t-14 -36.5zM606 1216q-19 -42 -53 -42h-73q-20 0 -26.5 7t-6.5 21q2 7 3.5 14t7.5 22l88 205q12 22 23.5 32t30.5 10h80q13 0 21.5 -3.5t8.5 -15.5q0 -5 -2.5 -14t-10.5 -26z" />
<glyph unicode="&#xfe;" horiz-adv-x="1182" d="M335 845q24 33 55.5 62t69.5 50t81.5 33t91.5 12q97 0 180.5 -39.5t145.5 -108.5t97.5 -162t35.5 -199q0 -107 -35.5 -199.5t-97.5 -161.5t-145.5 -108.5t-180.5 -39.5q-103 0 -176.5 41.5t-120.5 110.5v-471q0 -23 -14.5 -36.5t-42.5 -13.5h-59q-26 0 -42 13.5t-16 36.5 v1776q0 20 11.5 32t33.5 12h83q20 0 32.5 -12t12.5 -32v-596zM625 832q-58 0 -109 -24.5t-89.5 -67t-62.5 -99.5t-29 -121v-59q4 -66 28.5 -123t63 -99.5t89.5 -66.5t109 -24q61 0 113.5 26.5t91.5 73t61 108.5t22 133q0 70 -22 132.5t-61 109t-91.5 74t-113.5 27.5z" />
<glyph unicode="&#xff;" horiz-adv-x="1048" d="M976 890q-130 -310 -256 -621.5t-256 -619.5q-15 -35 -53 -35h-80q-46 0 -46 34q0 9 4 21l144 351l-368 890q-6 14 -7.5 24.5t-1.5 14.5q0 32 43 32h85q19 0 32.5 -9.5t19.5 -26.5q33 -87 69 -178.5t72.5 -183.5t73 -183t72.5 -178l286 726q8 18 21 25.5t33 7.5h82 q25 0 36 -11t11 -29q0 -5 -2 -14.5t-14 -36.5zM223 1267q0 26 10 49t27 40t39.5 27t48.5 10q27 0 50 -10t40 -27t26.5 -40t9.5 -49t-9.5 -48.5t-26.5 -39.5t-40 -27t-50 -10q-26 0 -48.5 10t-39.5 27t-27 39.5t-10 48.5zM595 1269q0 26 10 49t27 40t39.5 27t48.5 10 q27 0 50 -10t40 -27t26.5 -40t9.5 -49t-9.5 -48.5t-26.5 -39.5t-40 -27t-50 -10q-26 0 -48.5 10t-39.5 27t-27 39.5t-10 48.5z" />
<glyph unicode="&#x100;" horiz-adv-x="1471" d="M232 40q-16 -40 -55 -40h-86q-43 0 -43 32q0 9 2 19q1 4 3 7q108 260 190.5 458.5t143.5 345t103 246.5t69 165.5t42 100.5t22 51.5t8 19.5l1 3q4 11 13.5 24t36.5 13h59q25 0 34.5 -13t14.5 -24l576 -1391q0 -1 3.5 -10t3.5 -15q0 -16 -12.5 -24t-32.5 -8h-86 q-20 0 -33.5 10.5t-20.5 27.5l-116 287h-727zM417 495h585l-291 732zM358 1816q0 35 36 35h701q36 0 36 -35v-77q0 -11 -8.5 -25t-27.5 -14h-701q-36 0 -36 39v77z" />
<glyph unicode="&#x101;" horiz-adv-x="1188" d="M861 144q-23 -33 -50.5 -63t-63 -52.5t-82 -35.5t-106.5 -13q-105 0 -193 39.5t-151.5 108.5t-99 161.5t-35.5 198.5t35 199t98.5 162t151.5 109t194 40q61 0 107.5 -14t82.5 -37t62.5 -53t49.5 -62l7 100q2 25 12 38t36 13h58q21 0 37 -13.5t16 -37.5v-888 q0 -20 -15.5 -32t-37.5 -12h-64q-26 0 -37.5 14t-11.5 37v93zM247 488q0 -71 22 -133t63 -108t98.5 -73t128.5 -27q72 0 128 26t94.5 71t59 107t20.5 134q0 70 -19.5 133t-58 110t-95 75t-129.5 28q-72 0 -130 -27.5t-98.5 -74t-62 -109t-21.5 -132.5zM236 1312q0 35 36 35 h701q36 0 36 -35v-77q0 -11 -8.5 -25t-27.5 -14h-701q-36 0 -36 39v77z" />
<glyph unicode="&#x102;" horiz-adv-x="1471" d="M232 40q-16 -40 -55 -40h-86q-43 0 -43 32q0 9 2 19q1 4 3 7q108 260 190.5 458.5t143.5 345t103 246.5t69 165.5t42 100.5t22 51.5t8 19.5l1 3q4 11 13.5 24t36.5 13h59q25 0 34.5 -13t14.5 -24l576 -1391q0 -1 3.5 -10t3.5 -15q0 -16 -12.5 -24t-32.5 -8h-86 q-20 0 -33.5 10.5t-20.5 27.5l-116 287h-727zM417 495h585l-291 732zM739 1720q-53 1 -98 20.5t-78.5 51t-52.5 72.5t-19 86q0 17 11.5 28t27.5 11h67q18 0 29 -11.5t11 -27.5q0 -35 27 -62t79 -27q45 0 72.5 24t27.5 56q0 17 7.5 32.5t31.5 15.5h58q19 0 35 -8.5t16 -30.5 q0 -45 -19.5 -86.5t-53.5 -73.5t-80 -51t-99 -19z" />
<glyph unicode="&#x103;" horiz-adv-x="1188" d="M861 144q-23 -33 -50.5 -63t-63 -52.5t-82 -35.5t-106.5 -13q-105 0 -193 39.5t-151.5 108.5t-99 161.5t-35.5 198.5t35 199t98.5 162t151.5 109t194 40q61 0 107.5 -14t82.5 -37t62.5 -53t49.5 -62l7 100q2 25 12 38t36 13h58q21 0 37 -13.5t16 -37.5v-888 q0 -20 -15.5 -32t-37.5 -12h-64q-26 0 -37.5 14t-11.5 37v93zM247 488q0 -71 22 -133t63 -108t98.5 -73t128.5 -27q72 0 128 26t94.5 71t59 107t20.5 134q0 70 -19.5 133t-58 110t-95 75t-129.5 28q-72 0 -130 -27.5t-98.5 -74t-62 -109t-21.5 -132.5zM550 1216 q-53 1 -98 20.5t-78.5 51t-52.5 72.5t-19 86q0 17 11.5 28t27.5 11h67q18 0 29 -11.5t11 -27.5q0 -35 27 -62t79 -27q45 0 72.5 24t27.5 56q0 17 7.5 32.5t31.5 15.5h58q19 0 35 -8.5t16 -30.5q0 -45 -19.5 -86.5t-53.5 -73.5t-80 -51t-99 -19z" />
<glyph unicode="&#x104;" horiz-adv-x="1471" d="M232 40q-16 -40 -55 -40h-86q-43 0 -43 32q0 9 2 19q1 4 3 7q108 260 190.5 458.5t143.5 345t103 246.5t69 165.5t42 100.5t22 51.5t8 19.5l1 3q4 11 13.5 24t36.5 13h59q25 0 34.5 -13t14.5 -24l576 -1391q0 -1 3.5 -10t3.5 -15q0 -16 -12.5 -24t-32.5 -8h-86 q-20 0 -33.5 10.5t-20.5 27.5l-116 287h-727zM417 495h585l-291 732zM1213 -10q0 12 3.5 24.5t23.5 12.5h86q15 0 23 -3.5t8 -23.5v-26q0 -24 -7.5 -46t-20.5 -41t-31 -33.5t-38 -23.5q-17 -11 -32.5 -20.5t-27.5 -20t-19 -23t-7 -29.5q0 -31 39 -58t108 -41q20 -7 20 -28 q0 -12 -4 -27.5t-11.5 -30t-18 -24.5t-24.5 -10q-6 0 -14 2q-121 35 -178.5 86t-62.5 117q0 40 12 68.5t31.5 50.5t44 38.5t50.5 33.5q30 20 38.5 38t8.5 38z" />
<glyph unicode="&#x105;" horiz-adv-x="1188" d="M861 144q-23 -33 -50.5 -63t-63 -52.5t-82 -35.5t-106.5 -13q-105 0 -193 39.5t-151.5 108.5t-99 161.5t-35.5 198.5t35 199t98.5 162t151.5 109t194 40q61 0 107.5 -14t82.5 -37t62.5 -53t49.5 -62l7 100q2 25 12 38t36 13h58q21 0 37 -13.5t16 -37.5v-888 q0 -20 -15.5 -32t-37.5 -12h-64q-26 0 -37.5 14t-11.5 37v93zM247 488q0 -71 22 -133t63 -108t98.5 -73t128.5 -27q72 0 128 26t94.5 71t59 107t20.5 134q0 70 -19.5 133t-58 110t-95 75t-129.5 28q-72 0 -130 -27.5t-98.5 -74t-62 -109t-21.5 -132.5zM871 8q0 12 3.5 24.5 t23.5 12.5h86q15 0 23 -3.5t8 -23.5v-26q0 -24 -7.5 -46t-20.5 -41t-31 -33.5t-38 -23.5q-17 -11 -32.5 -20.5t-27.5 -20t-19 -23t-7 -29.5q0 -31 39 -58t108 -41q20 -7 20 -28q0 -12 -4 -27.5t-11.5 -30t-18 -24.5t-24.5 -10q-6 0 -14 2q-121 35 -178.5 86t-62.5 117 q0 40 12 68.5t31.5 50.5t44 38.5t50.5 33.5q30 20 38.5 38t8.5 38z" />
<glyph unicode="&#x106;" horiz-adv-x="1410" d="M1307 1355q11 -8 18.5 -16t7.5 -19q0 -8 -4.5 -17.5t-9.5 -16.5l-42 -66q-16 -23 -34 -23q-7 1 -16 4.5t-20 11.5q-75 54 -165.5 85t-183.5 31q-131 0 -240.5 -48t-188.5 -129.5t-123 -188.5t-44 -225q0 -124 49 -231.5t131 -186.5t189 -124t223 -45q39 0 76.5 4.5 t75.5 15.5t78.5 29t84.5 45q9 4 19.5 11.5t20 15t18.5 12.5t15 5q19 0 34 -25l46 -76q7 -13 7 -28q0 -21 -23 -34q-95 -69 -209 -108.5t-246 -39.5q-106 0 -203 27t-182 77t-154.5 119.5t-119 154t-76.5 182t-27 203.5q0 105 27 202.5t77 182.5t119.5 155t154.5 119.5 t182.5 77t203.5 27.5q126 0 240.5 -39t213.5 -111zM945 1718q-19 -42 -53 -42h-73q-20 0 -26.5 7t-6.5 21q2 7 3.5 14t7.5 22l88 205q12 22 23.5 32t30.5 10h80q13 0 21.5 -3.5t8.5 -15.5q0 -5 -2.5 -14t-10.5 -26z" />
<glyph unicode="&#x107;" horiz-adv-x="1023" d="M602 137q60 0 121 24t109 65q8 6 17.5 10.5t18.5 4.5q14 0 22 -12l55 -81q2 -5 4.5 -10t2.5 -7q0 -16 -11 -26.5t-21 -16.5q-66 -47 -146.5 -79.5t-171.5 -32.5q-107 0 -200.5 40t-163 109.5t-109.5 163t-40 200.5q0 106 40 200t109.5 163.5t163 110t200.5 40.5 q80 0 154.5 -24.5t154.5 -79.5h-2q16 -12 24.5 -20.5t8.5 -19.5q0 -5 -2 -12t-4 -10l-55 -86l1 1q-10 -12 -26 -12q-5 0 -13.5 4.5t-18.5 11.5q-47 37 -102.5 61.5t-119.5 24.5q-72 0 -136 -28t-112 -76.5t-76 -112.5t-28 -136t28 -136t76 -112t112 -76t136 -28zM642 1216 q-19 -42 -53 -42h-73q-20 0 -26.5 7t-6.5 21q2 7 3.5 14t7.5 22l88 205q12 22 23.5 32t30.5 10h80q13 0 21.5 -3.5t8.5 -15.5q0 -5 -2.5 -14t-10.5 -26z" />
<glyph unicode="&#x108;" horiz-adv-x="1410" d="M1307 1355q11 -8 18.5 -16t7.5 -19q0 -8 -4.5 -17.5t-9.5 -16.5l-42 -66q-16 -23 -34 -23q-7 1 -16 4.5t-20 11.5q-75 54 -165.5 85t-183.5 31q-131 0 -240.5 -48t-188.5 -129.5t-123 -188.5t-44 -225q0 -124 49 -231.5t131 -186.5t189 -124t223 -45q39 0 76.5 4.5 t75.5 15.5t78.5 29t84.5 45q9 4 19.5 11.5t20 15t18.5 12.5t15 5q19 0 34 -25l46 -76q7 -13 7 -28q0 -21 -23 -34q-95 -69 -209 -108.5t-246 -39.5q-106 0 -203 27t-182 77t-154.5 119.5t-119 154t-76.5 182t-27 203.5q0 105 27 202.5t77 182.5t119.5 155t154.5 119.5 t182.5 77t203.5 27.5q126 0 240.5 -39t213.5 -111zM1109 1760q4 -4 8.5 -11t4.5 -14q0 -8 -4 -13.5t-9 -10.5l-47 -43q-5 -5 -11 -9.5t-13 -4.5q-5 0 -11.5 2t-11.5 9l-190 191l-191 -191q-5 -7 -10 -9t-13 -2q-6 0 -12.5 4.5t-12.5 9.5l-45 43q-5 5 -9.5 10.5t-4.5 13.5 q0 7 5 14t9 11l262 263q3 3 9 6.5t13 3.5q5 0 11.5 -3.5t10.5 -7.5z" />
<glyph unicode="&#x109;" horiz-adv-x="1023" d="M602 137q60 0 121 24t109 65q8 6 17.5 10.5t18.5 4.5q14 0 22 -12l55 -81q2 -5 4.5 -10t2.5 -7q0 -16 -11 -26.5t-21 -16.5q-66 -47 -146.5 -79.5t-171.5 -32.5q-107 0 -200.5 40t-163 109.5t-109.5 163t-40 200.5q0 106 40 200t109.5 163.5t163 110t200.5 40.5 q80 0 154.5 -24.5t154.5 -79.5h-2q16 -12 24.5 -20.5t8.5 -19.5q0 -5 -2 -12t-4 -10l-55 -86l1 1q-10 -12 -26 -12q-5 0 -13.5 4.5t-18.5 11.5q-47 37 -102.5 61.5t-119.5 24.5q-72 0 -136 -28t-112 -76.5t-76 -112.5t-28 -136t28 -136t76 -112t112 -76t136 -28zM867 1258 q4 -4 8.5 -11t4.5 -14q0 -8 -4 -13.5t-9 -10.5l-47 -43q-5 -5 -11 -9.5t-13 -4.5q-5 0 -11.5 2t-11.5 9l-190 191l-191 -191q-5 -7 -10 -9t-13 -2q-6 0 -12.5 4.5t-12.5 9.5l-45 43q-5 5 -9.5 10.5t-4.5 13.5q0 7 5 14t9 11l262 263q3 3 9 6.5t13 3.5q5 0 11.5 -3.5 t10.5 -7.5z" />
<glyph unicode="&#x10a;" horiz-adv-x="1410" d="M1307 1355q11 -8 18.5 -16t7.5 -19q0 -8 -4.5 -17.5t-9.5 -16.5l-42 -66q-16 -23 -34 -23q-7 1 -16 4.5t-20 11.5q-75 54 -165.5 85t-183.5 31q-131 0 -240.5 -48t-188.5 -129.5t-123 -188.5t-44 -225q0 -124 49 -231.5t131 -186.5t189 -124t223 -45q39 0 76.5 4.5 t75.5 15.5t78.5 29t84.5 45q9 4 19.5 11.5t20 15t18.5 12.5t15 5q19 0 34 -25l46 -76q7 -13 7 -28q0 -21 -23 -34q-95 -69 -209 -108.5t-246 -39.5q-106 0 -203 27t-182 77t-154.5 119.5t-119 154t-76.5 182t-27 203.5q0 105 27 202.5t77 182.5t119.5 155t154.5 119.5 t182.5 77t203.5 27.5q126 0 240.5 -39t213.5 -111zM726 1771q0 26 10 49t27 40t39.5 27t48.5 10q27 0 50 -10t40 -27t26.5 -40t9.5 -49t-9.5 -48.5t-26.5 -39.5t-40 -27t-50 -10q-26 0 -48.5 10t-39.5 27t-27 39.5t-10 48.5z" />
<glyph unicode="&#x10b;" horiz-adv-x="1023" d="M602 137q60 0 121 24t109 65q8 6 17.5 10.5t18.5 4.5q14 0 22 -12l55 -81q2 -5 4.5 -10t2.5 -7q0 -16 -11 -26.5t-21 -16.5q-66 -47 -146.5 -79.5t-171.5 -32.5q-107 0 -200.5 40t-163 109.5t-109.5 163t-40 200.5q0 106 40 200t109.5 163.5t163 110t200.5 40.5 q80 0 154.5 -24.5t154.5 -79.5h-2q16 -12 24.5 -20.5t8.5 -19.5q0 -5 -2 -12t-4 -10l-55 -86l1 1q-10 -12 -26 -12q-5 0 -13.5 4.5t-18.5 11.5q-47 37 -102.5 61.5t-119.5 24.5q-72 0 -136 -28t-112 -76.5t-76 -112.5t-28 -136t28 -136t76 -112t112 -76t136 -28zM474 1269 q0 26 10 49t27 40t39.5 27t48.5 10q27 0 50 -10t40 -27t26.5 -40t9.5 -49t-9.5 -48.5t-26.5 -39.5t-40 -27t-50 -10q-26 0 -48.5 10t-39.5 27t-27 39.5t-10 48.5z" />
<glyph unicode="&#x10c;" horiz-adv-x="1410" d="M1307 1355q11 -8 18.5 -16t7.5 -19q0 -8 -4.5 -17.5t-9.5 -16.5l-42 -66q-16 -23 -34 -23q-7 1 -16 4.5t-20 11.5q-75 54 -165.5 85t-183.5 31q-131 0 -240.5 -48t-188.5 -129.5t-123 -188.5t-44 -225q0 -124 49 -231.5t131 -186.5t189 -124t223 -45q39 0 76.5 4.5 t75.5 15.5t78.5 29t84.5 45q9 4 19.5 11.5t20 15t18.5 12.5t15 5q19 0 34 -25l46 -76q7 -13 7 -28q0 -21 -23 -34q-95 -69 -209 -108.5t-246 -39.5q-106 0 -203 27t-182 77t-154.5 119.5t-119 154t-76.5 182t-27 203.5q0 105 27 202.5t77 182.5t119.5 155t154.5 119.5 t182.5 77t203.5 27.5q126 0 240.5 -39t213.5 -111zM848 1661q-4 -4 -10.5 -7.5t-11.5 -3.5q-7 0 -13 3.5t-9 6.5l-262 263q-4 4 -9 11t-5 14q0 8 4.5 13.5t9.5 10.5l45 43q6 5 12.5 9.5t12.5 4.5q8 0 13 -2t10 -9l191 -191l190 191q5 7 11.5 9t11.5 2q7 0 13 -4.5t11 -9.5 l47 -43q5 -5 9 -10.5t4 -13.5q0 -7 -4.5 -14t-8.5 -11z" />
<glyph unicode="&#x10d;" horiz-adv-x="1023" d="M602 137q60 0 121 24t109 65q8 6 17.5 10.5t18.5 4.5q14 0 22 -12l55 -81q2 -5 4.5 -10t2.5 -7q0 -16 -11 -26.5t-21 -16.5q-66 -47 -146.5 -79.5t-171.5 -32.5q-107 0 -200.5 40t-163 109.5t-109.5 163t-40 200.5q0 106 40 200t109.5 163.5t163 110t200.5 40.5 q80 0 154.5 -24.5t154.5 -79.5h-2q16 -12 24.5 -20.5t8.5 -19.5q0 -5 -2 -12t-4 -10l-55 -86l1 1q-10 -12 -26 -12q-5 0 -13.5 4.5t-18.5 11.5q-47 37 -102.5 61.5t-119.5 24.5q-72 0 -136 -28t-112 -76.5t-76 -112.5t-28 -136t28 -136t76 -112t112 -76t136 -28zM615 1159 q-4 -4 -10.5 -7.5t-11.5 -3.5q-7 0 -13 3.5t-9 6.5l-262 263q-4 4 -9 11t-5 14q0 8 4.5 13.5t9.5 10.5l45 43q6 5 12.5 9.5t12.5 4.5q8 0 13 -2t10 -9l191 -191l190 191q5 7 11.5 9t11.5 2q7 0 13 -4.5t11 -9.5l47 -43q5 -5 9 -10.5t4 -13.5q0 -7 -4.5 -14t-8.5 -11z" />
<glyph unicode="&#x10e;" horiz-adv-x="1491" d="M162 1437q0 48 46 48h448q105 0 201 -26.5t178.5 -74.5t150 -115.5t115 -150t73.5 -178t26 -199.5q0 -102 -26.5 -197t-74.5 -177t-116 -150t-150.5 -116t-178 -74.5t-198.5 -26.5h-448q-19 0 -32.5 9.5t-13.5 33.5v1394zM668 170q82 0 155.5 22t136 61.5t112.5 94 t85 119t54 137.5t19 149q0 127 -46.5 231t-125 177t-183 113t-219.5 40h-321v-1144h333zM706 1663q-4 -4 -10.5 -7.5t-11.5 -3.5q-7 0 -13 3.5t-9 6.5l-262 263q-4 4 -9 11t-5 14q0 8 4.5 13.5t9.5 10.5l45 43q6 5 12.5 9.5t12.5 4.5q8 0 13 -2t10 -9l191 -191l190 191 q5 7 11.5 9t11.5 2q7 0 13 -4.5t11 -9.5l47 -43q5 -5 9 -10.5t4 -13.5q0 -7 -4.5 -14t-8.5 -11z" />
<glyph unicode="&#x10f;" horiz-adv-x="1237" d="M1031 51q0 -24 -14.5 -37.5t-41.5 -13.5h-60q-26 0 -41.5 13t-15.5 38v82q-24 -34 -53 -62t-65.5 -48.5t-81.5 -31.5t-102 -11q-105 0 -189.5 39.5t-144.5 108.5t-92.5 161.5t-32.5 198.5t32.5 199t92.5 162t144.5 109t189.5 40q57 0 102 -11.5t81.5 -32t65.5 -49.5 t53 -64v595q0 23 14 36t42 13h58q26 0 42.5 -13t16.5 -36v-1385zM875 487q0 70 -22 132.5t-61.5 109.5t-95.5 74t-124 27q-75 0 -131.5 -27t-94.5 -74t-57 -109.5t-19 -132.5t19 -132.5t57 -109t94.5 -74t131.5 -27.5q67 0 123 27.5t96 74t62 109t22 132.5zM999.417 1263.71 q0 25.1406 9.39941 47.1387q9.39844 21.999 25.5107 38.1602q16.1133 16.1621 38.0439 25.1416q21.9307 8.97852 46.0996 8.97852q25.959 0 47.8906 -9.42773q21.9307 -9.42773 38.043 -26.0391q16.1123 -16.6104 25.0645 -40.4043q8.95117 -23.7949 8.95117 -53.4248 q0 -62.8525 -12.5322 -109.542q-12.5322 -46.6904 -29.9873 -77.668q-17.4551 -30.9766 -35.8057 -46.2412q-18.3506 -15.2637 -29.9873 -15.2637q-7.16113 0 -11.1895 1.34668q-4.02734 1.34668 -9.39844 5.83594l-27.75 21.5498q-6.26562 5.38672 -9.8457 13.0195 q-3.58105 7.63184 -3.58105 13.917q0 8.08105 4.02832 13.0195t9.39844 12.1211q8.05664 8.08105 13.875 20.6514t5.81836 31.4268v6.28516q-20.5879 3.59082 -38.9385 14.3662q-18.3506 10.7744 -32.6729 26.9365t-22.3779 36.3643q-8.05664 20.2021 -8.05664 41.752z" />
<glyph unicode="&#x110;" horiz-adv-x="1544" d="M162 1437q0 48 46 48h448q105 0 201 -26.5t178.5 -74.5t150 -115.5t115 -150t73.5 -178t26 -199.5q0 -102 -26.5 -197t-74.5 -177t-116 -150t-150.5 -116t-178 -74.5t-198.5 -26.5h-448q-19 0 -32.5 9.5t-13.5 33.5v1394zM668 170q82 0 155.5 22t136 61.5t112.5 94 t85 119t54 137.5t19 149q0 127 -46.5 231t-125 177t-183 113t-219.5 40h-321v-1144h333zM478 818q18 0 31 -11.5t13 -32.5v-80q0 -18 -12 -32t-32 -14h-407q-47 0 -47 46v80q0 44 47 44h407z" />
<glyph unicode="&#x111;" horiz-adv-x="1188" d="M1031 51q0 -24 -14.5 -37.5t-41.5 -13.5h-60q-26 0 -41.5 13t-15.5 38v82q-24 -34 -53 -62t-65.5 -48.5t-81.5 -31.5t-102 -11q-105 0 -189.5 39.5t-144.5 108.5t-92.5 161.5t-32.5 198.5t32.5 199t92.5 162t144.5 109t189.5 40q57 0 102 -11.5t81.5 -32t65.5 -49.5 t53 -64v595q0 23 14 36t42 13h58q26 0 42.5 -13t16.5 -36v-1385zM875 487q0 70 -22 132.5t-61.5 109.5t-95.5 74t-124 27q-75 0 -131.5 -27t-94.5 -74t-57 -109.5t-19 -132.5t19 -132.5t57 -109t94.5 -74t131.5 -27.5q67 0 123 27.5t96 74t62 109t22 132.5zM1117.26 1269.75 q15.4277 0 26.5703 -11.3701q11.1426 -11.3691 11.1426 -32.1309v-83.0459q0 -17.7959 -10.2852 -31.6367q-10.2852 -13.8418 -27.4277 -13.8418h-545.983q-40.2842 0 -40.2842 45.4785v83.0459q0 43.501 40.2842 43.501h545.983z" />
<glyph unicode="&#x112;" horiz-adv-x="1285" d="M1168 1485q45 0 45 -47v-81q0 -18 -12 -32t-35 -14h-831v-442h661q18 0 31 -11t13 -35v-82q0 -18 -11 -32t-33 -14h-661v-521h840q45 0 45 -47v-83q0 -44 -44 -44h-970q-44 0 -44 42v1397q0 46 44 46h962zM307 1816q0 35 36 35h701q36 0 36 -35v-77q0 -11 -8.5 -25 t-27.5 -14h-701q-36 0 -36 39v77z" />
<glyph unicode="&#x113;" horiz-adv-x="1097" d="M561 144q26 0 55.5 4t58 13t54.5 22.5t45 33.5q11 9 27 16.5t28 7.5q11 0 20.5 -4t14.5 -12l41 -69q9 -15 9 -23q0 -15 -11 -28t-23 -21q-29 -23 -67.5 -43t-81 -34t-86.5 -22t-84 -8q-98 0 -184 40t-150 109.5t-101 162.5t-37 200q0 106 37 199.5t101 163t150 110 t184 40.5q91 0 172.5 -37t143 -101t97 -150t35.5 -184v-23q0 -30 -10.5 -48t-28 -28t-41 -13t-50.5 -3h-614q9 -60 35.5 -110t66 -85.5t89 -55.5t105.5 -20zM839 562q-10 56 -36.5 105.5t-64.5 86.5t-84.5 58.5t-97.5 21.5t-97 -21.5t-83 -58.5t-64 -86.5t-40 -105.5h567z M208 1312q0 35 36 35h701q36 0 36 -35v-77q0 -11 -8.5 -25t-27.5 -14h-701q-36 0 -36 39v77z" />
<glyph unicode="&#x114;" horiz-adv-x="1285" d="M1168 1485q45 0 45 -47v-81q0 -18 -12 -32t-35 -14h-831v-442h661q18 0 31 -11t13 -35v-82q0 -18 -11 -32t-33 -14h-661v-521h840q45 0 45 -47v-83q0 -44 -44 -44h-970q-44 0 -44 42v1397q0 46 44 46h962zM699 1720q-53 1 -98 20.5t-78.5 51t-52.5 72.5t-19 86 q0 17 11.5 28t27.5 11h67q18 0 29 -11.5t11 -27.5q0 -35 27 -62t79 -27q45 0 72.5 24t27.5 56q0 17 7.5 32.5t31.5 15.5h58q19 0 35 -8.5t16 -30.5q0 -45 -19.5 -86.5t-53.5 -73.5t-80 -51t-99 -19z" />
<glyph unicode="&#x115;" horiz-adv-x="1097" d="M561 144q26 0 55.5 4t58 13t54.5 22.5t45 33.5q11 9 27 16.5t28 7.5q11 0 20.5 -4t14.5 -12l41 -69q9 -15 9 -23q0 -15 -11 -28t-23 -21q-29 -23 -67.5 -43t-81 -34t-86.5 -22t-84 -8q-98 0 -184 40t-150 109.5t-101 162.5t-37 200q0 106 37 199.5t101 163t150 110 t184 40.5q91 0 172.5 -37t143 -101t97 -150t35.5 -184v-23q0 -30 -10.5 -48t-28 -28t-41 -13t-50.5 -3h-614q9 -60 35.5 -110t66 -85.5t89 -55.5t105.5 -20zM839 562q-10 56 -36.5 105.5t-64.5 86.5t-84.5 58.5t-97.5 21.5t-97 -21.5t-83 -58.5t-64 -86.5t-40 -105.5h567z M576 1216q-53 1 -98 20.5t-78.5 51t-52.5 72.5t-19 86q0 17 11.5 28t27.5 11h67q18 0 29 -11.5t11 -27.5q0 -35 27 -62t79 -27q45 0 72.5 24t27.5 56q0 17 7.5 32.5t31.5 15.5h58q19 0 35 -8.5t16 -30.5q0 -45 -19.5 -86.5t-53.5 -73.5t-80 -51t-99 -19z" />
<glyph unicode="&#x116;" horiz-adv-x="1285" d="M1168 1485q45 0 45 -47v-81q0 -18 -12 -32t-35 -14h-831v-442h661q18 0 31 -11t13 -35v-82q0 -18 -11 -32t-33 -14h-661v-521h840q45 0 45 -47v-83q0 -44 -44 -44h-970q-44 0 -44 42v1397q0 46 44 46h962zM544 1773q0 26 10 49t27 40t39.5 27t48.5 10q27 0 50 -10t40 -27 t26.5 -40t9.5 -49t-9.5 -48.5t-26.5 -39.5t-40 -27t-50 -10q-26 0 -48.5 10t-39.5 27t-27 39.5t-10 48.5z" />
<glyph unicode="&#x117;" horiz-adv-x="1097" d="M561 144q26 0 55.5 4t58 13t54.5 22.5t45 33.5q11 9 27 16.5t28 7.5q11 0 20.5 -4t14.5 -12l41 -69q9 -15 9 -23q0 -15 -11 -28t-23 -21q-29 -23 -67.5 -43t-81 -34t-86.5 -22t-84 -8q-98 0 -184 40t-150 109.5t-101 162.5t-37 200q0 106 37 199.5t101 163t150 110 t184 40.5q91 0 172.5 -37t143 -101t97 -150t35.5 -184v-23q0 -30 -10.5 -48t-28 -28t-41 -13t-50.5 -3h-614q9 -60 35.5 -110t66 -85.5t89 -55.5t105.5 -20zM839 562q-10 56 -36.5 105.5t-64.5 86.5t-84.5 58.5t-97.5 21.5t-97 -21.5t-83 -58.5t-64 -86.5t-40 -105.5h567z M432 1269q0 26 10 49t27 40t39.5 27t48.5 10q27 0 50 -10t40 -27t26.5 -40t9.5 -49t-9.5 -48.5t-26.5 -39.5t-40 -27t-50 -10q-26 0 -48.5 10t-39.5 27t-27 39.5t-10 48.5z" />
<glyph unicode="&#x118;" horiz-adv-x="1285" d="M1168 1485q45 0 45 -47v-81q0 -18 -12 -32t-35 -14h-831v-442h661q18 0 31 -11t13 -35v-82q0 -18 -11 -32t-33 -14h-661v-521h840q45 0 45 -47v-83q0 -44 -44 -44h-970q-44 0 -44 42v1397q0 46 44 46h962zM670 -11q0 12 3.5 24.5t23.5 12.5h86q15 0 23 -3.5t8 -23.5v-26 q0 -24 -7.5 -46t-20.5 -41t-31 -33.5t-38 -23.5q-17 -11 -32.5 -20.5t-27.5 -20t-19 -23t-7 -29.5q0 -31 39 -58t108 -41q20 -7 20 -28q0 -12 -4 -27.5t-11.5 -30t-18 -24.5t-24.5 -10q-6 0 -14 2q-121 35 -178.5 86t-62.5 117q0 40 12 68.5t31.5 50.5t44 38.5t50.5 33.5 q30 20 38.5 38t8.5 38z" />
<glyph unicode="&#x119;" horiz-adv-x="1097" d="M561 144q26 0 55.5 4t58 13t54.5 22.5t45 33.5q11 9 27 16.5t28 7.5q11 0 20.5 -4t14.5 -12l41 -69q9 -15 9 -23q0 -15 -11 -28t-23 -21q-29 -23 -67.5 -43t-81 -34t-86.5 -22t-84 -8q-98 0 -184 40t-150 109.5t-101 162.5t-37 200q0 106 37 199.5t101 163t150 110 t184 40.5q91 0 172.5 -37t143 -101t97 -150t35.5 -184v-23q0 -30 -10.5 -48t-28 -28t-41 -13t-50.5 -3h-614q9 -60 35.5 -110t66 -85.5t89 -55.5t105.5 -20zM839 562q-10 56 -36.5 105.5t-64.5 86.5t-84.5 58.5t-97.5 21.5t-97 -21.5t-83 -58.5t-64 -86.5t-40 -105.5h567z M532 -11q0 12 3.5 24.5t23.5 12.5h86q15 0 23 -3.5t8 -23.5v-26q0 -24 -7.5 -46t-20.5 -41t-31 -33.5t-38 -23.5q-17 -11 -32.5 -20.5t-27.5 -20t-19 -23t-7 -29.5q0 -31 39 -58t108 -41q20 -7 20 -28q0 -12 -4 -27.5t-11.5 -30t-18 -24.5t-24.5 -10q-6 0 -14 2 q-121 35 -178.5 86t-62.5 117q0 40 12 68.5t31.5 50.5t44 38.5t50.5 33.5q30 20 38.5 38t8.5 38z" />
<glyph unicode="&#x11a;" horiz-adv-x="1285" d="M1168 1485q45 0 45 -47v-81q0 -18 -12 -32t-35 -14h-831v-442h661q18 0 31 -11t13 -35v-82q0 -18 -11 -32t-33 -14h-661v-521h840q45 0 45 -47v-83q0 -44 -44 -44h-970q-44 0 -44 42v1397q0 46 44 46h962zM734 1663q-4 -4 -10.5 -7.5t-11.5 -3.5q-7 0 -13 3.5t-9 6.5 l-262 263q-4 4 -9 11t-5 14q0 8 4.5 13.5t9.5 10.5l45 43q6 5 12.5 9.5t12.5 4.5q8 0 13 -2t10 -9l191 -191l190 191q5 7 11.5 9t11.5 2q7 0 13 -4.5t11 -9.5l47 -43q5 -5 9 -10.5t4 -13.5q0 -7 -4.5 -14t-8.5 -11z" />
<glyph unicode="&#x11b;" horiz-adv-x="1097" d="M561 144q26 0 55.5 4t58 13t54.5 22.5t45 33.5q11 9 27 16.5t28 7.5q11 0 20.5 -4t14.5 -12l41 -69q9 -15 9 -23q0 -15 -11 -28t-23 -21q-29 -23 -67.5 -43t-81 -34t-86.5 -22t-84 -8q-98 0 -184 40t-150 109.5t-101 162.5t-37 200q0 106 37 199.5t101 163t150 110 t184 40.5q91 0 172.5 -37t143 -101t97 -150t35.5 -184v-23q0 -30 -10.5 -48t-28 -28t-41 -13t-50.5 -3h-614q9 -60 35.5 -110t66 -85.5t89 -55.5t105.5 -20zM839 562q-10 56 -36.5 105.5t-64.5 86.5t-84.5 58.5t-97.5 21.5t-97 -21.5t-83 -58.5t-64 -86.5t-40 -105.5h567z M598 1159q-4 -4 -10.5 -7.5t-11.5 -3.5q-7 0 -13 3.5t-9 6.5l-262 263q-4 4 -9 11t-5 14q0 8 4.5 13.5t9.5 10.5l45 43q6 5 12.5 9.5t12.5 4.5q8 0 13 -2t10 -9l191 -191l190 191q5 7 11.5 9t11.5 2q7 0 13 -4.5t11 -9.5l47 -43q5 -5 9 -10.5t4 -13.5q0 -7 -4.5 -14 t-8.5 -11z" />
<glyph unicode="&#x11c;" horiz-adv-x="1452" d="M1164 613q0 44 44 44h84q19 0 32.5 -11.5t13.5 -32.5v-444q0 -11 -5.5 -21.5t-21.5 -21.5l-5 -3q-94 -69 -209 -107t-246 -38q-106 0 -203 27t-182 77t-154.5 119.5t-119 154t-76.5 182t-27 203.5q0 105 27 202t77 182t119.5 155t154.5 120t182.5 77.5t203.5 27.5 q141 0 274 -52q25 -10 60 -26t67 -35t54.5 -39t22.5 -39q0 -12 -7 -22l-44 -72q-14 -23 -34 -23q-7 0 -17 3.5t-21 11.5q-74 54 -165 85.5t-188 31.5q-130 0 -239 -49t-187.5 -131t-122.5 -188.5t-44 -221.5q0 -123 47.5 -230t128.5 -186.5t188 -125t226 -45.5q52 0 99 8 t87.5 21t72.5 29.5t53 32.5v370zM1108 1762q4 -4 8.5 -11t4.5 -14q0 -8 -4 -13.5t-9 -10.5l-47 -43q-5 -5 -11 -9.5t-13 -4.5q-5 0 -11.5 2t-11.5 9l-190 191l-191 -191q-5 -7 -10 -9t-13 -2q-6 0 -12.5 4.5t-12.5 9.5l-45 43q-5 5 -9.5 10.5t-4.5 13.5q0 7 5 14t9 11 l262 263q3 3 9 6.5t13 3.5q5 0 11.5 -3.5t10.5 -7.5z" />
<glyph unicode="&#x11d;" horiz-adv-x="1192" d="M844 149q-23 -31 -55.5 -61.5t-71 -55t-82 -39.5t-89.5 -15q-102 0 -187.5 40t-147.5 109.5t-96.5 162.5t-34.5 199t36 199.5t99 162.5t148 109t183 40q51 0 95.5 -12t82 -33t67.5 -49t53 -59v81q0 23 12.5 37t41.5 14h65q23 0 40 -13.5t17 -37.5v-833q0 -127 -37 -221.5 t-102 -157.5t-153.5 -94t-191.5 -31q-85 0 -151 19t-125 56h1q-14 8 -19 13t-5 14q0 5 4 12.5t5 9.5l56 95q5 6 10.5 9.5t18.5 3.5q5 0 11 -2.5t11 -5.5q38 -26 86 -42.5t96 -16.5q55 0 110 18.5t99.5 54t72 86t27.5 114.5v120zM250 488q0 -71 23.5 -133t64 -108.5 t94.5 -73.5t115 -27q58 0 111.5 26.5t95 72t66 107t24.5 130.5q0 70 -23.5 133.5t-63.5 111.5t-94.5 76t-115.5 28t-115 -27.5t-94.5 -74t-64 -109t-23.5 -132.5zM974 1322q4 -4 8.5 -11t4.5 -14q0 -8 -4 -13.5t-9 -10.5l-47 -43q-5 -5 -11 -9.5t-13 -4.5q-5 0 -11.5 2 t-11.5 9l-190 191l-191 -191q-5 -7 -10 -9t-13 -2q-6 0 -12.5 4.5t-12.5 9.5l-45 43q-5 5 -9.5 10.5t-4.5 13.5q0 7 5 14t9 11l262 263q3 3 9 6.5t13 3.5q5 0 11.5 -3.5t10.5 -7.5z" />
<glyph unicode="&#x11e;" horiz-adv-x="1452" d="M1164 613q0 44 44 44h84q19 0 32.5 -11.5t13.5 -32.5v-444q0 -11 -5.5 -21.5t-21.5 -21.5l-5 -3q-94 -69 -209 -107t-246 -38q-106 0 -203 27t-182 77t-154.5 119.5t-119 154t-76.5 182t-27 203.5q0 105 27 202t77 182t119.5 155t154.5 120t182.5 77.5t203.5 27.5 q141 0 274 -52q25 -10 60 -26t67 -35t54.5 -39t22.5 -39q0 -12 -7 -22l-44 -72q-14 -23 -34 -23q-7 0 -17 3.5t-21 11.5q-74 54 -165 85.5t-188 31.5q-130 0 -239 -49t-187.5 -131t-122.5 -188.5t-44 -221.5q0 -123 47.5 -230t128.5 -186.5t188 -125t226 -45.5q52 0 99 8 t87.5 21t72.5 29.5t53 32.5v370zM822 1720q-53 1 -98 20.5t-78.5 51t-52.5 72.5t-19 86q0 17 11.5 28t27.5 11h67q18 0 29 -11.5t11 -27.5q0 -35 27 -62t79 -27q45 0 72.5 24t27.5 56q0 17 7.5 32.5t31.5 15.5h58q19 0 35 -8.5t16 -30.5q0 -45 -19.5 -86.5t-53.5 -73.5 t-80 -51t-99 -19z" />
<glyph unicode="&#x11f;" horiz-adv-x="1192" d="M844 149q-23 -31 -55.5 -61.5t-71 -55t-82 -39.5t-89.5 -15q-102 0 -187.5 40t-147.5 109.5t-96.5 162.5t-34.5 199t36 199.5t99 162.5t148 109t183 40q51 0 95.5 -12t82 -33t67.5 -49t53 -59v81q0 23 12.5 37t41.5 14h65q23 0 40 -13.5t17 -37.5v-833q0 -127 -37 -221.5 t-102 -157.5t-153.5 -94t-191.5 -31q-85 0 -151 19t-125 56h1q-14 8 -19 13t-5 14q0 5 4 12.5t5 9.5l56 95q5 6 10.5 9.5t18.5 3.5q5 0 11 -2.5t11 -5.5q38 -26 86 -42.5t96 -16.5q55 0 110 18.5t99.5 54t72 86t27.5 114.5v120zM250 488q0 -71 23.5 -133t64 -108.5 t94.5 -73.5t115 -27q58 0 111.5 26.5t95 72t66 107t24.5 130.5q0 70 -23.5 133.5t-63.5 111.5t-94.5 76t-115.5 28t-115 -27.5t-94.5 -74t-64 -109t-23.5 -132.5zM695 1328q-53 1 -98 20.5t-78.5 51t-52.5 72.5t-19 86q0 17 11.5 28t27.5 11h67q18 0 29 -11.5t11 -27.5 q0 -35 27 -62t79 -27q45 0 72.5 24t27.5 56q0 17 7.5 32.5t31.5 15.5h58q19 0 35 -8.5t16 -30.5q0 -45 -19.5 -86.5t-53.5 -73.5t-80 -51t-99 -19z" />
<glyph unicode="&#x120;" horiz-adv-x="1452" d="M1164 613q0 44 44 44h84q19 0 32.5 -11.5t13.5 -32.5v-444q0 -11 -5.5 -21.5t-21.5 -21.5l-5 -3q-94 -69 -209 -107t-246 -38q-106 0 -203 27t-182 77t-154.5 119.5t-119 154t-76.5 182t-27 203.5q0 105 27 202t77 182t119.5 155t154.5 120t182.5 77.5t203.5 27.5 q141 0 274 -52q25 -10 60 -26t67 -35t54.5 -39t22.5 -39q0 -12 -7 -22l-44 -72q-14 -23 -34 -23q-7 0 -17 3.5t-21 11.5q-74 54 -165 85.5t-188 31.5q-130 0 -239 -49t-187.5 -131t-122.5 -188.5t-44 -221.5q0 -123 47.5 -230t128.5 -186.5t188 -125t226 -45.5q52 0 99 8 t87.5 21t72.5 29.5t53 32.5v370zM709 1774q0 26 10 49t27 40t39.5 27t48.5 10q27 0 50 -10t40 -27t26.5 -40t9.5 -49t-9.5 -48.5t-26.5 -39.5t-40 -27t-50 -10q-26 0 -48.5 10t-39.5 27t-27 39.5t-10 48.5z" />
<glyph unicode="&#x121;" horiz-adv-x="1192" d="M844 149q-23 -31 -55.5 -61.5t-71 -55t-82 -39.5t-89.5 -15q-102 0 -187.5 40t-147.5 109.5t-96.5 162.5t-34.5 199t36 199.5t99 162.5t148 109t183 40q51 0 95.5 -12t82 -33t67.5 -49t53 -59v81q0 23 12.5 37t41.5 14h65q23 0 40 -13.5t17 -37.5v-833q0 -127 -37 -221.5 t-102 -157.5t-153.5 -94t-191.5 -31q-85 0 -151 19t-125 56h1q-14 8 -19 13t-5 14q0 5 4 12.5t5 9.5l56 95q5 6 10.5 9.5t18.5 3.5q5 0 11 -2.5t11 -5.5q38 -26 86 -42.5t96 -16.5q55 0 110 18.5t99.5 54t72 86t27.5 114.5v120zM250 488q0 -71 23.5 -133t64 -108.5 t94.5 -73.5t115 -27q58 0 111.5 26.5t95 72t66 107t24.5 130.5q0 70 -23.5 133.5t-63.5 111.5t-94.5 76t-115.5 28t-115 -27.5t-94.5 -74t-64 -109t-23.5 -132.5zM467 1269q0 26 10 49t27 40t39.5 27t48.5 10q27 0 50 -10t40 -27t26.5 -40t9.5 -49t-9.5 -48.5t-26.5 -39.5 t-40 -27t-50 -10q-26 0 -48.5 10t-39.5 27t-27 39.5t-10 48.5z" />
<glyph unicode="&#x122;" horiz-adv-x="1452" d="M1164 613q0 44 44 44h84q19 0 32.5 -11.5t13.5 -32.5v-444q0 -11 -5.5 -21.5t-21.5 -21.5l-5 -3q-94 -69 -209 -107t-246 -38q-106 0 -203 27t-182 77t-154.5 119.5t-119 154t-76.5 182t-27 203.5q0 105 27 202t77 182t119.5 155t154.5 120t182.5 77.5t203.5 27.5 q141 0 274 -52q25 -10 60 -26t67 -35t54.5 -39t22.5 -39q0 -12 -7 -22l-44 -72q-14 -23 -34 -23q-7 0 -17 3.5t-21 11.5q-74 54 -165 85.5t-188 31.5q-130 0 -239 -49t-187.5 -131t-122.5 -188.5t-44 -221.5q0 -123 47.5 -230t128.5 -186.5t188 -125t226 -45.5q52 0 99 8 t87.5 21t72.5 29.5t53 32.5v370zM723 -301q0 28 10.5 52.5t28.5 42.5t42.5 28t51.5 10q29 0 53.5 -10.5t42.5 -29t28 -45t10 -59.5q0 -70 -14 -122t-33.5 -86.5t-40 -51.5t-33.5 -17q-8 0 -12.5 1.5t-10.5 6.5l-31 24q-7 6 -11 14.5t-4 15.5q0 10 4.5 17.5t10.5 15.5l1 2v-1 q8 8 14.5 20t6.5 32v7q-23 4 -43.5 16t-36.5 30t-25 40.5t-9 46.5z" />
<glyph unicode="&#x123;" horiz-adv-x="1192" d="M844 149q-23 -31 -55.5 -61.5t-71 -55t-82 -39.5t-89.5 -15q-102 0 -187.5 40t-147.5 109.5t-96.5 162.5t-34.5 199t36 199.5t99 162.5t148 109t183 40q51 0 95.5 -12t82 -33t67.5 -49t53 -59v81q0 23 12.5 37t41.5 14h65q23 0 40 -13.5t17 -37.5v-833q0 -127 -37 -221.5 t-102 -157.5t-153.5 -94t-191.5 -31q-85 0 -151 19t-125 56h1q-14 8 -19 13t-5 14q0 5 4 12.5t5 9.5l56 95q5 6 10.5 9.5t18.5 3.5q5 0 11 -2.5t11 -5.5q38 -26 86 -42.5t96 -16.5q55 0 110 18.5t99.5 54t72 86t27.5 114.5v120zM250 488q0 -71 23.5 -133t64 -108.5 t94.5 -73.5t115 -27q58 0 111.5 26.5t95 72t66 107t24.5 130.5q0 70 -23.5 133.5t-63.5 111.5t-94.5 76t-115.5 28t-115 -27.5t-94.5 -74t-64 -109t-23.5 -132.5zM758.008 1277.98q0 -27.998 -10.499 -52.4971q-10.5 -24.498 -28.499 -42.4971 q-17.998 -17.999 -42.4971 -27.998q-24.498 -9.99902 -51.4971 -9.99902q-28.998 0 -53.4961 10.499q-24.499 10.499 -42.498 28.998q-17.998 18.499 -27.998 44.9971q-9.99902 26.499 -9.99902 59.4961q0 69.9961 13.999 121.993t33.498 86.4941 q19.499 34.498 39.9971 51.4971q20.499 16.999 33.498 16.999q8 0 12.499 -1.5q4.5 -1.5 10.5 -6.49902l30.998 -23.999q6.99902 -5.99902 10.999 -14.499q4 -8.49902 4 -15.499q0 -9.99902 -4.5 -17.499q-4.5 -7.49902 -10.499 -15.499l-1 -2v1 q-8 -7.99902 -14.499 -19.999q-6.5 -11.999 -6.5 -31.998v-6.99902q22.999 -4 43.4971 -15.999q20.499 -11.999 36.498 -29.998t24.999 -40.498q8.99902 -22.498 8.99902 -46.4971z" />
<glyph unicode="&#x124;" horiz-adv-x="1547" d="M1218 1441q0 18 12 31t32 13h82q18 0 32.5 -12t14.5 -32v-1397q0 -44 -47 -44h-82q-44 0 -44 44v651h-883v-651q0 -44 -48 -44h-81q-44 0 -44 44v1397q0 18 11.5 31t32.5 13h83q18 0 32 -13t14 -31v-576h883v576zM1056 1762q4 -4 8.5 -11t4.5 -14q0 -8 -4 -13.5t-9 -10.5 l-47 -43q-5 -5 -11 -9.5t-13 -4.5q-5 0 -11.5 2t-11.5 9l-190 191l-191 -191q-5 -7 -10 -9t-13 -2q-6 0 -12.5 4.5t-12.5 9.5l-45 43q-5 5 -9.5 10.5t-4.5 13.5q0 7 5 14t9 11l262 263q3 3 9 6.5t13 3.5q5 0 11.5 -3.5t10.5 -7.5z" />
<glyph unicode="&#x125;" horiz-adv-x="1164" d="M162 1440q0 20 11.5 32.5t33.5 12.5h82q19 0 32.5 -12.5t13.5 -32.5v-574q22 26 48.5 50.5t58 43t69 29.5t81.5 11q95 0 171 -35.5t129 -97t81.5 -143.5t28.5 -176v-504q0 -22 -13 -33t-33 -11h-82q-22 0 -34 9.5t-12 34.5v543q0 51 -19.5 95.5t-53 77t-78 51t-93.5 18.5 q-48 0 -92 -18.5t-78 -50.5t-55 -75.5t-24 -92.5v-548q0 -44 -44 -44h-84q-45 0 -45 44v1396zM931 1630q4 -4 8.5 -11t4.5 -14q0 -8 -4 -13.5t-9 -10.5l-47 -43q-5 -5 -11 -9.5t-13 -4.5q-5 0 -11.5 2t-11.5 9l-190 191l-191 -191q-5 -7 -10 -9t-13 -2q-6 0 -12.5 4.5 t-12.5 9.5l-45 43q-5 5 -9.5 10.5t-4.5 13.5q0 7 5 14t9 11l262 263q3 3 9 6.5t13 3.5q5 0 11.5 -3.5t10.5 -7.5z" />
<glyph unicode="&#x126;" horiz-adv-x="1547" d="M335 1200h883v241q0 18 12 31t32 13h82q18 0 32.5 -12t14.5 -32v-1397q0 -44 -47 -44h-82q-44 0 -44 44v651h-883v-651q0 -44 -48 -44h-81q-44 0 -44 44v1397q0 18 11.5 31t32.5 13h83q18 0 32 -13t14 -31v-241zM1218 1034h-883v-169h883v169z" />
<glyph unicode="&#x127;" horiz-adv-x="1164" d="M544 1349q18 0 31 -11.5t13 -32.5v-86q0 -15 -12 -32t-32 -17h-548q-44 0 -44 49v86q0 44 44 44h548zM162 1440q0 20 11.5 32.5t33.5 12.5h82q19 0 32.5 -12.5t13.5 -32.5v-574q22 26 48.5 50.5t58 43t69 29.5t81.5 11q95 0 171 -35.5t129 -97t81.5 -143.5t28.5 -176 v-504q0 -22 -13 -33t-33 -11h-82q-22 0 -34 9.5t-12 34.5v543q0 51 -19.5 95.5t-53 77t-78 51t-93.5 18.5q-48 0 -92 -18.5t-78 -50.5t-55 -75.5t-24 -92.5v-548q0 -44 -44 -44h-84q-45 0 -45 44v1396z" />
<glyph unicode="&#x128;" d="M335 44q0 -22 -12 -33t-33 -11h-83q-45 0 -45 44v1397q0 20 11.5 32t33.5 12h83q20 0 32.5 -12t12.5 -32v-1397zM22 1688q-7 -7 -15 -7t-19 8t-23.5 20t-20.5 19q-5 5 -6.5 8.5t-1.5 10.5q0 5 6 14.5t7 11.5q42 59 90 83t106 24q30 0 61 -12t59 -32l55 -38q31 -21 67 -21 q42 0 72 28q10 9 20.5 24.5t20.5 25.5q5 7 15 7q7 0 18 -8t23.5 -20t20.5 -18q5 -6 6.5 -9.5t1.5 -10.5q0 -5 -6 -15t-7 -10q-42 -59 -89.5 -83.5t-105.5 -24.5q-31 0 -62 12t-59 32l-55 38q-30 21 -67 21q-44 0 -72 -28q-9 -9 -19.5 -24.5t-20.5 -25.5z" />
<glyph unicode="&#x129;" d="M335 44q0 -44 -44 -44h-83q-46 0 -46 44v895q0 20 13 32t31 12h82q22 0 34.5 -13t12.5 -31v-895zM22 1184q-7 -7 -15 -7t-19 8t-23.5 20t-20.5 19q-5 5 -6.5 8.5t-1.5 10.5q0 5 6 14.5t7 11.5q42 59 90 83t106 24q30 0 61 -12t59 -32l55 -38q31 -21 67 -21q42 0 72 28 q10 9 20.5 24.5t20.5 25.5q5 7 15 7q7 0 18 -8t23.5 -20t20.5 -18q5 -6 6.5 -9.5t1.5 -10.5q0 -5 -6 -15t-7 -10q-42 -59 -89.5 -83.5t-105.5 -24.5q-31 0 -62 12t-59 32l-55 38q-30 21 -67 21q-44 0 -72 -28q-9 -9 -19.5 -24.5t-20.5 -25.5z" />
<glyph unicode="&#x12a;" d="M335 44q0 -22 -12 -33t-33 -11h-83q-45 0 -45 44v1397q0 20 11.5 32t33.5 12h83q20 0 32.5 -12t12.5 -32v-1397zM-128 1816q0 35 36 35h701q36 0 36 -35v-77q0 -11 -8.5 -25t-27.5 -14h-701q-36 0 -36 39v77z" />
<glyph unicode="&#x12b;" d="M335 44q0 -44 -44 -44h-83q-46 0 -46 44v895q0 20 13 32t31 12h82q22 0 34.5 -13t12.5 -31v-895zM-128 1312q0 35 36 35h701q36 0 36 -35v-77q0 -11 -8.5 -25t-27.5 -14h-701q-36 0 -36 39v77z" />
<glyph unicode="&#x12c;" d="M335 44q0 -22 -12 -33t-33 -11h-83q-45 0 -45 44v1397q0 20 11.5 32t33.5 12h83q20 0 32.5 -12t12.5 -32v-1397zM258 1720q-53 1 -98 20.5t-78.5 51t-52.5 72.5t-19 86q0 17 11.5 28t27.5 11h67q18 0 29 -11.5t11 -27.5q0 -35 27 -62t79 -27q45 0 72.5 24t27.5 56 q0 17 7.5 32.5t31.5 15.5h58q19 0 35 -8.5t16 -30.5q0 -45 -19.5 -86.5t-53.5 -73.5t-80 -51t-99 -19z" />
<glyph unicode="&#x12d;" d="M335 44q0 -44 -44 -44h-83q-46 0 -46 44v895q0 20 13 32t31 12h82q22 0 34.5 -13t12.5 -31v-895zM258 1216q-53 1 -98 20.5t-78.5 51t-52.5 72.5t-19 86q0 17 11.5 28t27.5 11h67q18 0 29 -11.5t11 -27.5q0 -35 27 -62t79 -27q45 0 72.5 24t27.5 56q0 17 7.5 32.5 t31.5 15.5h58q19 0 35 -8.5t16 -30.5q0 -45 -19.5 -86.5t-53.5 -73.5t-80 -51t-99 -19z" />
<glyph unicode="&#x12e;" d="M335 44q0 -22 -12 -33t-33 -11h-83q-45 0 -45 44v1397q0 20 11.5 32t33.5 12h83q20 0 32.5 -12t12.5 -32v-1397zM175 -4q0 12 3.5 24.5t23.5 12.5h86q15 0 23 -3.5t8 -23.5v-26q0 -24 -7.5 -46t-20.5 -41t-31 -33.5t-38 -23.5q-17 -11 -32.5 -20.5t-27.5 -20t-19 -23 t-7 -29.5q0 -31 39 -58t108 -41q20 -7 20 -28q0 -12 -4 -27.5t-11.5 -30t-18 -24.5t-24.5 -10q-6 0 -14 2q-121 35 -178.5 86t-62.5 117q0 40 12 68.5t31.5 50.5t44 38.5t50.5 33.5q30 20 38.5 38t8.5 38z" />
<glyph unicode="&#x12f;" d="M335 44q0 -22 -12 -33t-33 -11h-83q-45 0 -45 44v895q0 20 11.5 32t33.5 12h83q20 0 32.5 -12t12.5 -32v-895zM123 1259q0 26 10 49t27 40t39.5 27t48.5 10q27 0 50 -10t40 -27t26.5 -40t9.5 -49t-9.5 -48.5t-26.5 -39.5t-40 -27t-50 -10q-26 0 -48.5 10t-39.5 27 t-27 39.5t-10 48.5zM174 -11q0 12 3.5 24.5t23.5 12.5h86q15 0 23 -3.5t8 -23.5v-26q0 -24 -7.5 -46t-20.5 -41t-31 -33.5t-38 -23.5q-17 -11 -32.5 -20.5t-27.5 -20t-19 -23t-7 -29.5q0 -31 39 -58t108 -41q20 -7 20 -28q0 -12 -4 -27.5t-11.5 -30t-18 -24.5t-24.5 -10 q-6 0 -14 2q-121 35 -178.5 86t-62.5 117q0 40 12 68.5t31.5 50.5t44 38.5t50.5 33.5q30 20 38.5 38t8.5 38z" />
<glyph unicode="&#x130;" d="M335 44q0 -22 -12 -33t-33 -11h-83q-45 0 -45 44v1397q0 20 11.5 32t33.5 12h83q20 0 32.5 -12t12.5 -32v-1397zM121 1773q0 26 10 49t27 40t39.5 27t48.5 10q27 0 50 -10t40 -27t26.5 -40t9.5 -49t-9.5 -48.5t-26.5 -39.5t-40 -27t-50 -10q-26 0 -48.5 10t-39.5 27 t-27 39.5t-10 48.5z" />
<glyph unicode="&#x131;" d="M335 44q0 -44 -44 -44h-83q-46 0 -46 44v895q0 20 13 32t31 12h82q22 0 34.5 -13t12.5 -31v-895z" />
<glyph unicode="&#x132;" horiz-adv-x="990" d="M200 -250q-10 10 -10 25q0 14 16 30l59 64q9 11 16 12.5t12 1.5q11 0 22 -9q10 -10 24 -21.5t33.5 -22t45 -17.5t59.5 -7q38 0 71.5 14.5t58 39.5t38.5 58.5t14 71.5v1452q0 18 10.5 30.5t32.5 12.5h85q20 0 32 -11.5t12 -32.5v-1451q0 -75 -28 -139.5t-76 -112 t-112.5 -74.5t-137.5 -27q-81 0 -152 29.5t-125 83.5zM335 44q0 -22 -12 -33t-33 -11h-83q-45 0 -45 44v1397q0 20 11.5 32t33.5 12h83q20 0 32.5 -12t12.5 -32v-1397z" />
<glyph unicode="&#x133;" horiz-adv-x="950" d="M475 -399q-22 0 -35.5 13t-13.5 36v65q0 24 13.5 37.5t36.5 14.5h6q29 2 54 16.5t43 36.5t28.5 50t10.5 57v1005q0 26 15 38.5t38 12.5h68q26 0 39 -14t13 -37v-1005q0 -67 -25.5 -125.5t-68.5 -102.5t-100.5 -70.5t-121.5 -27.5zM580 1259q0 26 10 49t27 40t39.5 27 t48.5 10q27 0 50 -10t40 -27t26.5 -40t9.5 -49t-9.5 -48.5t-26.5 -39.5t-40 -27t-50 -10q-26 0 -48.5 10t-39.5 27t-27 39.5t-10 48.5zM337 44q0 -22 -12 -33t-33 -11h-83q-45 0 -45 44v895q0 20 11.5 32t33.5 12h83q20 0 32.5 -12t12.5 -32v-895zM125 1259q0 26 10 49 t27 40t39.5 27t48.5 10q27 0 50 -10t40 -27t26.5 -40t9.5 -49t-9.5 -48.5t-26.5 -39.5t-40 -27t-50 -10q-26 0 -48.5 10t-39.5 27t-27 39.5t-10 48.5z" />
<glyph unicode="&#x134;" horiz-adv-x="800" d="M14 90q-10 10 -10 25q0 14 16 30l59 64q9 11 16 12.5t12 1.5q11 0 22 -9q10 -10 24 -21.5t33.5 -22t45 -17.5t59.5 -7q38 0 71.5 14.5t58 39.5t38.5 58.5t14 71.5v1112q0 18 10.5 30.5t32.5 12.5h85q20 0 32 -11.5t12 -32.5v-1111q0 -75 -28 -139.5t-76 -112 t-112.5 -74.5t-137.5 -27q-81 0 -152 29.5t-125 83.5zM831 1762q4 -4 8.5 -11t4.5 -14q0 -8 -4 -13.5t-9 -10.5l-47 -43q-5 -5 -11 -9.5t-13 -4.5q-5 0 -11.5 2t-11.5 9l-190 191l-191 -191q-5 -7 -10 -9t-13 -2q-6 0 -12.5 4.5t-12.5 9.5l-45 43q-5 5 -9.5 10.5t-4.5 13.5 q0 7 5 14t9 11l262 263q3 3 9 6.5t13 3.5q5 0 11.5 -3.5t10.5 -7.5z" />
<glyph unicode="&#x135;" d="M16 -399q-22 0 -35.5 13t-13.5 36v65q0 24 13.5 37.5t36.5 14.5h6q29 2 54 16.5t43 36.5t28.5 50t10.5 57v1005q0 26 15 38.5t38 12.5h68q26 0 39 -14t13 -37v-1005q0 -67 -25.5 -125.5t-68.5 -102.5t-100.5 -70.5t-121.5 -27.5zM534 1251q4 -4 8.5 -11t4.5 -14 q0 -8 -4 -13.5t-9 -10.5l-47 -43q-5 -5 -11 -9.5t-13 -4.5q-5 0 -11.5 2t-11.5 9l-190 191l-191 -191q-5 -7 -10 -9t-13 -2q-6 0 -12.5 4.5t-12.5 9.5l-45 43q-5 5 -9.5 10.5t-4.5 13.5q0 7 5 14t9 11l262 263q3 3 9 6.5t13 3.5q5 0 11.5 -3.5t10.5 -7.5z" />
<glyph unicode="&#x136;" horiz-adv-x="1505" d="M335 44q0 -44 -46 -44h-83q-44 0 -44 44v1397q0 18 11 31t33 13h84q18 0 31.5 -12t13.5 -32v-744l716 757q25 31 47 31h173q15 0 20.5 -3.5t5.5 -9.5q0 -7 -6.5 -15t-11.5 -13l-560 -590q172 -204 347.5 -404.5t340.5 -409.5q9 -11 11.5 -14.5t2.5 -6.5q0 -5 -5 -12 t-16 -7h-172q-16 0 -31 16t-30 36q-143 171 -283.5 339t-282.5 339l-266 -276v-410zM569 -301q0 28 10.5 52.5t28.5 42.5t42.5 28t51.5 10q29 0 53.5 -10.5t42.5 -29t28 -45t10 -59.5q0 -70 -14 -122t-33.5 -86.5t-40 -51.5t-33.5 -17q-8 0 -12.5 1.5t-10.5 6.5l-31 24 q-7 6 -11 14.5t-4 15.5q0 10 4.5 17.5t10.5 15.5l1 2v-1q8 8 14.5 20t6.5 32v7q-23 4 -43.5 16t-36.5 30t-25 40.5t-9 46.5z" />
<glyph unicode="&#x137;" horiz-adv-x="1146" d="M162 1441q0 18 11.5 31t32.5 13h83q18 0 32 -12t14 -32v-849l346 363q11 11 22 19t31 8h140q16 0 23.5 -6.5t7.5 -15.5q0 -12 -3.5 -17t-13.5 -16l-306 -313q86 -105 152 -185t114.5 -139t82 -99.5t54.5 -66.5q50 -62 57 -69q8 -8 13 -17.5t5 -14.5q0 -9 -8.5 -16 t-24.5 -7h-139q-14 0 -29 8t-27 24l-369 460l-128 -132v-316q0 -44 -47 -44h-82q-44 0 -44 44v1397zM428 -301q0 28 10.5 52.5t28.5 42.5t42.5 28t51.5 10q29 0 53.5 -10.5t42.5 -29t28 -45t10 -59.5q0 -70 -14 -122t-33.5 -86.5t-40 -51.5t-33.5 -17q-8 0 -12.5 1.5 t-10.5 6.5l-31 24q-7 6 -11 14.5t-4 15.5q0 10 4.5 17.5t10.5 15.5l1 2v-1q8 8 14.5 20t6.5 32v7q-23 4 -43.5 16t-36.5 30t-25 40.5t-9 46.5z" />
<glyph unicode="&#x138;" horiz-adv-x="1146" d="M162 938q0 18 11.5 31t32.5 13h83q18 0 32 -12t14 -32v-346l346 363q11 11 22 19t31 8h140q16 0 23.5 -6.5t7.5 -15.5q0 -12 -3.5 -17t-13.5 -16l-306 -313q86 -105 152 -185t114.5 -139t82 -99.5t54.5 -66.5q50 -62 57 -69q8 -8 13 -17.5t5 -14.5q0 -9 -8.5 -16 t-24.5 -7h-139q-14 0 -29 8t-27 24l-369 460l-128 -132v-316q0 -44 -47 -44h-82q-44 0 -44 44v894z" />
<glyph unicode="&#x139;" horiz-adv-x="1148" d="M1056 171q18 0 31 -12t13 -34v-81q0 -18 -12 -31t-32 -13h-850q-44 0 -44 44v1397q0 18 12 31t34 13h83q19 0 31.5 -11.5t12.5 -32.5v-1270h721zM340 1720q-19 -42 -53 -42h-73q-20 0 -26.5 7t-6.5 21q2 7 3.5 14t7.5 22l88 205q12 22 23.5 32t30.5 10h80q13 0 21.5 -3.5 t8.5 -15.5q0 -5 -2.5 -14t-10.5 -26z" />
<glyph unicode="&#x13a;" d="M337 44q0 -22 -12 -33t-33 -11h-83q-45 0 -45 44v1397q0 20 11.5 32t33.5 12h83q20 0 32.5 -12t12.5 -32v-1397zM339 1649q-19 -42 -53 -42h-73q-20 0 -26.5 7t-6.5 21q2 7 3.5 14t7.5 22l88 205q12 22 23.5 32t30.5 10h80q13 0 21.5 -3.5t8.5 -15.5q0 -5 -2.5 -14 t-10.5 -26z" />
<glyph unicode="&#x13b;" horiz-adv-x="1148" d="M1056 171q18 0 31 -12t13 -34v-81q0 -18 -12 -31t-32 -13h-850q-44 0 -44 44v1397q0 18 12 31t34 13h83q19 0 31.5 -11.5t12.5 -32.5v-1270h721zM485 -301q0 28 10.5 52.5t28.5 42.5t42.5 28t51.5 10q29 0 53.5 -10.5t42.5 -29t28 -45t10 -59.5q0 -70 -14 -122 t-33.5 -86.5t-40 -51.5t-33.5 -17q-8 0 -12.5 1.5t-10.5 6.5l-31 24q-7 6 -11 14.5t-4 15.5q0 10 4.5 17.5t10.5 15.5l1 2v-1q8 8 14.5 20t6.5 32v7q-23 4 -43.5 16t-36.5 30t-25 40.5t-9 46.5z" />
<glyph unicode="&#x13c;" d="M335 44q0 -22 -12 -33t-33 -11h-83q-45 0 -45 44v1397q0 20 11.5 32t33.5 12h83q20 0 32.5 -12t12.5 -32v-1397zM129 -301q0 28 10.5 52.5t28.5 42.5t42.5 28t51.5 10q29 0 53.5 -10.5t42.5 -29t28 -45t10 -59.5q0 -70 -14 -122t-33.5 -86.5t-40 -51.5t-33.5 -17 q-8 0 -12.5 1.5t-10.5 6.5l-31 24q-7 6 -11 14.5t-4 15.5q0 10 4.5 17.5t10.5 15.5l1 2v-1q8 8 14.5 20t6.5 32v7q-23 4 -43.5 16t-36.5 30t-25 40.5t-9 46.5z" />
<glyph unicode="&#x13d;" horiz-adv-x="1148" d="M1056 171q18 0 31 -12t13 -34v-81q0 -18 -12 -31t-32 -13h-850q-44 0 -44 44v1397q0 18 12 31t34 13h83q19 0 31.5 -11.5t12.5 -32.5v-1270h721zM640 1384q0 28 10.5 52.5t28.5 42.5t42.5 28t51.5 10q29 0 53.5 -10.5t42.5 -29t28 -45t10 -59.5q0 -70 -14 -122 t-33.5 -86.5t-40 -51.5t-33.5 -17q-8 0 -12.5 1.5t-10.5 6.5l-31 24q-7 6 -11 14.5t-4 15.5q0 9 4.5 14.5t10.5 13.5q9 9 15.5 23t6.5 35v7q-23 4 -43.5 16t-36.5 30t-25 40.5t-9 46.5z" />
<glyph unicode="&#x13e;" d="M335 44q0 -22 -12 -33t-33 -11h-83q-45 0 -45 44v1397q0 20 11.5 32t33.5 12h83q20 0 32.5 -12t12.5 -32v-1397zM353.725 1259.62q0 25.1133 9.42578 47.0879t25.585 38.1182q16.1582 16.1445 38.1523 25.1143q21.9932 8.96875 46.2314 8.96875 q26.0332 0 48.0273 -9.41797q21.9941 -9.41699 38.1523 -26.0098q16.1592 -16.5928 25.1357 -40.3613q8.97754 -23.7686 8.97754 -53.3662q0 -62.7842 -12.5684 -109.423q-12.5674 -46.6396 -30.0732 -77.583q-17.5049 -30.9434 -35.9082 -46.1914 q-18.4023 -15.2471 -30.0732 -15.2471q-7.18164 0 -11.2207 1.34473q-4.04004 1.3457 -9.42578 5.83008l-27.8291 21.5264q-6.28418 5.38086 -9.875 13.0049t-3.59082 13.9023q0 8.07227 4.04004 13.0049q4.04004 4.93359 9.42578 12.1084q8.0791 8.07227 13.9141 20.6289 t5.83496 31.3926v6.27832q-20.6465 3.58691 -39.0498 14.3506q-18.4033 10.7627 -32.7666 26.9072t-22.4424 36.3242q-8.0791 20.1807 -8.0791 41.707z" />
<glyph unicode="&#x13f;" horiz-adv-x="1148" d="M1056 171q18 0 31 -12t13 -34v-81q0 -18 -12 -31t-32 -13h-850q-44 0 -44 44v1397q0 18 12 31t34 13h83q19 0 31.5 -11.5t12.5 -32.5v-1270h721zM661 738q0 26 10 49t27 40t39.5 27t48.5 10q27 0 50 -10t40 -27t26.5 -40t9.5 -49t-9.5 -48.5t-26.5 -39.5t-40 -27t-50 -10 q-26 0 -48.5 10t-39.5 27t-27 39.5t-10 48.5z" />
<glyph unicode="&#x140;" horiz-adv-x="585" d="M335 44q0 -22 -12 -33t-33 -11h-83q-45 0 -45 44v1397q0 20 11.5 32t33.5 12h83q20 0 32.5 -12t12.5 -32v-1397zM427 643q0 26 10 49t27 40t39.5 27t48.5 10q27 0 50 -10t40 -27t26.5 -40t9.5 -49t-9.5 -48.5t-26.5 -39.5t-40 -27t-50 -10q-26 0 -48.5 10t-39.5 27 t-27 39.5t-10 48.5z" />
<glyph unicode="&#x141;" horiz-adv-x="1148" d="M589 934q25 10 39 -20l24 -66q5 -14 0.5 -26.5t-17.5 -17.5l-625 -229q-31 -10 -44 22l-24 66q-11 31 22 44zM1056 171q18 0 31 -12t13 -34v-81q0 -18 -12 -31t-32 -13h-850q-44 0 -44 44v1397q0 18 12 31t34 13h83q19 0 31.5 -11.5t12.5 -32.5v-1270h721z" />
<glyph unicode="&#x142;" d="M539 986q11 5 22 0t18 -20l24 -66q5 -14 0.5 -26.5t-18.5 -17.5l-625 -229q-31 -10 -44 22l-24 66q-9 31 22 44zM335 44q0 -22 -12 -33t-33 -11h-83q-45 0 -45 44v1397q0 20 11.5 32t33.5 12h83q20 0 32.5 -12t12.5 -32v-1397z" />
<glyph unicode="&#x143;" horiz-adv-x="1583" d="M1284 0q-22 0 -37 19l-912 1197v-1172q0 -44 -46 -44h-83q-44 0 -44 44v1395q0 20 12 33t32 13h111q23 0 38 -20l898 -1169v1150q2 18 13.5 28.5t30.5 10.5h82q18 0 33 -12t15 -32v-1397q0 -44 -48 -44h-95zM885 1720q-19 -42 -53 -42h-73q-20 0 -26.5 7t-6.5 21 q2 7 3.5 14t7.5 22l88 205q12 22 23.5 32t30.5 10h80q13 0 21.5 -3.5t8.5 -15.5q0 -5 -2.5 -14t-10.5 -26z" />
<glyph unicode="&#x144;" horiz-adv-x="1164" d="M335 845q23 28 53.5 56t67.5 50t78.5 35.5t86.5 13.5q86 0 158.5 -32.5t125 -89t82 -132.5t29.5 -163v-532q0 -25 -14 -38t-34 -13h-82q-26 0 -35 12t-9 37v534q0 50 -19.5 95t-53.5 78.5t-78.5 53t-94.5 19.5q-48 0 -93.5 -18.5t-81.5 -50.5t-59.5 -75.5t-26.5 -92.5 v-548q0 -22 -12 -33t-32 -11h-82q-47 0 -47 44v891q0 20 13 32t32 12h75q20 0 32 -12t14 -32zM653 1211q-19 -42 -53 -42h-73q-20 0 -26.5 7t-6.5 21q2 7 3.5 14t7.5 22l88 205q12 22 23.5 32t30.5 10h80q13 0 21.5 -3.5t8.5 -15.5q0 -5 -2.5 -14t-10.5 -26z" />
<glyph unicode="&#x145;" horiz-adv-x="1583" d="M1284 0q-22 0 -37 19l-912 1197v-1172q0 -44 -46 -44h-83q-44 0 -44 44v1395q0 20 12 33t32 13h111q23 0 38 -20l898 -1169v1150q2 18 13.5 28.5t30.5 10.5h82q18 0 33 -12t15 -32v-1397q0 -44 -48 -44h-95zM658 -301q0 28 10.5 52.5t28.5 42.5t42.5 28t51.5 10 q29 0 53.5 -10.5t42.5 -29t28 -45t10 -59.5q0 -70 -14 -122t-33.5 -86.5t-40 -51.5t-33.5 -17q-8 0 -12.5 1.5t-10.5 6.5l-31 24q-7 6 -11 14.5t-4 15.5q0 10 4.5 17.5t10.5 15.5l1 2v-1q8 8 14.5 20t6.5 32v7q-23 4 -43.5 16t-36.5 30t-25 40.5t-9 46.5z" />
<glyph unicode="&#x146;" horiz-adv-x="1142" d="M332 845q23 28 53.5 56t67.5 50t78.5 35.5t86.5 13.5q86 0 158.5 -32.5t125 -89t82 -132.5t29.5 -163v-532q0 -25 -14 -38t-34 -13h-82q-26 0 -35 12t-9 37v534q0 50 -19.5 95t-53.5 78.5t-78.5 53t-94.5 19.5q-48 0 -93.5 -18.5t-81.5 -50.5t-59.5 -75.5t-26.5 -92.5 v-548q0 -22 -12 -33t-32 -11h-82q-47 0 -47 44v891q0 20 13 32t32 12h75q20 0 32 -12t14 -32zM461 -301q0 28 10.5 52.5t28.5 42.5t42.5 28t51.5 10q29 0 53.5 -10.5t42.5 -29t28 -45t10 -59.5q0 -70 -14 -122t-33.5 -86.5t-40 -51.5t-33.5 -17q-8 0 -12.5 1.5t-10.5 6.5 l-31 24q-7 6 -11 14.5t-4 15.5q0 10 4.5 17.5t10.5 15.5l1 2v-1q8 8 14.5 20t6.5 32v7q-23 4 -43.5 16t-36.5 30t-25 40.5t-9 46.5z" />
<glyph unicode="&#x147;" horiz-adv-x="1583" d="M1284 0q-22 0 -37 19l-912 1197v-1172q0 -44 -46 -44h-83q-44 0 -44 44v1395q0 20 12 33t32 13h111q23 0 38 -20l898 -1169v1150q2 18 13.5 28.5t30.5 10.5h82q18 0 33 -12t15 -32v-1397q0 -44 -48 -44h-95zM814 1663q-4 -4 -10.5 -7.5t-11.5 -3.5q-7 0 -13 3.5t-9 6.5 l-262 263q-4 4 -9 11t-5 14q0 8 4.5 13.5t9.5 10.5l45 43q6 5 12.5 9.5t12.5 4.5q8 0 13 -2t10 -9l191 -191l190 191q5 7 11.5 9t11.5 2q7 0 13 -4.5t11 -9.5l47 -43q5 -5 9 -10.5t4 -13.5q0 -7 -4.5 -14t-8.5 -11z" />
<glyph unicode="&#x148;" horiz-adv-x="1164" d="M335 845q23 28 53.5 56t67.5 50t78.5 35.5t86.5 13.5q86 0 158.5 -32.5t125 -89t82 -132.5t29.5 -163v-532q0 -25 -14 -38t-34 -13h-82q-26 0 -35 12t-9 37v534q0 50 -19.5 95t-53.5 78.5t-78.5 53t-94.5 19.5q-48 0 -93.5 -18.5t-81.5 -50.5t-59.5 -75.5t-26.5 -92.5 v-548q0 -22 -12 -33t-32 -11h-82q-47 0 -47 44v891q0 20 13 32t32 12h75q20 0 32 -12t14 -32zM595 1159q-4 -4 -10.5 -7.5t-11.5 -3.5q-7 0 -13 3.5t-9 6.5l-262 263q-4 4 -9 11t-5 14q0 8 4.5 13.5t9.5 10.5l45 43q6 5 12.5 9.5t12.5 4.5q8 0 13 -2t10 -9l191 -191l190 191 q5 7 11.5 9t11.5 2q7 0 13 -4.5t11 -9.5l47 -43q5 -5 9 -10.5t4 -13.5q0 -7 -4.5 -14t-8.5 -11z" />
<glyph unicode="&#x149;" horiz-adv-x="1164" d="M334 845q23 28 53.5 56t67.5 50t78.5 35.5t86.5 13.5q86 0 158.5 -32.5t125 -89t82 -132.5t29.5 -163v-532q0 -25 -14 -38t-34 -13h-82q-26 0 -35 12t-9 37v534q0 50 -19.5 95t-53.5 78.5t-78.5 53t-94.5 19.5q-48 0 -93.5 -18.5t-81.5 -50.5t-59.5 -75.5t-26.5 -92.5 v-548q0 -22 -12 -33t-32 -11h-82q-47 0 -47 44v891q0 20 13 32t32 12h75q20 0 32 -12t14 -32zM-54 1329q0 28 10.5 52.5t28.5 42.5t42.5 28t51.5 10q29 0 53.5 -10.5t42.5 -29t28 -45t10 -59.5q0 -70 -14 -122t-33.5 -86.5t-40 -51.5t-33.5 -17q-8 0 -12.5 1.5t-10.5 6.5 l-31 24q-7 6 -11 14.5t-4 15.5q0 10 4.5 17.5t10.5 15.5l1 2v-1q8 8 14.5 20t6.5 32v7q-23 4 -43.5 16t-36.5 30t-25 40.5t-9 46.5z" />
<glyph unicode="&#x14a;" horiz-adv-x="1586" d="M788 -438q-4 3 -4 10q0 14 14 30l65 67l13 7q8 5 15 5t15 -6t19 -14q11 -9 24 -19t30 -18t38.5 -13.5t49.5 -5.5q39 0 72 14.5t57.5 39t38.5 58t14 72.5v216l-918 1232v-1204q0 -33 -35 -33h-103q-32 0 -32 33v1417q0 15 8.5 25t23.5 10h137q21 0 32 -17l887 -1179v1171 q8 25 33 25h103q14 0 25.5 -9t11.5 -24v-1663q0 -75 -28 -139t-76 -111.5t-112.5 -74.5t-138.5 -27q-82 0 -155.5 29.5t-120.5 92.5z" />
<glyph unicode="&#x14b;" horiz-adv-x="1142" d="M689 -469q-40 0 -40 40v67q0 20 11.5 31t30.5 11h7q30 2 55 19t44 42.5t29.5 55.5t10.5 59v725q0 51 -20.5 96t-55.5 78t-80.5 52.5t-94.5 19.5q-48 0 -90.5 -18t-75.5 -50t-54 -75.5t-25 -94.5v-547q0 -21 -12.5 -31.5t-32.5 -10.5h-94q-22 0 -31 11t-9 31v895 q0 18 9 30t31 12h94q16 0 30.5 -11t14.5 -31v-120q25 31 55.5 63.5t65 59t74 43t83.5 16.5q86 0 157.5 -32.5t122.5 -89.5t79 -133t28 -163v-725q0 -66 -25.5 -125.5t-69 -103.5t-101 -70t-121.5 -26z" />
<glyph unicode="&#x14c;" horiz-adv-x="1706" d="M853 1505q105 0 202.5 -27t182 -77t154.5 -119.5t119.5 -155t77 -183.5t27.5 -204q0 -105 -27 -202.5t-77 -182t-119.5 -154t-154.5 -119t-183 -76.5t-204 -27t-203 27t-182 77t-154.5 119.5t-119 154t-76.5 182t-27 203.5q0 105 27 202.5t77 182.5t119.5 155 t154.5 119.5t182.5 77t203.5 27.5zM262 742q0 -123 46 -230.5t126.5 -188t188 -126.5t230.5 -46q121 0 228.5 46t187 126.5t126 188t46.5 230.5q0 81 -21 156t-59.5 140.5t-92 119t-119 92t-140.5 59.5t-156 21q-123 0 -230.5 -46.5t-188 -126t-126.5 -187t-46 -228.5z M467 1797q0 35 36 35h701q36 0 36 -35v-77q0 -11 -8.5 -25t-27.5 -14h-701q-36 0 -36 39v77z" />
<glyph unicode="&#x14d;" horiz-adv-x="1220" d="M88 489q0 106 40 200t109.5 163.5t162.5 110t200 40.5q106 0 200 -40.5t163.5 -110t110 -163.5t40.5 -200q0 -107 -40.5 -200.5t-110 -163t-163.5 -109.5t-200 -40q-107 0 -200 40t-162.5 109.5t-109.5 163t-40 200.5zM250 489q0 -72 27.5 -136t75.5 -112t111.5 -76 t135.5 -28t136 28t112.5 76t76.5 112t28 136t-28 136t-76.5 112.5t-112.5 76.5t-136 28t-135.5 -28t-111.5 -76.5t-75.5 -112.5t-27.5 -136zM207 1312q0 35 36 35h701q36 0 36 -35v-77q0 -11 -8.5 -25t-27.5 -14h-701q-36 0 -36 39v77z" />
<glyph unicode="&#x14e;" horiz-adv-x="1706" d="M853 1505q105 0 202.5 -27t182 -77t154.5 -119.5t119.5 -155t77 -183.5t27.5 -204q0 -105 -27 -202.5t-77 -182t-119.5 -154t-154.5 -119t-183 -76.5t-204 -27t-203 27t-182 77t-154.5 119.5t-119 154t-76.5 182t-27 203.5q0 105 27 202.5t77 182.5t119.5 155 t154.5 119.5t182.5 77t203.5 27.5zM262 742q0 -123 46 -230.5t126.5 -188t188 -126.5t230.5 -46q121 0 228.5 46t187 126.5t126 188t46.5 230.5q0 81 -21 156t-59.5 140.5t-92 119t-119 92t-140.5 59.5t-156 21q-123 0 -230.5 -46.5t-188 -126t-126.5 -187t-46 -228.5z M853 1720q-53 1 -98 20.5t-78.5 51t-52.5 72.5t-19 86q0 17 11.5 28t27.5 11h67q18 0 29 -11.5t11 -27.5q0 -35 27 -62t79 -27q45 0 72.5 24t27.5 56q0 17 7.5 32.5t31.5 15.5h58q19 0 35 -8.5t16 -30.5q0 -45 -19.5 -86.5t-53.5 -73.5t-80 -51t-99 -19z" />
<glyph unicode="&#x14f;" horiz-adv-x="1220" d="M88 489q0 106 40 200t109.5 163.5t162.5 110t200 40.5q106 0 200 -40.5t163.5 -110t110 -163.5t40.5 -200q0 -107 -40.5 -200.5t-110 -163t-163.5 -109.5t-200 -40q-107 0 -200 40t-162.5 109.5t-109.5 163t-40 200.5zM250 489q0 -72 27.5 -136t75.5 -112t111.5 -76 t135.5 -28t136 28t112.5 76t76.5 112t28 136t-28 136t-76.5 112.5t-112.5 76.5t-136 28t-135.5 -28t-111.5 -76.5t-75.5 -112.5t-27.5 -136zM594 1216q-53 1 -98 20.5t-78.5 51t-52.5 72.5t-19 86q0 17 11.5 28t27.5 11h67q18 0 29 -11.5t11 -27.5q0 -35 27 -62t79 -27 q45 0 72.5 24t27.5 56q0 17 7.5 32.5t31.5 15.5h58q19 0 35 -8.5t16 -30.5q0 -45 -19.5 -86.5t-53.5 -73.5t-80 -51t-99 -19z" />
<glyph unicode="&#x150;" horiz-adv-x="1706" d="M853 1505q105 0 202.5 -27t182 -77t154.5 -119.5t119.5 -155t77 -183.5t27.5 -204q0 -105 -27 -202.5t-77 -182t-119.5 -154t-154.5 -119t-183 -76.5t-204 -27t-203 27t-182 77t-154.5 119.5t-119 154t-76.5 182t-27 203.5q0 105 27 202.5t77 182.5t119.5 155 t154.5 119.5t182.5 77t203.5 27.5zM262 742q0 -123 46 -230.5t126.5 -188t188 -126.5t230.5 -46q121 0 228.5 46t187 126.5t126 188t46.5 230.5q0 81 -21 156t-59.5 140.5t-92 119t-119 92t-140.5 59.5t-156 21q-123 0 -230.5 -46.5t-188 -126t-126.5 -187t-46 -228.5z M772 1720q-19 -42 -53 -42h-73q-20 0 -26.5 7t-6.5 21q2 7 3.5 14t7.5 22l88 205q12 22 23.5 32t30.5 10h80q13 0 21.5 -3.5t8.5 -15.5q0 -5 -2.5 -14t-10.5 -26zM1102 1720q-19 -42 -53 -42h-73q-20 0 -26.5 7t-6.5 21q2 7 3.5 14t7.5 22l88 205q12 22 23.5 32t30.5 10h80 q13 0 21.5 -3.5t8.5 -15.5q0 -5 -2.5 -14t-10.5 -26z" />
<glyph unicode="&#x151;" horiz-adv-x="1220" d="M88 489q0 106 40 200t109.5 163.5t162.5 110t200 40.5q106 0 200 -40.5t163.5 -110t110 -163.5t40.5 -200q0 -107 -40.5 -200.5t-110 -163t-163.5 -109.5t-200 -40q-107 0 -200 40t-162.5 109.5t-109.5 163t-40 200.5zM250 489q0 -72 27.5 -136t75.5 -112t111.5 -76 t135.5 -28t136 28t112.5 76t76.5 112t28 136t-28 136t-76.5 112.5t-112.5 76.5t-136 28t-135.5 -28t-111.5 -76.5t-75.5 -112.5t-27.5 -136zM476 1216q-19 -42 -53 -42h-73q-20 0 -26.5 7t-6.5 21q2 7 3.5 14t7.5 22l88 205q12 22 23.5 32t30.5 10h80q13 0 21.5 -3.5 t8.5 -15.5q0 -5 -2.5 -14t-10.5 -26zM806 1216q-19 -42 -53 -42h-73q-20 0 -26.5 7t-6.5 21q2 7 3.5 14t7.5 22l88 205q12 22 23.5 32t30.5 10h80q13 0 21.5 -3.5t8.5 -15.5q0 -5 -2.5 -14t-10.5 -26z" />
<glyph unicode="&#x152;" horiz-adv-x="2506" d="M838 1509q105 0 202.5 -27t182 -77t154.5 -119.5t119.5 -155t77 -183.5t27.5 -204q0 -105 -27 -202.5t-77 -182t-119.5 -154t-154.5 -119t-183 -76.5t-204 -27t-203 27t-182 77t-154.5 119.5t-119 154t-76.5 182t-27 203.5q0 105 27 202.5t77 182.5t119.5 155 t154.5 119.5t182.5 77t203.5 27.5zM247 746q0 -123 46 -230.5t126.5 -188t188 -126.5t230.5 -46q121 0 228.5 46t187 126.5t126 188t46.5 230.5q0 81 -21 156t-59.5 140.5t-92 119t-119 92t-140.5 59.5t-156 21q-123 0 -230.5 -46.5t-188 -126t-126.5 -187t-46 -228.5z M2436 1482q45 0 45 -47v-81q0 -18 -12 -32t-35 -14h-831v-442h661q18 0 31 -11t13 -35v-82q0 -18 -11 -32t-33 -14h-661v-521h840q45 0 45 -47v-83q0 -44 -44 -44h-970q-44 0 -44 42v1397q0 46 44 46h962z" />
<glyph unicode="&#x153;" horiz-adv-x="2044" d="M88 489q0 106 40 200t109.5 163.5t162.5 110t200 40.5q71 0 137 -18.5t123.5 -52.5t104.5 -81.5t80 -105.5q32 57 78 102.5t102 77t120 48.5t133 17q94 0 181 -33.5t155 -95t111.5 -149t49.5 -195.5v-18q0 -30 -11 -45.5t-30 -22.5t-45.5 -8t-56.5 -1h-677 q13 -67 45.5 -120.5t78 -91t99.5 -58t109 -20.5q65 0 127 21t104 55l12 9q11 8 23 18t22 10t24 -12l47 -57q7 -12 10 -19.5t2 -13.5t-6.5 -11.5t-15.5 -13.5q-72 -60 -157 -98.5t-183 -38.5q-72 0 -138.5 18t-124 51.5t-105 81t-80.5 105.5q-33 -59 -80 -107t-105 -82 t-124.5 -53t-138.5 -19q-107 0 -200 40t-162.5 109.5t-109.5 163t-40 200.5zM250 489q0 -72 27.5 -136t75.5 -112t111.5 -76t135.5 -28t136 28t112.5 76t76.5 112t28 136t-28 136t-76.5 112.5t-112.5 76.5t-136 28t-135.5 -28t-111.5 -76.5t-75.5 -112.5t-27.5 -136z M1820 550q-15 67 -48 121t-78.5 91.5t-101.5 57.5t-116 20q-54 0 -106 -21.5t-95.5 -59.5t-75.5 -91.5t-45 -117.5h666z" />
<glyph unicode="&#x154;" horiz-adv-x="1342" d="M1083 1014q0 60 -23 114t-63 95.5t-95 66t-118 24.5h-449v-599h452q63 0 117 24t93.5 65t62.5 95.5t23 114.5zM162 1437q0 23 12 35.5t32 12.5h578q99 0 184.5 -37t149 -101.5t100 -150.5t36.5 -183q0 -71 -20 -136t-56 -120.5t-86 -99t-111 -71.5l263 -542q5 -12 5 -18 q0 -11 -9.5 -18.5t-26.5 -7.5h-101q-20 0 -31.5 10t-19.5 28l-242 509q-11 -2 -23 -2.5t-32 -0.5h-429v-500q0 -44 -44 -44h-85q-44 0 -44 44v1393zM685 1720q-19 -42 -53 -42h-73q-20 0 -26.5 7t-6.5 21q2 7 3.5 14t7.5 22l88 205q12 22 23.5 32t30.5 10h80q13 0 21.5 -3.5 t8.5 -15.5q0 -5 -2.5 -14t-10.5 -26z" />
<glyph unicode="&#x155;" horiz-adv-x="803" d="M484 1215q-19 -42 -53 -42h-73q-20 0 -26.5 7t-6.5 21q2 7 3.5 14t7.5 22l88 205q12 22 23.5 32t30.5 10h80q13 0 21.5 -3.5t8.5 -15.5q0 -5 -2.5 -14t-10.5 -26zM335 865q12 23 31.5 46.5t47 43t64 32t83.5 12.5q45 0 85 -15.5t66 -35.5q27 -20 27 -35q0 -4 -1.5 -8.5 t-3.5 -6.5l-50 -93q-7 -13 -14.5 -16.5t-14.5 -2.5t-12.5 4t-7.5 4q-20 13 -46 22t-52 11q-45 0 -82.5 -24t-64 -61.5t-41 -84.5t-14.5 -92v-521q0 -44 -44 -44h-83q-46 0 -46 44v891q0 20 13 32t31 12h73q21 0 33.5 -13t12.5 -31z" />
<glyph unicode="&#x156;" horiz-adv-x="1375" d="M1083 1014q0 60 -23 114t-63 95.5t-95 66t-118 24.5h-449v-599h452q63 0 117 24t93.5 65t62.5 95.5t23 114.5zM162 1437q0 23 12 35.5t32 12.5h578q99 0 184.5 -37t149 -101.5t100 -150.5t36.5 -183q0 -71 -20 -136t-56 -120.5t-86 -99t-111 -71.5l263 -542q5 -12 5 -18 q0 -11 -9.5 -18.5t-26.5 -7.5h-101q-20 0 -31.5 10t-19.5 28l-242 509q-11 -2 -23 -2.5t-32 -0.5h-429v-500q0 -44 -44 -44h-85q-44 0 -44 44v1393zM557 -301q0 28 10.5 52.5t28.5 42.5t42.5 28t51.5 10q29 0 53.5 -10.5t42.5 -29t28 -45t10 -59.5q0 -70 -14 -122 t-33.5 -86.5t-40 -51.5t-33.5 -17q-8 0 -12.5 1.5t-10.5 6.5l-31 24q-7 6 -11 14.5t-4 15.5q0 10 4.5 17.5t10.5 15.5l1 2v-1q8 8 14.5 20t6.5 32v7q-23 4 -43.5 16t-36.5 30t-25 40.5t-9 46.5z" />
<glyph unicode="&#x157;" horiz-adv-x="803" d="M335 865q12 23 31.5 46.5t47 43t64 32t83.5 12.5q45 0 85 -15.5t66 -35.5q27 -20 27 -35q0 -4 -1.5 -8.5t-3.5 -6.5l-50 -93q-7 -13 -14.5 -16.5t-14.5 -2.5t-12.5 4t-7.5 4q-20 13 -46 22t-52 11q-45 0 -82.5 -24t-64 -61.5t-41 -84.5t-14.5 -92v-521q0 -44 -44 -44h-83 q-46 0 -46 44v891q0 20 13 32t31 12h73q21 0 33.5 -13t12.5 -31zM131 -301q0 28 10.5 52.5t28.5 42.5t42.5 28t51.5 10q29 0 53.5 -10.5t42.5 -29t28 -45t10 -59.5q0 -70 -14 -122t-33.5 -86.5t-40 -51.5t-33.5 -17q-8 0 -12.5 1.5t-10.5 6.5l-31 24q-7 6 -11 14.5t-4 15.5 q0 10 4.5 17.5t10.5 15.5l1 2v-1q8 8 14.5 20t6.5 32v7q-23 4 -43.5 16t-36.5 30t-25 40.5t-9 46.5z" />
<glyph unicode="&#x158;" horiz-adv-x="1342" d="M1083 1014q0 60 -23 114t-63 95.5t-95 66t-118 24.5h-449v-599h452q63 0 117 24t93.5 65t62.5 95.5t23 114.5zM162 1437q0 23 12 35.5t32 12.5h578q99 0 184.5 -37t149 -101.5t100 -150.5t36.5 -183q0 -71 -20 -136t-56 -120.5t-86 -99t-111 -71.5l263 -542q5 -12 5 -18 q0 -11 -9.5 -18.5t-26.5 -7.5h-101q-20 0 -31.5 10t-19.5 28l-242 509q-11 -2 -23 -2.5t-32 -0.5h-429v-500q0 -44 -44 -44h-85q-44 0 -44 44v1393zM675 1663q-4 -4 -10.5 -7.5t-11.5 -3.5q-7 0 -13 3.5t-9 6.5l-262 263q-4 4 -9 11t-5 14q0 8 4.5 13.5t9.5 10.5l45 43 q6 5 12.5 9.5t12.5 4.5q8 0 13 -2t10 -9l191 -191l190 191q5 7 11.5 9t11.5 2q7 0 13 -4.5t11 -9.5l47 -43q5 -5 9 -10.5t4 -13.5q0 -7 -4.5 -14t-8.5 -11z" />
<glyph unicode="&#x159;" horiz-adv-x="803" d="M335 865q12 23 31.5 46.5t47 43t64 32t83.5 12.5q45 0 85 -15.5t66 -35.5q27 -20 27 -35q0 -4 -1.5 -8.5t-3.5 -6.5l-50 -93q-7 -13 -14.5 -16.5t-14.5 -2.5t-12.5 4t-7.5 4q-20 13 -46 22t-52 11q-45 0 -82.5 -24t-64 -61.5t-41 -84.5t-14.5 -92v-521q0 -44 -44 -44h-83 q-46 0 -46 44v891q0 20 13 32t31 12h73q21 0 33.5 -13t12.5 -31zM422 1159q-4 -4 -10.5 -7.5t-11.5 -3.5q-7 0 -13 3.5t-9 6.5l-262 263q-4 4 -9 11t-5 14q0 8 4.5 13.5t9.5 10.5l45 43q6 5 12.5 9.5t12.5 4.5q8 0 13 -2t10 -9l191 -191l190 191q5 7 11.5 9t11.5 2 q7 0 13 -4.5t11 -9.5l47 -43q5 -5 9 -10.5t4 -13.5q0 -7 -4.5 -14t-8.5 -11z" />
<glyph unicode="&#x15a;" horiz-adv-x="1283" d="M1002 1177q-24 21 -60 49t-82 53t-101 42.5t-118 17.5q-85 0 -146 -21t-100.5 -55.5t-58 -77.5t-18.5 -86q0 -51 31.5 -88.5t82 -65t114 -47.5t128.5 -38q59 -16 121.5 -34t121.5 -40.5t111 -52.5t91 -71t61.5 -94.5t22.5 -123.5q0 -107 -43.5 -193t-119.5 -146 t-178 -92.5t-219 -32.5q-78 0 -153 16t-144 48t-129.5 79.5t-108.5 109.5q-16 21 -16 36q0 17 18 32l64 53q7 5 15.5 8t15.5 3t13.5 -4t12.5 -9.5t11 -10.5l7 -7q44 -46 98.5 -80.5t109 -58t105 -35.5t86.5 -12q42 0 86.5 7.5t87 23t80.5 39t66.5 55t45 71.5t16.5 88 q0 61 -33.5 103t-90 71.5t-129.5 50.5t-151 41q-123 32 -215.5 69t-154 84.5t-92 106.5t-30.5 135q0 91 36.5 167t103.5 131t162 85t212 30q60 0 123 -14t122 -39.5t113 -60t96 -76.5q13 -13 26 -28t13 -28q0 -15 -16 -31l-60 -58q-14 -14 -27 -14q-16 0 -36 20zM737 1720 q-19 -42 -53 -42h-73q-20 0 -26.5 7t-6.5 21q2 7 3.5 14t7.5 22l88 205q12 22 23.5 32t30.5 10h80q13 0 21.5 -3.5t8.5 -15.5q0 -5 -2.5 -14t-10.5 -26z" />
<glyph unicode="&#x15b;" horiz-adv-x="850" d="M78 201q-4 12 -2.5 21.5t12.5 17.5l101 41q19 7 30 -4.5t16 -26.5q11 -31 34 -52t50 -33.5t53.5 -18t46.5 -5.5q33 0 66.5 9t60.5 25.5t44 41t17 54.5q0 33 -17 57t-45.5 42t-65.5 31.5t-78 24.5q-66 18 -120 45t-92.5 64.5t-59.5 84.5t-21 105q0 61 23.5 113t65.5 89 t101 58t131 21q55 0 100 -13.5t81 -38.5t65.5 -60.5t54.5 -80.5q5 -9 6 -13.5t1 -9.5q0 -8 -6 -13.5t-15 -11.5q-10 -6 -21 -14.5t-22 -15.5t-21 -12t-17 -5q-9 0 -14.5 2t-9.5 6.5t-8 11t-10 15.5q-29 39 -69 68t-94 29q-36 0 -65.5 -10.5t-50.5 -28t-33 -40.5t-12 -47 q0 -30 15 -52.5t38 -38.5t52.5 -27t58.5 -18q2 0 4 -1t4 -1q157 -36 245 -116.5t88 -198.5q0 -67 -26.5 -120.5t-74 -91t-112.5 -57.5t-142 -20q-54 0 -108.5 14t-101 41.5t-81.5 68.5t-50 95zM521 1214q-19 -42 -53 -42h-73q-20 0 -26.5 7t-6.5 21q2 7 3.5 14t7.5 22 l88 205q12 22 23.5 32t30.5 10h80q13 0 21.5 -3.5t8.5 -15.5q0 -5 -2.5 -14t-10.5 -26z" />
<glyph unicode="&#x15c;" horiz-adv-x="1283" d="M1002 1177q-24 21 -60 49t-82 53t-101 42.5t-118 17.5q-85 0 -146 -21t-100.5 -55.5t-58 -77.5t-18.5 -86q0 -51 31.5 -88.5t82 -65t114 -47.5t128.5 -38q59 -16 121.5 -34t121.5 -40.5t111 -52.5t91 -71t61.5 -94.5t22.5 -123.5q0 -107 -43.5 -193t-119.5 -146 t-178 -92.5t-219 -32.5q-78 0 -153 16t-144 48t-129.5 79.5t-108.5 109.5q-16 21 -16 36q0 17 18 32l64 53q7 5 15.5 8t15.5 3t13.5 -4t12.5 -9.5t11 -10.5l7 -7q44 -46 98.5 -80.5t109 -58t105 -35.5t86.5 -12q42 0 86.5 7.5t87 23t80.5 39t66.5 55t45 71.5t16.5 88 q0 61 -33.5 103t-90 71.5t-129.5 50.5t-151 41q-123 32 -215.5 69t-154 84.5t-92 106.5t-30.5 135q0 91 36.5 167t103.5 131t162 85t212 30q60 0 123 -14t122 -39.5t113 -60t96 -76.5q13 -13 26 -28t13 -28q0 -15 -16 -31l-60 -58q-14 -14 -27 -14q-16 0 -36 20zM925 1762 q4 -4 8.5 -11t4.5 -14q0 -8 -4 -13.5t-9 -10.5l-47 -43q-5 -5 -11 -9.5t-13 -4.5q-5 0 -11.5 2t-11.5 9l-190 191l-191 -191q-5 -7 -10 -9t-13 -2q-6 0 -12.5 4.5t-12.5 9.5l-45 43q-5 5 -9.5 10.5t-4.5 13.5q0 7 5 14t9 11l262 263q3 3 9 6.5t13 3.5q5 0 11.5 -3.5 t10.5 -7.5z" />
<glyph unicode="&#x15d;" horiz-adv-x="850" d="M78 201q-4 12 -2.5 21.5t12.5 17.5l101 41q19 7 30 -4.5t16 -26.5q11 -31 34 -52t50 -33.5t53.5 -18t46.5 -5.5q33 0 66.5 9t60.5 25.5t44 41t17 54.5q0 33 -17 57t-45.5 42t-65.5 31.5t-78 24.5q-66 18 -120 45t-92.5 64.5t-59.5 84.5t-21 105q0 61 23.5 113t65.5 89 t101 58t131 21q55 0 100 -13.5t81 -38.5t65.5 -60.5t54.5 -80.5q5 -9 6 -13.5t1 -9.5q0 -8 -6 -13.5t-15 -11.5q-10 -6 -21 -14.5t-22 -15.5t-21 -12t-17 -5q-9 0 -14.5 2t-9.5 6.5t-8 11t-10 15.5q-29 39 -69 68t-94 29q-36 0 -65.5 -10.5t-50.5 -28t-33 -40.5t-12 -47 q0 -30 15 -52.5t38 -38.5t52.5 -27t58.5 -18q2 0 4 -1t4 -1q157 -36 245 -116.5t88 -198.5q0 -67 -26.5 -120.5t-74 -91t-112.5 -57.5t-142 -20q-54 0 -108.5 14t-101 41.5t-81.5 68.5t-50 95zM729 1258q4 -4 8.5 -11t4.5 -14q0 -8 -4 -13.5t-9 -10.5l-47 -43 q-5 -5 -11 -9.5t-13 -4.5q-5 0 -11.5 2t-11.5 9l-190 191l-191 -191q-5 -7 -10 -9t-13 -2q-6 0 -12.5 4.5t-12.5 9.5l-45 43q-5 5 -9.5 10.5t-4.5 13.5q0 7 5 14t9 11l262 263q3 3 9 6.5t13 3.5q5 0 11.5 -3.5t10.5 -7.5z" />
<glyph unicode="&#x15e;" horiz-adv-x="1283" d="M1002 1177q-24 21 -60 49t-82 53t-101 42.5t-118 17.5q-85 0 -146 -21t-100.5 -55.5t-58 -77.5t-18.5 -86q0 -51 31.5 -88.5t82 -65t114 -47.5t128.5 -38q59 -16 121.5 -34t121.5 -40.5t111 -52.5t91 -71t61.5 -94.5t22.5 -123.5q0 -107 -43.5 -193t-119.5 -146 t-178 -92.5t-219 -32.5q-78 0 -153 16t-144 48t-129.5 79.5t-108.5 109.5q-16 21 -16 36q0 17 18 32l64 53q7 5 15.5 8t15.5 3t13.5 -4t12.5 -9.5t11 -10.5l7 -7q44 -46 98.5 -80.5t109 -58t105 -35.5t86.5 -12q42 0 86.5 7.5t87 23t80.5 39t66.5 55t45 71.5t16.5 88 q0 61 -33.5 103t-90 71.5t-129.5 50.5t-151 41q-123 32 -215.5 69t-154 84.5t-92 106.5t-30.5 135q0 91 36.5 167t103.5 131t162 85t212 30q60 0 123 -14t122 -39.5t113 -60t96 -76.5q13 -13 26 -28t13 -28q0 -15 -16 -31l-60 -58q-14 -14 -27 -14q-16 0 -36 20zM705 -6 q0 -20 8.5 -42t38.5 -42q26 -17 50.5 -33.5t44 -38.5t31.5 -50.5t12 -68.5q-5 -66 -62.5 -117t-178.5 -86q-8 -2 -14 -2q-14 0 -24.5 10t-18 24.5t-11.5 30t-4 27.5q0 21 20 28q69 14 108 41t39 58q0 17 -7 29.5t-19 23t-27.5 20t-32.5 20.5q-20 9 -38 23.5t-31 33.5 t-20.5 41t-7.5 46v34q0 20 8 23.5t23 3.5h86q20 0 23.5 -12.5t3.5 -24.5z" />
<glyph unicode="&#x15f;" horiz-adv-x="850" d="M78 201q-4 12 -2.5 21.5t12.5 17.5l101 41q19 7 30 -4.5t16 -26.5q11 -31 34 -52t50 -33.5t53.5 -18t46.5 -5.5q33 0 66.5 9t60.5 25.5t44 41t17 54.5q0 33 -17 57t-45.5 42t-65.5 31.5t-78 24.5q-66 18 -120 45t-92.5 64.5t-59.5 84.5t-21 105q0 61 23.5 113t65.5 89 t101 58t131 21q55 0 100 -13.5t81 -38.5t65.5 -60.5t54.5 -80.5q5 -9 6 -13.5t1 -9.5q0 -8 -6 -13.5t-15 -11.5q-10 -6 -21 -14.5t-22 -15.5t-21 -12t-17 -5q-9 0 -14.5 2t-9.5 6.5t-8 11t-10 15.5q-29 39 -69 68t-94 29q-36 0 -65.5 -10.5t-50.5 -28t-33 -40.5t-12 -47 q0 -30 15 -52.5t38 -38.5t52.5 -27t58.5 -18q2 0 4 -1t4 -1q157 -36 245 -116.5t88 -198.5q0 -67 -26.5 -120.5t-74 -91t-112.5 -57.5t-142 -20q-54 0 -108.5 14t-101 41.5t-81.5 68.5t-50 95zM477 -6q0 -20 8.5 -42t38.5 -42q26 -17 50.5 -33.5t44 -38.5t31.5 -50.5 t12 -68.5q-5 -66 -62.5 -117t-178.5 -86q-8 -2 -14 -2q-14 0 -24.5 10t-18 24.5t-11.5 30t-4 27.5q0 21 20 28q69 14 108 41t39 58q0 17 -7 29.5t-19 23t-27.5 20t-32.5 20.5q-20 9 -38 23.5t-31 33.5t-20.5 41t-7.5 46v34q0 20 8 23.5t23 3.5h86q20 0 23.5 -12.5t3.5 -24.5 z" />
<glyph unicode="&#x160;" horiz-adv-x="1283" d="M1002 1177q-24 21 -60 49t-82 53t-101 42.5t-118 17.5q-85 0 -146 -21t-100.5 -55.5t-58 -77.5t-18.5 -86q0 -51 31.5 -88.5t82 -65t114 -47.5t128.5 -38q59 -16 121.5 -34t121.5 -40.5t111 -52.5t91 -71t61.5 -94.5t22.5 -123.5q0 -107 -43.5 -193t-119.5 -146 t-178 -92.5t-219 -32.5q-78 0 -153 16t-144 48t-129.5 79.5t-108.5 109.5q-16 21 -16 36q0 17 18 32l64 53q7 5 15.5 8t15.5 3t13.5 -4t12.5 -9.5t11 -10.5l7 -7q44 -46 98.5 -80.5t109 -58t105 -35.5t86.5 -12q42 0 86.5 7.5t87 23t80.5 39t66.5 55t45 71.5t16.5 88 q0 61 -33.5 103t-90 71.5t-129.5 50.5t-151 41q-123 32 -215.5 69t-154 84.5t-92 106.5t-30.5 135q0 91 36.5 167t103.5 131t162 85t212 30q60 0 123 -14t122 -39.5t113 -60t96 -76.5q13 -13 26 -28t13 -28q0 -15 -16 -31l-60 -58q-14 -14 -27 -14q-16 0 -36 20zM665 1663 q-4 -4 -10.5 -7.5t-11.5 -3.5q-7 0 -13 3.5t-9 6.5l-262 263q-4 4 -9 11t-5 14q0 8 4.5 13.5t9.5 10.5l45 43q6 5 12.5 9.5t12.5 4.5q8 0 13 -2t10 -9l191 -191l190 191q5 7 11.5 9t11.5 2q7 0 13 -4.5t11 -9.5l47 -43q5 -5 9 -10.5t4 -13.5q0 -7 -4.5 -14t-8.5 -11z" />
<glyph unicode="&#x161;" horiz-adv-x="850" d="M78 201q-4 12 -2.5 21.5t12.5 17.5l101 41q19 7 30 -4.5t16 -26.5q11 -31 34 -52t50 -33.5t53.5 -18t46.5 -5.5q33 0 66.5 9t60.5 25.5t44 41t17 54.5q0 33 -17 57t-45.5 42t-65.5 31.5t-78 24.5q-66 18 -120 45t-92.5 64.5t-59.5 84.5t-21 105q0 61 23.5 113t65.5 89 t101 58t131 21q55 0 100 -13.5t81 -38.5t65.5 -60.5t54.5 -80.5q5 -9 6 -13.5t1 -9.5q0 -8 -6 -13.5t-15 -11.5q-10 -6 -21 -14.5t-22 -15.5t-21 -12t-17 -5q-9 0 -14.5 2t-9.5 6.5t-8 11t-10 15.5q-29 39 -69 68t-94 29q-36 0 -65.5 -10.5t-50.5 -28t-33 -40.5t-12 -47 q0 -30 15 -52.5t38 -38.5t52.5 -27t58.5 -18q2 0 4 -1t4 -1q157 -36 245 -116.5t88 -198.5q0 -67 -26.5 -120.5t-74 -91t-112.5 -57.5t-142 -20q-54 0 -108.5 14t-101 41.5t-81.5 68.5t-50 95zM448 1159q-4 -4 -10.5 -7.5t-11.5 -3.5q-7 0 -13 3.5t-9 6.5l-262 263 q-4 4 -9 11t-5 14q0 8 4.5 13.5t9.5 10.5l45 43q6 5 12.5 9.5t12.5 4.5q8 0 13 -2t10 -9l191 -191l190 191q5 7 11.5 9t11.5 2q7 0 13 -4.5t11 -9.5l47 -43q5 -5 9 -10.5t4 -13.5q0 -7 -4.5 -14t-8.5 -11z" />
<glyph unicode="&#x162;" horiz-adv-x="1267" d="M1117 1485q18 0 32 -11t16 -33v-82q0 -20 -12.5 -34t-35.5 -14h-427v-1266q0 -19 -11.5 -32t-34.5 -13h-81q-20 0 -33 12.5t-13 32.5v1266h-429q-20 0 -32.5 11.5t-12.5 36.5v82q0 20 12.5 32t32.5 12h1029zM500 -301q0 28 10.5 52.5t28.5 42.5t42.5 28t51.5 10 q29 0 53.5 -10.5t42.5 -29t28 -45t10 -59.5q0 -70 -14 -122t-33.5 -86.5t-40 -51.5t-33.5 -17q-8 0 -12.5 1.5t-10.5 6.5l-31 24q-7 6 -11 14.5t-4 15.5q0 10 4.5 17.5t10.5 15.5l1 2v-1q8 8 14.5 20t6.5 32v7q-23 4 -43.5 16t-36.5 30t-25 40.5t-9 46.5z" />
<glyph unicode="&#x163;" horiz-adv-x="656" d="M503 -15q-8 -1 -16 -1.5t-16 -0.5q-48 0 -93 7t-79.5 32t-55 72.5t-20.5 127.5v601h-121q-24 0 -36.5 8.5t-12.5 34.5v75q0 26 12.5 33.5t36.5 7.5h121v283q0 17 8 25.5t26 13.5l101 15q25 0 32 -16.5t7 -36.5v-284h147q23 0 34 -10t11 -36v-65q0 -48 -45 -48h-147v-537 q0 -51 5 -78.5t17.5 -41t32.5 -16.5t50 -4q23 0 37 -13t14 -37v-63q0 -23 -13.5 -34.5t-36.5 -13.5zM192 -301q0 28 10.5 52.5t28.5 42.5t42.5 28t51.5 10q29 0 53.5 -10.5t42.5 -29t28 -45t10 -59.5q0 -70 -14 -122t-33.5 -86.5t-40 -51.5t-33.5 -17q-8 0 -12.5 1.5 t-10.5 6.5l-31 24q-7 6 -11 14.5t-4 15.5q0 10 4.5 17.5t10.5 15.5l1 2v-1q8 8 14.5 20t6.5 32v7q-23 4 -43.5 16t-36.5 30t-25 40.5t-9 46.5z" />
<glyph unicode="&#x164;" horiz-adv-x="1267" d="M1117 1485q18 0 32 -11t16 -33v-82q0 -20 -12.5 -34t-35.5 -14h-427v-1266q0 -19 -11.5 -32t-34.5 -13h-81q-20 0 -33 12.5t-13 32.5v1266h-429q-20 0 -32.5 11.5t-12.5 36.5v82q0 20 12.5 32t32.5 12h1029zM656 1663q-4 -4 -10.5 -7.5t-11.5 -3.5q-7 0 -13 3.5t-9 6.5 l-262 263q-4 4 -9 11t-5 14q0 8 4.5 13.5t9.5 10.5l45 43q6 5 12.5 9.5t12.5 4.5q8 0 13 -2t10 -9l191 -191l190 191q5 7 11.5 9t11.5 2q7 0 13 -4.5t11 -9.5l47 -43q5 -5 9 -10.5t4 -13.5q0 -7 -4.5 -14t-8.5 -11z" />
<glyph unicode="&#x165;" horiz-adv-x="656" d="M503 -15q-8 -1 -16 -1.5t-16 -0.5q-48 0 -93 7t-79.5 32t-55 72.5t-20.5 127.5v601h-121q-24 0 -36.5 8.5t-12.5 34.5v75q0 26 12.5 33.5t36.5 7.5h121v283q0 17 8 25.5t26 13.5l101 15q25 0 32 -16.5t7 -36.5v-284h147q23 0 34 -10t11 -36v-65q0 -48 -45 -48h-147v-537 q0 -51 5 -78.5t17.5 -41t32.5 -16.5t50 -4q23 0 37 -13t14 -37v-63q0 -23 -13.5 -34.5t-36.5 -13.5zM478 1384q0 28 10.5 52.5t28.5 42.5t42.5 28t51.5 10q29 0 53.5 -10.5t42.5 -29t28 -45t10 -59.5q0 -70 -14 -122t-33.5 -86.5t-40 -51.5t-33.5 -17q-8 0 -12.5 1.5 t-10.5 6.5l-31 24q-7 6 -11 14.5t-4 15.5q0 9 4.5 14.5t10.5 13.5q9 9 15.5 23t6.5 35v7q-23 4 -43.5 16t-36.5 30t-25 40.5t-9 46.5z" />
<glyph unicode="&#x166;" horiz-adv-x="1267" d="M895 986q14 0 22.5 -8t8.5 -25v-102q0 -13 -8.5 -24t-22.5 -11h-510q-35 0 -35 35v102q0 33 35 33h510zM1117 1485q18 0 32 -11t16 -33v-82q0 -20 -12.5 -34t-35.5 -14h-427v-1266q0 -19 -11.5 -32t-34.5 -13h-81q-20 0 -33 12.5t-13 32.5v1266h-429q-20 0 -32.5 11.5 t-12.5 36.5v82q0 20 12.5 32t32.5 12h1029z" />
<glyph unicode="&#x167;" horiz-adv-x="656" d="M523 673q14 0 22.5 -8t8.5 -25v-57q0 -14 -8.5 -24.5t-22.5 -10.5h-422q-35 0 -35 35v57q0 33 35 33h422zM503 -15q-8 -1 -16 -1.5t-16 -0.5q-48 0 -93 7t-79.5 32t-55 72.5t-20.5 127.5v601h-121q-24 0 -36.5 8.5t-12.5 34.5v75q0 26 12.5 33.5t36.5 7.5h121v283 q0 17 8 25.5t26 13.5l101 15q25 0 32 -16.5t7 -36.5v-284h147q23 0 34 -10t11 -36v-65q0 -48 -45 -48h-147v-537q0 -51 5 -78.5t17.5 -41t32.5 -16.5t50 -4q23 0 37 -13t14 -37v-63q0 -23 -13.5 -34.5t-36.5 -13.5z" />
<glyph unicode="&#x168;" horiz-adv-x="1504" d="M317 607q0 -97 30.5 -181.5t86.5 -146.5t136.5 -98t181.5 -36q106 0 188 36t137.5 98.5t84 147t28.5 180.5v834q0 18 13.5 31t33.5 13h76q19 0 35 -12t16 -32v-854q0 -138 -48 -250.5t-131.5 -192.5t-195 -124t-237.5 -44t-237 48t-194.5 131.5t-131.5 194.5t-48 237v854 q0 15 11.5 29.5t30.5 14.5h87q15 0 31 -13t16 -31v-834zM515 1688q-7 -7 -15 -7t-19 8t-23.5 20t-20.5 19q-5 5 -6.5 8.5t-1.5 10.5q0 5 6 14.5t7 11.5q42 59 90 83t106 24q30 0 61 -12t59 -32l55 -38q31 -21 67 -21q42 0 72 28q10 9 20.5 24.5t20.5 25.5q5 7 15 7 q7 0 18 -8t23.5 -20t20.5 -18q5 -6 6.5 -9.5t1.5 -10.5q0 -5 -6 -15t-7 -10q-42 -59 -89.5 -83.5t-105.5 -24.5q-31 0 -62 12t-59 32l-55 38q-30 21 -67 21q-44 0 -72 -28q-9 -9 -19.5 -24.5t-20.5 -25.5z" />
<glyph unicode="&#x169;" horiz-adv-x="1136" d="M818 44q-5 23 -9 45t-8 45q-23 -29 -50.5 -57t-61 -50t-73 -35t-85.5 -13q-86 0 -161 32.5t-130.5 89t-87.5 132t-32 162.5v533q0 26 14 39t34 13h81q27 0 36 -12t9 -38v-537q0 -50 21 -94t56.5 -77t81 -52t95.5 -19q48 0 93 18.5t79.5 51t56 76t24.5 93.5v545 q0 22 12 33.5t33 11.5h82q46 0 46 -45v-891q0 -20 -12 -32t-32 -12h-66q-23 0 -34.5 12.5t-11.5 31.5zM334 1184q-7 -7 -15 -7t-19 8t-23.5 20t-20.5 19q-5 5 -6.5 8.5t-1.5 10.5q0 5 6 14.5t7 11.5q42 59 90 83t106 24q30 0 61 -12t59 -32l55 -38q31 -21 67 -21q42 0 72 28 q10 9 20.5 24.5t20.5 25.5q5 7 15 7q7 0 18 -8t23.5 -20t20.5 -18q5 -6 6.5 -9.5t1.5 -10.5q0 -5 -6 -15t-7 -10q-42 -59 -89.5 -83.5t-105.5 -24.5q-31 0 -62 12t-59 32l-55 38q-30 21 -67 21q-44 0 -72 -28q-9 -9 -19.5 -24.5t-20.5 -25.5z" />
<glyph unicode="&#x16a;" horiz-adv-x="1504" d="M317 607q0 -97 30.5 -181.5t86.5 -146.5t136.5 -98t181.5 -36q106 0 188 36t137.5 98.5t84 147t28.5 180.5v834q0 18 13.5 31t33.5 13h76q19 0 35 -12t16 -32v-854q0 -138 -48 -250.5t-131.5 -192.5t-195 -124t-237.5 -44t-237 48t-194.5 131.5t-131.5 194.5t-48 237v854 q0 15 11.5 29.5t30.5 14.5h87q15 0 31 -13t16 -31v-834zM365 1797q0 35 36 35h701q36 0 36 -35v-77q0 -11 -8.5 -25t-27.5 -14h-701q-36 0 -36 39v77z" />
<glyph unicode="&#x16b;" horiz-adv-x="1136" d="M818 44q-5 23 -9 45t-8 45q-23 -29 -50.5 -57t-61 -50t-73 -35t-85.5 -13q-86 0 -161 32.5t-130.5 89t-87.5 132t-32 162.5v533q0 26 14 39t34 13h81q27 0 36 -12t9 -38v-537q0 -50 21 -94t56.5 -77t81 -52t95.5 -19q48 0 93 18.5t79.5 51t56 76t24.5 93.5v545 q0 22 12 33.5t33 11.5h82q46 0 46 -45v-891q0 -20 -12 -32t-32 -12h-66q-23 0 -34.5 12.5t-11.5 31.5zM184 1312q0 35 36 35h701q36 0 36 -35v-77q0 -11 -8.5 -25t-27.5 -14h-701q-36 0 -36 39v77z" />
<glyph unicode="&#x16c;" horiz-adv-x="1504" d="M317 607q0 -97 30.5 -181.5t86.5 -146.5t136.5 -98t181.5 -36q106 0 188 36t137.5 98.5t84 147t28.5 180.5v834q0 18 13.5 31t33.5 13h76q19 0 35 -12t16 -32v-854q0 -138 -48 -250.5t-131.5 -192.5t-195 -124t-237.5 -44t-237 48t-194.5 131.5t-131.5 194.5t-48 237v854 q0 15 11.5 29.5t30.5 14.5h87q15 0 31 -13t16 -31v-834zM751 1720q-53 1 -98 20.5t-78.5 51t-52.5 72.5t-19 86q0 17 11.5 28t27.5 11h67q18 0 29 -11.5t11 -27.5q0 -35 27 -62t79 -27q45 0 72.5 24t27.5 56q0 17 7.5 32.5t31.5 15.5h58q19 0 35 -8.5t16 -30.5 q0 -45 -19.5 -86.5t-53.5 -73.5t-80 -51t-99 -19z" />
<glyph unicode="&#x16d;" horiz-adv-x="1136" d="M818 44q-5 23 -9 45t-8 45q-23 -29 -50.5 -57t-61 -50t-73 -35t-85.5 -13q-86 0 -161 32.5t-130.5 89t-87.5 132t-32 162.5v533q0 26 14 39t34 13h81q27 0 36 -12t9 -38v-537q0 -50 21 -94t56.5 -77t81 -52t95.5 -19q48 0 93 18.5t79.5 51t56 76t24.5 93.5v545 q0 22 12 33.5t33 11.5h82q46 0 46 -45v-891q0 -20 -12 -32t-32 -12h-66q-23 0 -34.5 12.5t-11.5 31.5zM570 1216q-53 1 -98 20.5t-78.5 51t-52.5 72.5t-19 86q0 17 11.5 28t27.5 11h67q18 0 29 -11.5t11 -27.5q0 -35 27 -62t79 -27q45 0 72.5 24t27.5 56q0 17 7.5 32.5 t31.5 15.5h58q19 0 35 -8.5t16 -30.5q0 -45 -19.5 -86.5t-53.5 -73.5t-80 -51t-99 -19z" />
<glyph unicode="&#x16e;" horiz-adv-x="1504" d="M317 607q0 -97 30.5 -181.5t86.5 -146.5t136.5 -98t181.5 -36q106 0 188 36t137.5 98.5t84 147t28.5 180.5v834q0 18 13.5 31t33.5 13h76q19 0 35 -12t16 -32v-854q0 -138 -48 -250.5t-131.5 -192.5t-195 -124t-237.5 -44t-237 48t-194.5 131.5t-131.5 194.5t-48 237v854 q0 15 11.5 29.5t30.5 14.5h87q15 0 31 -13t16 -31v-834zM751 2052q43 0 81.5 -16.5t67.5 -45.5t45.5 -67.5t16.5 -81.5q0 -44 -16.5 -82t-45.5 -66.5t-67.5 -44.5t-81.5 -16q-44 0 -82 16t-66.5 44.5t-44.5 66.5t-16 82q0 43 16 81.5t44.5 67.5t66.5 45.5t82 16.5zM751 1946 q-23 0 -42 -8t-32.5 -22.5t-21.5 -33.5t-8 -41q0 -45 29.5 -74.5t74.5 -29.5q22 0 41 8t33.5 21.5t22.5 32.5t8 42q0 45 -30 75t-75 30z" />
<glyph unicode="&#x16f;" horiz-adv-x="1136" d="M818 44q-5 23 -9 45t-8 45q-23 -29 -50.5 -57t-61 -50t-73 -35t-85.5 -13q-86 0 -161 32.5t-130.5 89t-87.5 132t-32 162.5v533q0 26 14 39t34 13h81q27 0 36 -12t9 -38v-537q0 -50 21 -94t56.5 -77t81 -52t95.5 -19q48 0 93 18.5t79.5 51t56 76t24.5 93.5v545 q0 22 12 33.5t33 11.5h82q46 0 46 -45v-891q0 -20 -12 -32t-32 -12h-66q-23 0 -34.5 12.5t-11.5 31.5zM570 1548q43 0 81.5 -16.5t67.5 -45.5t45.5 -67.5t16.5 -81.5q0 -44 -16.5 -82t-45.5 -66.5t-67.5 -44.5t-81.5 -16q-44 0 -82 16t-66.5 44.5t-44.5 66.5t-16 82 q0 43 16 81.5t44.5 67.5t66.5 45.5t82 16.5zM570 1442q-23 0 -42 -8t-32.5 -22.5t-21.5 -33.5t-8 -41q0 -45 29.5 -74.5t74.5 -29.5q22 0 41 8t33.5 21.5t22.5 32.5t8 42q0 45 -30 75t-75 30z" />
<glyph unicode="&#x170;" horiz-adv-x="1504" d="M317 607q0 -97 30.5 -181.5t86.5 -146.5t136.5 -98t181.5 -36q106 0 188 36t137.5 98.5t84 147t28.5 180.5v834q0 18 13.5 31t33.5 13h76q19 0 35 -12t16 -32v-854q0 -138 -48 -250.5t-131.5 -192.5t-195 -124t-237.5 -44t-237 48t-194.5 131.5t-131.5 194.5t-48 237v854 q0 15 11.5 29.5t30.5 14.5h87q15 0 31 -13t16 -31v-834zM723 1720q-19 -42 -53 -42h-73q-20 0 -26.5 7t-6.5 21q2 7 3.5 14t7.5 22l88 205q12 22 23.5 32t30.5 10h80q13 0 21.5 -3.5t8.5 -15.5q0 -5 -2.5 -14t-10.5 -26zM1053 1720q-19 -42 -53 -42h-73q-20 0 -26.5 7 t-6.5 21q2 7 3.5 14t7.5 22l88 205q12 22 23.5 32t30.5 10h80q13 0 21.5 -3.5t8.5 -15.5q0 -5 -2.5 -14t-10.5 -26z" />
<glyph unicode="&#x171;" horiz-adv-x="1136" d="M818 44q-5 23 -9 45t-8 45q-23 -29 -50.5 -57t-61 -50t-73 -35t-85.5 -13q-86 0 -161 32.5t-130.5 89t-87.5 132t-32 162.5v533q0 26 14 39t34 13h81q27 0 36 -12t9 -38v-537q0 -50 21 -94t56.5 -77t81 -52t95.5 -19q48 0 93 18.5t79.5 51t56 76t24.5 93.5v545 q0 22 12 33.5t33 11.5h82q46 0 46 -45v-891q0 -20 -12 -32t-32 -12h-66q-23 0 -34.5 12.5t-11.5 31.5zM436 1216q-19 -42 -53 -42h-73q-20 0 -26.5 7t-6.5 21q2 7 3.5 14t7.5 22l88 205q12 22 23.5 32t30.5 10h80q13 0 21.5 -3.5t8.5 -15.5q0 -5 -2.5 -14t-10.5 -26z M766 1216q-19 -42 -53 -42h-73q-20 0 -26.5 7t-6.5 21q2 7 3.5 14t7.5 22l88 205q12 22 23.5 32t30.5 10h80q13 0 21.5 -3.5t8.5 -15.5q0 -5 -2.5 -14t-10.5 -26z" />
<glyph unicode="&#x172;" horiz-adv-x="1504" d="M317 607q0 -97 30.5 -181.5t86.5 -146.5t136.5 -98t181.5 -36q106 0 188 36t137.5 98.5t84 147t28.5 180.5v834q0 18 13.5 31t33.5 13h76q19 0 35 -12t16 -32v-854q0 -138 -48 -250.5t-131.5 -192.5t-195 -124t-237.5 -44t-237 48t-194.5 131.5t-131.5 194.5t-48 237v854 q0 15 11.5 29.5t30.5 14.5h87q15 0 31 -13t16 -31v-834zM691 -11q0 12 3.5 24.5t23.5 12.5h86q15 0 23 -3.5t8 -23.5v-26q0 -24 -7.5 -46t-20.5 -41t-31 -33.5t-38 -23.5q-17 -11 -32.5 -20.5t-27.5 -20t-19 -23t-7 -29.5q0 -31 39 -58t108 -41q20 -7 20 -28q0 -12 -4 -27.5 t-11.5 -30t-18 -24.5t-24.5 -10q-6 0 -14 2q-121 35 -178.5 86t-62.5 117q0 40 12 68.5t31.5 50.5t44 38.5t50.5 33.5q30 20 38.5 38t8.5 38z" />
<glyph unicode="&#x173;" horiz-adv-x="1133" d="M818 44q-5 23 -9 45t-8 45q-23 -29 -50.5 -57t-61 -50t-73 -35t-85.5 -13q-86 0 -161 32.5t-130.5 89t-87.5 132t-32 162.5v533q0 26 14 39t34 13h81q27 0 36 -12t9 -38v-537q0 -50 21 -94t56.5 -77t81 -52t95.5 -19q48 0 93 18.5t79.5 51t56 76t24.5 93.5v545 q0 22 12 33.5t33 11.5h82q46 0 46 -45v-891q0 -20 -12 -32t-32 -12h-66q-23 0 -34.5 12.5t-11.5 31.5zM827 -11q0 12 3.5 24.5t23.5 12.5h86q15 0 23 -3.5t8 -23.5v-26q0 -24 -7.5 -46t-20.5 -41t-31 -33.5t-38 -23.5q-17 -11 -32.5 -20.5t-27.5 -20t-19 -23t-7 -29.5 q0 -31 39 -58t108 -41q20 -7 20 -28q0 -12 -4 -27.5t-11.5 -30t-18 -24.5t-24.5 -10q-6 0 -14 2q-121 35 -178.5 86t-62.5 117q0 40 12 68.5t31.5 50.5t44 38.5t50.5 33.5q30 20 38.5 38t8.5 38z" />
<glyph unicode="&#x174;" horiz-adv-x="2131" d="M1194 1457q5 13 14 20.5t22 7.5h111q19 0 27 -8t8 -22q0 -6 -3 -16l-229 -551q65 -158 129.5 -314t129.5 -314q121 298 242 592.5t242 593.5q8 18 20 28.5t34 10.5h84q21 0 32 -8t11 -22q0 -3 -1 -7t-2 -6l-582 -1398q-1 -5 -4 -8l-3 -6t-8 -12.5t-14 -12t-21 -5.5h-61 q-26 0 -36.5 13.5t-12.5 24.5l-268 641l-265 -635q-5 -24 -22 -34t-33 -10h-54q-12 0 -20 4.5t-14 10.5t-9.5 12.5t-5.5 11.5l-581 1400q0 2 -1.5 6.5t-1.5 9.5q0 30 37 30h97q34 0 52 -45l481 -1180zM1340 1762q4 -4 8.5 -11t4.5 -14q0 -8 -4 -13.5t-9 -10.5l-47 -43 q-5 -5 -11 -9.5t-13 -4.5q-5 0 -11.5 2t-11.5 9l-190 191l-191 -191q-5 -7 -10 -9t-13 -2q-6 0 -12.5 4.5t-12.5 9.5l-45 43q-5 5 -9.5 10.5t-4.5 13.5q0 7 5 14t9 11l262 263q3 3 9 6.5t13 3.5q5 0 11.5 -3.5t10.5 -7.5z" />
<glyph unicode="&#x175;" horiz-adv-x="1547" d="M236 943q31 -81 66 -169.5l70 -177t68.5 -172t62.5 -153.5q38 97 84 210.5t94 234.5l89 228q7 17 20 28t34 11h85q21 0 33 -9t12 -26q0 -5 -2 -13.5t-3 -10.5q-20 -49 -40.5 -98t-41.5 -98q28 -73 57 -146.5t57 -140.5l70 -171q29 70 62 154t68 172.5t70 177.5t67 170 q6 16 20.5 27.5t34.5 11.5h84q22 0 34.5 -9t12.5 -26q0 -5 -2.5 -13.5t-3.5 -10.5l-366 -885q0 1 -2.5 -5t-8.5 -13.5t-16 -14t-25 -6.5h-58q-25 0 -36 14.5t-15 23.5l-194 469l-193 -468q-1 -2 -3 -7.5t-7 -12.5t-13.5 -12t-22.5 -5l-3 -2h-61q-13 0 -22 4t-15 10 t-9.5 12.5t-5.5 11.5l-365 886q0 -1 -2 7t-2 19q0 33 43 33h84q20 0 34 -11.5t22 -28.5zM1064 1258q4 -4 8.5 -11t4.5 -14q0 -8 -4 -13.5t-9 -10.5l-47 -43q-5 -5 -11 -9.5t-13 -4.5q-5 0 -11.5 2t-11.5 9l-190 191l-191 -191q-5 -7 -10 -9t-13 -2q-6 0 -12.5 4.5t-12.5 9.5 l-45 43q-5 5 -9.5 10.5t-4.5 13.5q0 7 5 14t9 11l262 263q3 3 9 6.5t13 3.5q5 0 11.5 -3.5t10.5 -7.5z" />
<glyph unicode="&#x176;" horiz-adv-x="1319" d="M89 1434q-13 19 -13 30q0 21 30 21h130q10 -1 16 -2t11 -5.5t10.5 -12.5t14.5 -22l371 -611l377 619q12 20 21.5 26t24.5 8h137q24 0 24 -18q0 -4 -2.5 -11.5t-8.5 -15.5q-123 -198 -242 -392.5t-244 -392.5v-608q0 -47 -45 -47h-86q-42 0 -42 47v602zM942 1762 q4 -4 8.5 -11t4.5 -14q0 -8 -4 -13.5t-9 -10.5l-47 -43q-5 -5 -11 -9.5t-13 -4.5q-5 0 -11.5 2t-11.5 9l-190 191l-191 -191q-5 -7 -10 -9t-13 -2q-6 0 -12.5 4.5t-12.5 9.5l-45 43q-5 5 -9.5 10.5t-4.5 13.5q0 7 5 14t9 11l262 263q3 3 9 6.5t13 3.5q5 0 11.5 -3.5 t10.5 -7.5z" />
<glyph unicode="&#x177;" horiz-adv-x="1048" d="M976 890q-130 -310 -256 -621.5t-256 -619.5q-15 -35 -53 -35h-80q-46 0 -46 34q0 9 4 21l144 351l-368 890q-6 14 -7.5 24.5t-1.5 14.5q0 32 43 32h85q19 0 32.5 -9.5t19.5 -26.5q33 -87 69 -178.5t72.5 -183.5t73 -183t72.5 -178l286 726q8 18 21 25.5t33 7.5h82 q25 0 36 -11t11 -29q0 -5 -2 -14.5t-14 -36.5zM804 1258q4 -4 8.5 -11t4.5 -14q0 -8 -4 -13.5t-9 -10.5l-47 -43q-5 -5 -11 -9.5t-13 -4.5q-5 0 -11.5 2t-11.5 9l-190 191l-191 -191q-5 -7 -10 -9t-13 -2q-6 0 -12.5 4.5t-12.5 9.5l-45 43q-5 5 -9.5 10.5t-4.5 13.5 q0 7 5 14t9 11l262 263q3 3 9 6.5t13 3.5q5 0 11.5 -3.5t10.5 -7.5z" />
<glyph unicode="&#x178;" horiz-adv-x="1319" d="M89 1434q-13 19 -13 30q0 21 30 21h130q10 -1 16 -2t11 -5.5t10.5 -12.5t14.5 -22l371 -611l377 619q12 20 21.5 26t24.5 8h137q24 0 24 -18q0 -4 -2.5 -11.5t-8.5 -15.5q-123 -198 -242 -392.5t-244 -392.5v-608q0 -47 -45 -47h-86q-42 0 -42 47v602zM341 1751 q0 26 10 49t27 40t39.5 27t48.5 10q27 0 50 -10t40 -27t26.5 -40t9.5 -49t-9.5 -48.5t-26.5 -39.5t-40 -27t-50 -10q-26 0 -48.5 10t-39.5 27t-27 39.5t-10 48.5zM713 1753q0 26 10 49t27 40t39.5 27t48.5 10q27 0 50 -10t40 -27t26.5 -40t9.5 -49t-9.5 -48.5t-26.5 -39.5 t-40 -27t-50 -10q-26 0 -48.5 10t-39.5 27t-27 39.5t-10 48.5z" />
<glyph unicode="&#x179;" horiz-adv-x="1278" d="M113 0q-20 0 -34 13.5t-14 33.5v90q0 7 2 17t11 19l878 1138h-822q-47 0 -47 46v84q0 44 47 44h1011q19 0 33 -13t14 -33v-93q0 -19 -9 -31l-874 -1141h840q19 0 32 -11.5t13 -35.5v-80q0 -18 -12.5 -32.5t-32.5 -14.5h-1036zM680 1720q-19 -42 -53 -42h-73 q-20 0 -26.5 7t-6.5 21q2 7 3.5 14t7.5 22l88 205q12 22 23.5 32t30.5 10h80q13 0 21.5 -3.5t8.5 -15.5q0 -5 -2.5 -14t-10.5 -26z" />
<glyph unicode="&#x17a;" horiz-adv-x="1034" d="M153 0q-22 0 -37.5 15.5t-15.5 36.5v61q0 8 2 16.5t7 15.5q33 38 80.5 92t102 115.5t112.5 127.5t112.5 127.5t102 115.5t80.5 92h-537q-24 0 -37.5 13t-13.5 42v59q0 25 13.5 38.5t37.5 13.5h705q23 0 38.5 -11t15.5 -34v-71q0 -28 -5.5 -40.5t-22.5 -27.5l-556 -634 h537q22 0 36.5 -12t14.5 -38v-61q0 -19 -14.5 -35.5t-36.5 -16.5h-721zM546 1216q-19 -42 -53 -42h-73q-20 0 -26.5 7t-6.5 21q2 7 3.5 14t7.5 22l88 205q12 22 23.5 32t30.5 10h80q13 0 21.5 -3.5t8.5 -15.5q0 -5 -2.5 -14t-10.5 -26z" />
<glyph unicode="&#x17b;" horiz-adv-x="1278" d="M113 0q-20 0 -34 13.5t-14 33.5v90q0 7 2 17t11 19l878 1138h-822q-47 0 -47 46v84q0 44 47 44h1011q19 0 33 -13t14 -33v-93q0 -19 -9 -31l-874 -1141h840q19 0 32 -11.5t13 -35.5v-80q0 -18 -12.5 -32.5t-32.5 -14.5h-1036zM533 1773q0 26 10 49t27 40t39.5 27t48.5 10 q27 0 50 -10t40 -27t26.5 -40t9.5 -49t-9.5 -48.5t-26.5 -39.5t-40 -27t-50 -10q-26 0 -48.5 10t-39.5 27t-27 39.5t-10 48.5z" />
<glyph unicode="&#x17c;" horiz-adv-x="1034" d="M153 0q-22 0 -37.5 15.5t-15.5 36.5v61q0 8 2 16.5t7 15.5q33 38 80.5 92t102 115.5t112.5 127.5t112.5 127.5t102 115.5t80.5 92h-537q-24 0 -37.5 13t-13.5 42v59q0 25 13.5 38.5t37.5 13.5h705q23 0 38.5 -11t15.5 -34v-71q0 -28 -5.5 -40.5t-22.5 -27.5l-556 -634 h537q22 0 36.5 -12t14.5 -38v-61q0 -19 -14.5 -35.5t-36.5 -16.5h-721zM418 1269q0 26 10 49t27 40t39.5 27t48.5 10q27 0 50 -10t40 -27t26.5 -40t9.5 -49t-9.5 -48.5t-26.5 -39.5t-40 -27t-50 -10q-26 0 -48.5 10t-39.5 27t-27 39.5t-10 48.5z" />
<glyph unicode="&#x17d;" horiz-adv-x="1278" d="M113 0q-20 0 -34 13.5t-14 33.5v90q0 7 2 17t11 19l878 1138h-822q-47 0 -47 46v84q0 44 47 44h1011q19 0 33 -13t14 -33v-93q0 -19 -9 -31l-874 -1141h840q19 0 32 -11.5t13 -35.5v-80q0 -18 -12.5 -32.5t-32.5 -14.5h-1036zM705 1663q-4 -4 -10.5 -7.5t-11.5 -3.5 q-7 0 -13 3.5t-9 6.5l-262 263q-4 4 -9 11t-5 14q0 8 4.5 13.5t9.5 10.5l45 43q6 5 12.5 9.5t12.5 4.5q8 0 13 -2t10 -9l191 -191l190 191q5 7 11.5 9t11.5 2q7 0 13 -4.5t11 -9.5l47 -43q5 -5 9 -10.5t4 -13.5q0 -7 -4.5 -14t-8.5 -11z" />
<glyph unicode="&#x17e;" horiz-adv-x="1034" d="M153 0q-22 0 -37.5 15.5t-15.5 36.5v61q0 8 2 16.5t7 15.5q33 38 80.5 92t102 115.5t112.5 127.5t112.5 127.5t102 115.5t80.5 92h-537q-24 0 -37.5 13t-13.5 42v59q0 25 13.5 38.5t37.5 13.5h705q23 0 38.5 -11t15.5 -34v-71q0 -28 -5.5 -40.5t-22.5 -27.5l-556 -634 h537q22 0 36.5 -12t14.5 -38v-61q0 -19 -14.5 -35.5t-36.5 -16.5h-721zM532 1159q-4 -4 -10.5 -7.5t-11.5 -3.5q-7 0 -13 3.5t-9 6.5l-262 263q-4 4 -9 11t-5 14q0 8 4.5 13.5t9.5 10.5l45 43q6 5 12.5 9.5t12.5 4.5q8 0 13 -2t10 -9l191 -191l190 191q5 7 11.5 9t11.5 2 q7 0 13 -4.5t11 -9.5l47 -43q5 -5 9 -10.5t4 -13.5q0 -7 -4.5 -14t-8.5 -11z" />
<glyph unicode="&#x192;" horiz-adv-x="618" d="M11 -397q-34 3 -34 33v106q0 15 9.5 25t23.5 10q37 0 70.5 16t59 42.5t40.5 60.5t15 71v892h-143q-33 0 -33 38v92q0 33 33 33h143v136q0 70 25.5 130t69 106.5t101.5 78t123 43.5l41 6q33 -3 33 -33v-103q0 -16 -9.5 -26.5t-23.5 -10.5q-39 0 -73 -16t-58.5 -42.5 t-39 -61t-14.5 -71.5v-136h185q33 0 33 -33v-92q0 -38 -33 -38h-185v-822q0 -81 -22.5 -152.5t-64 -127.5t-100.5 -94.5t-133 -53.5z" />
<glyph unicode="&#x1fc;" horiz-adv-x="2318" d="M269 40q-17 -21 -33.5 -30.5t-33.5 -9.5h-131q-34 0 -34 19q0 7 3 14t6.5 12.5t6.5 9t2 3.5q211 260 372 458.5t280 345t201 246.5t135 165.5t81.5 100.5t42 51.5t16 19.5l2.5 3q8 11 22 24t41 13h953q45 0 45 -47v-81q0 -18 -12 -32t-35 -14h-821v-442h651q18 0 31 -11 t13 -35v-82q0 -18 -11 -32t-33 -14h-651v-521h830q45 0 45 -47v-83q0 -44 -44 -44h-960q-44 0 -44 42v283h-710zM634 495h571v705zM1402 1720q-19 -42 -53 -42h-73q-20 0 -26.5 7t-6.5 21q2 7 3.5 14t7.5 22l88 205q12 22 23.5 32t30.5 10h80q13 0 21.5 -3.5t8.5 -15.5 q0 -5 -2.5 -14t-10.5 -26z" />
<glyph unicode="&#x1fd;" horiz-adv-x="1830" d="M1018 1216q-19 -42 -53 -42h-73q-20 0 -26.5 7t-6.5 21q2 7 3.5 14t7.5 22l88 205q12 22 23.5 32t30.5 10h80q13 0 21.5 -3.5t8.5 -15.5q0 -5 -2.5 -14t-10.5 -26zM832 144q-23 -33 -50.5 -63t-63 -52.5t-82 -35.5t-106.5 -13q-105 0 -193 39.5t-151.5 108.5t-99 161.5 t-35.5 198.5t35 199t98.5 162t151.5 109t194 40q61 0 107.5 -14t82.5 -37t62.5 -53t49.5 -62l7 100q2 25 12 38t36 13h58q21 0 37 -13.5t16 -37.5v-888q0 -20 -15.5 -32t-37.5 -12h-64q-26 0 -37.5 14t-11.5 37v93zM218 488q0 -71 22 -133t63 -108t98.5 -73t128.5 -27 q72 0 128 26t94.5 71t59 107t20.5 134q0 70 -19.5 133t-58 110t-95 75t-129.5 28q-72 0 -130 -27.5t-98.5 -74t-62 -109t-21.5 -132.5zM1305 144q26 0 55.5 4t58 13t54.5 22.5t45 33.5q11 9 27 16.5t28 7.5q11 0 20.5 -4t14.5 -12l41 -69q9 -15 9 -23q0 -15 -11 -28t-23 -21 q-29 -23 -67.5 -43t-81 -34t-86.5 -22t-84 -8q-98 0 -184 40t-150 109.5t-101 162.5t-37 200q0 106 37 199.5t101 163t150 110t184 40.5q91 0 172.5 -37t143 -101t97 -150t35.5 -184v-23q0 -30 -10.5 -48t-28 -28t-41 -13t-50.5 -3h-614q9 -60 35.5 -110t66 -85.5t89 -55.5 t105.5 -20zM1583 562q-10 56 -36.5 105.5t-64.5 86.5t-84.5 58.5t-97.5 21.5t-97 -21.5t-83 -58.5t-64 -86.5t-40 -105.5h567z" />
<glyph unicode="&#x1fe;" horiz-adv-x="1706" d="M935 1720q-19 -42 -53 -42h-73q-20 0 -26.5 7t-6.5 21q2 7 3.5 14t7.5 22l88 205q12 22 23.5 32t30.5 10h80q13 0 21.5 -3.5t8.5 -15.5q0 -5 -2.5 -14t-10.5 -26zM853 1505q57 0 110.5 -8t105.5 -23l90 207q11 26 24 35t38 9h89q23 0 33.5 -5t10.5 -19q0 -11 -7 -28 q-8 -18 -23.5 -54t-33.5 -75.5t-34.5 -77.5t-25.5 -61q86 -49 157 -119t122 -156t79 -185t28 -206q0 -105 -27 -202.5t-77 -182t-119.5 -154t-154.5 -119t-183 -76.5t-204 -27q-54 0 -105.5 7t-101.5 21l-99 -205q-8 -17 -19.5 -26t-30.5 -9h-105q-34 0 -34 23q0 7 5 20 l121 263q-88 49 -160.5 119t-124 156t-80 186t-28.5 208q0 105 27 202.5t77 182.5t119.5 155t154.5 119.5t182.5 77t203.5 27.5zM262 742q0 -123 46 -230.5t126.5 -188t188 -126.5t230.5 -46q121 0 228.5 46t187 126.5t126 188t46.5 230.5q0 81 -21 156t-59.5 140.5t-92 119 t-119 92t-140.5 59.5t-156 21q-123 0 -230.5 -46.5t-188 -126t-126.5 -187t-46 -228.5z" />
<glyph unicode="&#x1ff;" horiz-adv-x="1192" d="M678 1216q-19 -42 -53 -42h-73q-20 0 -26.5 7t-6.5 21q2 7 3.5 14t7.5 22l88 205q12 22 23.5 32t30.5 10h80q13 0 21.5 -3.5t8.5 -15.5q0 -5 -2.5 -14t-10.5 -26zM88 489q0 106 40 200t109.5 163.5t162.5 110t200 40.5q49 0 96 -9l42 101q10 22 21.5 30t32.5 8h77 q28 0 35.5 -9.5t-3.5 -35.5l-61 -145q61 -32 111.5 -79.5t86.5 -106t56 -126.5t20 -142q0 -107 -40.5 -200.5t-110 -163t-163.5 -109.5t-200 -40q-39 0 -76.5 5.5t-72.5 16.5l-50 -120q-14 -30 -43 -30h-91q-41 0 -25 37l72 177q-51 34 -93 80t-71.5 100.5t-45.5 117 t-16 129.5zM250 489q0 -72 27.5 -136t75.5 -112t111.5 -76t135.5 -28t136 28t112.5 76t76.5 112t28 136t-28 136t-76.5 112.5t-112.5 76.5t-136 28t-135.5 -28t-111.5 -76.5t-75.5 -112.5t-27.5 -136z" />
<glyph unicode="&#x218;" horiz-adv-x="1283" d="M1002 1177q-24 21 -60 49t-82 53t-101 42.5t-118 17.5q-85 0 -146 -21t-100.5 -55.5t-58 -77.5t-18.5 -86q0 -51 31.5 -88.5t82 -65t114 -47.5t128.5 -38q59 -16 121.5 -34t121.5 -40.5t111 -52.5t91 -71t61.5 -94.5t22.5 -123.5q0 -107 -43.5 -193t-119.5 -146 t-178 -92.5t-219 -32.5q-78 0 -153 16t-144 48t-129.5 79.5t-108.5 109.5q-16 21 -16 36q0 17 18 32l64 53q7 5 15.5 8t15.5 3t13.5 -4t12.5 -9.5t11 -10.5l7 -7q44 -46 98.5 -80.5t109 -58t105 -35.5t86.5 -12q42 0 86.5 7.5t87 23t80.5 39t66.5 55t45 71.5t16.5 88 q0 61 -33.5 103t-90 71.5t-129.5 50.5t-151 41q-123 32 -215.5 69t-154 84.5t-92 106.5t-30.5 135q0 91 36.5 167t103.5 131t162 85t212 30q60 0 123 -14t122 -39.5t113 -60t96 -76.5q13 -13 26 -28t13 -28q0 -15 -16 -31l-60 -58q-14 -14 -27 -14q-16 0 -36 20zM524 -301 q0 28 10.5 52.5t28.5 42.5t42.5 28t51.5 10q29 0 53.5 -10.5t42.5 -29t28 -45t10 -59.5q0 -70 -14 -122t-33.5 -86.5t-40 -51.5t-33.5 -17q-8 0 -12.5 1.5t-10.5 6.5l-31 24q-7 6 -11 14.5t-4 15.5q0 10 4.5 17.5t10.5 15.5l1 2v-1q8 8 14.5 20t6.5 32v7q-23 4 -43.5 16 t-36.5 30t-25 40.5t-9 46.5z" />
<glyph unicode="&#x219;" horiz-adv-x="850" d="M78 201q-4 12 -2.5 21.5t12.5 17.5l101 41q19 7 30 -4.5t16 -26.5q11 -31 34 -52t50 -33.5t53.5 -18t46.5 -5.5q33 0 66.5 9t60.5 25.5t44 41t17 54.5q0 33 -17 57t-45.5 42t-65.5 31.5t-78 24.5q-66 18 -120 45t-92.5 64.5t-59.5 84.5t-21 105q0 61 23.5 113t65.5 89 t101 58t131 21q55 0 100 -13.5t81 -38.5t65.5 -60.5t54.5 -80.5q5 -9 6 -13.5t1 -9.5q0 -8 -6 -13.5t-15 -11.5q-10 -6 -21 -14.5t-22 -15.5t-21 -12t-17 -5q-9 0 -14.5 2t-9.5 6.5t-8 11t-10 15.5q-29 39 -69 68t-94 29q-36 0 -65.5 -10.5t-50.5 -28t-33 -40.5t-12 -47 q0 -30 15 -52.5t38 -38.5t52.5 -27t58.5 -18q2 0 4 -1t4 -1q157 -36 245 -116.5t88 -198.5q0 -67 -26.5 -120.5t-74 -91t-112.5 -57.5t-142 -20q-54 0 -108.5 14t-101 41.5t-81.5 68.5t-50 95zM263 -301q0 28 10.5 52.5t28.5 42.5t42.5 28t51.5 10q29 0 53.5 -10.5t42.5 -29 t28 -45t10 -59.5q0 -70 -14 -122t-33.5 -86.5t-40 -51.5t-33.5 -17q-8 0 -12.5 1.5t-10.5 6.5l-31 24q-7 6 -11 14.5t-4 15.5q0 10 4.5 17.5t10.5 15.5l1 2v-1q8 8 14.5 20t6.5 32v7q-23 4 -43.5 16t-36.5 30t-25 40.5t-9 46.5z" />
<glyph unicode="&#x21a;" horiz-adv-x="1267" d="M1117 1485q18 0 32 -11t16 -33v-82q0 -20 -12.5 -34t-35.5 -14h-427v-1266q0 -19 -11.5 -32t-34.5 -13h-81q-20 0 -33 12.5t-13 32.5v1266h-429q-20 0 -32.5 11.5t-12.5 36.5v82q0 20 12.5 32t32.5 12h1029zM497 -301q0 28 10.5 52.5t28.5 42.5t42.5 28t51.5 10 q29 0 53.5 -10.5t42.5 -29t28 -45t10 -59.5q0 -70 -14 -122t-33.5 -86.5t-40 -51.5t-33.5 -17q-8 0 -12.5 1.5t-10.5 6.5l-31 24q-7 6 -11 14.5t-4 15.5q0 10 4.5 17.5t10.5 15.5l1 2v-1q8 8 14.5 20t6.5 32v7q-23 4 -43.5 16t-36.5 30t-25 40.5t-9 46.5z" />
<glyph unicode="&#x21b;" horiz-adv-x="656" d="M503 -15q-8 -1 -16 -1.5t-16 -0.5q-48 0 -93 7t-79.5 32t-55 72.5t-20.5 127.5v601h-121q-24 0 -36.5 8.5t-12.5 34.5v75q0 26 12.5 33.5t36.5 7.5h121v283q0 17 8 25.5t26 13.5l101 15q25 0 32 -16.5t7 -36.5v-284h147q23 0 34 -10t11 -36v-65q0 -48 -45 -48h-147v-537 q0 -51 5 -78.5t17.5 -41t32.5 -16.5t50 -4q23 0 37 -13t14 -37v-63q0 -23 -13.5 -34.5t-36.5 -13.5zM203 -301q0 28 10.5 52.5t28.5 42.5t42.5 28t51.5 10q29 0 53.5 -10.5t42.5 -29t28 -45t10 -59.5q0 -70 -14 -122t-33.5 -86.5t-40 -51.5t-33.5 -17q-8 0 -12.5 1.5 t-10.5 6.5l-31 24q-7 6 -11 14.5t-4 15.5q0 10 4.5 17.5t10.5 15.5l1 2v-1q8 8 14.5 20t6.5 32v7q-23 4 -43.5 16t-36.5 30t-25 40.5t-9 46.5z" />
<glyph unicode="&#x2c6;" horiz-adv-x="748" d="M657 1258q4 -4 8.5 -11t4.5 -14q0 -8 -4 -13.5t-9 -10.5l-47 -43q-5 -5 -11 -9.5t-13 -4.5q-5 0 -11.5 2t-11.5 9l-190 191l-191 -191q-5 -7 -10 -9t-13 -2q-6 0 -12.5 4.5t-12.5 9.5l-45 43q-5 5 -9.5 10.5t-4.5 13.5q0 7 5 14t9 11l262 263q3 3 9 6.5t13 3.5 q5 0 11.5 -3.5t10.5 -7.5z" />
<glyph unicode="&#x2c7;" horiz-adv-x="737" d="M392 1159q-4 -4 -10.5 -7.5t-11.5 -3.5q-7 0 -13 3.5t-9 6.5l-262 263q-4 4 -9 11t-5 14q0 8 4.5 13.5t9.5 10.5l45 43q6 5 12.5 9.5t12.5 4.5q8 0 13 -2t10 -9l191 -191l190 191q5 7 11.5 9t11.5 2q7 0 13 -4.5t11 -9.5l47 -43q5 -5 9 -10.5t4 -13.5q0 -7 -4.5 -14 t-8.5 -11z" />
<glyph unicode="&#x2c9;" horiz-adv-x="981" d="M103 1355q0 35 36 35h701q36 0 36 -35v-77q0 -11 -8.5 -25t-27.5 -14h-701q-36 0 -36 39v77z" />
<glyph unicode="&#x2d8;" horiz-adv-x="653" d="M325 1216q-53 1 -98 20.5t-78.5 51t-52.5 72.5t-19 86q0 17 11.5 28t27.5 11h67q18 0 29 -11.5t11 -27.5q0 -35 27 -62t79 -27q45 0 72.5 24t27.5 56q0 17 7.5 32.5t31.5 15.5h58q19 0 35 -8.5t16 -30.5q0 -45 -19.5 -86.5t-53.5 -73.5t-80 -51t-99 -19z" />
<glyph unicode="&#x2d9;" horiz-adv-x="517" d="M126 1269q0 26 10 49t27 40t39.5 27t48.5 10q27 0 50 -10t40 -27t26.5 -40t9.5 -49t-9.5 -48.5t-26.5 -39.5t-40 -27t-50 -10q-26 0 -48.5 10t-39.5 27t-27 39.5t-10 48.5z" />
<glyph unicode="&#x2da;" horiz-adv-x="518" d="M257 1548q43 0 81.5 -16.5t67.5 -45.5t45.5 -67.5t16.5 -81.5q0 -44 -16.5 -82t-45.5 -66.5t-67.5 -44.5t-81.5 -16q-44 0 -82 16t-66.5 44.5t-44.5 66.5t-16 82q0 43 16 81.5t44.5 67.5t66.5 45.5t82 16.5zM257 1442q-23 0 -42 -8t-32.5 -22.5t-21.5 -33.5t-8 -41 q0 -45 29.5 -74.5t74.5 -29.5q22 0 41 8t33.5 21.5t22.5 32.5t8 42q0 45 -30 75t-75 30z" />
<glyph unicode="&#x2db;" horiz-adv-x="554" d="M268 -11q0 12 3.5 24.5t23.5 12.5h86q15 0 23 -3.5t8 -23.5v-26q0 -24 -7.5 -46t-20.5 -41t-31 -33.5t-38 -23.5q-17 -11 -32.5 -20.5t-27.5 -20t-19 -23t-7 -29.5q0 -31 39 -58t108 -41q20 -7 20 -28q0 -12 -4 -27.5t-11.5 -30t-18 -24.5t-24.5 -10q-6 0 -14 2 q-121 35 -178.5 86t-62.5 117q0 40 12 68.5t31.5 50.5t44 38.5t50.5 33.5q30 20 38.5 38t8.5 38z" />
<glyph unicode="&#x2dc;" horiz-adv-x="707" d="M109 1184q-7 -7 -15 -7t-19 8t-23.5 20t-20.5 19q-5 5 -6.5 8.5t-1.5 10.5q0 5 6 14.5t7 11.5q42 59 90 83t106 24q30 0 61 -12t59 -32l55 -38q31 -21 67 -21q42 0 72 28q10 9 20.5 24.5t20.5 25.5q5 7 15 7q7 0 18 -8t23.5 -20t20.5 -18q5 -6 6.5 -9.5t1.5 -10.5 q0 -5 -6 -15t-7 -10q-42 -59 -89.5 -83.5t-105.5 -24.5q-31 0 -62 12t-59 32l-55 38q-30 21 -67 21q-44 0 -72 -28q-9 -9 -19.5 -24.5t-20.5 -25.5z" />
<glyph unicode="&#x2dd;" horiz-adv-x="949" d="M352 1216q-19 -42 -53 -42h-73q-20 0 -26.5 7t-6.5 21q2 7 3.5 14t7.5 22l88 205q12 22 23.5 32t30.5 10h80q13 0 21.5 -3.5t8.5 -15.5q0 -5 -2.5 -14t-10.5 -26zM682 1216q-19 -42 -53 -42h-73q-20 0 -26.5 7t-6.5 21q2 7 3.5 14t7.5 22l88 205q12 22 23.5 32t30.5 10 h80q13 0 21.5 -3.5t8.5 -15.5q0 -5 -2.5 -14t-10.5 -26z" />
<glyph unicode="&#x37e;" horiz-adv-x="528" d="M120 884q0 26 10 49t27 40t39.5 27t48.5 10q27 0 50 -10t40 -27t26.5 -40t9.5 -49t-9.5 -48.5t-26.5 -39.5t-40 -27t-50 -10q-26 0 -48.5 10t-39.5 27t-27 39.5t-10 48.5zM117 91q0 28 10.5 52.5t28.5 42.5t42.5 28t51.5 10q29 0 53.5 -10.5t42.5 -29t28 -45t10 -59.5 q0 -70 -14 -122t-33.5 -86.5t-40 -51.5t-33.5 -17q-8 0 -12.5 1.5t-10.5 6.5l-31 24q-7 6 -11 14.5t-4 15.5q0 9 4.5 14.5t10.5 13.5q9 9 15.5 23t6.5 35v7q-23 4 -43.5 16t-36.5 30t-25 40.5t-9 46.5z" />
<glyph unicode="&#x384;" horiz-adv-x="517" d="M222 1128q-16 2 -26.5 10.5t-10.5 25.5l-34 299q1 9 7.5 16.5t18.5 7.5h143q14 0 22 -8t5 -21l-31 -294q-2 -14 -11.5 -25t-22.5 -11h-60z" />
<glyph unicode="&#x385;" horiz-adv-x="860" d="M79 1320q0 44 17.5 59.5t57.5 15.5h44q16 0 29.5 -3.5t23.5 -12t16 -23t6 -36.5v-44q0 -40 -17.5 -57.5t-57.5 -17.5h-44q-40 0 -57.5 17.5t-17.5 57.5v44zM576 1320q0 44 17.5 59.5t57.5 15.5h44q16 0 29.5 -3.5t23.5 -12t16 -23t6 -36.5v-44q0 -40 -17.5 -57.5 t-57.5 -17.5h-44q-40 0 -57.5 17.5t-17.5 57.5v44zM394 1195q-20 2 -33 12t-13 32l-33 294q-2 15 8 25.5t27 10.5h141q18 0 29 -12t8 -30l-31 -288q-2 -17 -14.5 -30.5t-29.5 -13.5h-59z" />
<glyph unicode="&#x386;" horiz-adv-x="1533" d="M200 1130q-16 2 -26.5 10.5t-10.5 25.5l-34 299q1 9 7.5 16.5t18.5 7.5h143q14 0 22 -8t5 -21l-31 -294q-2 -14 -11.5 -25t-22.5 -11h-60zM232 40q-16 -40 -55 -40h-86q-43 0 -43 32q0 9 2 19q1 4 3 7q108 260 190.5 458.5t143.5 345t103 246.5t69 165.5t42 100.5 t22 51.5t8 19.5l1 3q4 11 13.5 24t36.5 13h59q25 0 34.5 -13t14.5 -24l576 -1391q0 -1 3.5 -10t3.5 -15q0 -16 -12.5 -24t-32.5 -8h-86q-20 0 -33.5 10.5t-20.5 27.5l-116 287h-727zM417 495h585l-291 732z" />
<glyph unicode="&#x387;" horiz-adv-x="455" d="M110 553q0 26 10 49t27 40t39.5 27t48.5 10q27 0 50 -10t40 -27t26.5 -40t9.5 -49t-9.5 -48.5t-26.5 -39.5t-40 -27t-50 -10q-26 0 -48.5 10t-39.5 27t-27 39.5t-10 48.5z" />
<glyph unicode="&#x388;" horiz-adv-x="1285" d="M-18 1128q-16 2 -26.5 10.5t-10.5 25.5l-34 299q1 9 7.5 16.5t18.5 7.5h143q14 0 22 -8t5 -21l-31 -294q-2 -14 -11.5 -25t-22.5 -11h-60zM1168 1485q45 0 45 -47v-81q0 -18 -12 -32t-35 -14h-831v-442h661q18 0 31 -11t13 -35v-82q0 -18 -11 -32t-33 -14h-661v-521h840 q45 0 45 -47v-83q0 -44 -44 -44h-970q-44 0 -44 42v1397q0 46 44 46h962z" />
<glyph unicode="&#x389;" horiz-adv-x="1652" d="M23 1130q-16 2 -26.5 10.5t-10.5 25.5l-34 299q1 9 7.5 16.5t18.5 7.5h143q14 0 22 -8t5 -21l-31 -294q-2 -14 -11.5 -25t-22.5 -11h-60zM1342 1441q0 18 12 31t32 13h82q18 0 32.5 -12t14.5 -32v-1397q0 -44 -47 -44h-82q-44 0 -44 44v651h-883v-651q0 -44 -48 -44h-81 q-44 0 -44 44v1397q0 18 11.5 31t32.5 13h83q18 0 32 -13t14 -31v-576h883v576z" />
<glyph unicode="&#x38a;" d="M-29 1127q-16 2 -26.5 10.5t-10.5 25.5l-34 299q1 9 7.5 16.5t18.5 7.5h143q14 0 22 -8t5 -21l-31 -294q-2 -14 -11.5 -25t-22.5 -11h-60zM335 44q0 -22 -12 -33t-33 -11h-83q-45 0 -45 44v1397q0 20 11.5 32t33.5 12h83q20 0 32.5 -12t12.5 -32v-1397z" />
<glyph unicode="&#x38c;" horiz-adv-x="1713" d="M852 1505q105 0 202.5 -27t182 -77t154.5 -119.5t119.5 -155t77 -183.5t27.5 -204q0 -105 -27 -202.5t-77 -182t-119.5 -154t-154.5 -119t-183 -76.5t-204 -27t-203 27t-182 77t-154.5 119.5t-119 154t-76.5 182t-27 203.5q0 105 27 202.5t77 182.5t119.5 155 t154.5 119.5t182.5 77t203.5 27.5zM261 742q0 -123 46 -230.5t126.5 -188t188 -126.5t230.5 -46q121 0 228.5 46t187 126.5t126 188t46.5 230.5q0 81 -21 156t-59.5 140.5t-92 119t-119 92t-140.5 59.5t-156 21q-123 0 -230.5 -46.5t-188 -126t-126.5 -187t-46 -228.5z M22 1130q-16 2 -26.5 10.5t-10.5 25.5l-34 299q1 9 7.5 16.5t18.5 7.5h143q14 0 22 -8t5 -21l-31 -294q-2 -14 -11.5 -25t-22.5 -11h-60z" />
<glyph unicode="&#x38e;" horiz-adv-x="1319" d="M-81 1128q-16 2 -26.5 10.5t-10.5 25.5l-34 299q1 9 7.5 16.5t18.5 7.5h143q14 0 22 -8t5 -21l-31 -294q-2 -14 -11.5 -25t-22.5 -11h-60zM89 1434q-13 19 -13 30q0 21 30 21h130q10 -1 16 -2t11 -5.5t10.5 -12.5t14.5 -22l371 -611l377 619q12 20 21.5 26t24.5 8h137 q24 0 24 -18q0 -4 -2.5 -11.5t-8.5 -15.5q-123 -198 -242 -392.5t-244 -392.5v-608q0 -47 -45 -47h-86q-42 0 -42 47v602z" />
<glyph unicode="&#x38f;" horiz-adv-x="1560" d="M48 1130q-16 2 -26.5 10.5t-10.5 25.5l-34 299q1 9 7.5 16.5t18.5 7.5h143q14 0 22 -8t5 -21l-31 -294q-2 -14 -11.5 -25t-22.5 -11h-60zM472 176v90q-75 43 -136.5 104t-105 135t-67.5 159t-24 177t23.5 177t66.5 159t103.5 134.5t134 103.5t158.5 66.5t177 23.5 t177 -23.5t159 -66.5t134.5 -103.5t103.5 -134.5t66.5 -159t23.5 -177q0 -91 -23.5 -175.5t-66 -157.5t-102 -133.5t-131.5 -103.5v-95h266q15 0 25 -8.5t10 -25.5v-106q0 -14 -9.5 -25t-25.5 -11h-408q-35 0 -35 34v342q0 14 10 24.5t27 10.5q62 28 114 72t89 100 t57.5 122.5t20.5 138.5q0 99 -37.5 186.5t-102.5 152.5t-152.5 102.5t-186.5 37.5t-186 -37.5t-151.5 -102.5t-101.5 -152.5t-37 -186.5q0 -72 20.5 -138.5t57.5 -122.5t88.5 -100t113.5 -72q15 0 26.5 -10t11.5 -25v-342q0 -34 -36 -34h-406q-34 0 -34 36v106q0 34 34 34 h267z" />
<glyph unicode="&#x390;" horiz-adv-x="495" d="M335 44q0 -44 -44 -44h-83q-46 0 -46 44v895q0 20 13 32t31 12h82q22 0 34.5 -13t12.5 -31v-895zM222 1212q-16 2 -26.5 10.5t-10.5 25.5l-34 299q1 9 7.5 16.5t18.5 7.5h143q14 0 22 -8t5 -21l-31 -294q-2 -14 -11.5 -25t-22.5 -11h-60zM-128 1273q0 26 10 49t27 40 t39.5 27t48.5 10q27 0 50 -10t40 -27t26.5 -40t9.5 -49t-9.5 -48.5t-26.5 -39.5t-40 -27t-50 -10q-26 0 -48.5 10t-39.5 27t-27 39.5t-10 48.5zM371 1273q0 26 10 49t27 40t39.5 27t48.5 10q27 0 50 -10t40 -27t26.5 -40t9.5 -49t-9.5 -48.5t-26.5 -39.5t-40 -27t-50 -10 q-26 0 -48.5 10t-39.5 27t-27 39.5t-10 48.5z" />
<glyph unicode="&#x391;" horiz-adv-x="1471" d="M232 40q-16 -40 -55 -40h-86q-43 0 -43 32q0 9 2 19q1 4 3 7q108 260 190.5 458.5t143.5 345t103 246.5t69 165.5t42 100.5t22 51.5t8 19.5l1 3q4 11 13.5 24t36.5 13h59q25 0 34.5 -13t14.5 -24l576 -1391q0 -1 3.5 -10t3.5 -15q0 -16 -12.5 -24t-32.5 -8h-86 q-20 0 -33.5 10.5t-20.5 27.5l-116 287h-727zM417 495h585l-291 732z" />
<glyph unicode="&#x392;" horiz-adv-x="1357" d="M1180 1097q0 -90 -36.5 -168.5t-99.5 -133.5q48 -26 88 -64.5t68 -86.5t43.5 -102.5t15.5 -112.5q0 -86 -31.5 -163.5t-86.5 -136.5t-131 -94t-164 -35h-638q-20 0 -33 11.5t-13 32.5v1393q0 48 46 48h571q85 0 158 -29t127 -81t85 -123t31 -155zM335 684v-514h510 q49 0 92.5 21t76 56.5t51.5 82.5t19 99q0 50 -18.5 96t-51 81.5t-76.5 56.5t-94 21h-509zM1004 1096q0 50 -17 90t-47 68.5t-71.5 44t-91.5 15.5h-442v-460h441q49 0 91 19t72.5 52t47.5 77t17 94z" />
<glyph unicode="&#x393;" horiz-adv-x="1210" d="M163 1449q0 36 35 36h957q36 0 36 -39v-100q0 -15 -9.5 -26t-26.5 -11h-815v-1277q0 -32 -38 -32h-104q-35 0 -35 32v1417z" />
<glyph unicode="&#x394;" horiz-adv-x="1471" d="M121 0q-37 0 -37 25q0 14 1 18t2 6l586 1407v1q0 1 0.5 1.5t0.5 1.5v-2q4 8 11 17.5t32 9.5h67q23 0 30 -9t11 -17q0 -2 1 -3.5t2 -3.5l-1 2q146 -354 290 -703t290 -702l-1 1l2 -10q1 -5 2 -9t1 -6q0 -25 -36 -25h-1254zM741 1189q-15 -34 -42.5 -101t-63.5 -154 t-76.5 -188t-81.5 -202t-79.5 -196.5t-69.5 -171.5h839l-408 1013h-18z" />
<glyph unicode="&#x395;" horiz-adv-x="1285" d="M1168 1485q45 0 45 -47v-81q0 -18 -12 -32t-35 -14h-831v-442h661q18 0 31 -11t13 -35v-82q0 -18 -11 -32t-33 -14h-661v-521h840q45 0 45 -47v-83q0 -44 -44 -44h-970q-44 0 -44 42v1397q0 46 44 46h962z" />
<glyph unicode="&#x396;" horiz-adv-x="1364" d="M113 0q-20 0 -34 13.5t-14 33.5v90q0 7 2 17t11 19l878 1138h-822q-47 0 -47 46v84q0 44 47 44h1011q19 0 33 -13t14 -33v-93q0 -19 -9 -31l-874 -1141h840q19 0 32 -11.5t13 -35.5v-80q0 -18 -12.5 -32.5t-32.5 -14.5h-1036z" />
<glyph unicode="&#x397;" horiz-adv-x="1547" d="M1218 1441q0 18 12 31t32 13h82q18 0 32.5 -12t14.5 -32v-1397q0 -44 -47 -44h-82q-44 0 -44 44v651h-883v-651q0 -44 -48 -44h-81q-44 0 -44 44v1397q0 18 11.5 31t32.5 13h83q18 0 32 -13t14 -31v-576h883v576z" />
<glyph unicode="&#x398;" horiz-adv-x="1758" d="M1215 834q15 0 25 -8.5t10 -25.5v-104q0 -14 -9.5 -26t-25.5 -12h-657q-37 0 -37 38v104q0 34 37 34h657zM878 1505q105 0 202.5 -27t182 -77t154.5 -119.5t119.5 -155t77 -183.5t27.5 -204q0 -105 -27 -202.5t-77 -182t-119.5 -154t-154.5 -119t-183 -76.5t-204 -27 t-203 27t-182 77t-154.5 119.5t-119 154t-76.5 182t-27 203.5q0 105 27 202.5t77 182.5t119.5 155t154.5 119.5t182.5 77t203.5 27.5zM287 742q0 -123 46 -230.5t126.5 -188t188 -126.5t230.5 -46q121 0 228.5 46t187 126.5t126 188t46.5 230.5q0 81 -21 156t-59.5 140.5 t-92 119t-119 92t-140.5 59.5t-156 21q-123 0 -230.5 -46.5t-188 -126t-126.5 -187t-46 -228.5z" />
<glyph unicode="&#x399;" d="M335 44q0 -22 -12 -33t-33 -11h-83q-45 0 -45 44v1397q0 20 11.5 32t33.5 12h83q20 0 32.5 -12t12.5 -32v-1397z" />
<glyph unicode="&#x39a;" horiz-adv-x="1469" d="M335 44q0 -44 -46 -44h-83q-44 0 -44 44v1397q0 18 11 31t33 13h84q18 0 31.5 -12t13.5 -32v-744l716 757q25 31 47 31h173q15 0 20.5 -3.5t5.5 -9.5q0 -7 -6.5 -15t-11.5 -13l-560 -590q172 -204 347.5 -404.5t340.5 -409.5q9 -11 11.5 -14.5t2.5 -6.5q0 -5 -5 -12 t-16 -7h-172q-16 0 -31 16t-30 36q-143 171 -283.5 339t-282.5 339l-266 -276v-410z" />
<glyph unicode="&#x39b;" horiz-adv-x="1437" d="M1212.01 41.0879q-18.999 47.9971 -45.4971 113.993q-26.499 65.9961 -57.9971 143.991t-66.4961 163.99q-34.9971 85.9941 -70.4951 172.989t-70.4961 171.489q-34.998 84.4951 -65.9961 159.99q-30.998 75.4961 -56.4961 137.492q-25.499 61.9961 -43.4971 104.993 q-16.999 -42.9971 -42.498 -104.993q-25.498 -61.9961 -56.4961 -137.492q-30.998 -75.4951 -64.9961 -159.99q-33.998 -84.4941 -69.4961 -171.989q-35.498 -87.4941 -70.4951 -173.489q-34.998 -85.9951 -65.9961 -163.99t-57.9971 -144.491 q-26.998 -66.4961 -45.9971 -114.493q-6.99902 -16.999 -20.499 -27.998q-13.499 -10.999 -34.4971 -10.999h-86.9951q-43.9971 0 -43.9971 33.998q0 4.99902 2 13.999q2 8.99902 3 9.99902l573.965 1386.92q2 5 4.99902 12q3 6.99902 8.5 12.999q5.49902 6 14.499 10.499 q8.99902 4.5 23.998 4.5h57.9971q20.998 0 33.498 -13.499q12.499 -13.499 17.499 -24.499l567.965 -1364.92q3 -6 8 -19.499q4.99902 -13.499 5.99902 -30.498q0 -31.998 -42.9971 -31.998h-87.9951q-19.998 0 -33.9971 10.999q-14 10.999 -19.999 29.998z" />
<glyph unicode="&#x39c;" horiz-adv-x="1832" d="M861 64q-25 0 -40 37l-459 1081l-111 -1138q0 -44 -45 -44h-84q-45 0 -45 44q36 352 72 698.5t73 698.5q0 19 13.5 31.5t33.5 12.5h125q17 0 27.5 -10.5t16.5 -28.5l463 -1115q117 281 232.5 557.5t231.5 557.5q5 18 16 28.5t27 10.5h129q20 0 32 -13t12 -31l146 -1397 q0 -44 -45 -44h-84q-45 0 -45 44l-112 1138l-459 -1081q-15 -37 -42 -37h-79z" />
<glyph unicode="&#x39d;" horiz-adv-x="1583" d="M1284 0q-22 0 -37 19l-912 1197v-1172q0 -44 -46 -44h-83q-44 0 -44 44v1395q0 20 12 33t32 13h111q23 0 38 -20l898 -1169v1150q2 18 13.5 28.5t30.5 10.5h82q18 0 33 -12t15 -32v-1397q0 -44 -48 -44h-95z" />
<glyph unicode="&#x39e;" horiz-adv-x="1364" d="M182 0q-35 0 -35 34v105q0 37 37 37h999q37 0 37 -37v-105q0 -34 -35 -34h-1003zM208 1309q-20 0 -29.5 11t-9.5 26v100q0 39 37 39h955q36 0 36 -39v-100q0 -15 -9 -26t-29 -11h-951zM375 660q-17 0 -25.5 11t-8.5 25v104q0 20 10 28t24 8h616q15 0 25 -8t10 -28v-104 q0 -14 -9 -25t-26 -11h-616z" />
<glyph unicode="&#x39f;" horiz-adv-x="1706" d="M853 1505q105 0 202.5 -27t182 -77t154.5 -119.5t119.5 -155t77 -183.5t27.5 -204q0 -105 -27 -202.5t-77 -182t-119.5 -154t-154.5 -119t-183 -76.5t-204 -27t-203 27t-182 77t-154.5 119.5t-119 154t-76.5 182t-27 203.5q0 105 27 202.5t77 182.5t119.5 155 t154.5 119.5t182.5 77t203.5 27.5zM262 742q0 -123 46 -230.5t126.5 -188t188 -126.5t230.5 -46q121 0 228.5 46t187 126.5t126 188t46.5 230.5q0 81 -21 156t-59.5 140.5t-92 119t-119 92t-140.5 59.5t-156 21q-123 0 -230.5 -46.5t-188 -126t-126.5 -187t-46 -228.5z" />
<glyph unicode="&#x3a0;" horiz-adv-x="1429" d="M1088 1309h-749v-1277q0 -32 -37 -32h-105q-34 0 -34 32v1417q0 36 34 36h1030q13 0 25.5 -9.5t12.5 -24.5v-1417q0 -34 -38 -34h-104q-35 0 -35 34v1275z" />
<glyph unicode="&#x3a1;" horiz-adv-x="1259" d="M162 1437q0 48 46 48h497q98 0 182.5 -37t146.5 -100.5t97.5 -148t35.5 -178.5q0 -93 -35 -176.5t-96.5 -146.5t-145 -100t-180.5 -37h-375v-517q0 -44 -45 -44h-84q-44 0 -44 44v1393zM994 1023q0 58 -22.5 110.5t-61.5 92.5t-92 64t-113 24h-370v-583h370 q59 0 111.5 23.5t92 64t62.5 93t23 111.5z" />
<glyph unicode="&#x3a3;" horiz-adv-x="1216" d="M359 176h744q15 0 25.5 -8.5t10.5 -28.5v-100q0 -15 -10.5 -27t-25.5 -12h-948q-16 0 -27.5 11t-11.5 28v109q0 5 2 11l4 12l-1 -3l494 573q-122 143 -247 288t-247 288l1 -3q-2 5 -4 11t-2 12v109q0 17 11.5 28t27.5 11h926q15 0 25.5 -12t10.5 -27v-100 q0 -20 -10.5 -28.5t-25.5 -8.5h-721l483 -567z" />
<glyph unicode="&#x3a4;" horiz-adv-x="1267" d="M1107 1485q18 0 32 -11t16 -33v-82q0 -20 -12.5 -34t-35.5 -14h-427v-1266q0 -19 -11.5 -32t-34.5 -13h-81q-20 0 -33 12.5t-13 32.5v1266h-429q-20 0 -32.5 11.5t-12.5 36.5v82q0 20 12.5 32t32.5 12h1029z" />
</font>
</defs>
</svg>
