<?xml version="1.0" standalone="no"?>
<!DOCTYPE svg PUBLIC "-//W3C//DTD SVG 1.1//EN" "http://www.w3.org/Graphics/SVG/1.1/DTD/svg11.dtd" >
<svg xmlns="http://www.w3.org/2000/svg" xmlns:xlink="http://www.w3.org/1999/xlink" version="1.1">
<metadata></metadata>
<defs>
<font id="coco_gothicheavy" horiz-adv-x="0" >
<font-face units-per-em="2000" ascent="1600" descent="-400" />
<missing-glyph horiz-adv-x="627" />
<glyph unicode="ff" horiz-adv-x="1309" d="M794 1158q0 64 19 114.5t52 89t77 65.5t93 44t100.5 24.5t100.5 7.5q30 0 46.5 -15.5t16.5 -42.5v-209q0 -24 -12.5 -37.5t-33.5 -13.5h-4q-48 0 -77.5 -17.5t-30.5 -62.5v-105h65q26 0 41.5 -14t15.5 -44v-156q0 -26 -15.5 -44t-41.5 -18h-65v-673q0 -23 -15.5 -37 t-37.5 -14h-239q-21 0 -38 14.5t-17 36.5v673h-53h-6h-233v-673q0 -23 -15.5 -37t-37.5 -14h-239q-21 0 -38 14.5t-17 36.5v673h-53q-28 0 -43.5 15.5t-15.5 46.5v156q0 30 15.5 44t43.5 14h53v158q0 64 19 114.5t52 89t77 65.5t93 44t100.5 24.5t100.5 7.5q30 0 46.5 -15.5 t16.5 -42.5v-209q0 -24 -12.5 -37.5t-33.5 -13.5h-4q-48 0 -77.5 -17.5t-30.5 -62.5v-105h233h6h53v158z" />
<glyph unicode="fi" horiz-adv-x="1278" d="M779 724h-287v-673q0 -23 -15.5 -37t-37.5 -14h-239q-21 0 -38 14.5t-17 36.5v673h-53q-28 0 -43.5 15.5t-15.5 46.5v156q0 30 15.5 44t43.5 14h53v158q0 64 19 114.5t52 89t77 65.5t93 44t100.5 24.5t100.5 7.5q30 0 46.5 -15.5t16.5 -42.5v-209q0 -24 -12.5 -37.5 t-33.5 -13.5h-4q-47 0 -77.5 -18t-30.5 -62v-105h585q26 0 41.5 -14t15.5 -44v-891q0 -51 -55 -51h-250q-50 0 -50 51v673zM769 1292q0 37 14.5 70.5t39 58t57.5 39t70 14.5q39 0 72.5 -14.5t57.5 -39t38 -58t14 -70.5t-14 -70t-38 -57.5t-57.5 -39t-72.5 -14.5 q-37 0 -70 14.5t-57.5 39t-39 57.5t-14.5 70z" />
<glyph unicode="ffi" horiz-adv-x="1918" d="M1418 724h-277v-673q0 -23 -15.5 -37t-37.5 -14h-239q-21 0 -38 14.5t-17 36.5v673h-292v-673q0 -23 -15.5 -37t-37.5 -14h-239q-21 0 -38 14.5t-17 36.5v673h-53q-28 0 -43.5 15.5t-15.5 46.5v156q0 30 15.5 44t43.5 14h53v158q0 64 19 114.5t52 89t77 65.5t93 44 t100.5 24.5t100.5 7.5q30 0 46.5 -15.5t16.5 -42.5v-209q0 -24 -12.5 -37.5t-33.5 -13.5h-4q-47 0 -77.5 -18t-30.5 -62v-105h292v158q0 64 19 114.5t52 89t77 65.5t93 44t100.5 24.5t100.5 7.5q30 0 46.5 -15.5t16.5 -42.5v-209q0 -24 -12.5 -37.5t-33.5 -13.5h-4 q-47 0 -77.5 -18t-30.5 -62v-105h574q26 0 41.5 -14t15.5 -44v-7q0 -2 0.5 -4.5t0.5 -4.5v-875q0 -51 -55 -51h-250q-50 0 -50 51v673zM1408 1292q0 37 14.5 70.5t39 58t57.5 39t70 14.5q39 0 72.5 -14.5t57.5 -39t38 -58t14 -70.5t-14 -70t-38 -57.5t-57.5 -39t-72.5 -14.5 q-37 0 -70 14.5t-57.5 39t-39 57.5t-14.5 70z" />
<glyph unicode=" "  horiz-adv-x="627" />
<glyph unicode="&#x09;" horiz-adv-x="627" />
<glyph unicode="&#xa0;" horiz-adv-x="627" />
<glyph unicode="!" horiz-adv-x="662" d="M167 1542q0 44 49 44h260q44 0 44 -44v-1018q0 -19 -11 -31.5t-33 -12.5h-260q-15 0 -32 12t-17 32v1018zM162 162q0 37 14.5 70.5t39 58t57.5 39t70 14.5q39 0 72.5 -14.5t57.5 -39t38 -58t14 -70.5t-14 -70t-38 -57.5t-57.5 -39t-72.5 -14.5q-37 0 -70 14.5t-57.5 39 t-39 57.5t-14.5 70z" />
<glyph unicode="&#x22;" horiz-adv-x="1028" d="M136 1441q0 44 44 44h196q44 0 44 -44v-337q0 -44 -44 -44h-196q-44 0 -44 44v337zM611 1441q0 44 44 44h196q44 0 44 -44v-337q0 -44 -44 -44h-196q-44 0 -44 44v337z" />
<glyph unicode="#" horiz-adv-x="1261" d="M1113 1131q18 0 31 -11.5t13 -32.5v-181q0 -7 -3 -15.5t-9 -15.5t-14 -12t-18 -5h-143v-233h143q18 0 31 -11.5t13 -32.5v-181q0 -7 -3 -15.5t-9 -15.5t-14 -12t-18 -5h-143v-308q0 -44 -48 -44h-181q-44 0 -44 44v308h-145v-308q0 -44 -48 -44h-181q-44 0 -44 44v308 h-123q-44 0 -44 48v181q0 44 44 44h123v233h-123q-44 0 -44 48v181q0 44 44 44h123v310q0 18 11.5 31t32.5 13h181q15 0 31.5 -12t16.5 -32v-310h145v310q0 18 11.5 31t32.5 13h181q15 0 31.5 -12t16.5 -32v-310h143zM552 625h145v233h-145v-233z" />
<glyph unicode="$" horiz-adv-x="1287" d="M503 1641q0 18 11 31t33 13h188q15 0 31.5 -12t16.5 -32v-309q0 -44 -48 -44h-188q-44 0 -44 44v309zM503 160q0 18 11 31t33 13h188q15 0 31.5 -12t16.5 -32v-309q0 -44 -48 -44h-188q-44 0 -44 44v309zM338 479q17 -14 43.5 -37.5t60.5 -46.5q50 -34 100.5 -53 t105.5 -19q51 0 85.5 11.5t54.5 30.5t28.5 44t8.5 53q0 31 -23.5 55.5t-57.5 43.5t-71 32.5t-64 22.5q-120 42 -210 90.5t-150 108t-90 131.5t-30 159q0 93 37.5 169t107 130t167.5 83.5t219 29.5q90 0 174.5 -20.5t164.5 -65.5q34 -20 64.5 -41t53.5 -41.5t36.5 -38.5 t13.5 -31t-6.5 -24t-19.5 -25l-153 -163q-17 -17 -34 -17q-14 0 -25.5 8t-25.5 20l-9 8q-20 17 -44.5 35t-52.5 32.5t-59 24t-63 9.5q-33 0 -62 -5.5t-51 -17.5t-35 -31.5t-13 -47.5t14 -48.5t42 -38t69.5 -33t96.5 -33.5q106 -35 195.5 -73.5t154.5 -91t101.5 -125.5 t36.5 -177q0 -110 -45 -199.5t-123.5 -152.5t-184.5 -97.5t-228 -34.5q-77 0 -153.5 19.5t-147 54t-133 80.5t-110.5 99l-3 3l-4 4l-4 4q-23 24 -23 40q0 17 23 38l173 165q21 15 34 15q9 0 19 -6t24 -18z" />
<glyph unicode="%" horiz-adv-x="1983" d="M95 1142q0 80 30 150t82 122.5t122.5 82.5t150.5 30t150 -30t122.5 -82.5t82.5 -122.5t30 -150t-30 -150.5t-82.5 -122.5t-122.5 -82t-150 -30t-150.5 30t-122.5 82t-82 122.5t-30 150.5zM1121 363q0 80 22.5 150t65 122.5t105 82.5t142.5 30t158 -30t139.5 -82.5 t99.5 -122.5t38 -150t-30 -150t-82 -122.5t-122.5 -82.5t-150.5 -30t-150 30t-122.5 82.5t-82.5 122.5t-30 150zM1135 1441q8 18 23.5 31t40.5 13h217q20 0 35.5 -8t15.5 -23q0 -11 -2 -13l-632 -1397q-11 -25 -21 -34.5t-32 -9.5h-239q-42 0 -42 26q1 1 2 4q2 5 3 14z M1392 363q0 -24 9 -45t24 -36.5t36 -24.5t45 -9t45 9t36.5 24.5t24.5 36.5t9 45q0 27 -10 48.5t-26.5 36t-37 22t-41.5 7.5q-24 0 -45 -9t-36 -24.5t-24 -36t-9 -44.5zM363 1142q0 -25 9 -46.5t24.5 -37t37 -24.5t46.5 -9q24 0 45.5 9t37 24.5t24.5 37t9 46.5t-9 46 t-24.5 36.5t-37 24.5t-45.5 9q-51 0 -84 -33t-33 -83z" />
<glyph unicode="&#x26;" horiz-adv-x="1795" d="M1303 719q4 -1 12 -1q22 0 40 9t32.5 24t24.5 33.5t15 38.5q3 12 9 20t23 8q6 0 9 -1q56 -11 111.5 -22t111.5 -22q7 0 13.5 -4.5t12 -11.5t8.5 -15.5t3 -15.5t-1 -11q-13 -78 -49 -141.5t-88 -108.5t-117 -70t-135 -25q-32 0 -65 6l-66 12q-7 -94 -33.5 -163t-68 -118 t-95 -79.5t-114 -47.5t-125.5 -23.5t-129 -6.5q-108 0 -205.5 35t-171 98t-116.5 149.5t-43 189.5q0 75 14.5 132.5t41.5 103.5t64.5 81.5t83.5 67.5q-46 48 -75.5 114t-29.5 144q0 86 35.5 160t94.5 128.5t136 85.5t160 31t160 -22t136 -71t94 -127.5t35 -192.5 q0 -23 -13.5 -35t-31.5 -12q-51 0 -102.5 -0.5t-102.5 -0.5q-43 0 -43 38q0 25 -5.5 45.5t-18.5 35.5t-34.5 23.5t-53.5 8.5q-36 0 -58.5 -12.5t-35 -31t-17 -40t-4.5 -39.5q0 -10 5.5 -31t18 -43.5t33.5 -41.5t52 -25q35 -8 35 -40q0 -7 -1 -11l-39 -188 q-2 -19 -13.5 -26.5t-24.5 -7.5q-8 0 -15 1t-14 1q-32 0 -52.5 -17t-32.5 -40t-16.5 -47.5t-4.5 -40.5q0 -30 8.5 -65.5t30.5 -66t60.5 -51t97.5 -20.5q39 0 75 11.5t64 34t45.5 55.5t19.5 77l-62 15q-14 3 -22.5 14.5t-8.5 25.5q0 7 1 10q10 55 22.5 108t23.5 109 q3 16 13.5 25t24.5 9q6 0 9 -1z" />
<glyph unicode="'" horiz-adv-x="611" d="M120 1441q0 44 44 44h196q44 0 44 -44v-367q0 -44 -44 -44h-196q-44 0 -44 44v367z" />
<glyph unicode="(" horiz-adv-x="805" d="M407 -253q-137 217 -210.5 467.5t-73.5 524.5t73.5 524.5t210.5 467.5q10 17 26 20t31 -9l238 -148q16 -11 18 -27t-8 -29q-115 -182 -171 -382.5t-56 -416.5q0 -109 13.5 -213t41.5 -204q29 -100 72 -195t100 -186q10 -14 8 -30t-18 -27l-238 -148q-15 -11 -31 -8.5 t-26 19.5z" />
<glyph unicode=")" horiz-adv-x="807" d="M391 -253q-12 -20 -32 -20q-13 0 -25 9l-238 148q-10 6 -14 15t-4 18q0 11 8 24q115 184 171 381t56 417q0 216 -56 416.5t-171 382.5q-8 11 -8 23q0 8 4 17.5t14 15.5l238 148q12 9 25 9q19 2 32 -20q137 -218 210.5 -468t73.5 -524t-73.5 -524.5t-210.5 -467.5z" />
<glyph unicode="*" horiz-adv-x="983" d="M199 831q-3 4 -5 11t-2 12q3 26 27 42l160 92q9 6 24 6q8 0 18 -6t18 -19l54 -141l54 141q8 23 37 23q5 0 10.5 -1t12.5 -3l159 -95q24 -12 24 -45q-3 -4 -3 -17l-109 -123l162 32q17 0 31 -12t14 -33v-184q0 -16 -12.5 -32.5t-32.5 -16.5l-162 31l109 -123 q2 -5 4.5 -11.5t2.5 -14.5q0 -11 -5.5 -20.5t-17.5 -16.5l-160 -92q-8 -7 -24 -7q-14 0 -24.5 5.5t-15.5 16.5l-54 140l-54 -140q-5 -11 -15.5 -16.5t-21.5 -5.5q-15 0 -28 7l-159 94q-24 13 -24 35q0 8 1.5 14.5t6.5 11.5l107 123l-160 -31q-45 0 -45 49v184q0 21 11 33 t34 12l160 -32z" />
<glyph unicode="+" horiz-adv-x="900" d="M62 706q0 44 44 44h183v193q0 44 48 44h224q44 0 44 -44v-193h183q18 0 31 -11.5t13 -32.5v-203q0 -15 -12 -31.5t-32 -16.5h-183v-194q0 -18 -11 -31t-33 -13h-224q-15 0 -31.5 12t-16.5 32v194h-183q-44 0 -44 48v203z" />
<glyph unicode="," horiz-adv-x="611" d="M120 159q0 39 14.5 72t39 57t57.5 38t70 14q39 0 72.5 -14t58 -39.5t38 -62t13.5 -80.5q0 -96 -19 -166.5t-45.5 -117.5t-54 -70t-45.5 -23q-11 0 -17.5 2.5t-14.5 8.5l-47 34q-18 18 -18 35q0 12 7 23.5t16 25.5q11 11 20.5 28t9.5 44v10q-31 5 -59 21.5t-49.5 41 t-34 55t-12.5 63.5z" />
<glyph unicode="-" horiz-adv-x="1100" d="M167 686q0 44 44 44h682q18 0 31 -11.5t13 -32.5v-203q0 -15 -12 -31.5t-32 -16.5h-682q-44 0 -44 48v203z" />
<glyph unicode="." horiz-adv-x="611" d="M120 162q0 37 14.5 70.5t39 58t57.5 39t70 14.5q39 0 72.5 -14.5t57.5 -39t38 -58t14 -70.5t-14 -70t-38 -57.5t-57.5 -39t-72.5 -14.5q-37 0 -70 14.5t-57.5 39t-39 57.5t-14.5 70z" />
<glyph unicode="/" horiz-adv-x="1104" d="M664 1441q8 18 23.5 31t40.5 13h277q20 0 35.5 -8t15.5 -23q0 -11 -2 -13l-632 -1397q-11 -25 -21 -34.5t-31 -9.5h-300q-41 0 -41 26q0 1 1 4q2 5 3 14z" />
<glyph unicode="0" horiz-adv-x="1728" d="M480 742q0 -84 29.5 -156.5t81.5 -126.5t122.5 -85t153.5 -31q82 0 153.5 31t123.5 85t82 126.5t30 156.5q0 83 -30 156.5t-82 128t-123.5 86t-153.5 31.5q-83 0 -153.5 -31.5t-122.5 -86t-81.5 -128t-29.5 -156.5zM102 741q0 106 27 203.5t77 182.5t119.5 155 t154.5 119.5t182.5 77t203.5 27.5q105 0 203 -27.5t183 -77t154.5 -119.5t119 -155t77 -182.5t27.5 -203.5t-27.5 -203.5t-77 -182t-119 -154t-154.5 -119.5t-183 -77t-203 -27q-106 0 -203.5 27t-182.5 77t-154.5 119.5t-119.5 154t-77 182t-27 203.5z" />
<glyph unicode="1" horiz-adv-x="751" d="M55 1333q0 38 44 62l136 67q26 17 51 20t64 3h226q20 0 34 -12t14 -32v-1397q0 -44 -47 -44h-284q-25 0 -34.5 13.5t-9.5 28.5v1102l-137 -68q-5 -2 -10 -1.5t-7 -3.5q-19 0 -29.5 14t-10.5 33v215z" />
<glyph unicode="2" horiz-adv-x="1291" d="M655 329h450q20 0 33 -11t13 -34v-233q0 -19 -13.5 -35t-33.5 -16h-921q-19 0 -35 15.5t-16 35.5v149q0 14 7 27l607 725q27 31 34 53t7 49q0 34 -13 60t-34 43.5t-47 26.5t-53 9q-30 0 -56.5 -12t-46.5 -32.5t-32 -47t-12 -54.5v-55q0 -16 -13 -32t-37 -16h-256 q-25 0 -34.5 13.5t-9.5 28.5v52q0 105 39 192.5t106 150.5t156.5 98t189.5 35q103 0 197 -32.5t165.5 -92t114 -144t42.5 -189.5q0 -54 -13 -101.5t-34.5 -89.5t-49 -78.5t-57.5 -69.5z" />
<glyph unicode="3" horiz-adv-x="1199" d="M548 640q-18 0 -30.5 8.5t-12.5 30.5q0 55 0.5 110t0.5 111q0 20 11.5 31.5t31.5 11.5q32 0 52.5 12t32.5 29.5t17 38t5 38.5q0 13 -2.5 34.5t-12.5 42t-31 35.5t-57 15q-31 0 -51 -10t-31 -27.5t-15.5 -40t-4.5 -46.5h-3l1 -1q0 -41 -43 -41h-30h-87.5t-87.5 1 q-18 0 -31 11t-13 33l1 1h-2q0 114 34 195.5t91 133.5t132.5 76.5t159.5 24.5q83 0 158.5 -31.5t132.5 -87t91 -130t34 -160.5q0 -78 -29.5 -141.5t-76.5 -111.5q46 -32 87 -66t72 -77.5t48.5 -99.5t17.5 -131q0 -103 -41.5 -191.5t-112.5 -153.5t-166.5 -102t-203.5 -37 q-68 0 -133.5 8t-123.5 29t-106.5 58t-84 94.5t-55 138.5t-19.5 191q0 37 46 46h241q13 0 28 -11.5t15 -32.5q-1 -1 -2 -1h2q0 -107 49 -154.5t135 -47.5q37 0 68 11t53.5 32.5t35 55t12.5 78.5q0 85 -46 126t-147 41h-4z" />
<glyph unicode="4" horiz-adv-x="1317" d="M89 224q-29 0 -42 17t-13 38q0 28 17 51l650 1129q10 17 22.5 21.5t43.5 4.5h271q15 -1 31 -13t16 -31v-874h120q20 0 33.5 -11t13.5 -35v-250q0 -17 -13.5 -31.5t-33.5 -14.5h-120v-181q0 -44 -48 -44h-271q-44 0 -44 44v180h-633zM737 564v344l-202 -344h202z" />
<glyph unicode="5" horiz-adv-x="1209" d="M73 415q1 25 32 28l241 58q4 1 11 1q11 0 16 -3.5t9 -16.5q7 -26 25 -56.5t43.5 -56.5t56.5 -43.5t64 -17.5q35 0 68 10t59 31.5t42 56t16 83.5q0 40 -16.5 75.5t-45 62t-65.5 41.5t-79 15q-27 0 -47 -3.5t-41 -7.5t-47.5 -7.5t-66.5 -3.5h-174q-26 0 -41 11t-17 43 q18 182 36 361t35 360q0 51 48 51h666q2 0 4 -0.5t5 -0.5h80q23 0 35.5 -12t12.5 -38q0 -60 -0.5 -118.5t-0.5 -118.5q0 -20 -13 -35t-37 -15h-492l-15 -162q28 5 59 7.5t59 2.5q115 0 208.5 -42.5t160 -112t102.5 -159.5t36 -186q0 -110 -44 -204.5t-117 -164.5 t-169 -109.5t-199 -39.5v1q-94 0 -174.5 31.5t-144.5 85.5t-109 126t-68 153q-3 10 -5 20t-2 19z" />
<glyph unicode="6" horiz-adv-x="1238" d="M96 428q-2 17 -3 34.5t-1 34.5q0 131 64 244l394 700q11 21 26 32.5t40 11.5h284q39 0 39 -23q0 -4 -2 -13.5t-4 -11.5q-35 -62 -62 -108.5t-48 -84t-38.5 -68.5t-34 -60t-33.5 -59.5t-37 -66.5q96 -11 180 -53.5t146 -109.5t97.5 -153.5t35.5 -185.5q0 -106 -41 -198.5 t-112 -161t-166.5 -108t-204.5 -39.5q-101 0 -190.5 32.5t-159 91.5t-114.5 141.5t-55 181.5zM442 485q0 -40 12 -74t34 -59t53 -39t70 -14t70.5 14t53 39t33.5 59t12 74q0 39 -12 73t-33.5 59.5t-53 40.5t-70.5 15t-70 -15t-53 -40.5t-34 -59.5t-12 -73z" />
<glyph unicode="7" horiz-adv-x="1312" d="M1241 1486q28 0 41.5 -17t13.5 -39q0 -25 -18 -51q-179 -339 -356 -673t-356 -672q-8 -16 -23 -25t-32 -9h-356q-17 0 -26.5 6.5t-9.5 19.5q0 9 4 18l567 1088h-541q-20 0 -33.5 11t-13.5 35v262q0 20 14 33t33 13h1092z" />
<glyph unicode="8" horiz-adv-x="1240" d="M516 1077q0 -45 30.5 -75.5t75.5 -30.5q22 0 41.5 8t34 22.5t23 33.5t8.5 42q0 22 -8.5 41t-23 33.5t-34 23t-41.5 8.5q-23 0 -42 -8.5t-33.5 -23t-22.5 -33.5t-8 -41zM450 492q0 -36 12.5 -68t35.5 -56t54 -37.5t69 -13.5q36 0 66 13.5t52 37.5t34 56t12 69 q0 36 -11.5 68.5t-32.5 57t-51.5 39t-68.5 14.5q-39 0 -70.5 -14.5t-54 -39.5t-34.5 -57.5t-12 -68.5zM86 488q0 58 14 110.5t38.5 98t59 85t76.5 71.5q-34 49 -55 112.5t-21 125.5q0 84 33.5 158.5t91 131t134 89.5t163.5 33q85 0 162.5 -33t135.5 -89.5t92.5 -131 t34.5 -158.5q0 -63 -22 -126.5t-59 -111.5q87 -69 136.5 -162t49.5 -207q0 -106 -38.5 -198t-108.5 -159.5t-167.5 -106t-215.5 -38.5t-216.5 38t-169 105.5t-109.5 160t-39 202.5z" />
<glyph unicode="9" horiz-adv-x="1211" d="M1106 1057q2 -17 3.5 -33t1.5 -32q-1 -66 -16.5 -129t-47.5 -119l-394 -700q-11 -21 -26 -32.5t-40 -11.5h-284q-39 0 -39 22q0 4 2 14t4 12q35 61 62 108t48 84.5t38.5 68.5t34 60t33 59t37.5 67q-97 10 -181 53t-146 110t-97.5 153.5t-35.5 185.5q0 106 41 198.5 t112 161t166.5 108t204.5 39.5q101 0 190.5 -32.5t159 -92t114 -141.5t55.5 -181zM756 1000q0 40 -12 74t-34 59t-53.5 39t-70.5 14t-70 -14t-53 -39t-34 -59t-12 -74q0 -39 12 -73t34 -59.5t53 -40.5t70 -15t70.5 15t53.5 40.5t34 59.5t12 73z" />
<glyph unicode=":" horiz-adv-x="611" d="M120 813q0 37 14.5 70.5t39 58t57.5 39t70 14.5q39 0 72.5 -14.5t57.5 -39t38 -58t14 -70.5t-14 -70t-38 -57.5t-57.5 -39t-72.5 -14.5q-37 0 -70 14.5t-57.5 39t-39 57.5t-14.5 70zM120 162q0 37 14.5 70.5t39 58t57.5 39t70 14.5q39 0 72.5 -14.5t57.5 -39t38 -58 t14 -70.5t-14 -70t-38 -57.5t-57.5 -39t-72.5 -14.5q-37 0 -70 14.5t-57.5 39t-39 57.5t-14.5 70z" />
<glyph unicode=";" horiz-adv-x="611" d="M114 159q0 39 14.5 72t39 57t57.5 38t70 14q39 0 72.5 -14t58 -39.5t38 -62t13.5 -80.5q0 -96 -19 -166.5t-45.5 -117.5t-54 -70t-45.5 -23q-11 0 -17.5 2.5t-14.5 8.5l-47 34q-18 18 -18 35q0 12 7 23.5t16 25.5q11 11 20.5 28t9.5 44v10q-31 5 -59 21.5t-49.5 41 t-34 55t-12.5 63.5zM120 812q0 37 14.5 70.5t39 58t57.5 39t70 14.5q39 0 72.5 -14.5t57.5 -39t38 -58t14 -70.5t-14 -70t-38 -57.5t-57.5 -39t-72.5 -14.5q-37 0 -70 14.5t-57.5 39t-39 57.5t-14.5 70z" />
<glyph unicode="&#x3c;" horiz-adv-x="891" d="M594 1128q11 11 30 11t33 -13l160 -160q7 -7 10 -15t5 -16q-2 -7 -4.5 -15t-8.5 -16l-327 -329l327 -329q13 -18 13 -31q0 -19 -16 -35l-164 -160q-12 -14 -28 -14q-17 0 -31 14l-523 525q-15 15 -15 29q0 16 15 31z" />
<glyph unicode="=" horiz-adv-x="1100" d="M167 493q0 44 44 44h682q18 0 31 -11.5t13 -32.5v-203q0 -15 -12 -31.5t-32 -16.5h-682q-44 0 -44 48v203zM167 911q0 44 44 44h682q18 0 31 -11.5t13 -32.5v-203q0 -15 -12 -31.5t-32 -16.5h-682q-44 0 -44 48v203z" />
<glyph unicode="&#x3e;" horiz-adv-x="891" d="M229 1107q11 11 23 21t32 10q14 0 26.5 -11t22.5 -21l502 -501q15 -15 15 -31q0 -14 -15 -29l-523 -525q-14 -14 -31 -14q-18 0 -28 14l-164 160q-17 17 -17 35q0 15 13 31l328 329l-328 329q-10 16 -12 31q2 18 15 31z" />
<glyph unicode="?" horiz-adv-x="1137" d="M385 593q0 61 26 106.5t65 83.5t85 71t85 68.5t65 76.5t26 94q0 32 -14 62t-37.5 53t-54.5 36.5t-66 13.5q-34 0 -65 -14t-55 -38t-38 -55t-14 -64v-18q0 -23 -13 -31t-33 -8h-248q-25 0 -32.5 13.5t-7.5 27.5v33q0 105 41.5 192.5t111 150.5t161 98t191.5 35 q103 0 194 -37t159.5 -102.5t108 -155t39.5 -194.5q0 -93 -23 -155t-57.5 -105t-75 -71.5t-76.5 -54t-62 -53t-31 -68.5v-81q0 -51 -55 -51h-250q-50 0 -50 51v90zM377 157q0 37 14.5 70.5t39 58t57.5 39t70 14.5q39 0 72.5 -14.5t57.5 -39t38 -58t14 -70.5t-14 -70 t-38 -57.5t-57.5 -39t-72.5 -14.5q-37 0 -70 14.5t-57.5 39t-39 57.5t-14.5 70z" />
<glyph unicode="@" horiz-adv-x="1911" d="M1362 -114q13 6 20 6q14 0 24 -15l94 -139q5 -7 5 -13q0 -11 -6 -18.5t-14 -12.5q-111 -66 -232.5 -102t-255.5 -36q-132 1 -254.5 36.5t-229.5 98t-194.5 150t-150 194t-97 228.5t-34.5 255q0 132 34.5 255t97 231t150.5 196.5t195.5 152.5t231 99t257.5 35 q109 -2 215 -28.5t202 -75.5t177 -118.5t140.5 -156.5t93 -190t33.5 -219q0 -149 -26.5 -268.5t-79 -203.5t-131 -129t-183.5 -45h-141q-23 0 -42 10.5t-41 30.5q-20 14 -39.5 31.5t-33.5 40.5q-21 -24 -44 -48t-50.5 -44t-62.5 -32.5t-80 -13.5h-2q-108 0 -197 39.5 t-152.5 107t-98.5 157t-35 190.5t35.5 189.5t98.5 154.5t149.5 105.5t188.5 42.5q51 0 90.5 -12t70.5 -33.5t55 -50.5t44 -63l31 100q4 15 7.5 24t8.5 14t13 7t21 2h129q20 0 34.5 -12t14.5 -33v-600q0 -26 4.5 -40t13 -21t21.5 -8.5t30 -1.5q42 0 73 34.5t51.5 91 t30.5 127.5t10 145q0 129 -50.5 235.5t-137.5 183t-203 118.5t-247 42q-107 0 -206.5 -27.5t-196.5 -84.5q-174 -107 -266 -266t-92 -357q0 -103 27 -199t76 -179.5t117 -152t150.5 -117.5t176 -76t193.5 -27q54 0 100.5 6.5t90.5 19.5t87.5 33.5t92.5 49.5zM749 519 q0 -40 14 -74t38 -59t57 -39.5t71 -14.5q39 0 72.5 14.5t58 39.5t38 59t13.5 74q0 39 -13.5 73t-38 59.5t-58 40.5t-72.5 15q-38 0 -71 -15t-57 -40.5t-38 -59.5t-14 -73z" />
<glyph unicode="A" horiz-adv-x="1531" d="M586 1446q5 12 21 25.5t33 13.5h256q17 0 30 -9.5t17 -19.5l550 -1411q3 -9 3 -15q0 -30 -44 -30h-287q-23 0 -35.5 8.5t-19.5 28.5q-20 51 -39 101.5t-38 101.5h-531q-19 -51 -38.5 -101.5t-38.5 -101.5q-14 -37 -51 -37h-295q-16 0 -27.5 6.5t-11.5 20.5q0 5 3 13z M768 1018q-19 -51 -38 -110t-38.5 -119t-39 -118.5t-38.5 -109.5h307z" />
<glyph unicode="B" horiz-adv-x="1410" d="M158 1439q0 21 11.5 33.5t32.5 12.5h634q88 0 166 -33.5t136.5 -92t92.5 -137t34 -168.5q0 -75 -23.5 -139.5t-66.5 -115.5q71 -66 113.5 -157.5t42.5 -192.5q0 -91 -35 -172.5t-94.5 -143t-139 -97.5t-167.5 -36h-693q-20 0 -32 10.5t-12 32.5v1396zM934 464 q0 30 -11.5 60t-32 53.5t-49 38.5t-61.5 15h-234v-334h234q33 0 61 14t49 37.5t32.5 53.5t11.5 62zM881 1045q0 30 -11 56t-31 46t-48 31.5t-61 11.5h-184v-290h181q34 0 62.5 10.5t48.5 30t31.5 46t11.5 58.5z" />
<glyph unicode="C" horiz-adv-x="1409" d="M1294 1377q12 -7 20 -17t8 -24q0 -11 -6 -23l-169 -240q-14 -20 -29 -20q-10 0 -25 9q-49 37 -108 57t-125 20q-82 0 -151 -31t-119 -85t-78 -126t-28 -154t28 -153.5t78 -125t119 -84.5t151 -31q66 0 126 20.5t109 57.5q15 9 26 9q14 0 28 -18l171 -246q6 -12 6 -22 q0 -14 -8.5 -23t-19.5 -17q-94 -63 -202.5 -97.5t-228.5 -34.5q-106 0 -203.5 27t-182.5 77t-154.5 119.5t-119.5 154t-77 182t-27 203.5t27 203.5t77 183t119.5 155.5t154.5 119.5t182.5 77t203.5 27.5q119 0 226 -33.5t201 -96.5z" />
<glyph unicode="D" horiz-adv-x="1547" d="M1467 741q0 -106 -27 -201.5t-77 -178t-119.5 -149.5t-154 -114t-182.5 -72.5t-203 -25.5h-493q-18 0 -32 8t-14 34v1397q0 21 11.5 34t34.5 13h493q105 0 202.5 -26t182 -74t154.5 -115t119.5 -150t77 -179t27.5 -201zM552 1127v-769h84q23 0 45 1.5t44 3.5 q75 6 140 36.5t113.5 80t76 116.5t27.5 146q0 84 -31.5 154.5t-85.5 122t-126.5 80t-154.5 28.5h-132z" />
<glyph unicode="E" horiz-adv-x="1350" d="M161 1439q0 21 11.5 33.5t32.5 12.5h993q22 0 34 -13t12 -35v-248q0 -17 -12 -32.5t-35 -15.5h-648v-247h500q19 0 31.5 -9t12.5 -30v-216q0 -14 -11 -27t-32 -13h-501v-255h672q45 0 45 -46v-252q0 -20 -14 -33t-35 -13h-1012q-20 0 -32 10.5t-12 32.5v1396z" />
<glyph unicode="F" horiz-adv-x="1252" d="M169 1439q0 21 11.5 33.5t27.5 12.5h957q23 0 34.5 -13t11.5 -35v-248q0 -17 -12 -32.5t-35 -15.5h-608v-309h449q19 0 32 -10.5t13 -33.5v-239q0 -17 -11.5 -32.5t-31.5 -15.5h-451v-458q0 -43 -46 -43h-305q-17 2 -26.5 13t-9.5 29v1397z" />
<glyph unicode="G" horiz-adv-x="1474" d="M1078 1066q-50 36 -108.5 56t-124.5 20q-83 0 -152 -31.5t-118.5 -85.5t-77.5 -126.5t-28 -154.5t28 -154t77.5 -125.5t118.5 -84.5t152 -31q35 0 69.5 5t73.5 13v262q0 19 11 31.5t33 12.5h242q15 0 32 -12t17 -32v-484q0 -28 -29 -44q-93 -63 -208 -93t-234 -30 q-106 0 -203.5 27t-182.5 77t-154.5 119.5t-119.5 154t-77 182t-27 203.5t27 203.5t77 183t119.5 155.5t154.5 119.5t182.5 77t203.5 27.5q120 0 226.5 -33.5t200.5 -96.5q11 -8 20 -18t9 -24q0 -11 -7 -22l-162 -234q-17 -22 -34 -22q-14 0 -27 9z" />
<glyph unicode="H" horiz-adv-x="1606" d="M169 1441q0 17 12 30.5t31 13.5h297q15 0 31 -12.5t16 -31.5v-474h497v474q0 18 12.5 31t32.5 13h293q20 0 35 -10t15 -32v-1399q0 -22 -13 -33t-34 -11h-296q-20 0 -32.5 11t-12.5 33v568h-497v-568q0 -21 -13.5 -32.5t-36.5 -11.5h-294q-41 0 -43 39v1402z" />
<glyph unicode="I" horiz-adv-x="709" d="M161 1441q0 18 11 31t33 13h294q15 0 32 -12t17 -32v-1397q0 -44 -49 -44h-294q-44 0 -44 44v1397z" />
<glyph unicode="J" horiz-adv-x="1033" d="M480 1445q0 37 39 40h295q54 0 54 -52v-980q0 -99 -39.5 -185.5t-106.5 -151t-155.5 -101.5t-186.5 -37q-58 0 -114 13t-107 38.5t-94 63t-76 86.5q-3 2 -3 16q0 26 16 38l174 163q8 7 17 11.5t17 4.5q15 0 28.5 -11t30 -24.5t38.5 -24.5t53 -11q23 0 45 9t38.5 24 t26.5 35.5t10 43.5v992z" />
<glyph unicode="K" horiz-adv-x="1529" d="M159 1441q0 18 11.5 31t32.5 13h296q15 0 31.5 -12t16.5 -32v-545q108 139 214 276t213 276q11 17 28.5 27.5t34.5 10.5h380q24 0 24 -15q0 -10 -11 -24l-471 -621l521 -784q11 -17 11 -27q0 -15 -22 -15h-378q-17 0 -33.5 10t-27.5 27q-53 72 -96.5 138t-84.5 131.5 t-83 132.5t-92 141l-127 -146v-390q0 -44 -48 -44h-295q-45 0 -45 44v1397z" />
<glyph unicode="L" horiz-adv-x="1204" d="M162 1442q0 18 12 31t33 13h296q17 0 31.5 -12t14.5 -32v-1088h550q18 0 31 -12t13 -33v-263q0 -17 -11.5 -31.5t-32.5 -14.5h-893q-44 0 -44 44v1398z" />
<glyph unicode="M" horiz-adv-x="1921" d="M244 1441q2 18 14 31t34 13h346q36 0 48 -38l272 -908l274 908q6 20 20 29t31 9h342q18 0 32.5 -12.5t16.5 -31.5q35 -352 71.5 -698.5t71.5 -698.5v-5q0 -39 -44 -39h-283q-46 0 -48 44l-87 773l-225 -778q-1 -5 -5 -11.5t-9.5 -12.5t-12 -10t-12.5 -4h-263 q-12 0 -25.5 13.5t-14.5 24.5l-225 776l-87 -771q-2 -44 -49 -44h-283q-43 0 -43 44z" />
<glyph unicode="N" horiz-adv-x="1643" d="M169 1441q0 18 11 31t33 13h327q14 0 29 -7t26 -24q126 -204 252 -404t253 -404v801q4 18 16 28t28 10h285q21 0 35 -11.5t14 -32.5v-1402q0 -20 -12 -29.5t-33 -9.5h-319q-13 0 -23 9t-21 24q-132 219 -263 435t-264 435v-859q0 -22 -10 -33t-36 -11h-284 q-23 0 -33.5 12.5t-10.5 30.5v1398z" />
<glyph unicode="O" horiz-adv-x="1705" d="M478 742q0 -83 28 -155t78.5 -125.5t119.5 -84t152 -30.5t152.5 30.5t120 84t78.5 125.5t28 155q0 82 -28 154.5t-78.5 126.5t-120 85t-152.5 31t-152 -31t-119.5 -85t-78.5 -126.5t-28 -154.5zM92 741q0 106 27 203.5t77 183t119.5 155.5t154.5 119.5t182.5 77 t203.5 27.5q105 0 203 -27.5t183 -77t155 -119.5t119.5 -155.5t77 -183t27.5 -203.5t-27.5 -203.5t-77 -182t-119.5 -154t-155 -119.5t-183 -77t-203 -27q-106 0 -203.5 27t-182.5 77t-154.5 119.5t-119.5 154t-77 182t-27 203.5z" />
<glyph unicode="P" horiz-adv-x="1361" d="M162 1439q0 21 11 33.5t33 12.5h639q69 0 130 -19t112 -52.5t92 -80t69.5 -100.5t43.5 -113.5t15 -120.5q0 -90 -32.5 -176t-92.5 -153t-144 -108.5t-186 -42.5h-303v-476q0 -43 -46 -43h-297q-20 0 -32 10.5t-12 32.5v1396zM915 1001q0 30 -10.5 60t-30.5 53.5 t-48.5 38.5t-64.5 15h-212v-334h212q36 0 65 14.5t48.5 37.5t30 53t10.5 62z" />
<glyph unicode="Q" horiz-adv-x="1705" d="M92 741q0 106 27 203.5t77 183t119.5 155.5t154.5 119.5t182.5 77t203.5 27.5q105 0 203 -27.5t183 -77t155 -119.5t119.5 -155.5t77 -183t27.5 -203.5q0 -135 -43 -257t-119.5 -219.5t-182 -166t-230.5 -97.5v-271q0 -44 -48 -44h-295q-44 0 -44 44v273 q-124 30 -228 98.5t-179.5 165.5t-117.5 218t-42 256zM478 742q0 -83 28 -155t78.5 -125.5t119.5 -84t152 -30.5t152.5 30.5t120 84t78.5 125.5t28 155q0 82 -28 154.5t-78.5 126.5t-120 85t-152.5 31t-152 -31t-119.5 -85t-78.5 -126.5t-28 -154.5z" />
<glyph unicode="R" horiz-adv-x="1407" d="M160 1439q0 21 11 33.5t33 12.5h646q103 0 193 -38.5t157 -104.5t105.5 -154.5t38.5 -188.5q0 -68 -18.5 -129.5t-51.5 -115t-78.5 -97t-99.5 -74.5l257 -484q7 -14 18 -33t11 -33q0 -16 -10.5 -24.5t-28.5 -8.5h-343q-17 0 -30.5 10t-17.5 27l-243 457h-162v-451 q0 -43 -46 -43h-297q-20 0 -32 10.5t-12 32.5v1396zM943 995q0 30 -11 60t-31 55t-48 42t-62 22q-28 2 -52.5 3.5t-53.5 1.5h-138v-367h184q18 0 32 1t31 3q35 4 63 20.5t47 41t29 55t10 62.5z" />
<glyph unicode="S" horiz-adv-x="1312" d="M348 479q17 -14 43.5 -37.5t60.5 -46.5q50 -34 100.5 -53t105.5 -19q51 0 85.5 11.5t54.5 30.5t28.5 44t8.5 53q0 31 -23.5 55.5t-57.5 43.5t-71 32.5t-64 22.5q-120 42 -210 90.5t-150 108t-90 131.5t-30 159q0 93 37.5 169t107 130t167.5 83.5t219 29.5 q90 0 174.5 -20.5t164.5 -65.5q34 -20 64.5 -41t53.5 -41.5t36.5 -38.5t13.5 -31t-6.5 -24t-19.5 -25l-153 -163q-17 -17 -34 -17q-14 0 -25.5 8t-25.5 20l-9 8q-20 17 -44.5 35t-52.5 32.5t-59 24t-63 9.5q-33 0 -62 -5.5t-51 -17.5t-35 -31.5t-13 -47.5t14 -48.5t42 -38 t69.5 -33t96.5 -33.5q106 -35 195.5 -73.5t154.5 -91t101.5 -125.5t36.5 -177q0 -110 -45 -199.5t-123.5 -152.5t-184.5 -97.5t-228 -34.5q-77 0 -153.5 19.5t-147 54t-133 80.5t-110.5 99l-3 3l-4 4l-4 4q-23 24 -23 40q0 17 23 38l173 165q21 15 34 15q9 0 19 -6t24 -18z " />
<glyph unicode="T" horiz-adv-x="1332" d="M80 1441q0 20 13.5 32t33.5 12h1077q18 0 32 -11t16 -33v-249q0 -18 -12.5 -34.5t-35.5 -16.5h-345v-1094q0 -18 -13 -32.5t-34 -14.5h-294q-17 0 -32 13.5t-15 33.5v1094h-344q-20 0 -33.5 13t-13.5 38v249z" />
<glyph unicode="U" horiz-adv-x="1550" d="M544 593q0 -74 20.5 -125.5t54 -84t78 -47.5t92.5 -15q50 0 94.5 17.5t78 52t53 85.5t19.5 117v848q0 18 12.5 31t33.5 13h292q23 0 36 -13.5t13 -30.5v-843q0 -175 -51.5 -294t-138.5 -191.5t-201.5 -104t-240.5 -31.5t-241 32.5t-202 106t-138.5 192t-51.5 290.5v843 q0 17 11.5 30.5t28.5 13.5h300q15 0 31.5 -12.5t16.5 -31.5v-848z" />
<glyph unicode="V" horiz-adv-x="1470" d="M570 21q-11 18 -19.5 37t-16.5 39l-513 1343q0 5 -1.5 9t-1.5 8q0 28 37 28h322q38 0 52 -38l305 -910q41 114 78.5 227.5t74.5 227.5t74 227.5t78 227.5q14 38 55 38h315q23 0 32.5 -8.5t9.5 -22.5q0 -7 -1 -11l-516 -1346q-5 -14 -12 -31t-16 -31.5t-21 -24.5t-27 -10 h-247q-30 0 -41 21z" />
<glyph unicode="W" horiz-adv-x="2156" d="M571 21q-10 17 -19 35t-16 36q-129 340 -257 674t-257 674q0 5 -1.5 9t-1.5 8q0 28 37 28h322q38 0 52 -38l306 -911l283 911q11 38 55 38h325q23 0 32.5 -8.5t9.5 -22.5v-5.5t-1 -8.5q-45 -128 -89 -255t-89 -255l134 -393l324 910q14 38 55 38h315q23 0 32.5 -8.5 t9.5 -22.5v-5.5t-1 -8.5q-68 -176 -138.5 -351t-142 -350t-142.5 -350.5t-138 -350.5q-4 -11 -18 -24.5t-34 -13.5h-245q-22 0 -33.5 8.5t-16.5 22.5l-158 416q-34 -90 -67 -178.5t-66 -178.5q-5 -14 -11.5 -29.5t-15.5 -29t-20.5 -22.5t-26.5 -9h-245q-31 0 -42 21z" />
<glyph unicode="X" horiz-adv-x="1454" d="M16 26q8 15 16.5 30.5t19.5 31.5l450 672l-455 683q-5 8 -9 15.5t-4 13.5q0 8 9.5 10.5t20.5 2.5h348q37 0 58 -38l245 -367l248 367q21 38 58 38h334q17 0 29 -2.5t12 -13.5q0 -8 -9 -23l-460 -686l469 -700q9 -14 14.5 -24.5t5.5 -18.5q0 -17 -18 -17h-358 q-17 0 -31 10t-22 27l-272 403l-269 -403q-8 -17 -22 -27t-31 -10h-359q-8 0 -14 4.5t-6 12.5q0 6 2 9z" />
<glyph unicode="Y" horiz-adv-x="1410" d="M706 937l242 517q6 12 10 17.5t8 8t8 3t11 2.5h385q7 0 11.5 -4.5t4.5 -10.5q0 -5 -4.5 -11t-9.5 -14l-474 -839v-559q0 -47 -46 -47h-300q-20 0 -31 12.5t-11 34.5v561l-473 837q-5 8 -9 14t-4 11q0 6 4 10.5t11 4.5h385q7 -2 11 -2.5t8 -3t8 -8t11 -17.5z" />
<glyph unicode="Z" horiz-adv-x="1432" d="M88 1441q0 20 12.5 32t34.5 12h1161q19 0 32.5 -11t13.5 -33v-202q0 -8 -0.5 -15t-5.5 -18l-724 -863h687q19 0 32 -11t13 -34v-249q0 -17 -12.5 -33t-32.5 -16h-1161q-20 0 -33.5 13t-13.5 36v215q0 15 7 26l722 851h-685q-22 0 -34.5 11.5t-12.5 37.5v251z" />
<glyph unicode="[" horiz-adv-x="838" d="M160 1686q0 44 44 44h434q44 -3 44 -44v-238q0 -21 -13 -33.5t-31 -12.5h-121v-1327h121q18 0 31 -12.5t13 -33.5v-238q0 -41 -44 -44h-434q-44 0 -44 44v1895z" />
<glyph unicode="\" horiz-adv-x="1086" d="M31 1441q-2 2 -2 5t-2 8q0 17 16 24t36 7h277q25 0 40.5 -13t23.5 -31l632 -1397q1 -18 4 -18q0 -26 -42 -26h-299q-21 0 -31.5 9.5t-21.5 34.5z" />
<glyph unicode="]" horiz-adv-x="838" d="M681 -218q0 -44 -44 -44h-433q-44 3 -44 44v238q0 21 12.5 33.5t31.5 12.5h121v1327h-121q-19 0 -31.5 12.5t-12.5 33.5v238q0 41 44 44h433q44 0 44 -44v-1895z" />
<glyph unicode="^" horiz-adv-x="977" d="M458 1582q15 15 30 15q14 0 29 -15l372 -370q13 -13 13 -31q0 -16 -13 -28l-128 -130q-18 -18 -35 -18q-16 0 -31 13l-207 209l-209 -209q-8 -5 -16 -8t-14 -3q-17 0 -31 14l-128 127q-15 12 -15 33q0 18 13 31z" />
<glyph unicode="_" horiz-adv-x="907" d="M-1 -122q0 44 44 44h821q18 0 31 -11.5t13 -32.5v-181q0 -7 -3 -15.5t-9 -15.5t-14 -12t-18 -5h-821q-44 0 -44 48v181z" />
<glyph unicode="`" horiz-adv-x="552" d="M468 1233q7 -11 8 -20t1 -17q0 -22 -26 -22h-219q-19 0 -30.5 10t-23.5 32l-88 205q-5 10 -8 20.5t-3 18.5q0 11 7 18t26 7h212q34 0 53 -42z" />
<glyph unicode="a" horiz-adv-x="1279" d="M1137 57q0 -29 -18.5 -43t-41.5 -14h-195q-17 0 -26.5 4.5t-16 12t-10.5 18.5t-9 24l-22 58q-14 -21 -30.5 -44.5t-41 -44t-59 -33.5t-83.5 -13h-11q-108 0 -197.5 38.5t-154.5 106t-101 160.5t-36 201q0 111 35.5 204t100 160.5t154.5 105.5t199 38q51 0 92.5 -14.5 t73 -38t53.5 -53.5t35 -61l30 93q7 21 11.5 32.5t10.5 17.5t15 7.5t25 1.5h158q24 0 42 -15.5t18 -41.5v-867zM439 485q0 -40 12 -74t34 -59t53.5 -39t69.5 -14q39 0 72.5 14t57.5 39t37.5 59t13.5 74q0 39 -13.5 73t-37.5 59.5t-57.5 40.5t-72.5 15q-38 0 -69.5 -15 t-53.5 -40.5t-34 -59.5t-12 -73z" />
<glyph unicode="b" horiz-adv-x="1279" d="M473 115q-8 -21 -15 -41.5t-15.5 -37t-20 -26.5t-28.5 -10h-193q-41 7 -41 52v1382q0 12 5.5 21.5t13.5 16t17.5 10.5t18.5 4h249q26 0 38.5 -15t12.5 -37v-530q17 18 36 34t42 28t52 18.5t67 6.5q108 0 196.5 -39.5t151.5 -107.5t98 -160t35 -197q0 -104 -36 -196 t-99 -160.5t-149.5 -108.5t-187.5 -40q-46 0 -80.5 6.5t-63 22t-53.5 41t-51 63.5zM829 484q0 39 -12.5 73t-35 59.5t-54 40.5t-70.5 15t-71.5 -15t-56.5 -40.5t-37.5 -59.5t-13.5 -73v-6q1 -38 15 -71t38 -57t56 -38t70 -14q39 0 70.5 14t54 39t35 59t12.5 74z" />
<glyph unicode="c" horiz-adv-x="1004" d="M756 344q8 4 14.5 5t11.5 1q10 -1 18 -7t15.5 -15.5t14.5 -21.5t15 -24l86 -133q10 -15 10 -26q-1 -18 -12.5 -29.5t-24.5 -19.5q-66 -40 -140 -66t-157 -26q-104 0 -197 39.5t-163 107.5t-111 160.5t-41 198.5t41 200t111 163.5t163 110t197 40.5q83 0 153 -26.5 t133 -64.5q17 -11 28 -24t11 -36q0 -6 -1.5 -12.5t-6.5 -11.5l-98 -179q-17 -30 -40 -30q-14 0 -32 11q-12 9 -29.5 17t-37 14t-40 9.5t-37.5 3.5q-38 0 -69 -15t-53 -41t-34.5 -60t-12.5 -72q0 -39 12.5 -73.5t34.5 -59.5t53 -39.5t69 -14.5q17 0 37 3.5t39.5 9.5t37 14.5 t30.5 18.5h2z" />
<glyph unicode="d" horiz-adv-x="1279" d="M804 115q-26 -38 -51 -63.5t-53.5 -41t-63 -22t-80.5 -6.5q-101 0 -187.5 40t-149.5 108.5t-99 160.5t-36 196q0 105 35 197t98 160t151.5 107.5t196.5 39.5q38 0 67 -6.5t52 -18.5t42 -28t36 -34v530q0 22 12.5 37t38.5 15h249q9 0 18.5 -4t17.5 -10.5t13.5 -16 t5.5 -21.5v-1382q0 -45 -41 -52h-193q-17 0 -28.5 10t-20 26.5t-15.5 37t-15 41.5zM448 484q0 -40 12.5 -74t35 -59t54 -39t70.5 -14q38 0 70 14t56 38t38 57t15 71v6q0 39 -13.5 73t-37.5 59.5t-56.5 40.5t-71.5 15t-70.5 -15t-54 -40.5t-35 -59.5t-12.5 -73z" />
<glyph unicode="e" horiz-adv-x="1129" d="M903 82q-66 -52 -146 -80t-168 -28q-105 0 -197.5 40t-162 110t-110 164t-40.5 201q0 101 36.5 194t102 164t154.5 113t194 42q98 0 186.5 -37t155 -101.5t105.5 -152t39 -187.5q0 -34 -7 -59t-24 -41t-46.5 -24t-74.5 -8h-495q10 -34 30.5 -59.5t46 -43t53 -26 t51.5 -8.5q40 0 80.5 11.5t66.5 27.5q22 10 32 19.5t24 9.5q8 0 15.5 -4.5t18.5 -16.5l101 -144q10 -14 10 -29q0 -14 -8.5 -26t-22.5 -21zM572 722q-27 0 -52 -9t-45.5 -24.5t-37 -35.5t-26.5 -42h335q-12 21 -28 41t-36.5 35.5t-47.5 25t-62 9.5z" />
<glyph unicode="f" horiz-adv-x="663" d="M155 1158q0 64 19 114.5t52 89t77 65.5t93 44t100.5 24.5t100.5 7.5q30 0 46.5 -15.5t16.5 -42.5v-209q0 -24 -12.5 -37.5t-33.5 -13.5h-4q-48 0 -77.5 -17.5t-30.5 -62.5v-105h65q26 0 41.5 -14t15.5 -44v-156q0 -26 -15.5 -44t-41.5 -18h-65v-673q0 -23 -15.5 -37 t-37.5 -14h-239q-21 0 -38 14.5t-17 36.5v673h-53q-28 0 -43.5 15.5t-15.5 46.5v156q0 30 15.5 44t43.5 14h53v158z" />
<glyph unicode="g" horiz-adv-x="1269" d="M1124 57q0 -112 -33.5 -204t-98 -158t-159 -102t-216.5 -36q-100 0 -188 20.5t-165 68.5q-17 9 -28.5 22t-11.5 31q0 13 9 33l77 168q16 25 36 25q13 0 38 -11q15 -11 39 -20t51 -15t53 -9.5t46 -3.5q33 0 69 9.5t66.5 27.5t52.5 44.5t28 59.5q3 18 5.5 44.5t2.5 52.5v7 q-16 -20 -37.5 -41.5t-49.5 -38.5t-63 -28t-77 -11h-11q-108 0 -197.5 37t-154 103t-100.5 157t-36 199q0 111 35.5 206t100 164t154.5 108.5t199 39.5q39 0 83.5 -15.5t83.5 -40t67.5 -54t36.5 -57.5l13 83q3 21 7 33t11 18t17.5 7t26.5 1h158q24 0 42 -15.5t18 -41.5v-867 zM426 485q0 -40 12 -74t34 -59t53.5 -39t69.5 -14q39 0 72.5 14t57.5 39t37.5 59t13.5 74q0 39 -13.5 73t-37.5 59.5t-57.5 40.5t-72.5 15q-38 0 -69.5 -15t-53.5 -40.5t-34 -59.5t-12 -73zM815 137q-2 -2 -2 -3z" />
<glyph unicode="h" horiz-adv-x="1339" d="M514 49q0 -18 -8.5 -28t-20.5 -14.5t-26 -5.5t-25 -1h-217q-30 0 -43.5 13.5t-13.5 37.5v1381q0 23 13 37.5t40 14.5h244q26 0 41.5 -9.5t15.5 -41.5v-549q18 17 45.5 36.5t63.5 36t79.5 27t93.5 10.5q96 0 168.5 -32.5t122 -89.5t77 -134.5t34.5 -166.5q3 -42 3 -86 v-434q0 -24 -14.5 -37.5t-35.5 -13.5h-251q-27 0 -39 12t-12 37v477q0 31 -13.5 57t-35.5 45t-50 30t-58 11q-26 0 -56 -10t-56.5 -27.5t-44.5 -42t-21 -54.5v-486v-4v4v0z" />
<glyph unicode="i" horiz-adv-x="650" d="M158 931q0 21 12.5 36.5t37.5 15.5h250q8 0 17.5 -4t18 -10.5t14 -16t5.5 -21.5v-880q0 -51 -55 -51h-250q-50 0 -50 51v880zM148 1292q0 37 14.5 70.5t39 58t57.5 39t70 14.5q39 0 72.5 -14.5t57.5 -39t38 -58t14 -70.5t-14 -70t-38 -57.5t-57.5 -39t-72.5 -14.5 q-37 0 -70 14.5t-57.5 39t-39 57.5t-14.5 70z" />
<glyph unicode="j" horiz-adv-x="650" d="M159 930q0 24 15 38t38 14h249q21 0 37.5 -15t16.5 -37v-899q0 -104 -32.5 -187t-92.5 -141t-144 -88.5t-186 -30.5q-29 0 -44 15t-15 40v191q0 23 13.5 36t34.5 13h4q21 0 40 8t33.5 22t23.5 34.5t9 46.5v940zM148 1292q0 37 14.5 70.5t39 58t57.5 39t70 14.5 q39 0 72.5 -14.5t57.5 -39t38 -58t14 -70.5t-14 -70t-38 -57.5t-57.5 -39t-72.5 -14.5q-37 0 -70 14.5t-57.5 39t-39 57.5t-14.5 70z" />
<glyph unicode="k" horiz-adv-x="1323" d="M159 1432q0 23 9 37.5t43 14.5h253q23 0 36 -15.5t13 -32.5v-774q66 74 131.5 146.5t131.5 146.5q19 22 48 22h313q20 0 31 -9t11 -24q-1 -8 -3 -14t-11 -15l-316 -334l398 -511h-2q10 -10 14.5 -20.5t4.5 -18.5q0 -18 -9.5 -24.5t-29.5 -6.5h-326q-13 0 -31.5 9.5 t-29.5 30.5v-1l-251 357l-73 -75v-270q0 -17 -10.5 -34t-39.5 -17h-258q-12 0 -21 5t-15 12.5t-8.5 15.5t-2.5 14v1385zM839 38l-1 1z" />
<glyph unicode="l" horiz-adv-x="650" d="M158 1432q0 22 12 37t38 15h240q7 0 16.5 -4t18 -10.5t14 -16t5.5 -21.5v-1381q0 -26 -14 -38.5t-40 -12.5h-240q-50 0 -50 51v1381z" />
<glyph unicode="m" horiz-adv-x="1900" d="M209 0q-27 0 -38.5 14.5t-11.5 36.5v870q0 14 7 25.5t16.5 19t20 11.5t17.5 4h130q28 0 48 -11t34.5 -29t24 -42t15.5 -50q18 21 49 46.5t70 47t82.5 36.5t86.5 15q112 0 192.5 -38t114.5 -99q25 29 59 54t73 43.5t79.5 29t77.5 10.5q132 0 213.5 -39t126.5 -107.5 t61 -161t16 -200.5v-435q0 -24 -15 -37.5t-38 -13.5h-239q-54 0 -54 49v477q0 31 -8 57t-24 45t-38.5 30t-50.5 11q-27 0 -54 -10.5t-49 -28.5t-36 -43t-14 -54v-484q-2 -24 -15.5 -36.5t-34.5 -12.5h-257q-50 0 -50 49v495q-3 55 -37 90t-88 35q-26 0 -53.5 -10t-50 -28 t-37 -43t-14.5 -55v-489q0 -16 -12.5 -30t-29.5 -14h-265z" />
<glyph unicode="n" horiz-adv-x="1313" d="M160 923q0 31 14 45.5t47 14.5h130q28 0 47.5 -11.5t33 -30t23 -43t16.5 -50.5q18 21 50.5 46.5t74.5 48t90.5 37.5t97.5 15q114 0 190.5 -30.5t122.5 -91.5t65.5 -154t19.5 -217v-451q0 -24 -15 -37.5t-36 -13.5h-251q-27 0 -39 12t-12 37v478q0 69 -34 104t-111 35 q-23 0 -51 -9t-53.5 -26t-43.5 -42t-20 -56v-483q0 -25 -11.5 -37.5t-43.5 -12.5h-248q-27 0 -40 14.5t-13 36.5v872z" />
<glyph unicode="o" horiz-adv-x="1206" d="M81 488q0 106 41 200t111.5 163.5t166 110t205.5 40.5q108 0 203.5 -40.5t166 -110t111.5 -163.5t41 -200t-41 -198.5t-111.5 -160.5t-166 -107.5t-203.5 -39.5q-73 0 -140 18t-125.5 50.5t-106 78.5t-81.5 102t-52.5 121t-18.5 136zM437 485q0 -40 12 -74t34 -59 t53.5 -39t70.5 -14t70 14t53 39t34 59t12 74q0 39 -12 73t-34 59.5t-53 40.5t-70 15t-70.5 -15t-53.5 -40.5t-34 -59.5t-12 -73z" />
<glyph unicode="p" horiz-adv-x="1266" d="M446 868q26 38 51 63.5t53.5 41t63 22t80.5 6.5q101 0 187.5 -40t149.5 -108.5t99 -160.5t36 -196q0 -105 -35 -197t-98 -160t-151.5 -107.5t-196.5 -39.5q-38 0 -67 6.5t-52 18.5t-42 28t-36 34v-530q0 -22 -12.5 -37t-38.5 -15h-249q-9 0 -18.5 4t-17.5 10.5t-13.5 16 t-5.5 21.5v1382q0 45 41 52h193q17 0 28.5 -10t20 -26.5t15.5 -37t15 -41.5zM812 499q0 40 -12.5 74t-35 59t-54 39t-70.5 14q-38 0 -70 -14t-56 -38t-38 -57t-15 -71v-6q0 -39 13.5 -73t37.5 -59.5t56.5 -40.5t71.5 -15t70.5 15t54 40.5t35 59.5t12.5 73z" />
<glyph unicode="q" horiz-adv-x="1254" d="M800 868q8 21 15 41.5t15.5 37t20 26.5t28.5 10h193q41 -7 41 -52v-1382q0 -12 -5.5 -21.5t-13.5 -16t-17.5 -10.5t-18.5 -4h-249q-26 0 -38.5 15t-12.5 37v530q-17 -18 -36 -34t-42 -28t-52 -18.5t-67 -6.5q-108 0 -196.5 39.5t-151.5 107.5t-98 160t-35 197 q0 104 36 196t99 160.5t149.5 108.5t187.5 40q46 0 80.5 -6.5t63 -22t53.5 -41t51 -63.5zM434 499q0 -39 12.5 -73t35 -59.5t54 -40.5t70.5 -15t71.5 15t56.5 40.5t37.5 59.5t13.5 73v6q-1 38 -15 71t-38 57t-56 38t-70 14q-39 0 -70.5 -14t-54 -39t-35 -59t-12.5 -74z" />
<glyph unicode="r" horiz-adv-x="980" d="M159 920q0 30 20.5 43.5t41.5 13.5h156q14 0 22.5 -5.5t14.5 -14t10.5 -19t10.5 -21.5q1 -2 5.5 -14.5t10.5 -27.5t11 -28t6 -15q23 25 45.5 53.5t48.5 52t57 39t71 15.5q42 0 74.5 -6t62 -18t58 -30t62.5 -43q32 -17 32 -46q0 -20 -12 -39l-112 -170q-11 -16 -26 -25.5 t-30 -9.5q-17 0 -30 13q-17 16 -30.5 27t-27.5 18.5t-30 11t-37 3.5q-30 0 -55.5 -10.5t-44 -28t-29 -41t-10.5 -49.5v-490q0 -29 -14.5 -44t-47.5 -15h-224q-29 0 -44.5 15t-15.5 44v861z" />
<glyph unicode="s" horiz-adv-x="956" d="M287 340q48 -39 89.5 -58.5t74.5 -19.5q24 0 45 2.5t37 7.5t25.5 14t9.5 23q0 28 -37 43t-101 32q-99 26 -165.5 60t-107 75.5t-57.5 90t-17 104.5q0 64 30.5 116.5t84.5 89.5t127.5 57.5t159.5 20.5q51 0 99.5 -5t93.5 -18.5t87 -37.5t81 -62q11 -14 11 -26 q-1 -9 -5 -18.5t-15 -18.5q-9 -8 -27.5 -26.5t-39 -40t-38.5 -40.5t-26 -27q-7 -7 -14.5 -9.5t-14.5 -2.5q-12 0 -22.5 6t-21.5 17q-13 13 -31 22.5t-37.5 16t-38.5 10t-35 3.5t-32 -3.5t-28.5 -10.5t-20 -17.5t-7.5 -23.5q0 -19 15 -30.5t37 -18t46.5 -11t44.5 -10.5 q74 -23 139 -46.5t113.5 -58t76.5 -84.5t28 -125q0 -77 -35 -137t-95.5 -101t-141 -62.5t-170.5 -21.5q-104 0 -200.5 37t-170.5 118q-20 22 -20 42q0 17 16 33l133 139q7 7 14 9.5t13 3.5q9 0 18.5 -6t22.5 -16z" />
<glyph unicode="t" horiz-adv-x="668" d="M149 1255q0 20 13.5 35.5t39.5 20.5l248 39q20 0 32 -13.5t12 -35.5v-300h89q25 0 41.5 -14.5t16.5 -43.5v-156q0 -25 -16 -43t-42 -18h-89v-675q0 -51 -56 -51h-237q-52 0 -52 51v675h-56q-59 0 -59 61v156q0 58 59 58h56v254z" />
<glyph unicode="u" horiz-adv-x="1283" d="M1141 61q0 -31 -14 -45.5t-47 -14.5h-130q-28 0 -47.5 11t-33 30t-23 43.5t-16.5 50.5q-18 -21 -50.5 -46.5t-74.5 -48t-90.5 -37.5t-97.5 -15q-114 0 -190.5 30.5t-122.5 91.5t-65.5 153.5t-19.5 217.5v451q0 24 15 37.5t36 13.5h251q27 0 39 -12t12 -37v-478 q0 -69 34 -104t111 -35q23 0 51 9t53.5 26t43.5 41.5t20 56.5v483q0 25 11.5 37.5t43.5 12.5h248q27 0 40 -14.5t13 -36.5v-872z" />
<glyph unicode="v" horiz-adv-x="1137" d="M400 21q-8 13 -15.5 27.5t-12.5 29.5q-83 211 -170 421.5t-169 422.5q-2 1 -3.5 9t-1.5 16q0 35 44 35h286q23 0 38 -12t21 -33q17 -60 38.5 -131.5t42.5 -141.5t39 -131.5t29 -100.5l148 508q9 23 23 33t38 10h281q27 0 38 -10.5t11 -28.5q0 -4 -0.5 -7.5t-1.5 -8.5 l-346 -850q-4 -12 -10 -25.5t-14 -25.5t-19.5 -19.5t-27.5 -7.5h-240q-19 0 -29 5.5t-17 15.5z" />
<glyph unicode="w" horiz-adv-x="1671" d="M389 25q-8 13 -15 26.5t-12 27.5l-329 843q-2 2 -3.5 10.5t-1.5 15.5q0 34 44 34h288q20 0 35 -11.5t23 -31.5q18 -61 34.5 -119.5l33 -117t33.5 -117t37 -119.5l149 474q13 43 61 43h241q28 0 39 -11t11 -30q0 -9 -1 -14l-51 -165q6 -20 17.5 -53.5t26 -74.5t30 -85.5 t30.5 -85.5l138 476q9 23 22.5 33t36.5 10h288q44 0 44 -29q0 -9 -5 -26l-334 -853q-5 -12 -11 -25t-14.5 -24.5t-20 -18.5t-26.5 -7h-236q-25 0 -40.5 14t-17.5 25l-101 274l-88 -236q-4 -11 -10 -24.5t-14.5 -25t-19.5 -19.5t-26 -8h-237q-20 0 -31 7t-17 18z" />
<glyph unicode="x" horiz-adv-x="1178" d="M45 0q-24 0 -24 19q0 9 6 20l28 46l296 425q-75 103 -148.5 207.5t-147.5 207.5q-15 20 -15 35q0 9 7.5 15t24.5 6h325q20 0 33.5 -11.5t26.5 -29.5l117 -208q13 18 29.5 45.5t34 57.5t34 58.5t28.5 47.5q27 41 65 41h325q29 0 29 -24q0 -5 -3 -11t-8 -13l-314 -423 l306 -439q22 -31 22 -50q0 -22 -30 -22h-347q-20 0 -36 11.5t-24 30.5l-112 186l-113 -188q-8 -18 -24.5 -29t-33.5 -11h-357z" />
<glyph unicode="y" horiz-adv-x="1160" d="M44 921q-3 2 -4 9.5t-1 14.5q0 36 44 36h274q23 0 38 -11.5t20 -31.5q21 -60 43.5 -127.5t45 -135.5t45 -135.5t44.5 -127.5l172 526q8 23 23 33t39 10h269q27 0 37.5 -11t10.5 -29q0 -10 -1 -15q-38 -101 -81 -214.5t-87.5 -230.5t-89.5 -233t-85.5 -223t-75 -200.5 t-58.5 -165.5q-5 -19 -20.5 -31.5t-35.5 -12.5h-249q-17 0 -32.5 6.5t-15.5 28.5q0 8 5 25l104 306z" />
<glyph unicode="z" horiz-adv-x="1097" d="M116 928q0 24 13.5 38t39.5 14h785q22 0 37.5 -13t15.5 -39v-179q0 -8 -1 -15.5t-6 -18.5q-48 -51 -100.5 -101.5t-106 -101.5t-106 -101.5t-100.5 -101.5h366q23 0 38 -13.5t15 -39.5v-199q0 -19 -14.5 -38t-38.5 -19h-794q-29 0 -43.5 20t-16.5 46v150q0 24 11 43 t30 39q43 45 92 92.5t99 95.5t97.5 94.5t88.5 89.5h-348q-53 0 -53 57v201z" />
<glyph unicode="{" horiz-adv-x="841" d="M210 1419q0 91 40.5 171.5t108 140t153.5 94t178 34.5h20q51 -5 51 -50v-302q0 -22 -13 -36.5t-31 -14.5h-18q-23 0 -43.5 -9t-35.5 -24t-24 -35.5t-9 -43.5v-468q0 -36 -16.5 -67.5t-39.5 -57.5q23 -27 39.5 -58.5t16.5 -69.5v-477q0 -23 9 -43.5t24 -35.5t35.5 -24 t43.5 -9h18q18 0 31 -14.5t13 -36.5v-310q0 -23 -13 -37t-38 -14h-20q-92 0 -178 34.5t-153.5 94t-108 139.5t-40.5 172v471q0 8 -8 16t-16 8h-86q-44 0 -44 48v291q0 44 44 44h81q29 0 29 28v451z" />
<glyph unicode="|" horiz-adv-x="614" d="M162 1441q0 18 11 31t33 13h258q15 0 31.5 -12t16.5 -32v-1781q0 -44 -48 -44h-258q-44 0 -44 44v1781z" />
<glyph unicode="}" horiz-adv-x="879" d="M621 959q0 -28 29 -28h81q44 0 44 -44v-291q0 -48 -44 -48h-86q-8 0 -16 -8t-8 -16v-471q0 -92 -41 -172t-108 -139.5t-154 -94t-178 -34.5h-20q-50 3 -50 51v310q0 22 13 36.5t31 14.5h18q23 0 43.5 9t35.5 24t24 35.5t9 43.5v477q0 38 16.5 69.5t39.5 58.5 q-23 26 -39.5 57.5t-16.5 67.5v468q0 23 -9 43.5t-24 35.5t-35.5 24t-43.5 9h-18q-18 0 -31 14.5t-13 36.5v302q0 45 50 50h20q91 0 178 -34.5t154 -94t108 -140t41 -171.5v-451z" />
<glyph unicode="~" horiz-adv-x="1318" d="M161 601q58 81 138.5 123t173.5 42q57 0 113 -18.5t109 -52.5l82 -53q28 -19 64 -19q26 0 50.5 11t39.5 33l39 57q11 17 35 17q14 0 31 -11l150 -101q17 -14 17 -33q0 -13 -8 -28l-40 -55q-61 -85 -142 -125t-178 -40q-57 0 -110.5 18.5t-104.5 51.5l-81 53 q-31 20 -66 20q-58 0 -88 -44l-40 -58q-12 -16 -34 -16q-16 0 -32 10l-149 101q-18 11 -18 33q0 3 1 7.5t6 13.5t14.5 24t27.5 39z" />
<glyph unicode="&#xa1;" horiz-adv-x="680" d="M512.041 -561.623q0 -43.9902 -48.9883 -43.9902h-259.937q-43.9893 0 -43.9893 43.9902v1017.75q0 18.9951 10.9971 31.4922t32.9922 12.4971h259.937q14.9961 0 31.9922 -11.9971t16.9961 -31.9922v-1017.75zM517.039 818.039q0 -36.9902 -14.4961 -70.4824 t-38.9902 -57.9854q-24.4941 -24.4941 -57.4863 -38.9912q-32.9922 -14.4961 -69.9824 -14.4961q-38.9902 0 -72.4824 14.4961q-33.4922 14.4971 -57.4863 38.9912q-23.9941 24.4932 -37.9902 57.9854q-13.9971 33.4922 -13.9971 70.4824q0 36.9912 13.9971 69.9834 q13.9961 32.9922 37.9902 57.4863q23.9941 24.4932 57.4863 38.9902q33.4922 14.4961 72.4824 14.4961q36.9902 0 69.9824 -14.4961q32.9922 -14.4971 57.4863 -38.9902q24.4941 -24.4941 38.9902 -57.4863t14.4961 -69.9834z" />
<glyph unicode="&#xa2;" horiz-adv-x="994" d="M726 344q8 4 14.5 5t11.5 1q10 -1 18 -7t15.5 -15.5t14.5 -21.5t15 -24l86 -133q10 -15 10 -26q-1 -21 -25.5 -41.5t-60.5 -38t-75.5 -31t-70.5 -19.5v-127q0 -15 -10 -27.5t-29 -12.5h-236q-38 0 -38 40v162q-65 30 -118.5 76.5t-91.5 106t-59.5 130t-21.5 147.5 q0 81 21.5 150t60.5 128t92.5 107t116.5 87v136q0 19 9.5 30.5t28.5 11.5h236q14 0 26.5 -13.5t12.5 -28.5v-113q31 -6 70 -18t73 -29t57 -38.5t23 -46.5q0 -6 -1.5 -12.5t-6.5 -11.5l-98 -179q-17 -30 -40 -30q-14 0 -32 11q-12 9 -27.5 17t-33.5 14t-37 9.5t-36 3.5 q-38 0 -69 -15t-53 -41t-34.5 -60t-12.5 -72q0 -39 12.5 -73.5t34.5 -59.5t53 -39.5t69 -14.5q34 0 71 13t63 33h2z" />
<glyph unicode="&#xa3;" horiz-adv-x="1123" d="M1082 1377q10 -5 17 -14.5t7 -21.5q0 -9 -5 -19l-151 -217q-11 -17 -25 -17q-11 0 -22 7q-19 14 -39 29.5t-44.5 28t-55.5 21t-73 8.5q-36 0 -69 -14t-58.5 -38.5t-40.5 -57.5t-15 -70v-147h277q17 0 31.5 -12t14.5 -32v-185q0 -18 -11.5 -32.5t-34.5 -14.5h-276v-225 h545q19 0 31.5 -11.5t12.5 -32.5v-262q0 -7 -3 -15.5t-9 -15.5t-14 -12t-18 -5h-875q-44 0 -44 43v955q0 106 42.5 200t114.5 163.5t167 110t200 40.5q75 0 136 -10t112 -28t93.5 -43t81.5 -54z" />
<glyph unicode="&#xa4;" horiz-adv-x="1078" d="M436 500q0 -44 29.5 -73.5t73.5 -29.5t73.5 29.5t29.5 73.5t-29.5 73.5t-73.5 29.5t-73.5 -29.5t-29.5 -73.5zM257 931q18 18 36 18q19 0 37 -18l84 -85q35 10 66.5 15.5t56.5 5.5q26 0 56.5 -5.5t65.5 -14.5l85 85q8 8 17 11.5t17 4.5q24 0 39 -18l150 -150q8 -9 13 -18 t5 -22q0 -17 -17 -34l-84 -86q9 -33 15 -62.5t6 -53.5q0 -29 -5 -60.5t-15 -67.5l84 -85q18 -19 18 -35q0 -11 -4 -20.5t-15 -16.5q-35 -35 -69 -69.5t-70 -69.5q-9 -10 -20 -18t-28 -8q-15 0 -26.5 7.5t-21.5 17.5l-74 72q-71 -20 -122 -20q-26 0 -57 5.5t-66 14.5l-85 -84 q-16 -16 -35 -16q-11 0 -20.5 3.5t-17.5 14.5l-11 10q-35 34 -69 69.5t-70 69.5q-9 8 -13 16.5t-4 20.5q0 20 16 37l11 12q36 35 73 73q-9 34 -15 64t-6 58q0 24 6 55t15 66q-13 13 -29.5 29t-31.5 32t-26 31t-12 28q1 11 4.5 21.5t12.5 19.5z" />
<glyph unicode="&#xa5;" horiz-adv-x="1456" d="M726 937l242 517q6 12 10 17.5t8 8t8 3t11 2.5h385q7 0 11.5 -4.5t4.5 -10.5q0 -11 -14 -25l-374 -662h117q18 0 31 -11t13 -33v-110q0 -15 -12 -31.5t-32 -16.5h-217v-90h217q18 0 31 -11.5t13 -32.5v-110q0 -15 -12 -32t-32 -17h-217v-241q0 -47 -46 -47h-300 q-20 0 -31 12.5t-11 34.5v241h-204q-44 0 -44 49v110q0 44 44 44h204v90h-204q-44 0 -44 48v110q0 44 44 44h105l-374 662q-5 8 -9 14t-4 11q0 6 4 10.5t11 4.5h385q7 -2 11 -2.5t8 -3t8 -8t11 -17.5z" />
<glyph unicode="&#xa6;" horiz-adv-x="654" d="M162 1476q0 18 11 31t33 13h261q18 0 33 -12t15 -32v-746q0 -44 -48 -44h-261q-44 0 -44 44v746zM162 372q0 18 11 31t33 13h261q18 0 33 -12t15 -32v-746q0 -44 -48 -44h-261q-44 0 -44 44v746z" />
<glyph unicode="&#xa7;" horiz-adv-x="1088" d="M763 1209q-24 23 -52 40.5t-55 29t-51.5 17t-41.5 5.5q-30 0 -61.5 -8.5t-58 -25t-43 -42t-16.5 -58.5q0 -26 19 -42t51 -28t75 -23.5t91 -28.5h-1q89 -26 153 -57t105 -69t60.5 -84t19.5 -102q0 -139 -106 -221q48 -36 77 -85.5t29 -120.5q0 -79 -33 -144.5t-90.5 -113 t-135.5 -73.5t-167 -26q-176 0 -307 101q-27 21 -47.5 42.5t-35 40.5t-22 34t-7.5 23q0 19 17 39t40 36.5t47.5 27t39.5 10.5q12 0 20 -1.5t16.5 -5.5t18.5 -12t26 -20v-8q24 -23 51 -40t54 -28t51.5 -16.5t41.5 -5.5q30 0 62.5 8.5t58.5 25t43 41.5t17 58q0 21 -14.5 37 t-40 28.5t-60.5 23.5t-75 23h1l-46 12q-89 28 -153 58.5t-105.5 67.5t-61.5 82t-20 102q0 71 24.5 124t78.5 95q-48 38 -75.5 88.5t-27.5 118.5q0 80 33 145.5t90.5 112.5t135.5 73t167 26q86 0 162.5 -23.5t145.5 -75.5q26 -20 46.5 -42t34.5 -41.5t21.5 -34.5t7.5 -22 q0 -32 -33 -58l-72 -49l-5 -1q-7 -3 -14.5 -5t-19.5 -2q-26 0 -40 9t-36 32zM531 834q-38 0 -65.5 -8.5t-45.5 -22.5t-27 -31t-9 -35q0 -8 4.5 -22.5t22 -30.5t52.5 -30.5t97 -20.5h7q37 0 64.5 8.5t44.5 22.5t25.5 31t8.5 35q0 11 -2 21.5t-4 19.5q-13 11 -31 22t-40.5 20 t-48.5 15t-53 6z" />
<glyph unicode="&#xa8;" horiz-adv-x="941" d="M87 1268q0 33 12.5 61.5t34 50t50 34t60.5 12.5q34 0 63 -12.5t50 -34t33 -50t12 -61.5q0 -32 -12 -60.5t-33 -50t-50 -34t-63 -12.5q-32 0 -60.5 12.5t-50 34t-34 50t-12.5 60.5zM527 1270q0 33 12.5 62t33.5 50.5t49.5 34t60.5 12.5q34 0 63 -12.5t50.5 -34t33.5 -50.5 t12 -62q0 -32 -12 -60.5t-33.5 -49.5t-50.5 -33.5t-63 -12.5q-32 0 -60.5 12.5t-49.5 33.5t-33.5 49.5t-12.5 60.5z" />
<glyph unicode="&#xa9;" horiz-adv-x="1932" d="M951 1617q119 0 230.5 -31t208 -88t176.5 -137t137 -177t88.5 -209.5t31.5 -233.5q0 -119 -31 -230.5t-88 -208t-137 -176.5t-177.5 -137t-209.5 -88.5t-233 -31.5q-120 0 -231 31t-208 88t-177 137t-137 177.5t-88.5 209.5t-31.5 234q0 120 31 230.5t88 207.5t137 176.5 t177.5 136.5t209.5 88.5t234 31.5zM643 1269q-76 -45 -134.5 -105t-99 -129.5t-61.5 -147t-21 -157.5q0 -86 23 -164.5t64.5 -146.5t99 -122.5t126 -93.5t145.5 -60t158 -21q80 0 158.5 21.5t153.5 67.5q76 43 135 103t99.5 130.5t62 149.5t21.5 160q0 90 -24 170 t-66.5 146.5t-100 119.5t-125 90t-142 56.5t-149.5 19.5q-82 0 -163.5 -21t-159.5 -66zM1233 1143q12 -8 19.5 -18.5t7.5 -23.5v-12l-18 -32q-10 -18 -23.5 -45t-28 -52.5t-27.5 -43.5t-23 -18q-7 0 -10 2q-32 19 -73.5 27.5t-86.5 8.5q-44 0 -81 -15t-63.5 -42t-41.5 -64 t-15 -81q0 -45 14.5 -82t40.5 -63.5t61 -40.5t77 -14q35 0 69 8l1 -1q28 2 52 9t44 21q6 2 10 2q5 -1 11 -4t11 -11l101 -165v2l3 -7q1 -4 1.5 -7t0.5 -6q1 -14 -8.5 -21.5t-18.5 -13.5q-63 -39 -132 -61.5t-147 -22.5q-99 0 -186.5 37.5t-152.5 102.5t-102.5 153t-37.5 189 q0 100 38 188t104 153.5t154 103t187 37.5q77 0 142 -20t128 -57h-1z" />
<glyph unicode="&#xaa;" horiz-adv-x="1023" d="M885 772q-12 -6 -22 -6h-159q-31 0 -31 28v55q-31 -45 -78 -71t-120 -26q-78 0 -145.5 29t-118 79.5t-79.5 118t-29 145.5t29 145.5t79.5 118t118 79.5t145.5 29q80 0 130.5 -31t78.5 -86l18 77q0 29 31 29h130q11 0 22 -7q7 -6 7 -22v-662q0 -15 -7 -22zM328 1125 q0 -30 11 -56.5t30.5 -46t45.5 -31t57 -11.5q30 0 56.5 11.5t46 31t31 46t11.5 56.5v7q-2 29 -13.5 54t-31 44t-45.5 29.5t-55 10.5q-31 0 -57 -11t-45.5 -30.5t-30.5 -46t-11 -57.5z" />
<glyph unicode="&#xab;" horiz-adv-x="1469" d="M561 1115q9 11 29 11q21 0 33 -13l144 -144q12 -14 14 -31q-1 -7 -3 -15t-9 -16l-344 -345l344 -346q12 -12 12 -30q0 -21 -15 -36l-147 -143q-6 -6 -13.5 -10t-15.5 -4q-18 0 -30 14l-523 525q-15 15 -15 29q0 16 15 31zM1205 1115q9 11 29 11q21 0 33 -13l144 -144 q12 -14 14 -31q-1 -7 -3 -15t-9 -16l-344 -345l344 -346q12 -12 12 -30q0 -21 -15 -36l-147 -143q-6 -6 -13.5 -10t-15.5 -4q-18 0 -30 14l-523 525q-15 15 -15 29q0 16 15 31z" />
<glyph unicode="&#xac;" horiz-adv-x="1162" d="M97 748q0 44 44 44h878q44 0 44 -44v-482q0 -18 -11.5 -31t-32.5 -13h-154q-15 0 -32 12t-17 32v280h-675q-44 0 -44 48v154z" />
<glyph unicode="&#xad;" horiz-adv-x="1057" d="M147 686q0 44 44 44h682q18 0 31 -11.5t13 -32.5v-203q0 -15 -12 -31.5t-32 -16.5h-682q-44 0 -44 48v203z" />
<glyph unicode="&#xae;" horiz-adv-x="1886" d="M934 1617q119 0 230.5 -31t208 -88t176.5 -137t137 -177t88.5 -209.5t31.5 -233.5q0 -119 -31 -230.5t-88 -208t-137 -176.5t-177.5 -137t-209.5 -88.5t-233 -31.5q-120 0 -231 31t-208 88t-177 137t-137 177.5t-88.5 209.5t-31.5 234q0 120 31 230.5t88 207.5t137 176.5 t177.5 136.5t209.5 88.5t234 31.5zM626 1269q-76 -45 -134.5 -105t-99 -129.5t-61.5 -147t-21 -157.5q0 -86 23 -164.5t64.5 -146.5t99 -122.5t126 -93.5t145.5 -60t158 -21q90 0 172 25t152 69t126.5 104t96.5 130.5t61.5 147.5t21.5 156q0 90 -24 170t-66.5 146.5 t-100 119.5t-125 90t-142 56.5t-149.5 19.5q-82 0 -163.5 -21t-159.5 -66zM604 1135q0 15 7.5 22t19.5 7h407q57 -2 106 -24.5t85.5 -60t57 -86.5t20.5 -104q0 -78 -36.5 -141t-98.5 -99l143 -301q0 -2 1.5 -3.5t1.5 -3.5q0 -20 -27 -20h-211q-15 0 -22 18l-125 275h-74 v-269q0 -13 -7.5 -18.5t-19.5 -5.5h-201q-11 0 -19 5.5t-8 18.5v790zM1054 891q0 13 -5.5 26.5t-15.5 24t-24 17.5t-30 7h-120v-150h120q33 0 54 21.5t21 53.5z" />
<glyph unicode="&#xaf;" horiz-adv-x="1015" d="M78 1363q0 35 35 35h749q15 0 25 -8.5t10 -26.5v-124q0 -12 -9 -26t-26 -14h-749q-35 0 -35 40v124z" />
<glyph unicode="&#xb0;" horiz-adv-x="651" d="M326 1435q45 0 84 -16.5t68 -46t46 -68.5t17 -84t-17 -84.5t-46.5 -68.5t-68.5 -45.5t-83 -16.5q-45 0 -84 16.5t-68 45.5t-46 68.5t-17 84.5t16.5 84t45.5 68.5t68.5 46t84.5 16.5zM326 1310q-39 0 -65 -26t-26 -64q0 -39 26 -65t65 -26q37 0 63.5 26t26.5 65 q0 38 -26.5 64t-63.5 26z" />
<glyph unicode="&#xb1;" horiz-adv-x="994" d="M829 263q18 0 31 -11.5t13 -32.5v-172q0 -17 -12 -32t-32 -15h-665q-44 0 -44 47v172q0 44 44 44h665zM98 846q0 44 44 44h183v193q0 44 48 44h224q44 0 44 -44v-193h183q18 0 31 -11.5t13 -32.5v-203q0 -15 -12 -31.5t-32 -16.5h-183v-194q0 -18 -11 -31t-33 -13h-224 q-15 0 -31.5 12t-16.5 32v194h-183q-44 0 -44 48v203z" />
<glyph unicode="&#xb2;" horiz-adv-x="836" d="M429 833h224q29 0 41.5 -12.5t12.5 -40.5v-89q0 -25 -15.5 -40t-38.5 -15h-486q-23 0 -40 15t-17 40v80q0 6 1.5 9.5t3.5 7.5l5 12l348 357h-1q20 20 25 33t5 30q0 16 -7 31t-19.5 26t-29 18t-35.5 7t-35 -7.5t-27.5 -20t-18 -28.5t-6.5 -33v-44q0 -26 -14 -39t-39 -13 h-97q-28 0 -40 17t-12 35v44q0 61 23 112.5t62.5 89t92 58.5t111.5 21q60 0 114.5 -19.5t96 -54.5t66 -85t24.5 -111q0 -63 -27 -115t-63 -86z" />
<glyph unicode="&#xb3;" horiz-adv-x="757" d="M352 985q-29 0 -40.5 10.5t-11.5 33.5v103q0 53 52 53q16 0 26.5 4.5t16.5 12t8 16.5t2 18t-1 19t-5.5 19t-13.5 14.5t-25 5.5q-26 0 -34 -19.5t-8 -44.5q0 -27 -12.5 -40.5t-42.5 -13.5h-90q-26 0 -39.5 13.5t-13.5 37.5q0 69 19.5 118t53 79.5t78 44.5t94.5 14 q49 0 93 -19t77 -52t52.5 -77t19.5 -94q0 -76 -38 -129q44 -35 66.5 -82t22.5 -127q0 -60 -21.5 -112.5t-59.5 -90.5t-91 -60t-117 -22q-60 0 -112.5 12.5t-91 47t-61 94.5t-22.5 156q0 18 13 32t35 19h101q26 0 39 -13.5t13 -37.5q0 -33 6.5 -54t18 -33t27.5 -17t34 -5 q42 0 64.5 21.5t22.5 63.5q0 46 -22.5 63.5t-81.5 17.5z" />
<glyph unicode="&#xb4;" horiz-adv-x="526" d="M377 1216q-19 -42 -53 -42h-212q-19 0 -26 7t-7 18q0 8 3 18.5t8 20.5l88 205q12 22 23.5 32t30.5 10h219q26 0 26 -22q0 -8 -1 -17t-8 -20z" />
<glyph unicode="&#xb5;" horiz-adv-x="1342" d="M477 952q5 -4 7 -10t2 -12v-485q3 -30 21 -54.5t44.5 -42t56.5 -27.5t56 -10q30 0 58 11t50 30t35.5 45t13.5 57v477q0 25 12 37t39 12h251q21 0 35.5 -13.5t14.5 -37.5v-434q0 -44 -3 -86q-7 -89 -45.5 -166.5t-101.5 -134.5t-146 -89.5t-179 -32.5q-37 0 -68 10.5 t-57.5 27t-47.5 36t-39 36.5v-439q0 -20 -10 -30t-24.5 -15t-30.5 -5.5t-28 -0.5h-208q-27 0 -40 14.5t-13 37.5v1271q0 24 13.5 37.5t43.5 13.5h206h25t26.5 -2.5t21 -8t9.5 -17.5z" />
<glyph unicode="&#xb6;" horiz-adv-x="1527" d="M1343 1483q18 0 28.5 -7.5t15.5 -18t6.5 -22.5t1.5 -20v-97q0 -24 -4 -37.5t-11 -20.5t-17.5 -9t-22.5 -2h-140v-1177q0 -36 -6 -67q-15 -2 -31.5 -3.5t-34.5 -1.5h-101q-17 0 -33.5 1.5t-31.5 3.5q-3 16 -4 32.5t-1 34.5v1177h-216v-1177q0 -18 -1 -34.5t-4 -32.5 q-15 -2 -32 -3.5t-34 -1.5h-101q-17 0 -33.5 1.5t-31.5 3.5q-3 15 -4 31t-1 34v601q-86 0 -163 31.5t-134.5 86t-91 128.5t-33.5 158t32 158.5t87 130t128.5 87.5t157.5 32h861z" />
<glyph unicode="&#xb7;" horiz-adv-x="597" d="M102 565q0 37 14.5 70.5t39 58t57.5 39t70 14.5q39 0 72.5 -14.5t57.5 -39t38 -58t14 -70.5t-14 -70t-38 -57.5t-57.5 -39t-72.5 -14.5q-37 0 -70 14.5t-57.5 39t-39 57.5t-14.5 70z" />
<glyph unicode="&#xb8;" horiz-adv-x="557" d="M345 0q-22 -15 -22 -35q0 -16 15.5 -30t38 -28t49.5 -30.5t49.5 -38t38 -49t15.5 -64.5q0 -36 -24.5 -77t-69 -81t-106.5 -74.5t-138 -57.5h-5q-15 0 -33 22t-34 50t-27 54.5t-11 35.5q0 16 11 22q171 43 171 106q0 22 -15 39t-37.5 32.5t-48.5 31t-48.5 33.5t-37.5 40 t-15 51q0 11 3 22.5t17 25.5h264z" />
<glyph unicode="&#xb9;" horiz-adv-x="469" d="M30 1378q0 37 38 59l86 43q5 2 13 4.5t16 2.5h95q29 0 41.5 -13.5t12.5 -38.5v-738q0 -52 -52 -52h-97q-24 0 -38 12t-14 38v566l-24 -11q-5 -6 -9 -6.5t-13 -4.5q-29 0 -42 15t-13 40v84z" />
<glyph unicode="&#xba;" horiz-adv-x="1023" d="M103 1105q0 82 31 154.5t85 126.5t126 85.5t154 31.5t154.5 -31.5t126.5 -85.5t85 -126.5t31 -154.5t-31 -154t-85 -126t-126.5 -85t-154.5 -31t-154 31t-126 85t-85 126t-31 154zM353 1104q0 -30 11.5 -56.5t31 -46t45.5 -31t56 -11.5t56.5 11.5t46 31t31 46t11.5 56.5 t-11 56.5t-30.5 46t-46 31t-57.5 11.5q-30 0 -56 -11.5t-45.5 -31t-31 -46t-11.5 -56.5z" />
<glyph unicode="&#xbb;" horiz-adv-x="1474" d="M1410 582q15 -15 15 -31q0 -14 -15 -29l-523 -525q-12 -14 -30 -14q-15 0 -29 14l-147 143q-15 15 -15 36q0 18 12 30l344 346l-344 345q-7 8 -9 16t-3 15q2 17 14 31l144 144q12 13 33 13q20 0 29 -11zM766 582q15 -15 15 -31q0 -14 -15 -29l-523 -525q-12 -14 -30 -14 q-15 0 -29 14l-147 143q-15 15 -15 36q0 18 12 30l344 346l-344 345q-7 8 -9 16t-3 15q2 17 14 31l144 144q12 13 33 13q20 0 29 -11z" />
<glyph unicode="&#xbc;" horiz-adv-x="1485" d="M758 91q-31 0 -45 19t-14 41q0 12 4 21t9 19l357 609q12 20 22 25.5t24 5.5h100q11 0 20 -5t16 -13t10.5 -17.5t3.5 -18.5v-481h49q22 0 40 -12t18 -39v-100q0 -10 -5 -20t-13 -17.5t-18.5 -12t-21.5 -4.5h-49v-67q0 -26 -12.5 -38.5t-42.5 -12.5h-95q-28 0 -40 12.5 t-12 38.5v67h-305zM1063 296v123l-71 -123h71zM84 1378q0 37 38 59l86 43q5 2 13 4.5t16 2.5h95q29 0 41.5 -13.5t12.5 -38.5v-738q0 -52 -52 -52h-97q-24 0 -38 12t-14 38v566l-24 -11q-5 -6 -9 -6.5t-13 -4.5q-29 0 -42 15t-13 40v84zM960 1441q8 18 23.5 31t40.5 13h129 q20 0 35 -8t15 -23q0 -11 -2 -13l-763 -1397q-12 -25 -21.5 -34.5t-31.5 -9.5h-151q-42 0 -42 25q0 1 1 5t3 14z" />
<glyph unicode="&#xbd;" horiz-adv-x="1485" d="M960 1441q8 18 23.5 31t40.5 13h129q20 0 35 -8t15 -23q0 -11 -2 -13l-763 -1397q-12 -25 -21.5 -34.5t-31.5 -9.5h-151q-42 0 -42 25q0 1 1 5t3 14zM84 1378q0 37 38 59l86 43q5 2 13 4.5t16 2.5h95q29 0 41.5 -13.5t12.5 -38.5v-738q0 -52 -52 -52h-97q-24 0 -38 12 t-14 38v566l-24 -11q-5 -6 -9 -6.5t-13 -4.5q-29 0 -42 15t-13 40v84zM1131 170h224q29 0 41.5 -12.5t12.5 -40.5v-89q0 -25 -15.5 -40t-38.5 -15h-486q-23 0 -40 15t-17 40v80q0 6 1.5 9.5t3.5 7.5l5 12l348 357h-1q20 20 25 33t5 30q0 16 -7 31t-19.5 26t-29 18t-35.5 7 t-35 -7.5t-27.5 -20t-18 -28.5t-6.5 -33v-44q0 -26 -14 -39t-39 -13h-97q-28 0 -40 17t-12 35v44q0 61 23 112.5t62.5 89t92 58.5t111.5 21q60 0 114.5 -19.5t96 -54.5t66 -85t24.5 -111q0 -63 -27 -115t-63 -86z" />
<glyph unicode="&#xbe;" horiz-adv-x="1533" d="M1102 1441q8 18 23.5 31t40.5 13h129q20 0 35 -8t15 -23q0 -11 -2 -13l-763 -1397q-12 -25 -21.5 -34.5t-31.5 -9.5h-151q-42 0 -42 25q0 1 1 5t3 14zM343 1007q-29 0 -40.5 10.5t-11.5 33.5v103q0 53 52 53q16 0 26.5 4.5t16.5 12t8 16.5t2 18t-1 19t-5.5 19t-13.5 14.5 t-25 5.5q-26 0 -34 -19.5t-8 -44.5q0 -27 -12.5 -40.5t-42.5 -13.5h-90q-26 0 -39.5 13.5t-13.5 37.5q0 69 19.5 118t53 79.5t78 44.5t94.5 14q49 0 93 -19t77 -52t52.5 -77t19.5 -94q0 -76 -38 -129q44 -35 66.5 -82t22.5 -127q0 -60 -21.5 -112.5t-59.5 -90.5t-91 -60 t-117 -22q-60 0 -112.5 12.5t-91 47t-61 94.5t-22.5 156q0 18 13 32t35 19h101q26 0 39 -13.5t13 -37.5q0 -33 6.5 -54t18 -33t27.5 -17t34 -5q42 0 64.5 21.5t22.5 63.5q0 46 -22.5 63.5t-81.5 17.5zM814 93q-31 0 -45 19t-14 41q0 12 4 21t9 19l357 609q12 20 22 25.5 t24 5.5h100q11 0 20 -5t16 -13t10.5 -17.5t3.5 -18.5v-481h49q22 0 40 -12t18 -39v-100q0 -10 -5 -20t-13 -17.5t-18.5 -12t-21.5 -4.5h-49v-67q0 -26 -12.5 -38.5t-42.5 -12.5h-95q-28 0 -40 12.5t-12 38.5v67h-305zM1119 298v123l-71 -123h71z" />
<glyph unicode="&#xbf;" horiz-adv-x="1122" d="M742.094 399.145q0 -60.9844 -25.9932 -106.474q-25.9941 -45.4893 -64.9844 -83.4795q-38.9902 -37.9912 -84.9795 -70.9824q-45.9883 -32.9922 -84.9785 -68.4834q-38.9912 -35.4912 -64.9844 -76.4814q-25.9941 -40.9902 -25.9941 -93.9775 q0 -31.9922 13.9971 -61.9844q13.9961 -29.9932 37.4902 -52.9873q23.4951 -22.9941 54.4873 -36.4912t65.9834 -13.4971q33.9922 0 64.9844 13.9971t54.9863 37.9912t37.9912 54.9863q13.9961 30.9922 13.9961 63.9844v17.9951q0 22.9951 12.9971 30.9932t32.9922 7.99805 h247.939q24.9932 0 32.4922 -13.4971q7.49805 -13.4971 7.49805 -27.4932v-32.9922q0 -104.975 -41.4902 -192.453q-41.4893 -87.4785 -110.973 -150.463t-160.961 -97.9766q-91.4775 -34.9912 -191.453 -34.9912q-102.975 0 -193.952 36.9912 q-90.9785 36.9902 -159.462 102.475t-107.974 154.962q-39.4902 89.4785 -39.4902 194.453q0 92.9775 22.9941 154.962q22.9951 61.9844 57.4863 104.975q34.4922 42.9893 74.9814 71.4824q40.4902 28.4932 76.4814 53.9863q35.9912 25.4941 61.9854 52.9873 q25.9932 27.4932 30.9922 68.4834v80.9805q0 50.9873 54.9863 50.9873h249.939q49.9873 0 49.9873 -50.9873v-89.9785zM750.092 835.038q0 -36.9912 -14.4961 -70.4824q-14.4961 -33.4922 -38.9902 -57.9863q-24.4941 -24.4932 -57.4863 -38.9902 q-32.9922 -14.4961 -69.9824 -14.4961q-38.9912 0 -72.4824 14.4961q-33.4922 14.4971 -57.4863 38.9902q-23.9941 24.4941 -37.9902 57.9863q-13.9971 33.4912 -13.9971 70.4824t13.9971 69.9834q13.9961 32.9922 37.9902 57.4854q23.9941 24.4941 57.4863 38.9912 q33.4912 14.4961 72.4824 14.4961q36.9902 0 69.9824 -14.4961q32.9922 -14.4971 57.4863 -38.9912q24.4941 -24.4932 38.9902 -57.4854t14.4961 -69.9834z" />
<glyph unicode="&#xc0;" horiz-adv-x="1531" d="M586 1446q5 12 21 25.5t33 13.5h256q17 0 30 -9.5t17 -19.5l550 -1411q3 -9 3 -15q0 -30 -44 -30h-287q-23 0 -35.5 8.5t-19.5 28.5q-20 51 -39 101.5t-38 101.5h-531q-19 -51 -38.5 -101.5t-38.5 -101.5q-14 -37 -51 -37h-295q-16 0 -27.5 6.5t-11.5 20.5q0 5 3 13z M768 1018q-19 -51 -38 -110t-38.5 -119t-39 -118.5t-38.5 -109.5h307zM876 1737q7 -11 8 -20t1 -17q0 -22 -26 -22h-219q-19 0 -30.5 10t-23.5 32l-88 205q-5 10 -8 20.5t-3 18.5q0 11 7 18t26 7h212q34 0 53 -42z" />
<glyph unicode="&#xc1;" horiz-adv-x="1531" d="M586 1446q5 12 21 25.5t33 13.5h256q17 0 30 -9.5t17 -19.5l550 -1411q3 -9 3 -15q0 -30 -44 -30h-287q-23 0 -35.5 8.5t-19.5 28.5q-20 51 -39 101.5t-38 101.5h-531q-19 -51 -38.5 -101.5t-38.5 -101.5q-14 -37 -51 -37h-295q-16 0 -27.5 6.5t-11.5 20.5q0 5 3 13z M768 1018q-19 -51 -38 -110t-38.5 -119t-39 -118.5t-38.5 -109.5h307zM954 1720q-19 -42 -53 -42h-212q-19 0 -26 7t-7 18q0 8 3 18.5t8 20.5l88 205q12 22 23.5 32t30.5 10h219q26 0 26 -22q0 -8 -1 -17t-8 -20z" />
<glyph unicode="&#xc2;" horiz-adv-x="1531" d="M586 1446q5 12 21 25.5t33 13.5h256q17 0 30 -9.5t17 -19.5l550 -1411q3 -9 3 -15q0 -30 -44 -30h-287q-23 0 -35.5 8.5t-19.5 28.5q-20 51 -39 101.5t-38 101.5h-531q-19 -51 -38.5 -101.5t-38.5 -101.5q-14 -37 -51 -37h-295q-16 0 -27.5 6.5t-11.5 20.5q0 5 3 13z M768 1018q-19 -51 -38 -110t-38.5 -119t-39 -118.5t-38.5 -109.5h307zM746 2093q7 5 11 7t11 2q8 0 20 -9l277 -276q8 -6 8 -23q0 -9 -9 -19l-108 -110q-7 -5 -13.5 -8t-13.5 -3q-5 0 -11 2t-11 7l-139 142l-142 -143q-7 -2 -13 -4t-10 -2q-12 0 -21 9l-110 107 q-5 5 -6.5 10.5t-2.5 11.5q0 8 2 14t7 8z" />
<glyph unicode="&#xc3;" horiz-adv-x="1531" d="M586 1446q5 12 21 25.5t33 13.5h256q17 0 30 -9.5t17 -19.5l550 -1411q3 -9 3 -15q0 -30 -44 -30h-287q-23 0 -35.5 8.5t-19.5 28.5q-20 51 -39 101.5t-38 101.5h-531q-19 -51 -38.5 -101.5t-38.5 -101.5q-14 -37 -51 -37h-295q-16 0 -27.5 6.5t-11.5 20.5q0 5 3 13z M768 1018q-19 -51 -38 -110t-38.5 -119t-39 -118.5t-38.5 -109.5h307zM420 1872q39 54 94 84t119 30q37 -2 78.5 -15t76.5 -36l55 -35q15 -10 23.5 -12.5t21.5 -2.5q20 0 35 8t26 22l30 36q9 11 26 11q8 0 19 -8l105 -103q12 -12 12 -26q0 -10 -6 -17l-25 -32 q-42 -54 -97.5 -84t-121.5 -30q-40 0 -80 13.5t-76 36.5l-55 35q-11 7 -21 11t-24 4q-20 0 -34 -8t-25 -21l-31 -38q-4 -6 -10.5 -8t-14.5 -2q-6 0 -10.5 0.5t-9.5 5.5l-106 104q-5 5 -8.5 9t-3.5 14q0 2 1 4t5 7.5t11.5 15.5t20.5 27z" />
<glyph unicode="&#xc4;" horiz-adv-x="1531" d="M586 1446q5 12 21 25.5t33 13.5h256q17 0 30 -9.5t17 -19.5l550 -1411q3 -9 3 -15q0 -30 -44 -30h-287q-23 0 -35.5 8.5t-19.5 28.5q-20 51 -39 101.5t-38 101.5h-531q-19 -51 -38.5 -101.5t-38.5 -101.5q-14 -37 -51 -37h-295q-16 0 -27.5 6.5t-11.5 20.5q0 5 3 13z M768 1018q-19 -51 -38 -110t-38.5 -119t-39 -118.5t-38.5 -109.5h307zM387 1772q0 33 12.5 61.5t34 50t50 34t60.5 12.5q34 0 63 -12.5t50 -34t33 -50t12 -61.5q0 -32 -12 -60.5t-33 -50t-50 -34t-63 -12.5q-32 0 -60.5 12.5t-50 34t-34 50t-12.5 60.5zM827 1774 q0 33 12.5 62t33.5 50.5t49.5 34t60.5 12.5q34 0 63 -12.5t50.5 -34t33.5 -50.5t12 -62q0 -32 -12 -60.5t-33.5 -49.5t-50.5 -33.5t-63 -12.5q-32 0 -60.5 12.5t-49.5 33.5t-33.5 49.5t-12.5 60.5z" />
<glyph unicode="&#xc5;" horiz-adv-x="1531" d="M586 1446q5 12 21 25.5t33 13.5h256q17 0 30 -9.5t17 -19.5l550 -1411q3 -9 3 -15q0 -30 -44 -30h-287q-23 0 -35.5 8.5t-19.5 28.5q-20 51 -39 101.5t-38 101.5h-531q-19 -51 -38.5 -101.5t-38.5 -101.5q-14 -37 -51 -37h-295q-16 0 -27.5 6.5t-11.5 20.5q0 5 3 13z M768 1018q-19 -51 -38 -110t-38.5 -119t-39 -118.5t-38.5 -109.5h307zM764 2026q43 0 81.5 -16.5t67.5 -45.5t45.5 -67.5t16.5 -81.5q0 -44 -16.5 -82t-45.5 -66.5t-67.5 -44.5t-81.5 -16q-44 0 -82 16t-66.5 44.5t-44.5 66.5t-16 82q0 43 16 81.5t44.5 67.5t66.5 45.5 t82 16.5zM765 1876q-26 0 -42 -17t-16 -43t16 -42t42 -16t43 16t17 42t-17 43t-43 17z" />
<glyph unicode="&#xc6;" horiz-adv-x="2292" d="M1111 1446q11 13 31 26t40 13h959q23 0 34.5 -13t11.5 -35v-248q0 -17 -12 -32.5t-35 -15.5h-633v-252h131.5h126.5t126.5 0.5t131.5 0.5q19 0 31.5 -10t12.5 -30v-216q0 -14 -11 -27t-32 -13h-523v-250h679q24 0 34.5 -11.5t10.5 -34.5v-252q0 -20 -14 -33t-34 -13 h-1024q-41 0 -41 37q0 51 1 101.5t3 101.5h-520l-152 -203q-28 -37 -66 -37h-314q-28 0 -28 17q0 5 2.5 10.5t6.5 12.5q160 216 426.5 567t639.5 839zM834 561h300v398z" />
<glyph unicode="&#xc7;" horiz-adv-x="1409" d="M1294 1377q12 -7 20 -17t8 -24q0 -11 -6 -23l-169 -240q-14 -20 -29 -20q-10 0 -25 9q-49 37 -108 57t-125 20q-82 0 -151 -31t-119 -85t-78 -126t-28 -154t28 -153.5t78 -125t119 -84.5t151 -31q66 0 126 20.5t109 57.5q15 9 26 9q14 0 28 -18l171 -246q6 -12 6 -22 q0 -14 -8.5 -23t-19.5 -17q-94 -63 -202.5 -97.5t-228.5 -34.5q-106 0 -203.5 27t-182.5 77t-154.5 119.5t-119.5 154t-77 182t-27 203.5t27 203.5t77 183t119.5 155.5t154.5 119.5t182.5 77t203.5 27.5q119 0 226 -33.5t201 -96.5zM977 0q-22 -15 -22 -35q0 -16 15.5 -30 t38 -28t49.5 -30.5t49.5 -38t38 -49t15.5 -64.5q0 -36 -24.5 -77t-69 -81t-106.5 -74.5t-138 -57.5h-5q-15 0 -33 22t-34 50t-27 54.5t-11 35.5q0 16 11 22q171 43 171 106q0 22 -15 39t-37.5 32.5t-48.5 31t-48.5 33.5t-37.5 40t-15 51q0 11 3 22.5t17 25.5h264z" />
<glyph unicode="&#xc8;" horiz-adv-x="1350" d="M161 1439q0 21 11.5 33.5t32.5 12.5h993q22 0 34 -13t12 -35v-248q0 -17 -12 -32.5t-35 -15.5h-648v-247h500q19 0 31.5 -9t12.5 -30v-216q0 -14 -11 -27t-32 -13h-501v-255h672q45 0 45 -46v-252q0 -20 -14 -33t-35 -13h-1012q-20 0 -32 10.5t-12 32.5v1396zM859 1737 q7 -11 8 -20t1 -17q0 -22 -26 -22h-219q-19 0 -30.5 10t-23.5 32l-88 205q-5 10 -8 20.5t-3 18.5q0 11 7 18t26 7h212q34 0 53 -42z" />
<glyph unicode="&#xc9;" horiz-adv-x="1350" d="M161 1439q0 21 11.5 33.5t32.5 12.5h993q22 0 34 -13t12 -35v-248q0 -17 -12 -32.5t-35 -15.5h-648v-247h500q19 0 31.5 -9t12.5 -30v-216q0 -14 -11 -27t-32 -13h-501v-255h672q45 0 45 -46v-252q0 -20 -14 -33t-35 -13h-1012q-20 0 -32 10.5t-12 32.5v1396zM920 1720 q-19 -42 -53 -42h-212q-19 0 -26 7t-7 18q0 8 3 18.5t8 20.5l88 205q12 22 23.5 32t30.5 10h219q26 0 26 -22q0 -8 -1 -17t-8 -20z" />
<glyph unicode="&#xca;" horiz-adv-x="1350" d="M161 1439q0 21 11.5 33.5t32.5 12.5h993q22 0 34 -13t12 -35v-248q0 -17 -12 -32.5t-35 -15.5h-648v-247h500q19 0 31.5 -9t12.5 -30v-216q0 -14 -11 -27t-32 -13h-501v-255h672q45 0 45 -46v-252q0 -20 -14 -33t-35 -13h-1012q-20 0 -32 10.5t-12 32.5v1396zM672 2093 q7 5 11 7t11 2q8 0 20 -9l277 -276q8 -6 8 -23q0 -9 -9 -19l-108 -110q-7 -5 -13.5 -8t-13.5 -3q-5 0 -11 2t-11 7l-139 142l-142 -143q-7 -2 -13 -4t-10 -2q-12 0 -21 9l-110 107q-5 5 -6.5 10.5t-2.5 11.5q0 8 2 14t7 8z" />
<glyph unicode="&#xcb;" horiz-adv-x="1350" d="M161 1439q0 21 11.5 33.5t32.5 12.5h993q22 0 34 -13t12 -35v-248q0 -17 -12 -32.5t-35 -15.5h-648v-247h500q19 0 31.5 -9t12.5 -30v-216q0 -14 -11 -27t-32 -13h-501v-255h672q45 0 45 -46v-252q0 -20 -14 -33t-35 -13h-1012q-20 0 -32 10.5t-12 32.5v1396zM311 1772 q0 33 12.5 61.5t34 50t50 34t60.5 12.5q34 0 63 -12.5t50 -34t33 -50t12 -61.5q0 -32 -12 -60.5t-33 -50t-50 -34t-63 -12.5q-32 0 -60.5 12.5t-50 34t-34 50t-12.5 60.5zM751 1774q0 33 12.5 62t33.5 50.5t49.5 34t60.5 12.5q34 0 63 -12.5t50.5 -34t33.5 -50.5t12 -62 q0 -32 -12 -60.5t-33.5 -49.5t-50.5 -33.5t-63 -12.5q-32 0 -60.5 12.5t-49.5 33.5t-33.5 49.5t-12.5 60.5z" />
<glyph unicode="&#xcc;" horiz-adv-x="709" d="M165 1441q0 18 11 31t33 13h294q15 0 32 -12t17 -32v-1397q0 -44 -49 -44h-294q-44 0 -44 44v1397zM501 1737q7 -11 8 -20t1 -17q0 -22 -26 -22h-219q-19 0 -30.5 10t-23.5 32l-88 205q-5 10 -8 20.5t-3 18.5q0 11 7 18t26 7h212q34 0 53 -42z" />
<glyph unicode="&#xcd;" horiz-adv-x="709" d="M165 1441q0 18 11 31t33 13h294q15 0 32 -12t17 -32v-1397q0 -44 -49 -44h-294q-44 0 -44 44v1397zM515 1720q-19 -42 -53 -42h-212q-19 0 -26 7t-7 18q0 8 3 18.5t8 20.5l88 205q12 22 23.5 32t30.5 10h219q26 0 26 -22q0 -8 -1 -17t-8 -20z" />
<glyph unicode="&#xce;" horiz-adv-x="709" d="M165 1441q0 18 11 31t33 13h294q15 0 32 -12t17 -32v-1397q0 -44 -49 -44h-294q-44 0 -44 44v1397zM334 2093q7 5 11 7t11 2q8 0 20 -9l277 -276q8 -6 8 -23q0 -9 -9 -19l-108 -110q-7 -5 -13.5 -8t-13.5 -3q-5 0 -11 2t-11 7l-139 142l-142 -143q-7 -2 -13 -4t-10 -2 q-12 0 -21 9l-110 107q-5 5 -6.5 10.5t-2.5 11.5q0 8 2 14t7 8z" />
<glyph unicode="&#xcf;" horiz-adv-x="713" d="M165 1441q0 18 11 31t33 13h294q15 0 32 -12t17 -32v-1397q0 -44 -49 -44h-294q-44 0 -44 44v1397zM-22 1773q0 33 12.5 61.5t34 50t50 34t60.5 12.5q34 0 63 -12.5t50 -34t33 -50t12 -61.5q0 -32 -12 -60.5t-33 -50t-50 -34t-63 -12.5q-32 0 -60.5 12.5t-50 34t-34 50 t-12.5 60.5zM418 1775q0 33 12.5 62t33.5 50.5t49.5 34t60.5 12.5q34 0 63 -12.5t50.5 -34t33.5 -50.5t12 -62q0 -32 -12 -60.5t-33.5 -49.5t-50.5 -33.5t-63 -12.5q-32 0 -60.5 12.5t-49.5 33.5t-33.5 49.5t-12.5 60.5z" />
<glyph unicode="&#xd0;" horiz-adv-x="1547" d="M1460 741q0 -106 -27 -201.5t-77 -178t-119.5 -149.5t-154 -114t-182.5 -72.5t-203 -25.5h-493q-18 0 -32 8t-14 34v1397q0 21 11.5 34t34.5 13h493q105 0 202.5 -26t182 -74t154.5 -115t119.5 -150t77 -179t27.5 -201zM545 1127v-769h84q23 0 45 1.5t44 3.5 q75 6 140 36.5t113.5 80t76 116.5t27.5 146q0 84 -31.5 154.5t-85.5 122t-126.5 80t-154.5 28.5h-132zM27.3096 821.547q0 39.6738 38.2852 39.6738h593.42q15.6621 0 26.9736 -10.3691t11.3115 -29.3047v-183.039q0 -13.5254 -10.4414 -28.4023 q-10.4414 -14.8779 -27.8438 -14.8779h-593.42q-38.2852 0 -38.2852 43.2803v183.039z" />
<glyph unicode="&#xd1;" horiz-adv-x="1643" d="M169 1441q0 18 11 31t33 13h327q14 0 29 -7t26 -24q126 -204 252 -404t253 -404v801q4 18 16 28t28 10h285q21 0 35 -11.5t14 -32.5v-1402q0 -20 -12 -29.5t-33 -9.5h-319q-13 0 -23 9t-21 24q-132 219 -263 435t-264 435v-859q0 -22 -10 -33t-36 -11h-284 q-23 0 -33.5 12.5t-10.5 30.5v1398zM478 1872q39 54 94 84t119 30q37 -2 78.5 -15t76.5 -36l55 -35q15 -10 23.5 -12.5t21.5 -2.5q20 0 35 8t26 22l30 36q9 11 26 11q8 0 19 -8l105 -103q12 -12 12 -26q0 -10 -6 -17l-25 -32q-42 -54 -97.5 -84t-121.5 -30q-40 0 -80 13.5 t-76 36.5l-55 35q-11 7 -21 11t-24 4q-20 0 -34 -8t-25 -21l-31 -38q-4 -6 -10.5 -8t-14.5 -2q-6 0 -10.5 0.5t-9.5 5.5l-106 104q-5 5 -8.5 9t-3.5 14q0 2 1 4t5 7.5t11.5 15.5t20.5 27z" />
<glyph unicode="&#xd2;" horiz-adv-x="1705" d="M478 742q0 -83 28 -155t78.5 -125.5t119.5 -84t152 -30.5t152.5 30.5t120 84t78.5 125.5t28 155q0 82 -28 154.5t-78.5 126.5t-120 85t-152.5 31t-152 -31t-119.5 -85t-78.5 -126.5t-28 -154.5zM92 741q0 106 27 203.5t77 183t119.5 155.5t154.5 119.5t182.5 77 t203.5 27.5q105 0 203 -27.5t183 -77t155 -119.5t119.5 -155.5t77 -183t27.5 -203.5t-27.5 -203.5t-77 -182t-119.5 -154t-155 -119.5t-183 -77t-203 -27q-106 0 -203.5 27t-182.5 77t-154.5 119.5t-119.5 154t-77 182t-27 203.5zM950 1737q7 -11 8 -20t1 -17q0 -22 -26 -22 h-219q-19 0 -30.5 10t-23.5 32l-88 205q-5 10 -8 20.5t-3 18.5q0 11 7 18t26 7h212q34 0 53 -42z" />
<glyph unicode="&#xd3;" horiz-adv-x="1705" d="M478 742q0 -83 28 -155t78.5 -125.5t119.5 -84t152 -30.5t152.5 30.5t120 84t78.5 125.5t28 155q0 82 -28 154.5t-78.5 126.5t-120 85t-152.5 31t-152 -31t-119.5 -85t-78.5 -126.5t-28 -154.5zM92 741q0 106 27 203.5t77 183t119.5 155.5t154.5 119.5t182.5 77 t203.5 27.5q105 0 203 -27.5t183 -77t155 -119.5t119.5 -155.5t77 -183t27.5 -203.5t-27.5 -203.5t-77 -182t-119.5 -154t-155 -119.5t-183 -77t-203 -27q-106 0 -203.5 27t-182.5 77t-154.5 119.5t-119.5 154t-77 182t-27 203.5zM978 1720q-19 -42 -53 -42h-212 q-19 0 -26 7t-7 18q0 8 3 18.5t8 20.5l88 205q12 22 23.5 32t30.5 10h219q26 0 26 -22q0 -8 -1 -17t-8 -20z" />
<glyph unicode="&#xd4;" horiz-adv-x="1705" d="M478 742q0 -83 28 -155t78.5 -125.5t119.5 -84t152 -30.5t152.5 30.5t120 84t78.5 125.5t28 155q0 82 -28 154.5t-78.5 126.5t-120 85t-152.5 31t-152 -31t-119.5 -85t-78.5 -126.5t-28 -154.5zM92 741q0 106 27 203.5t77 183t119.5 155.5t154.5 119.5t182.5 77 t203.5 27.5q105 0 203 -27.5t183 -77t155 -119.5t119.5 -155.5t77 -183t27.5 -203.5t-27.5 -203.5t-77 -182t-119.5 -154t-155 -119.5t-183 -77t-203 -27q-106 0 -203.5 27t-182.5 77t-154.5 119.5t-119.5 154t-77 182t-27 203.5zM858 2093q7 5 11 7t11 2q8 0 20 -9 l277 -276q8 -6 8 -23q0 -9 -9 -19l-108 -110q-7 -5 -13.5 -8t-13.5 -3q-5 0 -11 2t-11 7l-139 142l-142 -143q-7 -2 -13 -4t-10 -2q-12 0 -21 9l-110 107q-5 5 -6.5 10.5t-2.5 11.5q0 8 2 14t7 8z" />
<glyph unicode="&#xd5;" horiz-adv-x="1705" d="M478 742q0 -83 28 -155t78.5 -125.5t119.5 -84t152 -30.5t152.5 30.5t120 84t78.5 125.5t28 155q0 82 -28 154.5t-78.5 126.5t-120 85t-152.5 31t-152 -31t-119.5 -85t-78.5 -126.5t-28 -154.5zM92 741q0 106 27 203.5t77 183t119.5 155.5t154.5 119.5t182.5 77 t203.5 27.5q105 0 203 -27.5t183 -77t155 -119.5t119.5 -155.5t77 -183t27.5 -203.5t-27.5 -203.5t-77 -182t-119.5 -154t-155 -119.5t-183 -77t-203 -27q-106 0 -203.5 27t-182.5 77t-154.5 119.5t-119.5 154t-77 182t-27 203.5zM520 1872q39 54 94 84t119 30 q37 -2 78.5 -15t76.5 -36l55 -35q15 -10 23.5 -12.5t21.5 -2.5q20 0 35 8t26 22l30 36q9 11 26 11q8 0 19 -8l105 -103q12 -12 12 -26q0 -10 -6 -17l-25 -32q-42 -54 -97.5 -84t-121.5 -30q-40 0 -80 13.5t-76 36.5l-55 35q-11 7 -21 11t-24 4q-20 0 -34 -8t-25 -21l-31 -38 q-4 -6 -10.5 -8t-14.5 -2q-6 0 -10.5 0.5t-9.5 5.5l-106 104q-5 5 -8.5 9t-3.5 14q0 2 1 4t5 7.5t11.5 15.5t20.5 27z" />
<glyph unicode="&#xd6;" horiz-adv-x="1705" d="M478 742q0 -83 28 -155t78.5 -125.5t119.5 -84t152 -30.5t152.5 30.5t120 84t78.5 125.5t28 155q0 82 -28 154.5t-78.5 126.5t-120 85t-152.5 31t-152 -31t-119.5 -85t-78.5 -126.5t-28 -154.5zM92 741q0 106 27 203.5t77 183t119.5 155.5t154.5 119.5t182.5 77 t203.5 27.5q105 0 203 -27.5t183 -77t155 -119.5t119.5 -155.5t77 -183t27.5 -203.5t-27.5 -203.5t-77 -182t-119.5 -154t-155 -119.5t-183 -77t-203 -27q-106 0 -203.5 27t-182.5 77t-154.5 119.5t-119.5 154t-77 182t-27 203.5zM474 1773q0 33 12.5 61.5t34 50t50 34 t60.5 12.5q34 0 63 -12.5t50 -34t33 -50t12 -61.5q0 -32 -12 -60.5t-33 -50t-50 -34t-63 -12.5q-32 0 -60.5 12.5t-50 34t-34 50t-12.5 60.5zM914 1775q0 33 12.5 62t33.5 50.5t49.5 34t60.5 12.5q34 0 63 -12.5t50.5 -34t33.5 -50.5t12 -62q0 -32 -12 -60.5t-33.5 -49.5 t-50.5 -33.5t-63 -12.5q-32 0 -60.5 12.5t-49.5 33.5t-33.5 49.5t-12.5 60.5z" />
<glyph unicode="&#xd7;" horiz-adv-x="900" d="M101 403q-31 31 0 63l130 129l-137 136q-30 32 3 65l158 159q31 30 63 0l136 -137l129 130q13 13 30.5 14t32.5 -14l143 -144q10 -11 13 -31t-10 -34l-129 -129l137 -137q13 -13 14 -30t-14 -33l-159 -158q-5 -5 -13.5 -9t-17.5 -4.5t-18 1.5t-16 9l-137 137l-129 -129 q-32 -32 -65 3z" />
<glyph unicode="&#xd8;" horiz-adv-x="1705" d="M478 742q0 -83 28 -155t78.5 -125.5t119.5 -84t152 -30.5t152.5 30.5t120 84t78.5 125.5t28 155q0 82 -28 154.5t-78.5 126.5t-120 85t-152.5 31t-152 -31t-119.5 -85t-78.5 -126.5t-28 -154.5zM379 144q-66 52 -119 118t-90.5 142t-57.5 161t-20 176q0 106 27 203.5 t77 183t119.5 155.5t154.5 119.5t182.5 77t203.5 27.5q67 0 132 -12l38 83q9 20 26 34t44 14h304q22 0 39 -8.5t17 -25.5q0 -12 -2 -14l-60 -133l-52 -113q64 -53 115.5 -118.5t88 -140.5t56 -159t19.5 -173q0 -106 -27.5 -203.5t-77 -182t-119.5 -154t-155 -119.5t-183 -77 t-203 -27q-32 0 -62 2.5t-60 7.5l-35 -78q-12 -27 -23 -37.5t-34 -10.5h-328q-45 0 -45 28q0 2 1 5q1 4 3 15z" />
<glyph unicode="&#xd9;" horiz-adv-x="1550" d="M544 593q0 -74 20.5 -125.5t54 -84t78 -47.5t92.5 -15q50 0 94.5 17.5t78 52t53 85.5t19.5 117v848q0 18 12.5 31t33.5 13h292q23 0 36 -13.5t13 -30.5v-843q0 -175 -51.5 -294t-138.5 -191.5t-201.5 -104t-240.5 -31.5t-241 32.5t-202 106t-138.5 192t-51.5 290.5v843 q0 17 11.5 30.5t28.5 13.5h300q15 0 31.5 -12.5t16.5 -31.5v-848zM968 1737q7 -11 8 -20t1 -17q0 -22 -26 -22h-219q-19 0 -30.5 10t-23.5 32l-88 205q-5 10 -8 20.5t-3 18.5q0 11 7 18t26 7h212q34 0 53 -42z" />
<glyph unicode="&#xda;" horiz-adv-x="1550" d="M544 593q0 -74 20.5 -125.5t54 -84t78 -47.5t92.5 -15q50 0 94.5 17.5t78 52t53 85.5t19.5 117v848q0 18 12.5 31t33.5 13h292q23 0 36 -13.5t13 -30.5v-843q0 -175 -51.5 -294t-138.5 -191.5t-201.5 -104t-240.5 -31.5t-241 32.5t-202 106t-138.5 192t-51.5 290.5v843 q0 17 11.5 30.5t28.5 13.5h300q15 0 31.5 -12.5t16.5 -31.5v-848zM912 1720q-19 -42 -53 -42h-212q-19 0 -26 7t-7 18q0 8 3 18.5t8 20.5l88 205q12 22 23.5 32t30.5 10h219q26 0 26 -22q0 -8 -1 -17t-8 -20z" />
<glyph unicode="&#xdb;" horiz-adv-x="1550" d="M544 593q0 -74 20.5 -125.5t54 -84t78 -47.5t92.5 -15q50 0 94.5 17.5t78 52t53 85.5t19.5 117v848q0 18 12.5 31t33.5 13h292q23 0 36 -13.5t13 -30.5v-843q0 -175 -51.5 -294t-138.5 -191.5t-201.5 -104t-240.5 -31.5t-241 32.5t-202 106t-138.5 192t-51.5 290.5v843 q0 17 11.5 30.5t28.5 13.5h300q15 0 31.5 -12.5t16.5 -31.5v-848zM733 2093q7 5 11 7t11 2q8 0 20 -9l277 -276q8 -6 8 -23q0 -9 -9 -19l-108 -110q-7 -5 -13.5 -8t-13.5 -3q-5 0 -11 2t-11 7l-139 142l-142 -143q-7 -2 -13 -4t-10 -2q-12 0 -21 9l-110 107q-5 5 -6.5 10.5 t-2.5 11.5q0 8 2 14t7 8z" />
<glyph unicode="&#xdc;" horiz-adv-x="1550" d="M544 593q0 -74 20.5 -125.5t54 -84t78 -47.5t92.5 -15q50 0 94.5 17.5t78 52t53 85.5t19.5 117v848q0 18 12.5 31t33.5 13h292q23 0 36 -13.5t13 -30.5v-843q0 -175 -51.5 -294t-138.5 -191.5t-201.5 -104t-240.5 -31.5t-241 32.5t-202 106t-138.5 192t-51.5 290.5v843 q0 17 11.5 30.5t28.5 13.5h300q15 0 31.5 -12.5t16.5 -31.5v-848zM419 1772q0 33 12.5 61.5t34 50t50 34t60.5 12.5q34 0 63 -12.5t50 -34t33 -50t12 -61.5q0 -32 -12 -60.5t-33 -50t-50 -34t-63 -12.5q-32 0 -60.5 12.5t-50 34t-34 50t-12.5 60.5zM859 1774q0 33 12.5 62 t33.5 50.5t49.5 34t60.5 12.5q34 0 63 -12.5t50.5 -34t33.5 -50.5t12 -62q0 -32 -12 -60.5t-33.5 -49.5t-50.5 -33.5t-63 -12.5q-32 0 -60.5 12.5t-49.5 33.5t-33.5 49.5t-12.5 60.5z" />
<glyph unicode="&#xdd;" horiz-adv-x="1410" d="M706 937l242 517q6 12 10 17.5t8 8t8 3t11 2.5h385q7 0 11.5 -4.5t4.5 -10.5q0 -5 -4.5 -11t-9.5 -14l-474 -839v-559q0 -47 -46 -47h-300q-20 0 -31 12.5t-11 34.5v561l-473 837q-5 8 -9 14t-4 11q0 6 4 10.5t11 4.5h385q7 -2 11 -2.5t8 -3t8 -8t11 -17.5zM815 1720 q-19 -42 -53 -42h-212q-19 0 -26 7t-7 18q0 8 3 18.5t8 20.5l88 205q12 22 23.5 32t30.5 10h219q26 0 26 -22q0 -8 -1 -17t-8 -20z" />
<glyph unicode="&#xde;" horiz-adv-x="1366" d="M161 1441q0 17 10.5 30.5t33.5 13.5h294q15 0 32 -12t17 -32v-220h297q69 0 130 -19t112 -52.5t92 -80t69.5 -100.5t43.5 -113.5t15 -120.5q0 -90 -32.5 -176.5t-92.5 -154t-144 -108.5t-186 -41h-303v-211q0 -44 -50 -44h-294q-44 0 -44 44v1397zM915 737q0 30 -10.5 60 t-30.5 53.5t-48.5 38.5t-64.5 15h-212v-334h212q36 0 65 14.5t48.5 37.5t30 53t10.5 62z" />
<glyph unicode="&#xdf;" horiz-adv-x="1245" d="M161 1061q0 80 19.5 143t53.5 110t80 80t98 53.5t108.5 30.5t112.5 11h6q84 0 160.5 -29.5t135 -84.5t93 -134.5t34.5 -178.5q0 -40 -7.5 -71.5t-22.5 -58t-37 -49.5t-51 -46q61 -30 103 -71.5t68.5 -92.5t38.5 -109.5t12 -123.5q0 -225 -125.5 -338t-393.5 -113 q-44 0 -44 45v235q0 14 12 28.5t32 14.5h61q23 1 44 13.5t36.5 33.5t24.5 48t9 57v43q0 35 -17.5 61.5t-43.5 44.5t-57.5 27t-59.5 9q-17 0 -30.5 10t-13.5 33q0 54 -0.5 108.5t-0.5 108.5q0 20 12.5 31.5t32.5 11.5q42 0 63.5 30t21.5 80q0 16 -4 37.5t-14.5 41t-29.5 33 t-48 13.5q-38 0 -61 -12.5t-35.5 -32t-16.5 -42t-4 -41.5v-1102q0 -8 -0.5 -15t-0.5 -14v-261q0 -51 -55 -51h-250q-50 0 -50 51z" />
<glyph unicode="&#xe0;" horiz-adv-x="1279" d="M1137 57q0 -29 -18.5 -43t-41.5 -14h-195q-17 0 -26.5 4.5t-16 12t-10.5 18.5t-9 24l-22 58q-14 -21 -30.5 -44.5t-41 -44t-59 -33.5t-83.5 -13h-11q-108 0 -197.5 38.5t-154.5 106t-101 160.5t-36 201q0 111 35.5 204t100 160.5t154.5 105.5t199 38q51 0 92.5 -14.5 t73 -38t53.5 -53.5t35 -61l30 93q7 21 11.5 32.5t10.5 17.5t15 7.5t25 1.5h158q24 0 42 -15.5t18 -41.5v-867zM439 485q0 -40 12 -74t34 -59t53.5 -39t69.5 -14q39 0 72.5 14t57.5 39t37.5 59t13.5 74q0 39 -13.5 73t-37.5 59.5t-57.5 40.5t-72.5 15q-38 0 -69.5 -15 t-53.5 -40.5t-34 -59.5t-12 -73zM752 1233q7 -11 8 -20t1 -17q0 -22 -26 -22h-219q-19 0 -30.5 10t-23.5 32l-88 205q-5 10 -8 20.5t-3 18.5q0 11 7 18t26 7h212q34 0 53 -42z" />
<glyph unicode="&#xe1;" horiz-adv-x="1279" d="M1137 57q0 -29 -18.5 -43t-41.5 -14h-195q-17 0 -26.5 4.5t-16 12t-10.5 18.5t-9 24l-22 58q-14 -21 -30.5 -44.5t-41 -44t-59 -33.5t-83.5 -13h-11q-108 0 -197.5 38.5t-154.5 106t-101 160.5t-36 201q0 111 35.5 204t100 160.5t154.5 105.5t199 38q51 0 92.5 -14.5 t73 -38t53.5 -53.5t35 -61l30 93q7 21 11.5 32.5t10.5 17.5t15 7.5t25 1.5h158q24 0 42 -15.5t18 -41.5v-867zM439 485q0 -40 12 -74t34 -59t53.5 -39t69.5 -14q39 0 72.5 14t57.5 39t37.5 59t13.5 74q0 39 -13.5 73t-37.5 59.5t-57.5 40.5t-72.5 15q-38 0 -69.5 -15 t-53.5 -40.5t-34 -59.5t-12 -73zM758 1216q-19 -42 -53 -42h-212q-19 0 -26 7t-7 18q0 8 3 18.5t8 20.5l88 205q12 22 23.5 32t30.5 10h219q26 0 26 -22q0 -8 -1 -17t-8 -20z" />
<glyph unicode="&#xe2;" horiz-adv-x="1279" d="M1137 57q0 -29 -18.5 -43t-41.5 -14h-195q-17 0 -26.5 4.5t-16 12t-10.5 18.5t-9 24l-22 58q-14 -21 -30.5 -44.5t-41 -44t-59 -33.5t-83.5 -13h-11q-108 0 -197.5 38.5t-154.5 106t-101 160.5t-36 201q0 111 35.5 204t100 160.5t154.5 105.5t199 38q51 0 92.5 -14.5 t73 -38t53.5 -53.5t35 -61l30 93q7 21 11.5 32.5t10.5 17.5t15 7.5t25 1.5h158q24 0 42 -15.5t18 -41.5v-867zM439 485q0 -40 12 -74t34 -59t53.5 -39t69.5 -14q39 0 72.5 14t57.5 39t37.5 59t13.5 74q0 39 -13.5 73t-37.5 59.5t-57.5 40.5t-72.5 15q-38 0 -69.5 -15 t-53.5 -40.5t-34 -59.5t-12 -73zM548 1589q7 5 11 7t11 2q8 0 20 -9l277 -276q8 -6 8 -23q0 -9 -9 -19l-108 -110q-7 -5 -13.5 -8t-13.5 -3q-5 0 -11 2t-11 7l-139 142l-142 -143q-7 -2 -13 -4t-10 -2q-12 0 -21 9l-110 107q-5 5 -6.5 10.5t-2.5 11.5q0 8 2 14t7 8z" />
<glyph unicode="&#xe3;" horiz-adv-x="1279" d="M1137 57q0 -29 -18.5 -43t-41.5 -14h-195q-17 0 -26.5 4.5t-16 12t-10.5 18.5t-9 24l-22 58q-14 -21 -30.5 -44.5t-41 -44t-59 -33.5t-83.5 -13h-11q-108 0 -197.5 38.5t-154.5 106t-101 160.5t-36 201q0 111 35.5 204t100 160.5t154.5 105.5t199 38q51 0 92.5 -14.5 t73 -38t53.5 -53.5t35 -61l30 93q7 21 11.5 32.5t10.5 17.5t15 7.5t25 1.5h158q24 0 42 -15.5t18 -41.5v-867zM439 485q0 -40 12 -74t34 -59t53.5 -39t69.5 -14q39 0 72.5 14t57.5 39t37.5 59t13.5 74q0 39 -13.5 73t-37.5 59.5t-57.5 40.5t-72.5 15q-38 0 -69.5 -15 t-53.5 -40.5t-34 -59.5t-12 -73zM278 1368q39 54 94 84t119 30q37 -2 78.5 -15t76.5 -36l55 -35q15 -10 23.5 -12.5t21.5 -2.5q20 0 35 8t26 22l30 36q9 11 26 11q8 0 19 -8l105 -103q12 -12 12 -26q0 -10 -6 -17l-25 -32q-42 -54 -97.5 -84t-121.5 -30q-40 0 -80 13.5 t-76 36.5l-55 35q-11 7 -21 11t-24 4q-20 0 -34 -8t-25 -21l-31 -38q-4 -6 -10.5 -8t-14.5 -2q-6 0 -10.5 0.5t-9.5 5.5l-106 104q-5 5 -8.5 9t-3.5 14q0 2 1 4t5 7.5t11.5 15.5t20.5 27z" />
<glyph unicode="&#xe4;" horiz-adv-x="1279" d="M1137 57q0 -29 -18.5 -43t-41.5 -14h-195q-17 0 -26.5 4.5t-16 12t-10.5 18.5t-9 24l-22 58q-14 -21 -30.5 -44.5t-41 -44t-59 -33.5t-83.5 -13h-11q-108 0 -197.5 38.5t-154.5 106t-101 160.5t-36 201q0 111 35.5 204t100 160.5t154.5 105.5t199 38q51 0 92.5 -14.5 t73 -38t53.5 -53.5t35 -61l30 93q7 21 11.5 32.5t10.5 17.5t15 7.5t25 1.5h158q24 0 42 -15.5t18 -41.5v-867zM439 485q0 -40 12 -74t34 -59t53.5 -39t69.5 -14q39 0 72.5 14t57.5 39t37.5 59t13.5 74q0 39 -13.5 73t-37.5 59.5t-57.5 40.5t-72.5 15q-38 0 -69.5 -15 t-53.5 -40.5t-34 -59.5t-12 -73zM191 1268q0 33 12.5 61.5t34 50t50 34t60.5 12.5q34 0 63 -12.5t50 -34t33 -50t12 -61.5q0 -32 -12 -60.5t-33 -50t-50 -34t-63 -12.5q-32 0 -60.5 12.5t-50 34t-34 50t-12.5 60.5zM631 1270q0 33 12.5 62t33.5 50.5t49.5 34t60.5 12.5 q34 0 63 -12.5t50.5 -34t33.5 -50.5t12 -62q0 -32 -12 -60.5t-33.5 -49.5t-50.5 -33.5t-63 -12.5q-32 0 -60.5 12.5t-49.5 33.5t-33.5 49.5t-12.5 60.5z" />
<glyph unicode="&#xe5;" horiz-adv-x="1279" d="M1137 57q0 -29 -18.5 -43t-41.5 -14h-195q-17 0 -26.5 4.5t-16 12t-10.5 18.5t-9 24l-22 58q-14 -21 -30.5 -44.5t-41 -44t-59 -33.5t-83.5 -13h-11q-108 0 -197.5 38.5t-154.5 106t-101 160.5t-36 201q0 111 35.5 204t100 160.5t154.5 105.5t199 38q51 0 92.5 -14.5 t73 -38t53.5 -53.5t35 -61l30 93q7 21 11.5 32.5t10.5 17.5t15 7.5t25 1.5h158q24 0 42 -15.5t18 -41.5v-867zM439 485q0 -40 12 -74t34 -59t53.5 -39t69.5 -14q39 0 72.5 14t57.5 39t37.5 59t13.5 74q0 39 -13.5 73t-37.5 59.5t-57.5 40.5t-72.5 15q-38 0 -69.5 -15 t-53.5 -40.5t-34 -59.5t-12 -73zM599 1522q43 0 81.5 -16.5t67.5 -45.5t45.5 -67.5t16.5 -81.5q0 -44 -16.5 -82t-45.5 -66.5t-67.5 -44.5t-81.5 -16q-44 0 -82 16t-66.5 44.5t-44.5 66.5t-16 82q0 43 16 81.5t44.5 67.5t66.5 45.5t82 16.5zM600 1372q-26 0 -42 -17t-16 -43 t16 -42t42 -16t43 16t17 42t-17 43t-43 17z" />
<glyph unicode="&#xe6;" horiz-adv-x="1873" d="M1647 92q-66 -52 -146 -80t-168 -28q-62 0 -119 13.5t-109 38.5q-7 -18 -23 -27t-34 -9h-195q-17 0 -26.5 4.5t-16 12t-10.5 18.5t-9 24l-22 58q-15 -24 -34.5 -48t-45.5 -43t-59 -31t-75 -13h-11q-108 0 -197.5 40.5t-154.5 109.5t-101 161t-36 195t36.5 194.5 t101.5 160.5t154.5 109t196.5 40h11q52 0 91.5 -14.5t68.5 -38t49 -52.5t34 -58l30 93q8 20 13 31.5t10.5 17.5t14 8t24.5 2h158q19 0 34 -9.5t22 -26.5q47 23 98 35t108 12q98 0 186.5 -35.5t155 -98.5t105.5 -148.5t39 -185.5q0 -34 -7 -59t-24 -41t-46.5 -24t-74.5 -8 h-495q10 -34 30.5 -59.5t46 -43t53 -26t51.5 -8.5q40 0 80.5 11.5t66.5 27.5q22 10 32 19.5t24 9.5q8 0 15.5 -4.5t18.5 -16.5l20 -28q11 -15 26.5 -34t30 -37.5t25 -35t10.5 -26.5q0 -17 -10 -29t-22 -20zM410 485q0 -40 12 -74t34 -59t53.5 -39t69.5 -14q39 0 72.5 14 t57.5 39t37.5 59t13.5 74q0 39 -13.5 73t-37.5 59.5t-57.5 40.5t-72.5 15q-38 0 -69.5 -15t-53.5 -40.5t-34 -59.5t-12 -73zM1316 722q-27 0 -52 -9t-45.5 -24.5t-37 -35.5t-26.5 -42h335q-12 21 -28 41t-36.5 35.5t-47.5 25t-62 9.5z" />
<glyph unicode="&#xe7;" horiz-adv-x="1004" d="M756 344q8 4 14.5 5t11.5 1q10 -1 18 -7t15.5 -15.5t14.5 -21.5t15 -24l86 -133q10 -15 10 -26q-1 -18 -12.5 -29.5t-24.5 -19.5q-66 -40 -140 -66t-157 -26q-104 0 -197 39.5t-163 107.5t-111 160.5t-41 198.5t41 200t111 163.5t163 110t197 40.5q83 0 153 -26.5 t133 -64.5q17 -11 28 -24t11 -36q0 -6 -1.5 -12.5t-6.5 -11.5l-98 -179q-17 -30 -40 -30q-14 0 -32 11q-12 9 -29.5 17t-37 14t-40 9.5t-37.5 3.5q-38 0 -69 -15t-53 -41t-34.5 -60t-12.5 -72q0 -39 12.5 -73.5t34.5 -59.5t53 -39.5t69 -14.5q17 0 37 3.5t39.5 9.5t37 14.5 t30.5 18.5h2zM699 21q-22 -15 -22 -35q0 -16 15.5 -30t38 -28t49.5 -30.5t49.5 -38t38 -49t15.5 -64.5q0 -36 -24.5 -77t-69 -81t-106.5 -74.5t-138 -57.5h-5q-15 0 -33 22t-34 50t-27 54.5t-11 35.5q0 16 11 22q171 43 171 106q0 22 -15 39t-37.5 32.5t-48.5 31t-48.5 33.5 t-37.5 40t-15 51q0 11 3 22.5t17 25.5h264z" />
<glyph unicode="&#xe8;" horiz-adv-x="1129" d="M903 82q-66 -52 -146 -80t-168 -28q-105 0 -197.5 40t-162 110t-110 164t-40.5 201q0 101 36.5 194t102 164t154.5 113t194 42q98 0 186.5 -37t155 -101.5t105.5 -152t39 -187.5q0 -34 -7 -59t-24 -41t-46.5 -24t-74.5 -8h-495q10 -34 30.5 -59.5t46 -43t53 -26 t51.5 -8.5q40 0 80.5 11.5t66.5 27.5q22 10 32 19.5t24 9.5q8 0 15.5 -4.5t18.5 -16.5l101 -144q10 -14 10 -29q0 -14 -8.5 -26t-22.5 -21zM572 722q-27 0 -52 -9t-45.5 -24.5t-37 -35.5t-26.5 -42h335q-12 21 -28 41t-36.5 35.5t-47.5 25t-62 9.5zM691 1233q7 -11 8 -20 t1 -17q0 -22 -26 -22h-219q-19 0 -30.5 10t-23.5 32l-88 205q-5 10 -8 20.5t-3 18.5q0 11 7 18t26 7h212q34 0 53 -42z" />
<glyph unicode="&#xe9;" horiz-adv-x="1129" d="M903 82q-66 -52 -146 -80t-168 -28q-105 0 -197.5 40t-162 110t-110 164t-40.5 201q0 101 36.5 194t102 164t154.5 113t194 42q98 0 186.5 -37t155 -101.5t105.5 -152t39 -187.5q0 -34 -7 -59t-24 -41t-46.5 -24t-74.5 -8h-495q10 -34 30.5 -59.5t46 -43t53 -26 t51.5 -8.5q40 0 80.5 11.5t66.5 27.5q22 10 32 19.5t24 9.5q8 0 15.5 -4.5t18.5 -16.5l101 -144q10 -14 10 -29q0 -14 -8.5 -26t-22.5 -21zM572 722q-27 0 -52 -9t-45.5 -24.5t-37 -35.5t-26.5 -42h335q-12 21 -28 41t-36.5 35.5t-47.5 25t-62 9.5zM759 1216 q-19 -42 -53 -42h-212q-19 0 -26 7t-7 18q0 8 3 18.5t8 20.5l88 205q12 22 23.5 32t30.5 10h219q26 0 26 -22q0 -8 -1 -17t-8 -20z" />
<glyph unicode="&#xea;" horiz-adv-x="1129" d="M903 82q-66 -52 -146 -80t-168 -28q-105 0 -197.5 40t-162 110t-110 164t-40.5 201q0 101 36.5 194t102 164t154.5 113t194 42q98 0 186.5 -37t155 -101.5t105.5 -152t39 -187.5q0 -34 -7 -59t-24 -41t-46.5 -24t-74.5 -8h-495q10 -34 30.5 -59.5t46 -43t53 -26 t51.5 -8.5q40 0 80.5 11.5t66.5 27.5q22 10 32 19.5t24 9.5q8 0 15.5 -4.5t18.5 -16.5l101 -144q10 -14 10 -29q0 -14 -8.5 -26t-22.5 -21zM572 722q-27 0 -52 -9t-45.5 -24.5t-37 -35.5t-26.5 -42h335q-12 21 -28 41t-36.5 35.5t-47.5 25t-62 9.5zM537 1589q7 5 11 7t11 2 q8 0 20 -9l277 -276q8 -6 8 -23q0 -9 -9 -19l-108 -110q-7 -5 -13.5 -8t-13.5 -3q-5 0 -11 2t-11 7l-139 142l-142 -143q-7 -2 -13 -4t-10 -2q-12 0 -21 9l-110 107q-5 5 -6.5 10.5t-2.5 11.5q0 8 2 14t7 8z" />
<glyph unicode="&#xeb;" horiz-adv-x="1129" d="M903 82q-66 -52 -146 -80t-168 -28q-105 0 -197.5 40t-162 110t-110 164t-40.5 201q0 101 36.5 194t102 164t154.5 113t194 42q98 0 186.5 -37t155 -101.5t105.5 -152t39 -187.5q0 -34 -7 -59t-24 -41t-46.5 -24t-74.5 -8h-495q10 -34 30.5 -59.5t46 -43t53 -26 t51.5 -8.5q40 0 80.5 11.5t66.5 27.5q22 10 32 19.5t24 9.5q8 0 15.5 -4.5t18.5 -16.5l101 -144q10 -14 10 -29q0 -14 -8.5 -26t-22.5 -21zM572 722q-27 0 -52 -9t-45.5 -24.5t-37 -35.5t-26.5 -42h335q-12 21 -28 41t-36.5 35.5t-47.5 25t-62 9.5zM182 1268q0 33 12.5 61.5 t34 50t50 34t60.5 12.5q34 0 63 -12.5t50 -34t33 -50t12 -61.5q0 -32 -12 -60.5t-33 -50t-50 -34t-63 -12.5q-32 0 -60.5 12.5t-50 34t-34 50t-12.5 60.5zM622 1270q0 33 12.5 62t33.5 50.5t49.5 34t60.5 12.5q34 0 63 -12.5t50.5 -34t33.5 -50.5t12 -62q0 -32 -12 -60.5 t-33.5 -49.5t-50.5 -33.5t-63 -12.5q-32 0 -60.5 12.5t-49.5 33.5t-33.5 49.5t-12.5 60.5z" />
<glyph unicode="&#xec;" horiz-adv-x="650" d="M159 931q0 21 12.5 36.5t37.5 15.5h250q8 0 17.5 -4t18 -10.5t14 -16t5.5 -21.5v-880q0 -51 -55 -51h-250q-50 0 -50 51v880zM434 1233q7 -11 8 -20t1 -17q0 -22 -26 -22h-219q-19 0 -30.5 10t-23.5 32l-88 205q-5 10 -8 20.5t-3 18.5q0 11 7 18t26 7h212q34 0 53 -42z " />
<glyph unicode="&#xed;" horiz-adv-x="650" d="M159 931q0 21 12.5 36.5t37.5 15.5h250q8 0 17.5 -4t18 -10.5t14 -16t5.5 -21.5v-880q0 -51 -55 -51h-250q-50 0 -50 51v880zM459 1216q-19 -42 -53 -42h-212q-19 0 -26 7t-7 18q0 8 3 18.5t8 20.5l88 205q12 22 23.5 32t30.5 10h219q26 0 26 -22q0 -8 -1 -17t-8 -20z " />
<glyph unicode="&#xee;" horiz-adv-x="650" d="M160 931q0 21 12.5 36.5t37.5 15.5h250q8 0 17.5 -4t18 -10.5t14 -16t5.5 -21.5v-880q0 -51 -55 -51h-250q-50 0 -50 51v880zM310 1589q7 5 11 7t11 2q8 0 20 -9l277 -276q8 -6 8 -23q0 -9 -9 -19l-108 -110q-7 -5 -13.5 -8t-13.5 -3q-5 0 -11 2t-11 7l-139 142 l-142 -143q-7 -2 -13 -4t-10 -2q-12 0 -21 9l-110 107q-5 5 -6.5 10.5t-2.5 11.5q0 8 2 14t7 8z" />
<glyph unicode="&#xef;" horiz-adv-x="650" d="M158 931q0 21 12.5 36.5t37.5 15.5h250q8 0 17.5 -4t18 -10.5t14 -16t5.5 -21.5v-880q0 -51 -55 -51h-250q-50 0 -50 51v880zM-42 1268q0 33 12.5 61.5t34 50t50 34t60.5 12.5q34 0 63 -12.5t50 -34t33 -50t12 -61.5q0 -32 -12 -60.5t-33 -50t-50 -34t-63 -12.5 q-32 0 -60.5 12.5t-50 34t-34 50t-12.5 60.5zM398 1270q0 33 12.5 62t33.5 50.5t49.5 34t60.5 12.5q34 0 63 -12.5t50.5 -34t33.5 -50.5t12 -62q0 -32 -12 -60.5t-33.5 -49.5t-50.5 -33.5t-63 -12.5q-32 0 -60.5 12.5t-49.5 33.5t-33.5 49.5t-12.5 60.5z" />
<glyph unicode="&#xf0;" horiz-adv-x="1148" d="M1128 559q0 -138 -39 -245.5t-109 -181t-166 -112t-211 -38.5q-107 0 -200.5 38.5t-163 105.5t-109.5 157.5t-40 194.5t40.5 194.5t110 157t163 105t200.5 38.5q29 0 59 -7.5t58.5 -20t54 -29t45.5 -33.5q9 32 -6.5 73.5t-44.5 78.5l-47 -35q-10 -7 -21 -7q-16 0 -28 16 l-83 112q-9 10 -9 20q0 12 15 26l41 32q-17 7 -32.5 9.5t-31.5 2.5q-26 0 -48.5 -12t-41 -26t-34.5 -26t-28 -12q-16 0 -25.5 9t-13.5 20l-101 172q-10 17 -10 27q0 14 7.5 18.5t7.5 7.5q51 35 92 55t78.5 30.5t76 13t86.5 2.5q19 0 54.5 -7.5t75 -21t76.5 -31.5t60 -38 l103 81q11 11 23 11t21 -13l81 -114q9 -9 9 -23q0 -15 -11 -26l-98 -77q40 -75 63 -151t34 -157.5t14 -171.5t3 -192zM437 485q0 -40 12 -74t34 -59t53.5 -39t70.5 -14t70 14t53 39t34 59t12 74q0 39 -12 73t-34 59.5t-53 40.5t-70 15t-70.5 -15t-53.5 -40.5t-34 -59.5 t-12 -73z" />
<glyph unicode="&#xf1;" horiz-adv-x="1310" d="M160 923q0 31 14 45.5t47 14.5h130q28 0 47.5 -11.5t33 -30t23 -43t16.5 -50.5q18 21 50.5 46.5t74.5 48t90.5 37.5t97.5 15q114 0 190.5 -30.5t122.5 -91.5t65.5 -154t19.5 -217v-451q0 -24 -15 -37.5t-36 -13.5h-251q-27 0 -39 12t-12 37v478q0 69 -34 104t-111 35 q-23 0 -51 -9t-53.5 -26t-43.5 -42t-20 -56v-483q0 -25 -11.5 -37.5t-43.5 -12.5h-248q-27 0 -40 14.5t-13 36.5v872zM365 1368q39 54 94 84t119 30q37 -2 78.5 -15t76.5 -36l55 -35q15 -10 23.5 -12.5t21.5 -2.5q20 0 35 8t26 22l30 36q9 11 26 11q8 0 19 -8l105 -103 q12 -12 12 -26q0 -10 -6 -17l-25 -32q-42 -54 -97.5 -84t-121.5 -30q-40 0 -80 13.5t-76 36.5l-55 35q-11 7 -21 11t-24 4q-20 0 -34 -8t-25 -21l-31 -38q-4 -6 -10.5 -8t-14.5 -2q-6 0 -10.5 0.5t-9.5 5.5l-106 104q-5 5 -8.5 9t-3.5 14q0 2 1 4t5 7.5t11.5 15.5t20.5 27z " />
<glyph unicode="&#xf2;" horiz-adv-x="1206" d="M81 488q0 106 41 200t111.5 163.5t166 110t205.5 40.5q108 0 203.5 -40.5t166 -110t111.5 -163.5t41 -200t-41 -198.5t-111.5 -160.5t-166 -107.5t-203.5 -39.5q-73 0 -140 18t-125.5 50.5t-106 78.5t-81.5 102t-52.5 121t-18.5 136zM437 485q0 -40 12 -74t34 -59 t53.5 -39t70.5 -14t70 14t53 39t34 59t12 74q0 39 -12 73t-34 59.5t-53 40.5t-70 15t-70.5 -15t-53.5 -40.5t-34 -59.5t-12 -73zM713 1233q7 -11 8 -20t1 -17q0 -22 -26 -22h-219q-19 0 -30.5 10t-23.5 32l-88 205q-5 10 -8 20.5t-3 18.5q0 11 7 18t26 7h212q34 0 53 -42z " />
<glyph unicode="&#xf3;" horiz-adv-x="1206" d="M81 488q0 106 41 200t111.5 163.5t166 110t205.5 40.5q108 0 203.5 -40.5t166 -110t111.5 -163.5t41 -200t-41 -198.5t-111.5 -160.5t-166 -107.5t-203.5 -39.5q-73 0 -140 18t-125.5 50.5t-106 78.5t-81.5 102t-52.5 121t-18.5 136zM437 485q0 -40 12 -74t34 -59 t53.5 -39t70.5 -14t70 14t53 39t34 59t12 74q0 39 -12 73t-34 59.5t-53 40.5t-70 15t-70.5 -15t-53.5 -40.5t-34 -59.5t-12 -73zM749 1216q-19 -42 -53 -42h-212q-19 0 -26 7t-7 18q0 8 3 18.5t8 20.5l88 205q12 22 23.5 32t30.5 10h219q26 0 26 -22q0 -8 -1 -17t-8 -20z " />
<glyph unicode="&#xf4;" horiz-adv-x="1206" d="M81 488q0 106 41 200t111.5 163.5t166 110t205.5 40.5q108 0 203.5 -40.5t166 -110t111.5 -163.5t41 -200t-41 -198.5t-111.5 -160.5t-166 -107.5t-203.5 -39.5q-73 0 -140 18t-125.5 50.5t-106 78.5t-81.5 102t-52.5 121t-18.5 136zM437 485q0 -40 12 -74t34 -59 t53.5 -39t70.5 -14t70 14t53 39t34 59t12 74q0 39 -12 73t-34 59.5t-53 40.5t-70 15t-70.5 -15t-53.5 -40.5t-34 -59.5t-12 -73zM578 1589q7 5 11 7t11 2q8 0 20 -9l277 -276q8 -6 8 -23q0 -9 -9 -19l-108 -110q-7 -5 -13.5 -8t-13.5 -3q-5 0 -11 2t-11 7l-139 142 l-142 -143q-7 -2 -13 -4t-10 -2q-12 0 -21 9l-110 107q-5 5 -6.5 10.5t-2.5 11.5q0 8 2 14t7 8z" />
<glyph unicode="&#xf5;" horiz-adv-x="1206" d="M81 488q0 106 41 200t111.5 163.5t166 110t205.5 40.5q108 0 203.5 -40.5t166 -110t111.5 -163.5t41 -200t-41 -198.5t-111.5 -160.5t-166 -107.5t-203.5 -39.5q-73 0 -140 18t-125.5 50.5t-106 78.5t-81.5 102t-52.5 121t-18.5 136zM437 485q0 -40 12 -74t34 -59 t53.5 -39t70.5 -14t70 14t53 39t34 59t12 74q0 39 -12 73t-34 59.5t-53 40.5t-70 15t-70.5 -15t-53.5 -40.5t-34 -59.5t-12 -73zM247 1368q39 54 94 84t119 30q37 -2 78.5 -15t76.5 -36l55 -35q15 -10 23.5 -12.5t21.5 -2.5q20 0 35 8t26 22l30 36q9 11 26 11q8 0 19 -8 l105 -103q12 -12 12 -26q0 -10 -6 -17l-25 -32q-42 -54 -97.5 -84t-121.5 -30q-40 0 -80 13.5t-76 36.5l-55 35q-11 7 -21 11t-24 4q-20 0 -34 -8t-25 -21l-31 -38q-4 -6 -10.5 -8t-14.5 -2q-6 0 -10.5 0.5t-9.5 5.5l-106 104q-5 5 -8.5 9t-3.5 14q0 2 1 4t5 7.5t11.5 15.5 t20.5 27z" />
<glyph unicode="&#xf6;" horiz-adv-x="1206" d="M81 488q0 106 41 200t111.5 163.5t166 110t205.5 40.5q108 0 203.5 -40.5t166 -110t111.5 -163.5t41 -200t-41 -198.5t-111.5 -160.5t-166 -107.5t-203.5 -39.5q-73 0 -140 18t-125.5 50.5t-106 78.5t-81.5 102t-52.5 121t-18.5 136zM437 485q0 -40 12 -74t34 -59 t53.5 -39t70.5 -14t70 14t53 39t34 59t12 74q0 39 -12 73t-34 59.5t-53 40.5t-70 15t-70.5 -15t-53.5 -40.5t-34 -59.5t-12 -73zM219 1268q0 33 12.5 61.5t34 50t50 34t60.5 12.5q34 0 63 -12.5t50 -34t33 -50t12 -61.5q0 -32 -12 -60.5t-33 -50t-50 -34t-63 -12.5 q-32 0 -60.5 12.5t-50 34t-34 50t-12.5 60.5zM659 1270q0 33 12.5 62t33.5 50.5t49.5 34t60.5 12.5q34 0 63 -12.5t50.5 -34t33.5 -50.5t12 -62q0 -32 -12 -60.5t-33.5 -49.5t-50.5 -33.5t-63 -12.5q-32 0 -60.5 12.5t-49.5 33.5t-33.5 49.5t-12.5 60.5z" />
<glyph unicode="&#xf7;" horiz-adv-x="948" d="M804 715q18 0 31 -11.5t13 -32.5v-234q0 -18 -12 -32t-32 -14h-649q-47 0 -47 46v234q0 44 47 44h649zM324 980q0 33 12.5 61.5t34 50t50 34t60.5 12.5q34 0 63 -12.5t50 -34t33 -50t12 -61.5q0 -32 -12 -60.5t-33 -50t-50 -34t-63 -12.5q-32 0 -60.5 12.5t-50 34t-34 50 t-12.5 60.5zM313 120q0 33 12.5 61.5t34 50t50 34t60.5 12.5q34 0 63 -12.5t50 -34t33 -50t12 -61.5q0 -32 -12 -60.5t-33 -50t-50 -34t-63 -12.5q-32 0 -60.5 12.5t-50 34t-34 50t-12.5 60.5z" />
<glyph unicode="&#xf8;" horiz-adv-x="1206" d="M437 485q0 -40 12 -74t34 -59t53.5 -39t70.5 -14t70 14t53 39t34 59t12 74q0 39 -12 73t-34 59.5t-53 40.5t-70 15t-70.5 -15t-53.5 -40.5t-34 -59.5t-12 -73zM81 488q0 106 41 198.5t111.5 160t166 106.5t205.5 39q20 0 38.5 -1.5t37.5 -3.5l44 102q6 13 17.5 22.5 t29.5 9.5h204q15 0 26 -6t11 -17q0 -8 -1 -9l-89 -200q46 -34 84 -77.5t64.5 -94.5t41 -109t14.5 -120q0 -106 -41 -198.5t-111.5 -160.5t-166 -107.5t-203.5 -39.5q-56 0 -105 10l-50 -96q-8 -18 -15 -25t-23 -7h-221q-30 0 -30 19q0 1 1 3t1 4t1 6l99 206 q-85 69 -133.5 168.5t-48.5 217.5z" />
<glyph unicode="&#xf9;" horiz-adv-x="1283" d="M1141 61q0 -31 -14 -45.5t-47 -14.5h-130q-28 0 -47.5 11t-33 30t-23 43.5t-16.5 50.5q-18 -21 -50.5 -46.5t-74.5 -48t-90.5 -37.5t-97.5 -15q-114 0 -190.5 30.5t-122.5 91.5t-65.5 153.5t-19.5 217.5v451q0 24 15 37.5t36 13.5h251q27 0 39 -12t12 -37v-478 q0 -69 34 -104t111 -35q23 0 51 9t53.5 26t43.5 41.5t20 56.5v483q0 25 11.5 37.5t43.5 12.5h248q27 0 40 -14.5t13 -36.5v-872zM792 1233q7 -11 8 -20t1 -17q0 -22 -26 -22h-219q-19 0 -30.5 10t-23.5 32l-88 205q-5 10 -8 20.5t-3 18.5q0 11 7 18t26 7h212q34 0 53 -42z " />
<glyph unicode="&#xfa;" horiz-adv-x="1283" d="M1141 61q0 -31 -14 -45.5t-47 -14.5h-130q-28 0 -47.5 11t-33 30t-23 43.5t-16.5 50.5q-18 -21 -50.5 -46.5t-74.5 -48t-90.5 -37.5t-97.5 -15q-114 0 -190.5 30.5t-122.5 91.5t-65.5 153.5t-19.5 217.5v451q0 24 15 37.5t36 13.5h251q27 0 39 -12t12 -37v-478 q0 -69 34 -104t111 -35q23 0 51 9t53.5 26t43.5 41.5t20 56.5v483q0 25 11.5 37.5t43.5 12.5h248q27 0 40 -14.5t13 -36.5v-872zM849 1280q-19 -42 -53 -42h-212q-19 0 -26 7t-7 18q0 8 3 18.5t8 20.5l88 205q12 22 23.5 32t30.5 10h219q26 0 26 -22q0 -8 -1 -17t-8 -20z " />
<glyph unicode="&#xfb;" horiz-adv-x="1283" d="M1141 61q0 -31 -14 -45.5t-47 -14.5h-130q-28 0 -47.5 11t-33 30t-23 43.5t-16.5 50.5q-18 -21 -50.5 -46.5t-74.5 -48t-90.5 -37.5t-97.5 -15q-114 0 -190.5 30.5t-122.5 91.5t-65.5 153.5t-19.5 217.5v451q0 24 15 37.5t36 13.5h251q27 0 39 -12t12 -37v-478 q0 -69 34 -104t111 -35q23 0 51 9t53.5 26t43.5 41.5t20 56.5v483q0 25 11.5 37.5t43.5 12.5h248q27 0 40 -14.5t13 -36.5v-872zM607 1589q7 5 11 7t11 2q8 0 20 -9l277 -276q8 -6 8 -23q0 -9 -9 -19l-108 -110q-7 -5 -13.5 -8t-13.5 -3q-5 0 -11 2t-11 7l-139 142 l-142 -143q-7 -2 -13 -4t-10 -2q-12 0 -21 9l-110 107q-5 5 -6.5 10.5t-2.5 11.5q0 8 2 14t7 8z" />
<glyph unicode="&#xfc;" horiz-adv-x="1283" d="M1141 61q0 -31 -14 -45.5t-47 -14.5h-130q-28 0 -47.5 11t-33 30t-23 43.5t-16.5 50.5q-18 -21 -50.5 -46.5t-74.5 -48t-90.5 -37.5t-97.5 -15q-114 0 -190.5 30.5t-122.5 91.5t-65.5 153.5t-19.5 217.5v451q0 24 15 37.5t36 13.5h251q27 0 39 -12t12 -37v-478 q0 -69 34 -104t111 -35q23 0 51 9t53.5 26t43.5 41.5t20 56.5v483q0 25 11.5 37.5t43.5 12.5h248q27 0 40 -14.5t13 -36.5v-872zM281 1268q0 33 12.5 61.5t34 50t50 34t60.5 12.5q34 0 63 -12.5t50 -34t33 -50t12 -61.5q0 -32 -12 -60.5t-33 -50t-50 -34t-63 -12.5 q-32 0 -60.5 12.5t-50 34t-34 50t-12.5 60.5zM721 1270q0 33 12.5 62t33.5 50.5t49.5 34t60.5 12.5q34 0 63 -12.5t50.5 -34t33.5 -50.5t12 -62q0 -32 -12 -60.5t-33.5 -49.5t-50.5 -33.5t-63 -12.5q-32 0 -60.5 12.5t-49.5 33.5t-33.5 49.5t-12.5 60.5z" />
<glyph unicode="&#xfd;" horiz-adv-x="1160" d="M44 921q-3 2 -4 9.5t-1 14.5q0 36 44 36h274q23 0 38 -11.5t20 -31.5q21 -60 43.5 -127.5t45 -135.5t45 -135.5t44.5 -127.5l172 526q8 23 23 33t39 10h269q27 0 37.5 -11t10.5 -29q0 -10 -1 -15q-38 -101 -81 -214.5t-87.5 -230.5t-89.5 -233t-85.5 -223t-75 -200.5 t-58.5 -165.5q-5 -19 -20.5 -31.5t-35.5 -12.5h-249q-17 0 -32.5 6.5t-15.5 28.5q0 8 5 25l104 306zM760 1216q-19 -42 -53 -42h-212q-19 0 -26 7t-7 18q0 8 3 18.5t8 20.5l88 205q12 22 23.5 32t30.5 10h219q26 0 26 -22q0 -8 -1 -17t-8 -20z" />
<glyph unicode="&#xfe;" horiz-adv-x="1266" d="M812 499q0 40 -12.5 74t-35 59t-54 39t-70.5 14q-38 0 -70 -14t-56 -38t-38 -57t-15 -71v-6q0 -39 13.5 -73t37.5 -59.5t56.5 -40.5t71.5 -15t70.5 15t54 40.5t35 59.5t12.5 73zM188 -389q-9 0 -18.5 4t-17.5 10.5t-13.5 16t-5.5 21.5v1687q0 12 5.5 21.5t13.5 16 t17.5 10.5t18.5 4h249q26 0 38.5 -15t12.5 -37v-434q16 18 31 30q29 25 68 41t98 16q108 0 196.5 -39.5t151.5 -107.5t98 -160t35 -197v-5v-4q0 -105 -35 -197t-98 -160t-151.5 -107.5t-196.5 -39.5q-60 0 -98.5 15.5t-67.5 41.5q-8 6 -15.5 13.5l-15.5 15.5v-409 q0 -22 -12.5 -37t-38.5 -15h-249z" />
<glyph unicode="&#xff;" horiz-adv-x="1160" d="M44 921q-3 2 -4 9.5t-1 14.5q0 36 44 36h274q23 0 38 -11.5t20 -31.5q21 -60 43.5 -127.5t45 -135.5t45 -135.5t44.5 -127.5l172 526q8 23 23 33t39 10h269q27 0 37.5 -11t10.5 -29q0 -10 -1 -15q-38 -101 -81 -214.5t-87.5 -230.5t-89.5 -233t-85.5 -223t-75 -200.5 t-58.5 -165.5q-5 -19 -20.5 -31.5t-35.5 -12.5h-249q-17 0 -32.5 6.5t-15.5 28.5q0 8 5 25l104 306zM225 1268q0 33 12.5 61.5t34 50t50 34t60.5 12.5q34 0 63 -12.5t50 -34t33 -50t12 -61.5q0 -32 -12 -60.5t-33 -50t-50 -34t-63 -12.5q-32 0 -60.5 12.5t-50 34t-34 50 t-12.5 60.5zM665 1270q0 33 12.5 62t33.5 50.5t49.5 34t60.5 12.5q34 0 63 -12.5t50.5 -34t33.5 -50.5t12 -62q0 -32 -12 -60.5t-33.5 -49.5t-50.5 -33.5t-63 -12.5q-32 0 -60.5 12.5t-49.5 33.5t-33.5 49.5t-12.5 60.5z" />
<glyph unicode="&#x100;" horiz-adv-x="1531" d="M586 1446q5 12 21 25.5t33 13.5h256q17 0 30 -9.5t17 -19.5l550 -1411q3 -9 3 -15q0 -30 -44 -30h-287q-23 0 -35.5 8.5t-19.5 28.5q-20 51 -39 101.5t-38 101.5h-531q-19 -51 -38.5 -101.5t-38.5 -101.5q-14 -37 -51 -37h-295q-16 0 -27.5 6.5t-11.5 20.5q0 5 3 13z M768 1018q-19 -51 -38 -110t-38.5 -119t-39 -118.5t-38.5 -109.5h307zM336 1867q0 35 35 35h749q15 0 25 -8.5t10 -26.5v-124q0 -12 -9 -26t-26 -14h-749q-35 0 -35 40v124z" />
<glyph unicode="&#x101;" horiz-adv-x="1279" d="M1137 57q0 -29 -18.5 -43t-41.5 -14h-195q-17 0 -26.5 4.5t-16 12t-10.5 18.5t-9 24l-22 58q-14 -21 -30.5 -44.5t-41 -44t-59 -33.5t-83.5 -13h-11q-108 0 -197.5 38.5t-154.5 106t-101 160.5t-36 201q0 111 35.5 204t100 160.5t154.5 105.5t199 38q51 0 92.5 -14.5 t73 -38t53.5 -53.5t35 -61l30 93q7 21 11.5 32.5t10.5 17.5t15 7.5t25 1.5h158q24 0 42 -15.5t18 -41.5v-867zM439 485q0 -40 12 -74t34 -59t53.5 -39t69.5 -14q39 0 72.5 14t57.5 39t37.5 59t13.5 74q0 39 -13.5 73t-37.5 59.5t-57.5 40.5t-72.5 15q-38 0 -69.5 -15 t-53.5 -40.5t-34 -59.5t-12 -73zM214 1363q0 35 35 35h749q15 0 25 -8.5t10 -26.5v-124q0 -12 -9 -26t-26 -14h-749q-35 0 -35 40v124z" />
<glyph unicode="&#x102;" horiz-adv-x="1531" d="M586 1446q5 12 21 25.5t33 13.5h256q17 0 30 -9.5t17 -19.5l550 -1411q3 -9 3 -15q0 -30 -44 -30h-287q-23 0 -35.5 8.5t-19.5 28.5q-20 51 -39 101.5t-38 101.5h-531q-19 -51 -38.5 -101.5t-38.5 -101.5q-14 -37 -51 -37h-295q-16 0 -27.5 6.5t-11.5 20.5q0 5 3 13z M768 1018q-19 -51 -38 -110t-38.5 -119t-39 -118.5t-38.5 -109.5h307zM737 1703q-59 1 -109 22.5t-87 56.5t-58 79.5t-21 92.5q0 17 11.5 27t26.5 10h144q11 0 17 -6.5t6 -15.5q0 -23 18 -41.5t56 -18.5q34 0 52.5 19t18.5 41q0 9 5 15.5t16 6.5h146q15 0 26.5 -10t11.5 -27 q0 -49 -21.5 -94t-59.5 -79.5t-89 -55.5t-110 -22z" />
<glyph unicode="&#x103;" horiz-adv-x="1279" d="M1137 57q0 -29 -18.5 -43t-41.5 -14h-195q-17 0 -26.5 4.5t-16 12t-10.5 18.5t-9 24l-22 58q-14 -21 -30.5 -44.5t-41 -44t-59 -33.5t-83.5 -13h-11q-108 0 -197.5 38.5t-154.5 106t-101 160.5t-36 201q0 111 35.5 204t100 160.5t154.5 105.5t199 38q51 0 92.5 -14.5 t73 -38t53.5 -53.5t35 -61l30 93q7 21 11.5 32.5t10.5 17.5t15 7.5t25 1.5h158q24 0 42 -15.5t18 -41.5v-867zM439 485q0 -40 12 -74t34 -59t53.5 -39t69.5 -14q39 0 72.5 14t57.5 39t37.5 59t13.5 74q0 39 -13.5 73t-37.5 59.5t-57.5 40.5t-72.5 15q-38 0 -69.5 -15 t-53.5 -40.5t-34 -59.5t-12 -73zM548 1199q-59 1 -109 22.5t-87 56.5t-58 79.5t-21 92.5q0 17 11.5 27t26.5 10h144q11 0 17 -6.5t6 -15.5q0 -23 18 -41.5t56 -18.5q34 0 52.5 19t18.5 41q0 9 5 15.5t16 6.5h146q15 0 26.5 -10t11.5 -27q0 -49 -21.5 -94t-59.5 -79.5 t-89 -55.5t-110 -22z" />
<glyph unicode="&#x104;" horiz-adv-x="1531" d="M586 1446q5 12 21 25.5t33 13.5h256q17 0 30 -9.5t17 -19.5l550 -1411q3 -9 3 -15q0 -30 -44 -30h-287q-23 0 -35.5 8.5t-19.5 28.5q-20 51 -39 101.5t-38 101.5h-531q-19 -51 -38.5 -101.5t-38.5 -101.5q-14 -37 -51 -37h-295q-16 0 -27.5 6.5t-11.5 20.5q0 5 3 13z M768 1018q-19 -51 -38 -110t-38.5 -119t-39 -118.5t-38.5 -109.5h307zM1453 1q14 -14 17 -25.5t3 -22.5q0 -29 -15 -51t-37.5 -40t-48.5 -33.5t-48.5 -31t-37.5 -32.5t-15 -39q0 -63 171 -106q11 -6 11 -22q0 -9 -11 -35.5t-27 -54.5t-34 -50t-33 -22h-5q-76 23 -138.5 57.5 t-107 74.5t-69 81t-24.5 77q0 37 15.5 64.5t38.5 49t49.5 38t49.5 30.5t38.5 28t15.5 30q0 20 -22 35h264z" />
<glyph unicode="&#x105;" horiz-adv-x="1279" d="M1137 57q0 -29 -18.5 -43t-41.5 -14h-195q-17 0 -26.5 4.5t-16 12t-10.5 18.5t-9 24l-22 58q-14 -21 -30.5 -44.5t-41 -44t-59 -33.5t-83.5 -13h-11q-108 0 -197.5 38.5t-154.5 106t-101 160.5t-36 201q0 111 35.5 204t100 160.5t154.5 105.5t199 38q51 0 92.5 -14.5 t73 -38t53.5 -53.5t35 -61l30 93q7 21 11.5 32.5t10.5 17.5t15 7.5t25 1.5h158q24 0 42 -15.5t18 -41.5v-867zM439 485q0 -40 12 -74t34 -59t53.5 -39t69.5 -14q39 0 72.5 14t57.5 39t37.5 59t13.5 74q0 39 -13.5 73t-37.5 59.5t-57.5 40.5t-72.5 15q-38 0 -69.5 -15 t-53.5 -40.5t-34 -59.5t-12 -73zM1095 41q14 -14 17 -25.5t3 -22.5q0 -29 -15 -51t-37.5 -40t-48.5 -33.5t-48.5 -31t-37.5 -32.5t-15 -39q0 -63 171 -106q11 -6 11 -22q0 -9 -11 -35.5t-27 -54.5t-34 -50t-33 -22h-5q-76 23 -138.5 57.5t-107 74.5t-69 81t-24.5 77 q0 37 15.5 64.5t38.5 49t49.5 38t49.5 30.5t38.5 28t15.5 30q0 20 -22 35h264z" />
<glyph unicode="&#x106;" horiz-adv-x="1409" d="M1294 1377q12 -7 20 -17t8 -24q0 -11 -6 -23l-169 -240q-14 -20 -29 -20q-10 0 -25 9q-49 37 -108 57t-125 20q-82 0 -151 -31t-119 -85t-78 -126t-28 -154t28 -153.5t78 -125t119 -84.5t151 -31q66 0 126 20.5t109 57.5q15 9 26 9q14 0 28 -18l171 -246q6 -12 6 -22 q0 -14 -8.5 -23t-19.5 -17q-94 -63 -202.5 -97.5t-228.5 -34.5q-106 0 -203.5 27t-182.5 77t-154.5 119.5t-119.5 154t-77 182t-27 203.5t27 203.5t77 183t119.5 155.5t154.5 119.5t182.5 77t203.5 27.5q119 0 226 -33.5t201 -96.5zM1000 1718q-19 -42 -53 -42h-212 q-19 0 -26 7t-7 18q0 8 3 18.5t8 20.5l88 205q12 22 23.5 32t30.5 10h219q26 0 26 -22q0 -8 -1 -17t-8 -20z" />
<glyph unicode="&#x107;" horiz-adv-x="1004" d="M756 344q8 4 14.5 5t11.5 1q10 -1 18 -7t15.5 -15.5t14.5 -21.5t15 -24l86 -133q10 -15 10 -26q-1 -18 -12.5 -29.5t-24.5 -19.5q-66 -40 -140 -66t-157 -26q-104 0 -197 39.5t-163 107.5t-111 160.5t-41 198.5t41 200t111 163.5t163 110t197 40.5q83 0 153 -26.5 t133 -64.5q17 -11 28 -24t11 -36q0 -6 -1.5 -12.5t-6.5 -11.5l-98 -179q-17 -30 -40 -30q-14 0 -32 11q-12 9 -29.5 17t-37 14t-40 9.5t-37.5 3.5q-38 0 -69 -15t-53 -41t-34.5 -60t-12.5 -72q0 -39 12.5 -73.5t34.5 -59.5t53 -39.5t69 -14.5q17 0 37 3.5t39.5 9.5t37 14.5 t30.5 18.5h2zM686 1216q-19 -42 -53 -42h-212q-19 0 -26 7t-7 18q0 8 3 18.5t8 20.5l88 205q12 22 23.5 32t30.5 10h219q26 0 26 -22q0 -8 -1 -17t-8 -20z" />
<glyph unicode="&#x108;" horiz-adv-x="1409" d="M1294 1377q12 -7 20 -17t8 -24q0 -11 -6 -23l-169 -240q-14 -20 -29 -20q-10 0 -25 9q-49 37 -108 57t-125 20q-82 0 -151 -31t-119 -85t-78 -126t-28 -154t28 -153.5t78 -125t119 -84.5t151 -31q66 0 126 20.5t109 57.5q15 9 26 9q14 0 28 -18l171 -246q6 -12 6 -22 q0 -14 -8.5 -23t-19.5 -17q-94 -63 -202.5 -97.5t-228.5 -34.5q-106 0 -203.5 27t-182.5 77t-154.5 119.5t-119.5 154t-77 182t-27 203.5t27 203.5t77 183t119.5 155.5t154.5 119.5t182.5 77t203.5 27.5q119 0 226 -33.5t201 -96.5zM805 2091q7 5 11 7t11 2q8 0 20 -9 l277 -276q8 -6 8 -23q0 -9 -9 -19l-108 -110q-7 -5 -13.5 -8t-13.5 -3q-5 0 -11 2t-11 7l-139 142l-142 -143q-7 -2 -13 -4t-10 -2q-12 0 -21 9l-110 107q-5 5 -6.5 10.5t-2.5 11.5q0 8 2 14t7 8z" />
<glyph unicode="&#x109;" horiz-adv-x="1004" d="M756 344q8 4 14.5 5t11.5 1q10 -1 18 -7t15.5 -15.5t14.5 -21.5t15 -24l86 -133q10 -15 10 -26q-1 -18 -12.5 -29.5t-24.5 -19.5q-66 -40 -140 -66t-157 -26q-104 0 -197 39.5t-163 107.5t-111 160.5t-41 198.5t41 200t111 163.5t163 110t197 40.5q83 0 153 -26.5 t133 -64.5q17 -11 28 -24t11 -36q0 -6 -1.5 -12.5t-6.5 -11.5l-98 -179q-17 -30 -40 -30q-14 0 -32 11q-12 9 -29.5 17t-37 14t-40 9.5t-37.5 3.5q-38 0 -69 -15t-53 -41t-34.5 -60t-12.5 -72q0 -39 12.5 -73.5t34.5 -59.5t53 -39.5t69 -14.5q17 0 37 3.5t39.5 9.5t37 14.5 t30.5 18.5h2zM539 1492q7 5 11 7t11 2q8 0 20 -9l277 -276q8 -6 8 -23q0 -9 -9 -19l-108 -110q-7 -5 -13.5 -8t-13.5 -3q-5 0 -11 2t-11 7l-139 142l-142 -143q-7 -2 -13 -4t-10 -2q-12 0 -21 9l-110 107q-5 5 -6.5 10.5t-2.5 11.5q0 8 2 14t7 8z" />
<glyph unicode="&#x10a;" horiz-adv-x="1409" d="M1294 1377q12 -7 20 -17t8 -24q0 -11 -6 -23l-169 -240q-14 -20 -29 -20q-10 0 -25 9q-49 37 -108 57t-125 20q-82 0 -151 -31t-119 -85t-78 -126t-28 -154t28 -153.5t78 -125t119 -84.5t151 -31q66 0 126 20.5t109 57.5q15 9 26 9q14 0 28 -18l171 -246q6 -12 6 -22 q0 -14 -8.5 -23t-19.5 -17q-94 -63 -202.5 -97.5t-228.5 -34.5q-106 0 -203.5 27t-182.5 77t-154.5 119.5t-119.5 154t-77 182t-27 203.5t27 203.5t77 183t119.5 155.5t154.5 119.5t182.5 77t203.5 27.5q119 0 226 -33.5t201 -96.5zM669 1779q0 37 14.5 70.5t39 58t57.5 39 t70 14.5q39 0 72.5 -14.5t57.5 -39t38 -58t14 -70.5t-14 -70t-38 -57.5t-57.5 -39t-72.5 -14.5q-37 0 -70 14.5t-57.5 39t-39 57.5t-14.5 70z" />
<glyph unicode="&#x10b;" horiz-adv-x="1004" d="M756 344q8 4 14.5 5t11.5 1q10 -1 18 -7t15.5 -15.5t14.5 -21.5t15 -24l86 -133q10 -15 10 -26q-1 -18 -12.5 -29.5t-24.5 -19.5q-66 -40 -140 -66t-157 -26q-104 0 -197 39.5t-163 107.5t-111 160.5t-41 198.5t41 200t111 163.5t163 110t197 40.5q83 0 153 -26.5 t133 -64.5q17 -11 28 -24t11 -36q0 -6 -1.5 -12.5t-6.5 -11.5l-98 -179q-17 -30 -40 -30q-14 0 -32 11q-12 9 -29.5 17t-37 14t-40 9.5t-37.5 3.5q-38 0 -69 -15t-53 -41t-34.5 -60t-12.5 -72q0 -39 12.5 -73.5t34.5 -59.5t53 -39.5t69 -14.5q17 0 37 3.5t39.5 9.5t37 14.5 t30.5 18.5h2zM390 1337q0 37 14.5 70.5t39 58t57.5 39t70 14.5q39 0 72.5 -14.5t57.5 -39t38 -58t14 -70.5t-14 -70t-38 -57.5t-57.5 -39t-72.5 -14.5q-37 0 -70 14.5t-57.5 39t-39 57.5t-14.5 70z" />
<glyph unicode="&#x10c;" horiz-adv-x="1409" d="M1294 1377q12 -7 20 -17t8 -24q0 -11 -6 -23l-169 -240q-14 -20 -29 -20q-10 0 -25 9q-49 37 -108 57t-125 20q-82 0 -151 -31t-119 -85t-78 -126t-28 -154t28 -153.5t78 -125t119 -84.5t151 -31q66 0 126 20.5t109 57.5q15 9 26 9q14 0 28 -18l171 -246q6 -12 6 -22 q0 -14 -8.5 -23t-19.5 -17q-94 -63 -202.5 -97.5t-228.5 -34.5q-106 0 -203.5 27t-182.5 77t-154.5 119.5t-119.5 154t-77 182t-27 203.5t27 203.5t77 183t119.5 155.5t154.5 119.5t182.5 77t203.5 27.5q119 0 226 -33.5t201 -96.5zM534 1911q-5 2 -7 8t-2 14q1 6 2.5 12 t6.5 10l110 107q6 10 22 10q3 -1 9 -2.5t13 -4.5l142 -143l139 142q5 5 11 7t11 2q13 0 27 -11l108 -110q9 -11 9 -19q0 -17 -8 -23l-277 -276q-7 -5 -11 -7t-9 -2q-7 0 -11 2.5t-11 6.5z" />
<glyph unicode="&#x10d;" horiz-adv-x="1004" d="M756 344q8 4 14.5 5t11.5 1q10 -1 18 -7t15.5 -15.5t14.5 -21.5t15 -24l86 -133q10 -15 10 -26q-1 -18 -12.5 -29.5t-24.5 -19.5q-66 -40 -140 -66t-157 -26q-104 0 -197 39.5t-163 107.5t-111 160.5t-41 198.5t41 200t111 163.5t163 110t197 40.5q83 0 153 -26.5 t133 -64.5q17 -11 28 -24t11 -36q0 -6 -1.5 -12.5t-6.5 -11.5l-98 -179q-17 -30 -40 -30q-14 0 -32 11q-12 9 -29.5 17t-37 14t-40 9.5t-37.5 3.5q-38 0 -69 -15t-53 -41t-34.5 -60t-12.5 -72q0 -39 12.5 -73.5t34.5 -59.5t53 -39.5t69 -14.5q17 0 37 3.5t39.5 9.5t37 14.5 t30.5 18.5h2zM264 1409q-5 2 -7 8t-2 14q1 6 2.5 12t6.5 10l110 107q6 10 22 10q3 -1 9 -2.5t13 -4.5l142 -143l139 142q5 5 11 7t11 2q13 0 27 -11l108 -110q9 -11 9 -19q0 -17 -8 -23l-277 -276q-7 -5 -11 -7t-9 -2q-7 0 -11 2.5t-11 6.5z" />
<glyph unicode="&#x10e;" horiz-adv-x="1547" d="M1467 741q0 -106 -27 -201.5t-77 -178t-119.5 -149.5t-154 -114t-182.5 -72.5t-203 -25.5h-493q-18 0 -32 8t-14 34v1397q0 21 11.5 34t34.5 13h493q105 0 202.5 -26t182 -74t154.5 -115t119.5 -150t77 -179t27.5 -201zM552 1127v-769h84q23 0 45 1.5t44 3.5 q75 6 140 36.5t113.5 80t76 116.5t27.5 146q0 84 -31.5 154.5t-85.5 122t-126.5 80t-154.5 28.5h-132zM392 1913q-5 2 -7 8t-2 14q1 6 2.5 12t6.5 10l110 107q6 10 22 10q3 -1 9 -2.5t13 -4.5l142 -143l139 142q5 5 11 7t11 2q13 0 27 -11l108 -110q9 -11 9 -19 q0 -17 -8 -23l-277 -276q-7 -5 -11 -7t-9 -2q-7 0 -11 2.5t-11 6.5z" />
<glyph unicode="&#x10f;" horiz-adv-x="1279" d="M804 115q-26 -38 -51 -63.5t-53.5 -41t-63 -22t-80.5 -6.5q-101 0 -187.5 40t-149.5 108.5t-99 160.5t-36 196q0 105 35 197t98 160t151.5 107.5t196.5 39.5q38 0 67 -6.5t52 -18.5t42 -28t36 -34v530q0 22 12.5 37t38.5 15h249q9 0 18.5 -4t17.5 -10.5t13.5 -16 t5.5 -21.5v-1382q0 -45 -41 -52h-193q-17 0 -28.5 10t-20 26.5t-15.5 37t-15 41.5zM448 484q0 -40 12.5 -74t35 -59t54 -39t70.5 -14q38 0 70 14t56 38t38 57t15 71v6q0 39 -13.5 73t-37.5 59.5t-56.5 40.5t-71.5 15t-70.5 -15t-54 -40.5t-35 -59.5t-12.5 -73z M1066.42 1651.76q0 35.0176 12.9795 64.6475q12.9795 29.6309 34.9102 51.1797q21.9316 21.5488 51.4707 34.1201q29.54 12.5703 62.6602 12.5703q34.9102 0 64.8975 -12.5703q29.9873 -12.5713 51.9189 -35.4668q21.9307 -22.8965 34.0146 -55.6689 q12.085 -32.7734 12.085 -72.2803q0 -86.1973 -17.0078 -149.498q-17.0078 -63.3018 -40.7285 -105.502q-23.7217 -42.2012 -48.3379 -62.8525t-40.7295 -20.6514q-9.84668 0 -15.665 2.24512q-5.81836 2.24414 -12.9795 7.63184l-42.0713 30.5283 q-16.1123 16.1621 -16.1123 31.4258q0 10.7744 6.26562 21.1006q6.2666 10.3252 14.3223 22.8955q9.84668 9.87695 18.3506 25.1416q8.50391 15.2637 8.50391 39.5068v8.97852q-27.75 4.49023 -52.8135 19.3047q-25.0635 14.8154 -44.3096 36.8135 q-19.2451 21.998 -30.4346 49.3838t-11.1895 57.0166z" />
<glyph unicode="&#x110;" horiz-adv-x="1547" d="M1464 741q0 -106 -27 -201.5t-77 -178t-119.5 -149.5t-154 -114t-182.5 -72.5t-203 -25.5h-493q-18 0 -32 8t-14 34v1397q0 21 11.5 34t34.5 13h493q105 0 202.5 -26t182 -74t154.5 -115t119.5 -150t77 -179t27.5 -201zM549 1127v-769h84q23 0 45 1.5t44 3.5 q75 6 140 36.5t113.5 80t76 116.5t27.5 146q0 84 -31.5 154.5t-85.5 122t-126.5 80t-154.5 28.5h-132zM31.3096 821.547q0 39.6738 38.2852 39.6738h593.42q15.6621 0 26.9736 -10.3691t11.3115 -29.3047v-183.039q0 -13.5254 -10.4414 -28.4023 q-10.4414 -14.8779 -27.8438 -14.8779h-593.42q-38.2852 0 -38.2852 43.2803v183.039z" />
<glyph unicode="&#x111;" horiz-adv-x="1279" d="M602 1283q0 44 38 44h554q16 0 27 -11.5t11 -32.5v-130q0 -15 -10 -31.5t-28 -16.5h-554q-38 0 -38 48v130zM804 115q-26 -38 -51 -63.5t-53.5 -41t-63 -22t-80.5 -6.5q-101 0 -187.5 40t-149.5 108.5t-99 160.5t-36 196q0 105 35 197t98 160t151.5 107.5t196.5 39.5 q38 0 67 -6.5t52 -18.5t42 -28t36 -34v530q0 22 12.5 37t38.5 15h249q9 0 18.5 -4t17.5 -10.5t13.5 -16t5.5 -21.5v-1382q0 -45 -41 -52h-193q-17 0 -28.5 10t-20 26.5t-15.5 37t-15 41.5zM448 484q0 -40 12.5 -74t35 -59t54 -39t70.5 -14q38 0 70 14t56 38t38 57t15 71v6 q0 39 -13.5 73t-37.5 59.5t-56.5 40.5t-71.5 15t-70.5 -15t-54 -40.5t-35 -59.5t-12.5 -73z" />
<glyph unicode="&#x112;" horiz-adv-x="1350" d="M161 1439q0 21 11.5 33.5t32.5 12.5h993q22 0 34 -13t12 -35v-248q0 -17 -12 -32.5t-35 -15.5h-648v-247h500q19 0 31.5 -9t12.5 -30v-216q0 -14 -11 -27t-32 -13h-501v-255h672q45 0 45 -46v-252q0 -20 -14 -33t-35 -13h-1012q-20 0 -32 10.5t-12 32.5v1396zM285 1867 q0 35 35 35h749q15 0 25 -8.5t10 -26.5v-124q0 -12 -9 -26t-26 -14h-749q-35 0 -35 40v124z" />
<glyph unicode="&#x113;" horiz-adv-x="1129" d="M903 82q-66 -52 -146 -80t-168 -28q-105 0 -197.5 40t-162 110t-110 164t-40.5 201q0 101 36.5 194t102 164t154.5 113t194 42q98 0 186.5 -37t155 -101.5t105.5 -152t39 -187.5q0 -34 -7 -59t-24 -41t-46.5 -24t-74.5 -8h-495q10 -34 30.5 -59.5t46 -43t53 -26 t51.5 -8.5q40 0 80.5 11.5t66.5 27.5q22 10 32 19.5t24 9.5q8 0 15.5 -4.5t18.5 -16.5l101 -144q10 -14 10 -29q0 -14 -8.5 -26t-22.5 -21zM572 722q-27 0 -52 -9t-45.5 -24.5t-37 -35.5t-26.5 -42h335q-12 21 -28 41t-36.5 35.5t-47.5 25t-62 9.5zM145 1363q0 35 35 35h749 q15 0 25 -8.5t10 -26.5v-124q0 -12 -9 -26t-26 -14h-749q-35 0 -35 40v124z" />
<glyph unicode="&#x114;" horiz-adv-x="1350" d="M161 1439q0 21 11.5 33.5t32.5 12.5h993q22 0 34 -13t12 -35v-248q0 -17 -12 -32.5t-35 -15.5h-648v-247h500q19 0 31.5 -9t12.5 -30v-216q0 -14 -11 -27t-32 -13h-501v-255h672q45 0 45 -46v-252q0 -20 -14 -33t-35 -13h-1012q-20 0 -32 10.5t-12 32.5v1396zM697 1703 q-59 1 -109 22.5t-87 56.5t-58 79.5t-21 92.5q0 17 11.5 27t26.5 10h144q11 0 17 -6.5t6 -15.5q0 -23 18 -41.5t56 -18.5q34 0 52.5 19t18.5 41q0 9 5 15.5t16 6.5h146q15 0 26.5 -10t11.5 -27q0 -49 -21.5 -94t-59.5 -79.5t-89 -55.5t-110 -22z" />
<glyph unicode="&#x115;" horiz-adv-x="1129" d="M903 82q-66 -52 -146 -80t-168 -28q-105 0 -197.5 40t-162 110t-110 164t-40.5 201q0 101 36.5 194t102 164t154.5 113t194 42q98 0 186.5 -37t155 -101.5t105.5 -152t39 -187.5q0 -34 -7 -59t-24 -41t-46.5 -24t-74.5 -8h-495q10 -34 30.5 -59.5t46 -43t53 -26 t51.5 -8.5q40 0 80.5 11.5t66.5 27.5q22 10 32 19.5t24 9.5q8 0 15.5 -4.5t18.5 -16.5l101 -144q10 -14 10 -29q0 -14 -8.5 -26t-22.5 -21zM572 722q-27 0 -52 -9t-45.5 -24.5t-37 -35.5t-26.5 -42h335q-12 21 -28 41t-36.5 35.5t-47.5 25t-62 9.5zM574 1199 q-59 1 -109 22.5t-87 56.5t-58 79.5t-21 92.5q0 17 11.5 27t26.5 10h144q11 0 17 -6.5t6 -15.5q0 -23 18 -41.5t56 -18.5q34 0 52.5 19t18.5 41q0 9 5 15.5t16 6.5h146q15 0 26.5 -10t11.5 -27q0 -49 -21.5 -94t-59.5 -79.5t-89 -55.5t-110 -22z" />
<glyph unicode="&#x116;" horiz-adv-x="1350" d="M161 1439q0 21 11.5 33.5t32.5 12.5h993q22 0 34 -13t12 -35v-248q0 -17 -12 -32.5t-35 -15.5h-648v-247h500q19 0 31.5 -9t12.5 -30v-216q0 -14 -11 -27t-32 -13h-501v-255h672q45 0 45 -46v-252q0 -20 -14 -33t-35 -13h-1012q-20 0 -32 10.5t-12 32.5v1396zM544 1841 q0 37 14.5 70.5t39 58t57.5 39t70 14.5q39 0 72.5 -14.5t57.5 -39t38 -58t14 -70.5t-14 -70t-38 -57.5t-57.5 -39t-72.5 -14.5q-37 0 -70 14.5t-57.5 39t-39 57.5t-14.5 70z" />
<glyph unicode="&#x117;" horiz-adv-x="1129" d="M903 82q-66 -52 -146 -80t-168 -28q-105 0 -197.5 40t-162 110t-110 164t-40.5 201q0 101 36.5 194t102 164t154.5 113t194 42q98 0 186.5 -37t155 -101.5t105.5 -152t39 -187.5q0 -34 -7 -59t-24 -41t-46.5 -24t-74.5 -8h-495q10 -34 30.5 -59.5t46 -43t53 -26 t51.5 -8.5q40 0 80.5 11.5t66.5 27.5q22 10 32 19.5t24 9.5q8 0 15.5 -4.5t18.5 -16.5l101 -144q10 -14 10 -29q0 -14 -8.5 -26t-22.5 -21zM572 722q-27 0 -52 -9t-45.5 -24.5t-37 -35.5t-26.5 -42h335q-12 21 -28 41t-36.5 35.5t-47.5 25t-62 9.5zM380 1324q0 37 14.5 70.5 t39 58t57.5 39t70 14.5q39 0 72.5 -14.5t57.5 -39t38 -58t14 -70.5t-14 -70t-38 -57.5t-57.5 -39t-72.5 -14.5q-37 0 -70 14.5t-57.5 39t-39 57.5t-14.5 70z" />
<glyph unicode="&#x118;" horiz-adv-x="1350" d="M161 1439q0 21 11.5 33.5t32.5 12.5h993q22 0 34 -13t12 -35v-248q0 -17 -12 -32.5t-35 -15.5h-648v-247h500q19 0 31.5 -9t12.5 -30v-216q0 -14 -11 -27t-32 -13h-501v-255h672q45 0 45 -46v-252q0 -20 -14 -33t-35 -13h-1012q-20 0 -32 10.5t-12 32.5v1396zM877 0 q14 -14 17 -25.5t3 -22.5q0 -29 -15 -51t-37.5 -40t-48.5 -33.5t-48.5 -31t-37.5 -32.5t-15 -39q0 -63 171 -106q11 -6 11 -22q0 -9 -11 -35.5t-27 -54.5t-34 -50t-33 -22h-5q-76 23 -138.5 57.5t-107 74.5t-69 81t-24.5 77q0 37 15.5 64.5t38.5 49t49.5 38t49.5 30.5 t38.5 28t15.5 30q0 20 -22 35h264z" />
<glyph unicode="&#x119;" horiz-adv-x="1129" d="M903 82q-66 -52 -146 -80t-168 -28q-105 0 -197.5 40t-162 110t-110 164t-40.5 201q0 101 36.5 194t102 164t154.5 113t194 42q98 0 186.5 -37t155 -101.5t105.5 -152t39 -187.5q0 -34 -7 -59t-24 -41t-46.5 -24t-74.5 -8h-495q10 -34 30.5 -59.5t46 -43t53 -26 t51.5 -8.5q40 0 80.5 11.5t66.5 27.5q22 10 32 19.5t24 9.5q8 0 15.5 -4.5t18.5 -16.5l101 -144q10 -14 10 -29q0 -14 -8.5 -26t-22.5 -21zM572 722q-27 0 -52 -9t-45.5 -24.5t-37 -35.5t-26.5 -42h335q-12 21 -28 41t-36.5 35.5t-47.5 25t-62 9.5zM692 26q14 -14 17 -25.5 t3 -22.5q0 -29 -15 -51t-37.5 -40t-48.5 -33.5t-48.5 -31t-37.5 -32.5t-15 -39q0 -63 171 -106q11 -6 11 -22q0 -9 -11 -35.5t-27 -54.5t-34 -50t-33 -22h-5q-76 23 -138.5 57.5t-107 74.5t-69 81t-24.5 77q0 37 15.5 64.5t38.5 49t49.5 38t49.5 30.5t38.5 28t15.5 30 q0 20 -22 35h264z" />
<glyph unicode="&#x11a;" horiz-adv-x="1350" d="M161 1439q0 21 11.5 33.5t32.5 12.5h993q22 0 34 -13t12 -35v-248q0 -17 -12 -32.5t-35 -15.5h-648v-247h500q19 0 31.5 -9t12.5 -30v-216q0 -14 -11 -27t-32 -13h-501v-255h672q45 0 45 -46v-252q0 -20 -14 -33t-35 -13h-1012q-20 0 -32 10.5t-12 32.5v1396zM420 1913 q-5 2 -7 8t-2 14q1 6 2.5 12t6.5 10l110 107q6 10 22 10q3 -1 9 -2.5t13 -4.5l142 -143l139 142q5 5 11 7t11 2q13 0 27 -11l108 -110q9 -11 9 -19q0 -17 -8 -23l-277 -276q-7 -5 -11 -7t-9 -2q-7 0 -11 2.5t-11 6.5z" />
<glyph unicode="&#x11b;" horiz-adv-x="1129" d="M903 82q-66 -52 -146 -80t-168 -28q-105 0 -197.5 40t-162 110t-110 164t-40.5 201q0 101 36.5 194t102 164t154.5 113t194 42q98 0 186.5 -37t155 -101.5t105.5 -152t39 -187.5q0 -34 -7 -59t-24 -41t-46.5 -24t-74.5 -8h-495q10 -34 30.5 -59.5t46 -43t53 -26 t51.5 -8.5q40 0 80.5 11.5t66.5 27.5q22 10 32 19.5t24 9.5q8 0 15.5 -4.5t18.5 -16.5l101 -144q10 -14 10 -29q0 -14 -8.5 -26t-22.5 -21zM572 722q-27 0 -52 -9t-45.5 -24.5t-37 -35.5t-26.5 -42h335q-12 21 -28 41t-36.5 35.5t-47.5 25t-62 9.5zM284 1409q-5 2 -7 8 t-2 14q1 6 2.5 12t6.5 10l110 107q6 10 22 10q3 -1 9 -2.5t13 -4.5l142 -143l139 142q5 5 11 7t11 2q13 0 27 -11l108 -110q9 -11 9 -19q0 -17 -8 -23l-277 -276q-7 -5 -11 -7t-9 -2q-7 0 -11 2.5t-11 6.5z" />
<glyph unicode="&#x11c;" horiz-adv-x="1474" d="M1078 1066q-50 36 -108.5 56t-124.5 20q-83 0 -152 -31.5t-118.5 -85.5t-77.5 -126.5t-28 -154.5t28 -154t77.5 -125.5t118.5 -84.5t152 -31q35 0 69.5 5t73.5 13v262q0 19 11 31.5t33 12.5h242q15 0 32 -12t17 -32v-484q0 -28 -29 -44q-93 -63 -208 -93t-234 -30 q-106 0 -203.5 27t-182.5 77t-154.5 119.5t-119.5 154t-77 182t-27 203.5t27 203.5t77 183t119.5 155.5t154.5 119.5t182.5 77t203.5 27.5q120 0 226.5 -33.5t200.5 -96.5q11 -8 20 -18t9 -24q0 -11 -7 -22l-162 -234q-17 -22 -34 -22q-14 0 -27 9zM804 2093q7 5 11 7t11 2 q8 0 20 -9l277 -276q8 -6 8 -23q0 -9 -9 -19l-108 -110q-7 -5 -13.5 -8t-13.5 -3q-5 0 -11 2t-11 7l-139 142l-142 -143q-7 -2 -13 -4t-10 -2q-12 0 -21 9l-110 107q-5 5 -6.5 10.5t-2.5 11.5q0 8 2 14t7 8z" />
<glyph unicode="&#x11d;" horiz-adv-x="1269" d="M1124 57q0 -112 -33.5 -204t-98 -158t-159 -102t-216.5 -36q-100 0 -188 20.5t-165 68.5q-17 9 -28.5 22t-11.5 31q0 13 9 33l77 168q16 25 36 25q13 0 38 -11q15 -11 39 -20t51 -15t53 -9.5t46 -3.5q33 0 69 9.5t66.5 27.5t52.5 44.5t28 59.5q3 18 5.5 44.5t2.5 52.5v7 q-16 -20 -37.5 -41.5t-49.5 -38.5t-63 -28t-77 -11h-11q-108 0 -197.5 37t-154 103t-100.5 157t-36 199q0 111 35.5 206t100 164t154.5 108.5t199 39.5q39 0 83.5 -15.5t83.5 -40t67.5 -54t36.5 -57.5l13 83q3 21 7 33t11 18t17.5 7t26.5 1h158q24 0 42 -15.5t18 -41.5v-867 zM426 485q0 -40 12 -74t34 -59t53.5 -39t69.5 -14q39 0 72.5 14t57.5 39t37.5 59t13.5 74q0 39 -13.5 73t-37.5 59.5t-57.5 40.5t-72.5 15q-38 0 -69.5 -15t-53.5 -40.5t-34 -59.5t-12 -73zM815 137q-2 -2 -2 -3zM670 1653q7 5 11 7t11 2q8 0 20 -9l277 -276q8 -6 8 -23 q0 -9 -9 -19l-108 -110q-7 -5 -13.5 -8t-13.5 -3q-5 0 -11 2t-11 7l-139 142l-142 -143q-7 -2 -13 -4t-10 -2q-12 0 -21 9l-110 107q-5 5 -6.5 10.5t-2.5 11.5q0 8 2 14t7 8z" />
<glyph unicode="&#x11e;" horiz-adv-x="1474" d="M1078 1066q-50 36 -108.5 56t-124.5 20q-83 0 -152 -31.5t-118.5 -85.5t-77.5 -126.5t-28 -154.5t28 -154t77.5 -125.5t118.5 -84.5t152 -31q35 0 69.5 5t73.5 13v262q0 19 11 31.5t33 12.5h242q15 0 32 -12t17 -32v-484q0 -28 -29 -44q-93 -63 -208 -93t-234 -30 q-106 0 -203.5 27t-182.5 77t-154.5 119.5t-119.5 154t-77 182t-27 203.5t27 203.5t77 183t119.5 155.5t154.5 119.5t182.5 77t203.5 27.5q120 0 226.5 -33.5t200.5 -96.5q11 -8 20 -18t9 -24q0 -11 -7 -22l-162 -234q-17 -22 -34 -22q-14 0 -27 9zM820 1703 q-59 1 -109 22.5t-87 56.5t-58 79.5t-21 92.5q0 17 11.5 27t26.5 10h144q11 0 17 -6.5t6 -15.5q0 -23 18 -41.5t56 -18.5q34 0 52.5 19t18.5 41q0 9 5 15.5t16 6.5h146q15 0 26.5 -10t11.5 -27q0 -49 -21.5 -94t-59.5 -79.5t-89 -55.5t-110 -22z" />
<glyph unicode="&#x11f;" horiz-adv-x="1269" d="M1124 57q0 -112 -33.5 -204t-98 -158t-159 -102t-216.5 -36q-100 0 -188 20.5t-165 68.5q-17 9 -28.5 22t-11.5 31q0 13 9 33l77 168q16 25 36 25q13 0 38 -11q15 -11 39 -20t51 -15t53 -9.5t46 -3.5q33 0 69 9.5t66.5 27.5t52.5 44.5t28 59.5q3 18 5.5 44.5t2.5 52.5v7 q-16 -20 -37.5 -41.5t-49.5 -38.5t-63 -28t-77 -11h-11q-108 0 -197.5 37t-154 103t-100.5 157t-36 199q0 111 35.5 206t100 164t154.5 108.5t199 39.5q39 0 83.5 -15.5t83.5 -40t67.5 -54t36.5 -57.5l13 83q3 21 7 33t11 18t17.5 7t26.5 1h158q24 0 42 -15.5t18 -41.5v-867 zM426 485q0 -40 12 -74t34 -59t53.5 -39t69.5 -14q39 0 72.5 14t57.5 39t37.5 59t13.5 74q0 39 -13.5 73t-37.5 59.5t-57.5 40.5t-72.5 15q-38 0 -69.5 -15t-53.5 -40.5t-34 -59.5t-12 -73zM815 137q-2 -2 -2 -3zM693 1311q-59 1 -109 22.5t-87 56.5t-58 79.5t-21 92.5 q0 17 11.5 27t26.5 10h144q11 0 17 -6.5t6 -15.5q0 -23 18 -41.5t56 -18.5q34 0 52.5 19t18.5 41q0 9 5 15.5t16 6.5h146q15 0 26.5 -10t11.5 -27q0 -49 -21.5 -94t-59.5 -79.5t-89 -55.5t-110 -22z" />
<glyph unicode="&#x120;" horiz-adv-x="1474" d="M1078 1066q-50 36 -108.5 56t-124.5 20q-83 0 -152 -31.5t-118.5 -85.5t-77.5 -126.5t-28 -154.5t28 -154t77.5 -125.5t118.5 -84.5t152 -31q35 0 69.5 5t73.5 13v262q0 19 11 31.5t33 12.5h242q15 0 32 -12t17 -32v-484q0 -28 -29 -44q-93 -63 -208 -93t-234 -30 q-106 0 -203.5 27t-182.5 77t-154.5 119.5t-119.5 154t-77 182t-27 203.5t27 203.5t77 183t119.5 155.5t154.5 119.5t182.5 77t203.5 27.5q120 0 226.5 -33.5t200.5 -96.5q11 -8 20 -18t9 -24q0 -11 -7 -22l-162 -234q-17 -22 -34 -22q-14 0 -27 9zM660 1826q0 37 14.5 70.5 t39 58t57.5 39t70 14.5q39 0 72.5 -14.5t57.5 -39t38 -58t14 -70.5t-14 -70t-38 -57.5t-57.5 -39t-72.5 -14.5q-37 0 -70 14.5t-57.5 39t-39 57.5t-14.5 70z" />
<glyph unicode="&#x121;" horiz-adv-x="1269" d="M1124 57q0 -112 -33.5 -204t-98 -158t-159 -102t-216.5 -36q-100 0 -188 20.5t-165 68.5q-17 9 -28.5 22t-11.5 31q0 13 9 33l77 168q16 25 36 25q13 0 38 -11q15 -11 39 -20t51 -15t53 -9.5t46 -3.5q33 0 69 9.5t66.5 27.5t52.5 44.5t28 59.5q3 18 5.5 44.5t2.5 52.5v7 q-16 -20 -37.5 -41.5t-49.5 -38.5t-63 -28t-77 -11h-11q-108 0 -197.5 37t-154 103t-100.5 157t-36 199q0 111 35.5 206t100 164t154.5 108.5t199 39.5q39 0 83.5 -15.5t83.5 -40t67.5 -54t36.5 -57.5l13 83q3 21 7 33t11 18t17.5 7t26.5 1h158q24 0 42 -15.5t18 -41.5v-867 zM426 485q0 -40 12 -74t34 -59t53.5 -39t69.5 -14q39 0 72.5 14t57.5 39t37.5 59t13.5 74q0 39 -13.5 73t-37.5 59.5t-57.5 40.5t-72.5 15q-38 0 -69.5 -15t-53.5 -40.5t-34 -59.5t-12 -73zM815 137q-2 -2 -2 -3zM467 1337q0 37 14.5 70.5t39 58t57.5 39t70 14.5 q39 0 72.5 -14.5t57.5 -39t38 -58t14 -70.5t-14 -70t-38 -57.5t-57.5 -39t-72.5 -14.5q-37 0 -70 14.5t-57.5 39t-39 57.5t-14.5 70z" />
<glyph unicode="&#x122;" horiz-adv-x="1474" d="M1078 1066q-50 36 -108.5 56t-124.5 20q-83 0 -152 -31.5t-118.5 -85.5t-77.5 -126.5t-28 -154.5t28 -154t77.5 -125.5t118.5 -84.5t152 -31q35 0 69.5 5t73.5 13v262q0 19 11 31.5t33 12.5h242q15 0 32 -12t17 -32v-484q0 -28 -29 -44q-93 -63 -208 -93t-234 -30 q-106 0 -203.5 27t-182.5 77t-154.5 119.5t-119.5 154t-77 182t-27 203.5t27 203.5t77 183t119.5 155.5t154.5 119.5t182.5 77t203.5 27.5q120 0 226.5 -33.5t200.5 -96.5q11 -8 20 -18t9 -24q0 -11 -7 -22l-162 -234q-17 -22 -34 -22q-14 0 -27 9zM666 -296q0 39 14.5 72 t39 57t57.5 38t70 14q39 0 72.5 -14t58 -39.5t38 -62t13.5 -80.5q0 -96 -19 -166.5t-45.5 -117.5t-54 -70t-45.5 -23q-11 0 -17.5 2.5t-14.5 8.5l-42 32q-9 8 -14.5 20t-5.5 21q0 18 8 30.5t17 24.5t17 26t8 36v10q-31 5 -59 21.5t-49.5 41t-34 55t-12.5 63.5z" />
<glyph unicode="&#x123;" horiz-adv-x="1269" d="M1124 57q0 -112 -33.5 -204t-98 -158t-159 -102t-216.5 -36q-100 0 -188 20.5t-165 68.5q-17 9 -28.5 22t-11.5 31q0 13 9 33l77 168q16 25 36 25q13 0 38 -11q15 -11 39 -20t51 -15t53 -9.5t46 -3.5q33 0 69 9.5t66.5 27.5t52.5 44.5t28 59.5q3 18 5.5 44.5t2.5 52.5v7 q-16 -20 -37.5 -41.5t-49.5 -38.5t-63 -28t-77 -11h-11q-108 0 -197.5 37t-154 103t-100.5 157t-36 199q0 111 35.5 206t100 164t154.5 108.5t199 39.5q39 0 83.5 -15.5t83.5 -40t67.5 -54t36.5 -57.5l13 83q3 21 7 33t11 18t17.5 7t26.5 1h158q24 0 42 -15.5t18 -41.5v-867 zM426 485q0 -40 12 -74t34 -59t53.5 -39t69.5 -14q39 0 72.5 14t57.5 39t37.5 59t13.5 74q0 39 -13.5 73t-37.5 59.5t-57.5 40.5t-72.5 15q-38 0 -69.5 -15t-53.5 -40.5t-34 -59.5t-12 -73zM815 137q-2 -2 -2 -3zM815.004 1272.98q0 -38.998 -14.499 -71.9961 t-38.9971 -56.9961q-24.499 -23.999 -57.4971 -37.998q-32.9971 -13.999 -69.9951 -13.999q-38.998 0 -72.4961 13.999t-57.9961 39.4971q-24.498 25.499 -37.998 61.9971q-13.499 36.4971 -13.499 80.4951q0 95.9941 18.999 166.489q18.999 70.4961 45.4971 117.493 q26.499 46.9971 53.9971 69.9951q27.498 22.999 45.4971 22.999q10.999 0 17.499 -2.5q6.49902 -2.5 14.499 -8.49902l41.9971 -31.998q9 -8 14.499 -19.999q5.5 -11.999 5.5 -20.999q0 -17.999 -7.99902 -30.498q-8 -12.499 -16.999 -24.498q-9 -12 -16.999 -25.999 q-8 -13.999 -8 -35.9971v-10q30.998 -5 58.9961 -21.498q27.999 -16.499 49.4971 -40.998q21.499 -24.498 33.998 -54.9961q12.499 -30.499 12.499 -63.4961z" />
<glyph unicode="&#x124;" horiz-adv-x="1606" d="M169 1441q0 17 12 30.5t31 13.5h297q15 0 31 -12.5t16 -31.5v-474h497v474q0 18 12.5 31t32.5 13h293q20 0 35 -10t15 -32v-1399q0 -22 -13 -33t-34 -11h-296q-20 0 -32.5 11t-12.5 33v568h-497v-568q0 -21 -13.5 -32.5t-36.5 -11.5h-294q-41 0 -43 39v1402zM752 2093 q7 5 11 7t11 2q8 0 20 -9l277 -276q8 -6 8 -23q0 -9 -9 -19l-108 -110q-7 -5 -13.5 -8t-13.5 -3q-5 0 -11 2t-11 7l-139 142l-142 -143q-7 -2 -13 -4t-10 -2q-12 0 -21 9l-110 107q-5 5 -6.5 10.5t-2.5 11.5q0 8 2 14t7 8z" />
<glyph unicode="&#x125;" horiz-adv-x="1339" d="M514 49q0 -18 -8.5 -28t-20.5 -14.5t-26 -5.5t-25 -1h-217q-30 0 -43.5 13.5t-13.5 37.5v1381q0 23 13 37.5t40 14.5h244q26 0 41.5 -9.5t15.5 -41.5v-549q18 17 45.5 36.5t63.5 36t79.5 27t93.5 10.5q96 0 168.5 -32.5t122 -89.5t77 -134.5t34.5 -166.5q3 -42 3 -86 v-434q0 -24 -14.5 -37.5t-35.5 -13.5h-251q-27 0 -39 12t-12 37v477q0 31 -13.5 57t-35.5 45t-50 30t-58 11q-26 0 -56 -10t-56.5 -27.5t-44.5 -42t-21 -54.5v-486v-4v4v0zM627 1961q7 5 11 7t11 2q8 0 20 -9l277 -276q8 -6 8 -23q0 -9 -9 -19l-108 -110q-7 -5 -13.5 -8 t-13.5 -3q-5 0 -11 2t-11 7l-139 142l-142 -143q-7 -2 -13 -4t-10 -2q-12 0 -21 9l-110 107q-5 5 -6.5 10.5t-2.5 11.5q0 8 2 14t7 8z" />
<glyph unicode="&#x126;" horiz-adv-x="1606" d="M169 1441q0 17 12 30.5t31 13.5h297q15 0 31 -12.5t16 -31.5v-191h497v191q0 18 12.5 31t32.5 13h293q20 0 35 -10t15 -32v-1399q0 -22 -13 -33t-34 -11h-296q-20 0 -32.5 11t-12.5 33v428h-497v-428q0 -21 -13.5 -32.5t-36.5 -11.5h-294q-41 0 -43 39v1402zM1053 787 v167h-497v-167h497z" />
<glyph unicode="&#x127;" horiz-adv-x="1295" d="M516 49q0 -18 -8.5 -28t-20.5 -14.5t-26 -5.5t-25 -1h-217q-30 0 -43.5 13.5t-13.5 37.5v1043h-96q-44 0 -44 49v126q0 44 44 44h96v119q0 23 13 37.5t40 14.5h240q23 0 42 -11t19 -40v-120h88q18 0 31 -11.5t13 -32.5v-126q0 -15 -12 -32t-32 -17h-88v-210 q18 17 50 36.5t71.5 36t81.5 27t79 10.5q96 0 168.5 -32.5t122 -89.5t77 -134.5t34.5 -166.5q3 -42 3 -86v-434q0 -24 -14.5 -37.5t-35.5 -13.5h-251q-27 0 -39 12t-12 37v477q0 31 -13.5 57t-35.5 45t-50 30t-58 11q-26 0 -56 -10t-56.5 -27.5t-44.5 -42t-21 -54.5v-486v0z " />
<glyph unicode="&#x128;" horiz-adv-x="709" d="M161 1441q0 18 11 31t33 13h294q15 0 32 -12t17 -32v-1397q0 -44 -49 -44h-294q-44 0 -44 44v1397zM7 1872q39 54 94 84t119 30q37 -2 78.5 -15t76.5 -36l55 -35q15 -10 23.5 -12.5t21.5 -2.5q20 0 35 8t26 22l30 36q9 11 26 11q8 0 19 -8l105 -103q12 -12 12 -26 q0 -10 -6 -17l-25 -32q-42 -54 -97.5 -84t-121.5 -30q-40 0 -80 13.5t-76 36.5l-55 35q-11 7 -21 11t-24 4q-20 0 -34 -8t-25 -21l-31 -38q-4 -6 -10.5 -8t-14.5 -2q-6 0 -10.5 0.5t-9.5 5.5l-106 104q-5 5 -8.5 9t-3.5 14q0 2 1 4t5 7.5t11.5 15.5t20.5 27z" />
<glyph unicode="&#x129;" horiz-adv-x="650" d="M160 931q0 21 12.5 36.5t37.5 15.5h250q8 0 17.5 -4t18 -10.5t14 -16t5.5 -21.5v-880q0 -51 -55 -51h-250q-50 0 -50 51v880zM-16 1368q39 54 94 84t119 30q37 -2 78.5 -15t76.5 -36l55 -35q15 -10 23.5 -12.5t21.5 -2.5q20 0 35 8t26 22l30 36q9 11 26 11q8 0 19 -8 l105 -103q12 -12 12 -26q0 -10 -6 -17l-25 -32q-42 -54 -97.5 -84t-121.5 -30q-40 0 -80 13.5t-76 36.5l-55 35q-11 7 -21 11t-24 4q-20 0 -34 -8t-25 -21l-31 -38q-4 -6 -10.5 -8t-14.5 -2q-6 0 -10.5 0.5t-9.5 5.5l-106 104q-5 5 -8.5 9t-3.5 14q0 2 1 4t5 7.5t11.5 15.5 t20.5 27z" />
<glyph unicode="&#x12a;" horiz-adv-x="709" d="M161 1441q0 18 11 31t33 13h294q15 0 32 -12t17 -32v-1397q0 -44 -49 -44h-294q-44 0 -44 44v1397zM-71 1867q0 35 35 35h749q15 0 25 -8.5t10 -26.5v-124q0 -12 -9 -26t-26 -14h-749q-35 0 -35 40v124z" />
<glyph unicode="&#x12b;" horiz-adv-x="650" d="M160 931q0 21 12.5 36.5t37.5 15.5h250q8 0 17.5 -4t18 -10.5t14 -16t5.5 -21.5v-880q0 -51 -55 -51h-250q-50 0 -50 51v880zM-78 1363q0 35 35 35h749q15 0 25 -8.5t10 -26.5v-124q0 -12 -9 -26t-26 -14h-749q-35 0 -35 40v124z" />
<glyph unicode="&#x12c;" horiz-adv-x="709" d="M161 1441q0 18 11 31t33 13h294q15 0 32 -12t17 -32v-1397q0 -44 -49 -44h-294q-44 0 -44 44v1397zM345 1703q-59 1 -109 22.5t-87 56.5t-58 79.5t-21 92.5q0 17 11.5 27t26.5 10h144q11 0 17 -6.5t6 -15.5q0 -23 18 -41.5t56 -18.5q34 0 52.5 19t18.5 41q0 9 5 15.5 t16 6.5h146q15 0 26.5 -10t11.5 -27q0 -49 -21.5 -94t-59.5 -79.5t-89 -55.5t-110 -22z" />
<glyph unicode="&#x12d;" horiz-adv-x="650" d="M158 931q0 21 12.5 36.5t37.5 15.5h250q8 0 17.5 -4t18 -10.5t14 -16t5.5 -21.5v-880q0 -51 -55 -51h-250q-50 0 -50 51v880zM322 1199q-59 1 -109 22.5t-87 56.5t-58 79.5t-21 92.5q0 17 11.5 27t26.5 10h144q11 0 17 -6.5t6 -15.5q0 -23 18 -41.5t56 -18.5 q34 0 52.5 19t18.5 41q0 9 5 15.5t16 6.5h146q15 0 26.5 -10t11.5 -27q0 -49 -21.5 -94t-59.5 -79.5t-89 -55.5t-110 -22z" />
<glyph unicode="&#x12e;" horiz-adv-x="709" d="M161 1441q0 18 11 31t33 13h294q15 0 32 -12t17 -32v-1397q0 -44 -49 -44h-294q-44 0 -44 44v1397zM485 7q14 -14 17 -25.5t3 -22.5q0 -29 -15 -51t-37.5 -40t-48.5 -33.5t-48.5 -31t-37.5 -32.5t-15 -39q0 -63 171 -106q11 -6 11 -22q0 -9 -11 -35.5t-27 -54.5t-34 -50 t-33 -22h-5q-76 23 -138.5 57.5t-107 74.5t-69 81t-24.5 77q0 37 15.5 64.5t38.5 49t49.5 38t49.5 30.5t38.5 28t15.5 30q0 20 -22 35h264z" />
<glyph unicode="&#x12f;" horiz-adv-x="650" d="M160 931q0 21 12.5 36.5t37.5 15.5h250q8 0 17.5 -4t18 -10.5t14 -16t5.5 -21.5v-880q0 -51 -55 -51h-250q-50 0 -50 51v880zM150 1292q0 37 14.5 70.5t39 58t57.5 39t70 14.5q39 0 72.5 -14.5t57.5 -39t38 -58t14 -70.5t-14 -70t-38 -57.5t-57.5 -39t-72.5 -14.5 q-37 0 -70 14.5t-57.5 39t-39 57.5t-14.5 70zM455 10q14 -14 17 -25.5t3 -22.5q0 -29 -15 -51t-37.5 -40t-48.5 -33.5t-48.5 -31t-37.5 -32.5t-15 -39q0 -63 171 -106q11 -6 11 -22q0 -9 -11 -35.5t-27 -54.5t-34 -50t-33 -22h-5q-76 23 -138.5 57.5t-107 74.5t-69 81 t-24.5 77q0 37 15.5 64.5t38.5 49t49.5 38t49.5 30.5t38.5 28t15.5 30q0 20 -22 35h264z" />
<glyph unicode="&#x130;" horiz-adv-x="709" d="M161 1441q0 18 11 31t33 13h294q15 0 32 -12t17 -32v-1397q0 -44 -49 -44h-294q-44 0 -44 44v1397zM167 1841q0 37 14.5 70.5t39 58t57.5 39t70 14.5q39 0 72.5 -14.5t57.5 -39t38 -58t14 -70.5t-14 -70t-38 -57.5t-57.5 -39t-72.5 -14.5q-37 0 -70 14.5t-57.5 39 t-39 57.5t-14.5 70z" />
<glyph unicode="&#x131;" horiz-adv-x="650" d="M159 931q0 21 12.5 36.5t37.5 15.5h250q8 0 17.5 -4t18 -10.5t14 -16t5.5 -21.5v-880q0 -51 -55 -51h-250q-50 0 -50 51v880z" />
<glyph unicode="&#x132;" horiz-adv-x="1421" d="M161 1441q0 18 11 31t33 13h294q15 0 32 -12t17 -32v-1397q0 -44 -49 -44h-294q-44 0 -44 44v1397zM872 1445q0 37 39 40h295q54 0 54 -52v-1394q0 -99 -39.5 -185.5t-106.5 -151t-155.5 -101.5t-186.5 -37q-58 0 -114 13t-107 38.5t-94 63t-76 86.5q-3 2 -3 16 q0 26 16 38l174 163q8 7 17 11.5t17 4.5q15 0 28.5 -11t30 -24.5t38.5 -24.5t53 -11q23 0 45 9t38.5 24t26.5 35.5t10 43.5v1406z" />
<glyph unicode="&#x133;" horiz-adv-x="1196" d="M158 931q0 21 12.5 36.5t37.5 15.5h250q8 0 17.5 -4t18 -10.5t14 -16t5.5 -21.5v-880q0 -51 -55 -51h-250q-50 0 -50 51v880zM148 1292q0 37 14.5 70.5t39 58t57.5 39t70 14.5q39 0 72.5 -14.5t57.5 -39t38 -58t14 -70.5t-14 -70t-38 -57.5t-57.5 -39t-72.5 -14.5 q-37 0 -70 14.5t-57.5 39t-39 57.5t-14.5 70zM636 930q0 24 15 38t38 14h249q21 0 37.5 -15t16.5 -37v-899q0 -104 -32.5 -187t-92.5 -141t-144 -88.5t-186 -30.5q-29 0 -44 15t-15 40v191q0 23 13.5 36t34.5 13h4q21 0 40 8t33.5 22t23.5 34.5t9 46.5v940zM625 1292 q0 37 14.5 70.5t39 58t57.5 39t70 14.5q39 0 72.5 -14.5t57.5 -39t38 -58t14 -70.5t-14 -70t-38 -57.5t-57.5 -39t-72.5 -14.5q-37 0 -70 14.5t-57.5 39t-39 57.5t-14.5 70z" />
<glyph unicode="&#x134;" horiz-adv-x="1033" d="M480 1445q0 37 39 40h295q54 0 54 -52v-980q0 -99 -39.5 -185.5t-106.5 -151t-155.5 -101.5t-186.5 -37q-58 0 -114 13t-107 38.5t-94 63t-76 86.5q-3 2 -3 16q0 26 16 38l174 163q8 7 17 11.5t17 4.5q15 0 28.5 -11t30 -24.5t38.5 -24.5t53 -11q23 0 45 9t38.5 24 t26.5 35.5t10 43.5v992zM653 2091q7 5 11 7t11 2q8 0 20 -9l277 -276q8 -6 8 -23q0 -9 -9 -19l-108 -110q-7 -5 -13.5 -8t-13.5 -3q-5 0 -11 2t-11 7l-139 142l-142 -143q-7 -2 -13 -4t-10 -2q-12 0 -21 9l-110 107q-5 5 -6.5 10.5t-2.5 11.5q0 8 2 14t7 8z" />
<glyph unicode="&#x135;" horiz-adv-x="650" d="M160 930q0 24 15 38t38 14h249q21 0 37.5 -15t16.5 -37v-899q0 -104 -32.5 -187t-92.5 -141t-144 -88.5t-186 -30.5q-29 0 -44 15t-15 40v191q0 23 13.5 36t34.5 13h4q21 0 40 8t33.5 22t23.5 34.5t9 46.5v940zM308 1589q7 5 11 7t11 2q8 0 20 -9l277 -276q8 -6 8 -23 q0 -9 -9 -19l-108 -110q-7 -5 -13.5 -8t-13.5 -3q-5 0 -11 2t-11 7l-139 142l-142 -143q-7 -2 -13 -4t-10 -2q-12 0 -21 9l-110 107q-5 5 -6.5 10.5t-2.5 11.5q0 8 2 14t7 8z" />
<glyph unicode="&#x136;" horiz-adv-x="1505" d="M159 1441q0 18 11.5 31t32.5 13h296q15 0 31.5 -12t16.5 -32v-545q108 139 214 276t213 276q11 17 28.5 27.5t34.5 10.5h380q24 0 24 -15q0 -10 -11 -24l-471 -621l521 -784q11 -17 11 -27q0 -15 -22 -15h-378q-17 0 -33.5 10t-27.5 27q-53 72 -96.5 138t-84.5 131.5 t-83 132.5t-92 141l-127 -146v-390q0 -44 -48 -44h-295q-45 0 -45 44v1397zM512 -296q0 39 14.5 72t39 57t57.5 38t70 14q39 0 72.5 -14t58 -39.5t38 -62t13.5 -80.5q0 -96 -19 -166.5t-45.5 -117.5t-54 -70t-45.5 -23q-11 0 -17.5 2.5t-14.5 8.5l-42 32q-9 8 -14.5 20 t-5.5 21q0 18 8 30.5t17 24.5t17 26t8 36v10q-31 5 -59 21.5t-49.5 41t-34 55t-12.5 63.5z" />
<glyph unicode="&#x137;" horiz-adv-x="1323" d="M159 1432q0 23 9 37.5t43 14.5h253q23 0 36 -15.5t13 -32.5v-774q66 74 131.5 146.5t131.5 146.5q19 22 48 22h313q20 0 31 -9t11 -24q-1 -8 -3 -14t-11 -15l-316 -334l398 -511h-2q10 -10 14.5 -20.5t4.5 -18.5q0 -18 -9.5 -24.5t-29.5 -6.5h-326q-13 0 -31.5 9.5 t-29.5 30.5v-1l-251 357l-73 -75v-270q0 -17 -10.5 -34t-39.5 -17h-258q-12 0 -21 5t-15 12.5t-8.5 15.5t-2.5 14v1385zM839 38l-1 1zM371 -296q0 39 14.5 72t39 57t57.5 38t70 14q39 0 72.5 -14t58 -39.5t38 -62t13.5 -80.5q0 -96 -19 -166.5t-45.5 -117.5t-54 -70 t-45.5 -23q-11 0 -17.5 2.5t-14.5 8.5l-42 32q-9 8 -14.5 20t-5.5 21q0 18 8 30.5t17 24.5t17 26t8 36v10q-31 5 -59 21.5t-49.5 41t-34 55t-12.5 63.5z" />
<glyph unicode="&#x138;" horiz-adv-x="1323" d="M159 932q0 23 9 37.5t43 14.5h253q23 0 36 -15.5t13 -32.5v-274q66 74 131.5 146.5t131.5 146.5q19 22 48 22h313q20 0 31 -9t11 -24q-1 -8 -3 -14t-11 -15l-316 -334l398 -511h-2q10 -10 14.5 -20.5t4.5 -18.5q0 -18 -9.5 -24.5t-29.5 -6.5h-326q-13 0 -31.5 9.5 t-29.5 30.5v-1l-251 357l-73 -75v-270q0 -17 -10.5 -34t-39.5 -17h-258q-12 0 -21 5t-15 12.5t-8.5 15.5t-2.5 14v885zM839 38l-1 1z" />
<glyph unicode="&#x139;" horiz-adv-x="1204" d="M162 1442q0 18 12 31t33 13h296q17 0 31.5 -12t14.5 -32v-1088h550q18 0 31 -12t13 -33v-263q0 -17 -11.5 -31.5t-32.5 -14.5h-893q-44 0 -44 44v1398zM525 1720q-19 -42 -53 -42h-212q-19 0 -26 7t-7 18q0 8 3 18.5t8 20.5l88 205q12 22 23.5 32t30.5 10h219 q26 0 26 -22q0 -8 -1 -17t-8 -20z" />
<glyph unicode="&#x13a;" horiz-adv-x="650" d="M157 1432q0 22 12 37t38 15h240q7 0 16.5 -4t18 -10.5t14 -16t5.5 -21.5v-1381q0 -26 -14 -38.5t-40 -12.5h-240q-50 0 -50 51v1381zM484 1718q-19 -42 -53 -42h-212q-19 0 -26 7t-7 18q0 8 3 18.5t8 20.5l88 205q12 22 23.5 32t30.5 10h219q26 0 26 -22q0 -8 -1 -17 t-8 -20z" />
<glyph unicode="&#x13b;" horiz-adv-x="1204" d="M162 1442q0 18 12 31t33 13h296q17 0 31.5 -12t14.5 -32v-1088h550q18 0 31 -12t13 -33v-263q0 -17 -11.5 -31.5t-32.5 -14.5h-893q-44 0 -44 44v1398zM428 -296q0 39 14.5 72t39 57t57.5 38t70 14q39 0 72.5 -14t58 -39.5t38 -62t13.5 -80.5q0 -96 -19 -166.5 t-45.5 -117.5t-54 -70t-45.5 -23q-11 0 -17.5 2.5t-14.5 8.5l-42 32q-9 8 -14.5 20t-5.5 21q0 18 8 30.5t17 24.5t17 26t8 36v10q-31 5 -59 21.5t-49.5 41t-34 55t-12.5 63.5z" />
<glyph unicode="&#x13c;" horiz-adv-x="650" d="M158 1432q0 22 12 37t38 15h240q7 0 16.5 -4t18 -10.5t14 -16t5.5 -21.5v-1381q0 -26 -14 -38.5t-40 -12.5h-240q-50 0 -50 51v1381zM140 -296q0 39 14.5 72t39 57t57.5 38t70 14q39 0 72.5 -14t58 -39.5t38 -62t13.5 -80.5q0 -96 -19 -166.5t-45.5 -117.5t-54 -70 t-45.5 -23q-11 0 -17.5 2.5t-14.5 8.5l-42 32q-9 8 -14.5 20t-5.5 21q0 18 8 30.5t17 24.5t17 26t8 36v10q-31 5 -59 21.5t-49.5 41t-34 55t-12.5 63.5z" />
<glyph unicode="&#x13d;" horiz-adv-x="1204" d="M162 1442q0 18 12 31t33 13h296q17 0 31.5 -12t14.5 -32v-1088h550q18 0 31 -12t13 -33v-263q0 -17 -11.5 -31.5t-32.5 -14.5h-893q-44 0 -44 44v1398zM696 1452q0 39 14.5 72t39 57t57.5 38t70 14q39 0 72.5 -14t58 -39.5t38 -62t13.5 -80.5q0 -96 -19 -166.5 t-45.5 -117.5t-54 -70t-45.5 -23q-11 0 -17.5 2.5t-14.5 8.5l-47 34q-18 18 -18 35q0 12 7 23.5t16 25.5q11 11 20.5 28t9.5 44v10q-31 5 -59 21.5t-49.5 41t-34 55t-12.5 63.5z" />
<glyph unicode="&#x13e;" horiz-adv-x="697" d="M160 1432q0 22 12 37t38 15h240q7 0 16.5 -4t18 -10.5t14 -16t5.5 -21.5v-1381q0 -26 -14 -38.5t-40 -12.5h-240q-50 0 -50 51v1381zM501.725 1524.61q0 34.9795 13.0166 64.5771q13.0166 29.5986 35.0107 51.124t51.6182 34.083q29.624 12.5566 62.8389 12.5566 q35.0107 0 65.084 -12.5566q30.0732 -12.5576 52.0664 -35.4287q21.9941 -22.8711 34.1133 -55.6084t12.1191 -72.2012q0 -86.1035 -17.0566 -149.336t-40.8457 -105.387q-23.7891 -42.1553 -48.4756 -62.7842q-24.6875 -20.6289 -40.8457 -20.6289q-9.875 0 -15.71 2.24219 t-13.0166 7.62402l-42.1924 30.4951q-16.1582 16.1445 -16.1582 31.3916q0 10.7627 6.2832 21.0771q6.28418 10.3145 14.3633 22.8711q9.875 9.86621 18.4033 25.1143q8.52832 15.2471 8.52832 39.4639v8.96875q-27.8291 4.48535 -52.9648 19.2842t-44.4365 36.7734 q-19.3008 21.9736 -30.5215 49.3301q-11.2217 27.3555 -11.2217 56.9541z" />
<glyph unicode="&#x13f;" horiz-adv-x="1204" d="M162 1442q0 18 12 31t33 13h296q17 0 31.5 -12t14.5 -32v-1088h550q18 0 31 -12t13 -33v-263q0 -17 -11.5 -31.5t-32.5 -14.5h-893q-44 0 -44 44v1398zM803 736q0 33 12.5 61.5t34 50t50 34t60.5 12.5q34 0 63 -12.5t50 -34t33 -50t12 -61.5q0 -32 -12 -60.5t-33 -50 t-50 -34t-63 -12.5q-32 0 -60.5 12.5t-50 34t-34 50t-12.5 60.5z" />
<glyph unicode="&#x140;" horiz-adv-x="744" d="M165 1432q0 22 12 37t38 15h240q7 0 16.5 -4t18 -10.5t14 -16t5.5 -21.5v-1381q0 -26 -14 -38.5t-40 -12.5h-240q-50 0 -50 51v1381zM535 639q0 33 12.5 61.5t34 50t50 34t60.5 12.5q34 0 63 -12.5t50 -34t33 -50t12 -61.5q0 -32 -12 -60.5t-33 -50t-50 -34t-63 -12.5 q-32 0 -60.5 12.5t-50 34t-34 50t-12.5 60.5z" />
<glyph unicode="&#x141;" horiz-adv-x="1204" d="M627 975q3 1 5.5 1.5t5.5 0.5q18 0 28 -22l44 -113q3 -8 3 -14q0 -23 -20 -30l-625 -229q-9 -3 -15 -3q-21 2 -29 25l-44 113q-3 7 -3 14q2 22 25 30zM162 1442q0 18 12 31t33 13h296q17 0 31.5 -12t14.5 -32v-1088h550q18 0 31 -12t13 -33v-263q0 -17 -11.5 -31.5 t-32.5 -14.5h-893q-44 0 -44 44v1398z" />
<glyph unicode="&#x142;" horiz-adv-x="650" d="M608 976q11 5 22 0t18 -20l39 -106q5 -14 0.5 -26.5t-18.5 -17.5l-625 -229q-31 -10 -44 22l-39 106q-9 31 22 44zM157 1432q0 22 12 37t38 15h240q7 0 16.5 -4t18 -10.5t14 -16t5.5 -21.5v-1381q0 -26 -14 -38.5t-40 -12.5h-240q-50 0 -50 51v1381z" />
<glyph unicode="&#x143;" horiz-adv-x="1643" d="M169 1441q0 18 11 31t33 13h327q14 0 29 -7t26 -24q126 -204 252 -404t253 -404v801q4 18 16 28t28 10h285q21 0 35 -11.5t14 -32.5v-1402q0 -20 -12 -29.5t-33 -9.5h-319q-13 0 -23 9t-21 24q-132 219 -263 435t-264 435v-859q0 -22 -10 -33t-36 -11h-284 q-23 0 -33.5 12.5t-10.5 30.5v1398zM940 1720q-19 -42 -53 -42h-212q-19 0 -26 7t-7 18q0 8 3 18.5t8 20.5l88 205q12 22 23.5 32t30.5 10h219q26 0 26 -22q0 -8 -1 -17t-8 -20z" />
<glyph unicode="&#x144;" horiz-adv-x="1307" d="M160 923q0 31 14 45.5t47 14.5h130q28 0 47.5 -11.5t33 -30t23 -43t16.5 -50.5q18 21 50.5 46.5t74.5 48t90.5 37.5t97.5 15q114 0 190.5 -30.5t122.5 -91.5t65.5 -154t19.5 -217v-451q0 -24 -15 -37.5t-36 -13.5h-251q-27 0 -39 12t-12 37v478q0 69 -34 104t-111 35 q-23 0 -51 -9t-53.5 -26t-43.5 -42t-20 -56v-483q0 -25 -11.5 -37.5t-43.5 -12.5h-248q-27 0 -40 14.5t-13 36.5v872zM742 1211q-19 -42 -53 -42h-212q-19 0 -26 7t-7 18q0 8 3 18.5t8 20.5l88 205q12 22 23.5 32t30.5 10h219q26 0 26 -22q0 -8 -1 -17t-8 -20z" />
<glyph unicode="&#x145;" horiz-adv-x="1643" d="M169 1441q0 18 11 31t33 13h327q14 0 29 -7t26 -24q126 -204 252 -404t253 -404v801q4 18 16 28t28 10h285q21 0 35 -11.5t14 -32.5v-1402q0 -20 -12 -29.5t-33 -9.5h-319q-13 0 -23 9t-21 24q-132 219 -263 435t-264 435v-859q0 -22 -10 -33t-36 -11h-284 q-23 0 -33.5 12.5t-10.5 30.5v1398zM601 -296q0 39 14.5 72t39 57t57.5 38t70 14q39 0 72.5 -14t58 -39.5t38 -62t13.5 -80.5q0 -96 -19 -166.5t-45.5 -117.5t-54 -70t-45.5 -23q-11 0 -17.5 2.5t-14.5 8.5l-42 32q-9 8 -14.5 20t-5.5 21q0 18 8 30.5t17 24.5t17 26t8 36v10 q-31 5 -59 21.5t-49.5 41t-34 55t-12.5 63.5z" />
<glyph unicode="&#x146;" horiz-adv-x="1307" d="M157 923q0 31 14 45.5t47 14.5h130q28 0 47.5 -11.5t33 -30t23 -43t16.5 -50.5q18 21 50.5 46.5t74.5 48t90.5 37.5t97.5 15q114 0 190.5 -30.5t122.5 -91.5t65.5 -154t19.5 -217v-451q0 -24 -15 -37.5t-36 -13.5h-251q-27 0 -39 12t-12 37v478q0 69 -34 104t-111 35 q-23 0 -51 -9t-53.5 -26t-43.5 -42t-20 -56v-483q0 -25 -11.5 -37.5t-43.5 -12.5h-248q-27 0 -40 14.5t-13 36.5v872zM465 -322q0 39 14.5 72t39 57t57.5 38t70 14q39 0 72.5 -14t58 -39.5t38 -62t13.5 -80.5q0 -96 -19 -166.5t-45.5 -117.5t-54 -70t-45.5 -23 q-11 0 -17.5 2.5t-14.5 8.5l-42 32q-9 8 -14.5 20t-5.5 21q0 18 8 30.5t17 24.5t17 26t8 36v10q-31 5 -59 21.5t-49.5 41t-34 55t-12.5 63.5z" />
<glyph unicode="&#x147;" horiz-adv-x="1643" d="M169 1441q0 18 11 31t33 13h327q14 0 29 -7t26 -24q126 -204 252 -404t253 -404v801q4 18 16 28t28 10h285q21 0 35 -11.5t14 -32.5v-1402q0 -20 -12 -29.5t-33 -9.5h-319q-13 0 -23 9t-21 24q-132 219 -263 435t-264 435v-859q0 -22 -10 -33t-36 -11h-284 q-23 0 -33.5 12.5t-10.5 30.5v1398zM500 1913q-5 2 -7 8t-2 14q1 6 2.5 12t6.5 10l110 107q6 10 22 10q3 -1 9 -2.5t13 -4.5l142 -143l139 142q5 5 11 7t11 2q13 0 27 -11l108 -110q9 -11 9 -19q0 -17 -8 -23l-277 -276q-7 -5 -11 -7t-9 -2q-7 0 -11 2.5t-11 6.5z" />
<glyph unicode="&#x148;" horiz-adv-x="1313" d="M160 923q0 31 14 45.5t47 14.5h130q28 0 47.5 -11.5t33 -30t23 -43t16.5 -50.5q18 21 50.5 46.5t74.5 48t90.5 37.5t97.5 15q114 0 190.5 -30.5t122.5 -91.5t65.5 -154t19.5 -217v-451q0 -24 -15 -37.5t-36 -13.5h-251q-27 0 -39 12t-12 37v478q0 69 -34 104t-111 35 q-23 0 -51 -9t-53.5 -26t-43.5 -42t-20 -56v-483q0 -25 -11.5 -37.5t-43.5 -12.5h-248q-27 0 -40 14.5t-13 36.5v872zM315 1409q-5 2 -7 8t-2 14q1 6 2.5 12t6.5 10l110 107q6 10 22 10q3 -1 9 -2.5t13 -4.5l142 -143l139 142q5 5 11 7t11 2q13 0 27 -11l108 -110 q9 -11 9 -19q0 -17 -8 -23l-277 -276q-7 -5 -11 -7t-9 -2q-7 0 -11 2.5t-11 6.5z" />
<glyph unicode="&#x149;" horiz-adv-x="1307" d="M157 923q0 31 14 45.5t47 14.5h130q28 0 47.5 -11.5t33 -30t23 -43t16.5 -50.5q18 21 50.5 46.5t74.5 48t90.5 37.5t97.5 15q114 0 190.5 -30.5t122.5 -91.5t65.5 -154t19.5 -217v-451q0 -24 -15 -37.5t-36 -13.5h-251q-27 0 -39 12t-12 37v478q0 69 -34 104t-111 35 q-23 0 -51 -9t-53.5 -26t-43.5 -42t-20 -56v-483q0 -25 -11.5 -37.5t-43.5 -12.5h-248q-27 0 -40 14.5t-13 36.5v872zM-155 1271q0 39 14.5 72t39 57t57.5 38t70 14q39 0 72.5 -14t58 -39.5t38 -62t13.5 -80.5q0 -96 -19 -166.5t-45.5 -117.5t-54 -70t-45.5 -23 q-11 0 -17.5 2.5t-14.5 8.5l-42 32q-9 8 -14.5 20t-5.5 21q0 18 8 30.5t17 24.5t17 26t8 36v10q-31 5 -59 21.5t-49.5 41t-34 55t-12.5 63.5z" />
<glyph unicode="&#x14a;" horiz-adv-x="1636" d="M161 1441q0 18 11 31t33 13h327q14 0 29 -7t26 -24q127 -205 252 -404t253 -404v801q4 18 16 28t28 10h285q21 0 35 -11.5t14 -32.5v-1402q0 -20 -12 -29.5t-33 -9.5h-319q-13 0 -23 9t-21 24q-133 220 -263 435t-264 435v-859q0 -22 -10 -33t-36 -11h-284 q-23 0 -33.5 12.5t-10.5 30.5v1398zM1082 1445q0 37 39 40h295q54 0 54 -52v-1370q0 -99 -39.5 -185.5t-106.5 -151t-155.5 -101.5t-186.5 -37q-58 0 -114 13t-106.5 38.5t-94 63t-76.5 86.5q-3 1 -3 16q0 26 16 38l174 163q8 7 17 11.5t17 4.5q15 0 28.5 -11t30 -24.5 t38.5 -24.5t53 -11q23 0 45 9t38.5 24t26.5 35.5t10 43.5v1382z" />
<glyph unicode="&#x14b;" horiz-adv-x="1299" d="M830 527q0 30 -11 55.5t-30.5 44t-46 29t-57.5 10.5q-23 0 -51 -9t-53.5 -26t-43.5 -42t-20 -56v-483q0 -17 -4 -27t-11.5 -15t-19 -6.5t-27.5 -1.5h-241q-27 0 -40 14.5t-13 36.5v870q0 16 9.5 33t26.5 17h4q5 5 10.5 6t10.5 1h130q23 0 39 -9.5t28 -20.5 q23 -11 32.5 -36.5t20.5 -63.5q6 8 10 12q18 21 39.5 44.5t50 43.5t64 33t81.5 13q225 0 345.5 -127.5t120.5 -374.5v-563q0 -87 -36.5 -163.5t-97.5 -133.5t-140.5 -90t-166.5 -33q-51 0 -101 11.5t-94.5 34t-83 55.5t-66.5 77q-3 2 -3 14q0 23 14 33l154 144q7 6 14.5 10 t15.5 4q13 0 25 -9.5t26.5 -21.5t34 -21.5t46.5 -9.5q21 0 40 7.5t33.5 21t23.5 31.5t9 39v598z" />
<glyph unicode="&#x14c;" horiz-adv-x="1706" d="M478 742q0 -83 28 -155t78.5 -125.5t119.5 -84t152 -30.5t152.5 30.5t120 84t78.5 125.5t28 155q0 82 -28 154.5t-78.5 126.5t-120 85t-152.5 31t-152 -31t-119.5 -85t-78.5 -126.5t-28 -154.5zM92 741q0 106 27 203.5t77 183t119.5 155.5t154.5 119.5t182.5 77 t203.5 27.5q105 0 203 -27.5t183 -77t155 -119.5t119.5 -155.5t77 -183t27.5 -203.5t-27.5 -203.5t-77 -182t-119.5 -154t-155 -119.5t-183 -77t-203 -27q-106 0 -203.5 27t-182.5 77t-154.5 119.5t-119.5 154t-77 182t-27 203.5zM445 1848q0 35 35 35h749q15 0 25 -8.5 t10 -26.5v-124q0 -12 -9 -26t-26 -14h-749q-35 0 -35 40v124z" />
<glyph unicode="&#x14d;" horiz-adv-x="1206" d="M81 488q0 106 41 200t111.5 163.5t166 110t205.5 40.5q108 0 203.5 -40.5t166 -110t111.5 -163.5t41 -200t-41 -198.5t-111.5 -160.5t-166 -107.5t-203.5 -39.5q-73 0 -140 18t-125.5 50.5t-106 78.5t-81.5 102t-52.5 121t-18.5 136zM437 485q0 -40 12 -74t34 -59 t53.5 -39t70.5 -14t70 14t53 39t34 59t12 74q0 39 -12 73t-34 59.5t-53 40.5t-70 15t-70.5 -15t-53.5 -40.5t-34 -59.5t-12 -73zM185 1363q0 35 35 35h749q15 0 25 -8.5t10 -26.5v-124q0 -12 -9 -26t-26 -14h-749q-35 0 -35 40v124z" />
<glyph unicode="&#x14e;" horiz-adv-x="1705" d="M478 742q0 -83 28 -155t78.5 -125.5t119.5 -84t152 -30.5t152.5 30.5t120 84t78.5 125.5t28 155q0 82 -28 154.5t-78.5 126.5t-120 85t-152.5 31t-152 -31t-119.5 -85t-78.5 -126.5t-28 -154.5zM92 741q0 106 27 203.5t77 183t119.5 155.5t154.5 119.5t182.5 77 t203.5 27.5q105 0 203 -27.5t183 -77t155 -119.5t119.5 -155.5t77 -183t27.5 -203.5t-27.5 -203.5t-77 -182t-119.5 -154t-155 -119.5t-183 -77t-203 -27q-106 0 -203.5 27t-182.5 77t-154.5 119.5t-119.5 154t-77 182t-27 203.5zM851 1703q-59 1 -109 22.5t-87 56.5 t-58 79.5t-21 92.5q0 17 11.5 27t26.5 10h144q11 0 17 -6.5t6 -15.5q0 -23 18 -41.5t56 -18.5q34 0 52.5 19t18.5 41q0 9 5 15.5t16 6.5h146q15 0 26.5 -10t11.5 -27q0 -49 -21.5 -94t-59.5 -79.5t-89 -55.5t-110 -22z" />
<glyph unicode="&#x14f;" horiz-adv-x="1206" d="M81 488q0 106 41 200t111.5 163.5t166 110t205.5 40.5q108 0 203.5 -40.5t166 -110t111.5 -163.5t41 -200t-41 -198.5t-111.5 -160.5t-166 -107.5t-203.5 -39.5q-73 0 -140 18t-125.5 50.5t-106 78.5t-81.5 102t-52.5 121t-18.5 136zM437 485q0 -40 12 -74t34 -59 t53.5 -39t70.5 -14t70 14t53 39t34 59t12 74q0 39 -12 73t-34 59.5t-53 40.5t-70 15t-70.5 -15t-53.5 -40.5t-34 -59.5t-12 -73zM592 1199q-59 1 -109 22.5t-87 56.5t-58 79.5t-21 92.5q0 17 11.5 27t26.5 10h144q11 0 17 -6.5t6 -15.5q0 -23 18 -41.5t56 -18.5 q34 0 52.5 19t18.5 41q0 9 5 15.5t16 6.5h146q15 0 26.5 -10t11.5 -27q0 -49 -21.5 -94t-59.5 -79.5t-89 -55.5t-110 -22z" />
<glyph unicode="&#x150;" horiz-adv-x="1705" d="M478 742q0 -83 28 -155t78.5 -125.5t119.5 -84t152 -30.5t152.5 30.5t120 84t78.5 125.5t28 155q0 82 -28 154.5t-78.5 126.5t-120 85t-152.5 31t-152 -31t-119.5 -85t-78.5 -126.5t-28 -154.5zM92 741q0 106 27 203.5t77 183t119.5 155.5t154.5 119.5t182.5 77 t203.5 27.5q105 0 203 -27.5t183 -77t155 -119.5t119.5 -155.5t77 -183t27.5 -203.5t-27.5 -203.5t-77 -182t-119.5 -154t-155 -119.5t-183 -77t-203 -27q-106 0 -203.5 27t-182.5 77t-154.5 119.5t-119.5 154t-77 182t-27 203.5zM617 1947q19 42 53 42h212q19 0 26 -7 t7 -18q0 -8 -3 -18.5t-8 -20.5l-88 -205q-12 -22 -23.5 -32t-30.5 -10h-219q-26 0 -26 22q0 8 1 17t8 20zM1069 1947q19 42 53 42h212q19 0 26 -7t7 -18q0 -8 -3 -18.5t-8 -20.5l-88 -205q-12 -22 -23.5 -32t-30.5 -10h-219q-26 0 -26 22q0 8 1 17t8 20z" />
<glyph unicode="&#x151;" horiz-adv-x="1206" d="M81 488q0 106 41 200t111.5 163.5t166 110t205.5 40.5q108 0 203.5 -40.5t166 -110t111.5 -163.5t41 -200t-41 -198.5t-111.5 -160.5t-166 -107.5t-203.5 -39.5q-73 0 -140 18t-125.5 50.5t-106 78.5t-81.5 102t-52.5 121t-18.5 136zM437 485q0 -40 12 -74t34 -59 t53.5 -39t70.5 -14t70 14t53 39t34 59t12 74q0 39 -12 73t-34 59.5t-53 40.5t-70 15t-70.5 -15t-53.5 -40.5t-34 -59.5t-12 -73zM321 1443q19 42 53 42h212q19 0 26 -7t7 -18q0 -8 -3 -18.5t-8 -20.5l-88 -205q-12 -22 -23.5 -32t-30.5 -10h-219q-26 0 -26 22q0 8 1 17t8 20 zM773 1443q19 42 53 42h212q19 0 26 -7t7 -18q0 -8 -3 -18.5t-8 -20.5l-88 -205q-12 -22 -23.5 -32t-30.5 -10h-219q-26 0 -26 22q0 8 1 17t8 20z" />
<glyph unicode="&#x152;" horiz-adv-x="2428" d="M82 745q0 106 27 203.5t77 183t119.5 155.5t154.5 119.5t182.5 77t203.5 27.5q104 0 200 -26.5t181 -75.5v34q0 21 11.5 33.5t32.5 12.5h993q22 0 34 -13t12 -35v-248q0 -17 -12 -32.5t-35 -15.5h-648v-247h500q19 0 31.5 -9t12.5 -30v-216q0 -14 -11 -27t-32 -13h-501 v-255h672q45 0 45 -46v-252q0 -10 -8 -18q-4 -28 -41 -28h-1012q-20 0 -32 10.5t-12 32.5v36q-85 -49 -181 -75t-200 -26q-106 0 -203.5 27t-182.5 77t-154.5 119.5t-119.5 154t-77 182t-27 203.5zM468 746q0 -83 28 -155t78.5 -125.5t119.5 -84t152 -30.5t152.5 30.5 t120 84t78.5 125.5t28 155q0 82 -28 154.5t-78.5 126.5t-120 85t-152.5 31t-152 -31t-119.5 -85t-78.5 -126.5t-28 -154.5z" />
<glyph unicode="&#x153;" horiz-adv-x="1868" d="M89 488q0 106 41 198.5t111.5 160t166 106.5t205.5 39q102 0 191.5 -34t158.5 -95q64 60 147 94.5t180 34.5q96 0 179.5 -34t148 -93.5t106 -141t52.5 -177.5q-1 -40 -6.5 -69t-22 -48t-46 -28t-77.5 -9h-495q10 -34 30.5 -59.5t46 -43t53 -26t51.5 -8.5q40 0 80.5 11.5 t66.5 27.5q22 10 32 19.5t24 9.5q8 0 15.5 -4.5t18.5 -16.5l20 -28q19 -27 39 -52.5t41 -51.5v1q7 -8 9.5 -16t2.5 -14q0 -17 -10.5 -28.5t-21.5 -20.5q-66 -52 -145.5 -80t-168.5 -28q-100 0 -188 34.5t-157 96.5q-70 -63 -161 -98t-194 -35q-73 0 -140 18t-125.5 50.5 t-106 78.5t-81.5 102t-52.5 121t-18.5 136zM445 485q0 -40 12 -74t34 -59t53.5 -39t70.5 -14t70 14t53 39t34 59t12 74q0 39 -12 73t-34 59.5t-53 40.5t-70 15t-70.5 -15t-53.5 -40.5t-34 -59.5t-12 -73zM1296 722q-27 0 -52 -9t-45.5 -24.5t-37 -35.5t-26.5 -42h335 q-12 21 -28 41t-36.5 35.5t-47.5 25t-62 9.5z" />
<glyph unicode="&#x154;" horiz-adv-x="1407" d="M160 1439q0 21 11 33.5t33 12.5h646q103 0 193 -38.5t157 -104.5t105.5 -154.5t38.5 -188.5q0 -68 -18.5 -129.5t-51.5 -115t-78.5 -97t-99.5 -74.5l257 -484q7 -14 18 -33t11 -33q0 -16 -10.5 -24.5t-28.5 -8.5h-343q-17 0 -30.5 10t-17.5 27l-243 457h-162v-451 q0 -43 -46 -43h-297q-20 0 -32 10.5t-12 32.5v1396zM943 995q0 30 -11 60t-31 55t-48 42t-62 22q-28 2 -52.5 3.5t-53.5 1.5h-138v-367h184q18 0 32 1t31 3q35 4 63 20.5t47 41t29 55t10 62.5zM740 1720q-19 -42 -53 -42h-212q-19 0 -26 7t-7 18q0 8 3 18.5t8 20.5l88 205 q12 22 23.5 32t30.5 10h219q26 0 26 -22q0 -8 -1 -17t-8 -20z" />
<glyph unicode="&#x155;" horiz-adv-x="980" d="M666 1215q-19 -42 -53 -42h-212q-19 0 -26 7t-7 18q0 8 3 18.5t8 20.5l88 205q12 22 23.5 32t30.5 10h219q26 0 26 -22q0 -8 -1 -17t-8 -20zM159 920q0 30 20.5 43.5t41.5 13.5h156q14 0 22.5 -5.5t14.5 -14t10.5 -19t10.5 -21.5q1 -2 5.5 -14.5t10.5 -27.5t11 -28t6 -15 q23 25 45.5 53.5t48.5 52t57 39t71 15.5q42 0 74.5 -6t62 -18t58 -30t62.5 -43q32 -17 32 -46q0 -20 -12 -39l-112 -170q-11 -16 -26 -25.5t-30 -9.5q-17 0 -30 13q-17 16 -30.5 27t-27.5 18.5t-30 11t-37 3.5q-30 0 -55.5 -10.5t-44 -28t-29 -41t-10.5 -49.5v-490 q0 -29 -14.5 -44t-47.5 -15h-224q-29 0 -44.5 15t-15.5 44v861z" />
<glyph unicode="&#x156;" horiz-adv-x="1418" d="M160 1439q0 21 11 33.5t33 12.5h646q103 0 193 -38.5t157 -104.5t105.5 -154.5t38.5 -188.5q0 -68 -18.5 -129.5t-51.5 -115t-78.5 -97t-99.5 -74.5l257 -484q7 -14 18 -33t11 -33q0 -16 -10.5 -24.5t-28.5 -8.5h-343q-17 0 -30.5 10t-17.5 27l-243 457h-162v-451 q0 -43 -46 -43h-297q-20 0 -32 10.5t-12 32.5v1396zM943 995q0 30 -11 60t-31 55t-48 42t-62 22q-28 2 -52.5 3.5t-53.5 1.5h-138v-367h184q18 0 32 1t31 3q35 4 63 20.5t47 41t29 55t10 62.5zM500 -296q0 39 14.5 72t39 57t57.5 38t70 14q39 0 72.5 -14t58 -39.5t38 -62 t13.5 -80.5q0 -96 -19 -166.5t-45.5 -117.5t-54 -70t-45.5 -23q-11 0 -17.5 2.5t-14.5 8.5l-42 32q-9 8 -14.5 20t-5.5 21q0 18 8 30.5t17 24.5t17 26t8 36v10q-31 5 -59 21.5t-49.5 41t-34 55t-12.5 63.5z" />
<glyph unicode="&#x157;" horiz-adv-x="980" d="M154 920q0 30 20.5 43.5t41.5 13.5h156q14 0 22.5 -5.5t14.5 -14t10.5 -19t10.5 -21.5q1 -2 5.5 -14.5t10.5 -27.5t11 -28t6 -15q23 25 45.5 53.5t48.5 52t57 39t71 15.5q42 0 74.5 -6t62 -18t58 -30t62.5 -43q32 -17 32 -46q0 -20 -12 -39l-112 -170q-11 -16 -26 -25.5 t-30 -9.5q-17 0 -30 13q-17 16 -30.5 27t-27.5 18.5t-30 11t-37 3.5q-30 0 -55.5 -10.5t-44 -28t-29 -41t-10.5 -49.5v-490q0 -29 -14.5 -44t-47.5 -15h-224q-29 0 -44.5 15t-15.5 44v861zM129 -296q0 39 14.5 72t39 57t57.5 38t70 14q39 0 72.5 -14t58 -39.5t38 -62 t13.5 -80.5q0 -96 -19 -166.5t-45.5 -117.5t-54 -70t-45.5 -23q-11 0 -17.5 2.5t-14.5 8.5l-42 32q-9 8 -14.5 20t-5.5 21q0 18 8 30.5t17 24.5t17 26t8 36v10q-31 5 -59 21.5t-49.5 41t-34 55t-12.5 63.5z" />
<glyph unicode="&#x158;" horiz-adv-x="1407" d="M160 1439q0 21 11 33.5t33 12.5h646q103 0 193 -38.5t157 -104.5t105.5 -154.5t38.5 -188.5q0 -68 -18.5 -129.5t-51.5 -115t-78.5 -97t-99.5 -74.5l257 -484q7 -14 18 -33t11 -33q0 -16 -10.5 -24.5t-28.5 -8.5h-343q-17 0 -30.5 10t-17.5 27l-243 457h-162v-451 q0 -43 -46 -43h-297q-20 0 -32 10.5t-12 32.5v1396zM943 995q0 30 -11 60t-31 55t-48 42t-62 22q-28 2 -52.5 3.5t-53.5 1.5h-138v-367h184q18 0 32 1t31 3q35 4 63 20.5t47 41t29 55t10 62.5zM361 1913q-5 2 -7 8t-2 14q1 6 2.5 12t6.5 10l110 107q6 10 22 10q3 -1 9 -2.5 t13 -4.5l142 -143l139 142q5 5 11 7t11 2q13 0 27 -11l108 -110q9 -11 9 -19q0 -17 -8 -23l-277 -276q-7 -5 -11 -7t-9 -2q-7 0 -11 2.5t-11 6.5z" />
<glyph unicode="&#x159;" horiz-adv-x="980" d="M159 920q0 30 20.5 43.5t41.5 13.5h156q14 0 22.5 -5.5t14.5 -14t10.5 -19t10.5 -21.5q1 -2 5.5 -14.5t10.5 -27.5t11 -28t6 -15q23 25 45.5 53.5t48.5 52t57 39t71 15.5q42 0 74.5 -6t62 -18t58 -30t62.5 -43q32 -17 32 -46q0 -20 -12 -39l-112 -170q-11 -16 -26 -25.5 t-30 -9.5q-17 0 -30 13q-17 16 -30.5 27t-27.5 18.5t-30 11t-37 3.5q-30 0 -55.5 -10.5t-44 -28t-29 -41t-10.5 -49.5v-490q0 -29 -14.5 -44t-47.5 -15h-224q-29 0 -44.5 15t-15.5 44v861zM138 1409q-5 2 -7 8t-2 14q1 6 2.5 12t6.5 10l110 107q6 10 22 10q3 -1 9 -2.5 t13 -4.5l142 -143l139 142q5 5 11 7t11 2q13 0 27 -11l108 -110q9 -11 9 -19q0 -17 -8 -23l-277 -276q-7 -5 -11 -7t-9 -2q-7 0 -11 2.5t-11 6.5z" />
<glyph unicode="&#x15a;" horiz-adv-x="1312" d="M348 479q17 -14 43.5 -37.5t60.5 -46.5q50 -34 100.5 -53t105.5 -19q51 0 85.5 11.5t54.5 30.5t28.5 44t8.5 53q0 31 -23.5 55.5t-57.5 43.5t-71 32.5t-64 22.5q-120 42 -210 90.5t-150 108t-90 131.5t-30 159q0 93 37.5 169t107 130t167.5 83.5t219 29.5 q90 0 174.5 -20.5t164.5 -65.5q34 -20 64.5 -41t53.5 -41.5t36.5 -38.5t13.5 -31t-6.5 -24t-19.5 -25l-153 -163q-17 -17 -34 -17q-14 0 -25.5 8t-25.5 20l-9 8q-20 17 -44.5 35t-52.5 32.5t-59 24t-63 9.5q-33 0 -62 -5.5t-51 -17.5t-35 -31.5t-13 -47.5t14 -48.5t42 -38 t69.5 -33t96.5 -33.5q106 -35 195.5 -73.5t154.5 -91t101.5 -125.5t36.5 -177q0 -110 -45 -199.5t-123.5 -152.5t-184.5 -97.5t-228 -34.5q-77 0 -153.5 19.5t-147 54t-133 80.5t-110.5 99l-3 3l-4 4l-4 4q-23 24 -23 40q0 17 23 38l173 165q21 15 34 15q9 0 19 -6t24 -18z M792 1720q-19 -42 -53 -42h-212q-19 0 -26 7t-7 18q0 8 3 18.5t8 20.5l88 205q12 22 23.5 32t30.5 10h219q26 0 26 -22q0 -8 -1 -17t-8 -20z" />
<glyph unicode="&#x15b;" horiz-adv-x="956" d="M287 340q48 -39 89.5 -58.5t74.5 -19.5q24 0 45 2.5t37 7.5t25.5 14t9.5 23q0 28 -37 43t-101 32q-99 26 -165.5 60t-107 75.5t-57.5 90t-17 104.5q0 64 30.5 116.5t84.5 89.5t127.5 57.5t159.5 20.5q51 0 99.5 -5t93.5 -18.5t87 -37.5t81 -62q11 -14 11 -26 q-1 -9 -5 -18.5t-15 -18.5q-9 -8 -27.5 -26.5t-39 -40t-38.5 -40.5t-26 -27q-7 -7 -14.5 -9.5t-14.5 -2.5q-12 0 -22.5 6t-21.5 17q-13 13 -31 22.5t-37.5 16t-38.5 10t-35 3.5t-32 -3.5t-28.5 -10.5t-20 -17.5t-7.5 -23.5q0 -19 15 -30.5t37 -18t46.5 -11t44.5 -10.5 q74 -23 139 -46.5t113.5 -58t76.5 -84.5t28 -125q0 -77 -35 -137t-95.5 -101t-141 -62.5t-170.5 -21.5q-104 0 -200.5 37t-170.5 118q-20 22 -20 42q0 17 16 33l133 139q7 7 14 9.5t13 3.5q9 0 18.5 -6t22.5 -16zM576 1214q-19 -42 -53 -42h-212q-19 0 -26 7t-7 18 q0 8 3 18.5t8 20.5l88 205q12 22 23.5 32t30.5 10h219q26 0 26 -22q0 -8 -1 -17t-8 -20z" />
<glyph unicode="&#x15c;" horiz-adv-x="1312" d="M348 479q17 -14 43.5 -37.5t60.5 -46.5q50 -34 100.5 -53t105.5 -19q51 0 85.5 11.5t54.5 30.5t28.5 44t8.5 53q0 31 -23.5 55.5t-57.5 43.5t-71 32.5t-64 22.5q-120 42 -210 90.5t-150 108t-90 131.5t-30 159q0 93 37.5 169t107 130t167.5 83.5t219 29.5 q90 0 174.5 -20.5t164.5 -65.5q34 -20 64.5 -41t53.5 -41.5t36.5 -38.5t13.5 -31t-6.5 -24t-19.5 -25l-153 -163q-17 -17 -34 -17q-14 0 -25.5 8t-25.5 20l-9 8q-20 17 -44.5 35t-52.5 32.5t-59 24t-63 9.5q-33 0 -62 -5.5t-51 -17.5t-35 -31.5t-13 -47.5t14 -48.5t42 -38 t69.5 -33t96.5 -33.5q106 -35 195.5 -73.5t154.5 -91t101.5 -125.5t36.5 -177q0 -110 -45 -199.5t-123.5 -152.5t-184.5 -97.5t-228 -34.5q-77 0 -153.5 19.5t-147 54t-133 80.5t-110.5 99l-3 3l-4 4l-4 4q-23 24 -23 40q0 17 23 38l173 165q21 15 34 15q9 0 19 -6t24 -18z M621 2093q7 5 11 7t11 2q8 0 20 -9l277 -276q8 -6 8 -23q0 -9 -9 -19l-108 -110q-7 -5 -13.5 -8t-13.5 -3q-5 0 -11 2t-11 7l-139 142l-142 -143q-7 -2 -13 -4t-10 -2q-12 0 -21 9l-110 107q-5 5 -6.5 10.5t-2.5 11.5q0 8 2 14t7 8z" />
<glyph unicode="&#x15d;" horiz-adv-x="956" d="M287 340q48 -39 89.5 -58.5t74.5 -19.5q24 0 45 2.5t37 7.5t25.5 14t9.5 23q0 28 -37 43t-101 32q-99 26 -165.5 60t-107 75.5t-57.5 90t-17 104.5q0 64 30.5 116.5t84.5 89.5t127.5 57.5t159.5 20.5q51 0 99.5 -5t93.5 -18.5t87 -37.5t81 -62q11 -14 11 -26 q-1 -9 -5 -18.5t-15 -18.5q-9 -8 -27.5 -26.5t-39 -40t-38.5 -40.5t-26 -27q-7 -7 -14.5 -9.5t-14.5 -2.5q-12 0 -22.5 6t-21.5 17q-13 13 -31 22.5t-37.5 16t-38.5 10t-35 3.5t-32 -3.5t-28.5 -10.5t-20 -17.5t-7.5 -23.5q0 -19 15 -30.5t37 -18t46.5 -11t44.5 -10.5 q74 -23 139 -46.5t113.5 -58t76.5 -84.5t28 -125q0 -77 -35 -137t-95.5 -101t-141 -62.5t-170.5 -21.5q-104 0 -200.5 37t-170.5 118q-20 22 -20 42q0 17 16 33l133 139q7 7 14 9.5t13 3.5q9 0 18.5 -6t22.5 -16zM425 1589q7 5 11 7t11 2q8 0 20 -9l277 -276q8 -6 8 -23 q0 -9 -9 -19l-108 -110q-7 -5 -13.5 -8t-13.5 -3q-5 0 -11 2t-11 7l-139 142l-142 -143q-7 -2 -13 -4t-10 -2q-12 0 -21 9l-110 107q-5 5 -6.5 10.5t-2.5 11.5q0 8 2 14t7 8z" />
<glyph unicode="&#x15e;" horiz-adv-x="1312" d="M348 479q17 -14 43.5 -37.5t60.5 -46.5q50 -34 100.5 -53t105.5 -19q51 0 85.5 11.5t54.5 30.5t28.5 44t8.5 53q0 31 -23.5 55.5t-57.5 43.5t-71 32.5t-64 22.5q-120 42 -210 90.5t-150 108t-90 131.5t-30 159q0 93 37.5 169t107 130t167.5 83.5t219 29.5 q90 0 174.5 -20.5t164.5 -65.5q34 -20 64.5 -41t53.5 -41.5t36.5 -38.5t13.5 -31t-6.5 -24t-19.5 -25l-153 -163q-17 -17 -34 -17q-14 0 -25.5 8t-25.5 20l-9 8q-20 17 -44.5 35t-52.5 32.5t-59 24t-63 9.5q-33 0 -62 -5.5t-51 -17.5t-35 -31.5t-13 -47.5t14 -48.5t42 -38 t69.5 -33t96.5 -33.5q106 -35 195.5 -73.5t154.5 -91t101.5 -125.5t36.5 -177q0 -110 -45 -199.5t-123.5 -152.5t-184.5 -97.5t-228 -34.5q-77 0 -153.5 19.5t-147 54t-133 80.5t-110.5 99l-3 3l-4 4l-4 4q-23 24 -23 40q0 17 23 38l173 165q21 15 34 15q9 0 19 -6t24 -18z M760 0q-22 -15 -22 -35q0 -16 15.5 -30t38 -28t49.5 -30.5t49.5 -38t38 -49t15.5 -64.5q0 -36 -24.5 -77t-69 -81t-106.5 -74.5t-138 -57.5h-5q-15 0 -33 22t-34 50t-27 54.5t-11 35.5q0 16 11 22q171 43 171 106q0 22 -15 39t-37.5 32.5t-48.5 31t-48.5 33.5t-37.5 40 t-15 51q0 11 3 22.5t17 25.5h264z" />
<glyph unicode="&#x15f;" horiz-adv-x="956" d="M287 340q48 -39 89.5 -58.5t74.5 -19.5q24 0 45 2.5t37 7.5t25.5 14t9.5 23q0 28 -37 43t-101 32q-99 26 -165.5 60t-107 75.5t-57.5 90t-17 104.5q0 64 30.5 116.5t84.5 89.5t127.5 57.5t159.5 20.5q51 0 99.5 -5t93.5 -18.5t87 -37.5t81 -62q11 -14 11 -26 q-1 -9 -5 -18.5t-15 -18.5q-9 -8 -27.5 -26.5t-39 -40t-38.5 -40.5t-26 -27q-7 -7 -14.5 -9.5t-14.5 -2.5q-12 0 -22.5 6t-21.5 17q-13 13 -31 22.5t-37.5 16t-38.5 10t-35 3.5t-32 -3.5t-28.5 -10.5t-20 -17.5t-7.5 -23.5q0 -19 15 -30.5t37 -18t46.5 -11t44.5 -10.5 q74 -23 139 -46.5t113.5 -58t76.5 -84.5t28 -125q0 -77 -35 -137t-95.5 -101t-141 -62.5t-170.5 -21.5q-104 0 -200.5 37t-170.5 118q-20 22 -20 42q0 17 16 33l133 139q7 7 14 9.5t13 3.5q9 0 18.5 -6t22.5 -16zM532 0q-22 -15 -22 -35q0 -16 15.5 -30t38 -28t49.5 -30.5 t49.5 -38t38 -49t15.5 -64.5q0 -36 -24.5 -77t-69 -81t-106.5 -74.5t-138 -57.5h-5q-15 0 -33 22t-34 50t-27 54.5t-11 35.5q0 16 11 22q171 43 171 106q0 22 -15 39t-37.5 32.5t-48.5 31t-48.5 33.5t-37.5 40t-15 51q0 11 3 22.5t17 25.5h264z" />
<glyph unicode="&#x160;" horiz-adv-x="1312" d="M348 479q17 -14 43.5 -37.5t60.5 -46.5q50 -34 100.5 -53t105.5 -19q51 0 85.5 11.5t54.5 30.5t28.5 44t8.5 53q0 31 -23.5 55.5t-57.5 43.5t-71 32.5t-64 22.5q-120 42 -210 90.5t-150 108t-90 131.5t-30 159q0 93 37.5 169t107 130t167.5 83.5t219 29.5 q90 0 174.5 -20.5t164.5 -65.5q34 -20 64.5 -41t53.5 -41.5t36.5 -38.5t13.5 -31t-6.5 -24t-19.5 -25l-153 -163q-17 -17 -34 -17q-14 0 -25.5 8t-25.5 20l-9 8q-20 17 -44.5 35t-52.5 32.5t-59 24t-63 9.5q-33 0 -62 -5.5t-51 -17.5t-35 -31.5t-13 -47.5t14 -48.5t42 -38 t69.5 -33t96.5 -33.5q106 -35 195.5 -73.5t154.5 -91t101.5 -125.5t36.5 -177q0 -110 -45 -199.5t-123.5 -152.5t-184.5 -97.5t-228 -34.5q-77 0 -153.5 19.5t-147 54t-133 80.5t-110.5 99l-3 3l-4 4l-4 4q-23 24 -23 40q0 17 23 38l173 165q21 15 34 15q9 0 19 -6t24 -18z M351 1913q-5 2 -7 8t-2 14q1 6 2.5 12t6.5 10l110 107q6 10 22 10q3 -1 9 -2.5t13 -4.5l142 -143l139 142q5 5 11 7t11 2q13 0 27 -11l108 -110q9 -11 9 -19q0 -17 -8 -23l-277 -276q-7 -5 -11 -7t-9 -2q-7 0 -11 2.5t-11 6.5z" />
<glyph unicode="&#x161;" horiz-adv-x="956" d="M287 340q48 -39 89.5 -58.5t74.5 -19.5q24 0 45 2.5t37 7.5t25.5 14t9.5 23q0 28 -37 43t-101 32q-99 26 -165.5 60t-107 75.5t-57.5 90t-17 104.5q0 64 30.5 116.5t84.5 89.5t127.5 57.5t159.5 20.5q51 0 99.5 -5t93.5 -18.5t87 -37.5t81 -62q11 -14 11 -26 q-1 -9 -5 -18.5t-15 -18.5q-9 -8 -27.5 -26.5t-39 -40t-38.5 -40.5t-26 -27q-7 -7 -14.5 -9.5t-14.5 -2.5q-12 0 -22.5 6t-21.5 17q-13 13 -31 22.5t-37.5 16t-38.5 10t-35 3.5t-32 -3.5t-28.5 -10.5t-20 -17.5t-7.5 -23.5q0 -19 15 -30.5t37 -18t46.5 -11t44.5 -10.5 q74 -23 139 -46.5t113.5 -58t76.5 -84.5t28 -125q0 -77 -35 -137t-95.5 -101t-141 -62.5t-170.5 -21.5q-104 0 -200.5 37t-170.5 118q-20 22 -20 42q0 17 16 33l133 139q7 7 14 9.5t13 3.5q9 0 18.5 -6t22.5 -16zM160 1409q-5 2 -7 8t-2 14q1 6 2.5 12t6.5 10l110 107 q6 10 22 10q3 -1 9 -2.5t13 -4.5l142 -143l139 142q5 5 11 7t11 2q13 0 27 -11l108 -110q9 -11 9 -19q0 -17 -8 -23l-277 -276q-7 -5 -11 -7t-9 -2q-7 0 -11 2.5t-11 6.5z" />
<glyph unicode="&#x162;" horiz-adv-x="1332" d="M80 1441q0 20 13.5 32t33.5 12h1077q18 0 32 -11t16 -33v-249q0 -18 -12.5 -34.5t-35.5 -16.5h-345v-1094q0 -18 -13 -32.5t-34 -14.5h-294q-17 0 -32 13.5t-15 33.5v1094h-344q-20 0 -33.5 13t-13.5 38v249zM443 -296q0 39 14.5 72t39 57t57.5 38t70 14q39 0 72.5 -14 t58 -39.5t38 -62t13.5 -80.5q0 -96 -19 -166.5t-45.5 -117.5t-54 -70t-45.5 -23q-11 0 -17.5 2.5t-14.5 8.5l-42 32q-9 8 -14.5 20t-5.5 21q0 18 8 30.5t17 24.5t17 26t8 36v10q-31 5 -59 21.5t-49.5 41t-34 55t-12.5 63.5z" />
<glyph unicode="&#x163;" horiz-adv-x="668" d="M149 1255q0 20 13.5 35.5t39.5 20.5l248 39q20 0 32 -13.5t12 -35.5v-300h89q25 0 41.5 -14.5t16.5 -43.5v-156q0 -25 -16 -43t-42 -18h-89v-675q0 -51 -56 -51h-237q-52 0 -52 51v675h-56q-59 0 -59 61v156q0 58 59 58h56v254zM135 -296q0 39 14.5 72t39 57t57.5 38 t70 14q39 0 72.5 -14t58 -39.5t38 -62t13.5 -80.5q0 -96 -19 -166.5t-45.5 -117.5t-54 -70t-45.5 -23q-11 0 -17.5 2.5t-14.5 8.5l-42 32q-9 8 -14.5 20t-5.5 21q0 18 8 30.5t17 24.5t17 26t8 36v10q-31 5 -59 21.5t-49.5 41t-34 55t-12.5 63.5z" />
<glyph unicode="&#x164;" horiz-adv-x="1332" d="M80 1441q0 20 13.5 32t33.5 12h1077q18 0 32 -11t16 -33v-249q0 -18 -12.5 -34.5t-35.5 -16.5h-345v-1094q0 -18 -13 -32.5t-34 -14.5h-294q-17 0 -32 13.5t-15 33.5v1094h-344q-20 0 -33.5 13t-13.5 38v249zM342 1913q-5 2 -7 8t-2 14q1 6 2.5 12t6.5 10l110 107 q6 10 22 10q3 -1 9 -2.5t13 -4.5l142 -143l139 142q5 5 11 7t11 2q13 0 27 -11l108 -110q9 -11 9 -19q0 -17 -8 -23l-277 -276q-7 -5 -11 -7t-9 -2q-7 0 -11 2.5t-11 6.5z" />
<glyph unicode="&#x165;" horiz-adv-x="668" d="M149 1255q0 20 13.5 35.5t39.5 20.5l248 39q20 0 32 -13.5t12 -35.5v-300h89q25 0 41.5 -14.5t16.5 -43.5v-156q0 -25 -16 -43t-42 -18h-89v-675q0 -51 -56 -51h-237q-52 0 -52 51v675h-56q-59 0 -59 61v156q0 58 59 58h56v254zM478 1452q0 39 14.5 72t39 57t57.5 38 t70 14q39 0 72.5 -14t58 -39.5t38 -62t13.5 -80.5q0 -96 -19 -166.5t-45.5 -117.5t-54 -70t-45.5 -23q-11 0 -17.5 2.5t-14.5 8.5l-47 34q-18 18 -18 35q0 12 7 23.5t16 25.5q11 11 20.5 28t9.5 44v10q-31 5 -59 21.5t-49.5 41t-34 55t-12.5 63.5z" />
<glyph unicode="&#x166;" horiz-adv-x="1332" d="M955 906q14 0 22.5 -8t8.5 -25v-232q0 -13 -8.5 -24t-22.5 -11h-570q-35 0 -35 35v232q0 33 35 33h570zM80 1441q0 20 13.5 32t33.5 12h1077q18 0 32 -11t16 -33v-249q0 -18 -12.5 -34.5t-35.5 -16.5h-345v-1094q0 -18 -13 -32.5t-34 -14.5h-294q-17 0 -32 13.5t-15 33.5 v1094h-344q-20 0 -33.5 13t-13.5 38v249z" />
<glyph unicode="&#x167;" horiz-adv-x="668" d="M553 637q14 0 22.5 -8t8.5 -25v-147q0 -14 -8.5 -24.5t-22.5 -10.5h-452q-35 0 -35 35v147q0 33 35 33h452zM149 1255q0 20 13.5 35.5t39.5 20.5l248 39q20 0 32 -13.5t12 -35.5v-300h89q25 0 41.5 -14.5t16.5 -43.5v-156q0 -25 -16 -43t-42 -18h-89v-675q0 -51 -56 -51 h-237q-52 0 -52 51v675h-56q-59 0 -59 61v156q0 58 59 58h56v254z" />
<glyph unicode="&#x168;" horiz-adv-x="1550" d="M544 593q0 -74 20.5 -125.5t54 -84t78 -47.5t92.5 -15q50 0 94.5 17.5t78 52t53 85.5t19.5 117v848q0 18 12.5 31t33.5 13h292q23 0 36 -13.5t13 -30.5v-843q0 -175 -51.5 -294t-138.5 -191.5t-201.5 -104t-240.5 -31.5t-241 32.5t-202 106t-138.5 192t-51.5 290.5v843 q0 17 11.5 30.5t28.5 13.5h300q15 0 31.5 -12.5t16.5 -31.5v-848zM460 1872q39 54 94 84t119 30q37 -2 78.5 -15t76.5 -36l55 -35q15 -10 23.5 -12.5t21.5 -2.5q20 0 35 8t26 22l30 36q9 11 26 11q8 0 19 -8l105 -103q12 -12 12 -26q0 -10 -6 -17l-25 -32q-42 -54 -97.5 -84 t-121.5 -30q-40 0 -80 13.5t-76 36.5l-55 35q-11 7 -21 11t-24 4q-20 0 -34 -8t-25 -21l-31 -38q-4 -6 -10.5 -8t-14.5 -2q-6 0 -10.5 0.5t-9.5 5.5l-106 104q-5 5 -8.5 9t-3.5 14q0 2 1 4t5 7.5t11.5 15.5t20.5 27z" />
<glyph unicode="&#x169;" horiz-adv-x="1283" d="M1141 61q0 -31 -14 -45.5t-47 -14.5h-130q-28 0 -47.5 11t-33 30t-23 43.5t-16.5 50.5q-18 -21 -50.5 -46.5t-74.5 -48t-90.5 -37.5t-97.5 -15q-114 0 -190.5 30.5t-122.5 91.5t-65.5 153.5t-19.5 217.5v451q0 24 15 37.5t36 13.5h251q27 0 39 -12t12 -37v-478 q0 -69 34 -104t111 -35q23 0 51 9t53.5 26t43.5 41.5t20 56.5v483q0 25 11.5 37.5t43.5 12.5h248q27 0 40 -14.5t13 -36.5v-872zM319 1368q39 54 94 84t119 30q37 -2 78.5 -15t76.5 -36l55 -35q15 -10 23.5 -12.5t21.5 -2.5q20 0 35 8t26 22l30 36q9 11 26 11q8 0 19 -8 l105 -103q12 -12 12 -26q0 -10 -6 -17l-25 -32q-42 -54 -97.5 -84t-121.5 -30q-40 0 -80 13.5t-76 36.5l-55 35q-11 7 -21 11t-24 4q-20 0 -34 -8t-25 -21l-31 -38q-4 -6 -10.5 -8t-14.5 -2q-6 0 -10.5 0.5t-9.5 5.5l-106 104q-5 5 -8.5 9t-3.5 14q0 2 1 4t5 7.5t11.5 15.5 t20.5 27z" />
<glyph unicode="&#x16a;" horiz-adv-x="1553" d="M544 593q0 -74 20.5 -125.5t54 -84t78 -47.5t92.5 -15q50 0 94.5 17.5t78 52t53 85.5t19.5 117v848q0 18 12.5 31t33.5 13h292q23 0 36 -13.5t13 -30.5v-843q0 -175 -51.5 -294t-138.5 -191.5t-201.5 -104t-240.5 -31.5t-241 32.5t-202 106t-138.5 192t-51.5 290.5v843 q0 17 11.5 30.5t28.5 13.5h300q15 0 31.5 -12.5t16.5 -31.5v-848zM370 1848q0 35 35 35h749q15 0 25 -8.5t10 -26.5v-124q0 -12 -9 -26t-26 -14h-749q-35 0 -35 40v124z" />
<glyph unicode="&#x16b;" horiz-adv-x="1283" d="M1141 61q0 -31 -14 -45.5t-47 -14.5h-130q-28 0 -47.5 11t-33 30t-23 43.5t-16.5 50.5q-18 -21 -50.5 -46.5t-74.5 -48t-90.5 -37.5t-97.5 -15q-114 0 -190.5 30.5t-122.5 91.5t-65.5 153.5t-19.5 217.5v451q0 24 15 37.5t36 13.5h251q27 0 39 -12t12 -37v-478 q0 -69 34 -104t111 -35q23 0 51 9t53.5 26t43.5 41.5t20 56.5v483q0 25 11.5 37.5t43.5 12.5h248q27 0 40 -14.5t13 -36.5v-872zM234 1363q0 35 35 35h749q15 0 25 -8.5t10 -26.5v-124q0 -12 -9 -26t-26 -14h-749q-35 0 -35 40v124z" />
<glyph unicode="&#x16c;" horiz-adv-x="1550" d="M544 593q0 -74 20.5 -125.5t54 -84t78 -47.5t92.5 -15q50 0 94.5 17.5t78 52t53 85.5t19.5 117v848q0 18 12.5 31t33.5 13h292q23 0 36 -13.5t13 -30.5v-843q0 -175 -51.5 -294t-138.5 -191.5t-201.5 -104t-240.5 -31.5t-241 32.5t-202 106t-138.5 192t-51.5 290.5v843 q0 17 11.5 30.5t28.5 13.5h300q15 0 31.5 -12.5t16.5 -31.5v-848zM749 1703q-59 1 -109 22.5t-87 56.5t-58 79.5t-21 92.5q0 17 11.5 27t26.5 10h144q11 0 17 -6.5t6 -15.5q0 -23 18 -41.5t56 -18.5q34 0 52.5 19t18.5 41q0 9 5 15.5t16 6.5h146q15 0 26.5 -10t11.5 -27 q0 -49 -21.5 -94t-59.5 -79.5t-89 -55.5t-110 -22z" />
<glyph unicode="&#x16d;" horiz-adv-x="1283" d="M1141 61q0 -31 -14 -45.5t-47 -14.5h-130q-28 0 -47.5 11t-33 30t-23 43.5t-16.5 50.5q-18 -21 -50.5 -46.5t-74.5 -48t-90.5 -37.5t-97.5 -15q-114 0 -190.5 30.5t-122.5 91.5t-65.5 153.5t-19.5 217.5v451q0 24 15 37.5t36 13.5h251q27 0 39 -12t12 -37v-478 q0 -69 34 -104t111 -35q23 0 51 9t53.5 26t43.5 41.5t20 56.5v483q0 25 11.5 37.5t43.5 12.5h248q27 0 40 -14.5t13 -36.5v-872zM568 1199q-59 1 -109 22.5t-87 56.5t-58 79.5t-21 92.5q0 17 11.5 27t26.5 10h144q11 0 17 -6.5t6 -15.5q0 -23 18 -41.5t56 -18.5 q34 0 52.5 19t18.5 41q0 9 5 15.5t16 6.5h146q15 0 26.5 -10t11.5 -27q0 -49 -21.5 -94t-59.5 -79.5t-89 -55.5t-110 -22z" />
<glyph unicode="&#x16e;" horiz-adv-x="1550" d="M544 593q0 -74 20.5 -125.5t54 -84t78 -47.5t92.5 -15q50 0 94.5 17.5t78 52t53 85.5t19.5 117v848q0 18 12.5 31t33.5 13h292q23 0 36 -13.5t13 -30.5v-843q0 -175 -51.5 -294t-138.5 -191.5t-201.5 -104t-240.5 -31.5t-241 32.5t-202 106t-138.5 192t-51.5 290.5v843 q0 17 11.5 30.5t28.5 13.5h300q15 0 31.5 -12.5t16.5 -31.5v-848zM785 2036q43 0 81.5 -16.5t67.5 -45.5t45.5 -67.5t16.5 -81.5q0 -44 -16.5 -82t-45.5 -66.5t-67.5 -44.5t-81.5 -16q-44 0 -82 16t-66.5 44.5t-44.5 66.5t-16 82q0 43 16 81.5t44.5 67.5t66.5 45.5t82 16.5z M786 1886q-26 0 -42 -17t-16 -43t16 -42t42 -16t43 16t17 42t-17 43t-43 17z" />
<glyph unicode="&#x16f;" horiz-adv-x="1283" d="M1141 61q0 -31 -14 -45.5t-47 -14.5h-130q-28 0 -47.5 11t-33 30t-23 43.5t-16.5 50.5q-18 -21 -50.5 -46.5t-74.5 -48t-90.5 -37.5t-97.5 -15q-114 0 -190.5 30.5t-122.5 91.5t-65.5 153.5t-19.5 217.5v451q0 24 15 37.5t36 13.5h251q27 0 39 -12t12 -37v-478 q0 -69 34 -104t111 -35q23 0 51 9t53.5 26t43.5 41.5t20 56.5v483q0 25 11.5 37.5t43.5 12.5h248q27 0 40 -14.5t13 -36.5v-872zM630 1522q43 0 81.5 -16.5t67.5 -45.5t45.5 -67.5t16.5 -81.5q0 -44 -16.5 -82t-45.5 -66.5t-67.5 -44.5t-81.5 -16q-44 0 -82 16t-66.5 44.5 t-44.5 66.5t-16 82q0 43 16 81.5t44.5 67.5t66.5 45.5t82 16.5zM631 1372q-26 0 -42 -17t-16 -43t16 -42t42 -16t43 16t17 42t-17 43t-43 17z" />
<glyph unicode="&#x170;" horiz-adv-x="1550" d="M544 593q0 -74 20.5 -125.5t54 -84t78 -47.5t92.5 -15q50 0 94.5 17.5t78 52t53 85.5t19.5 117v848q0 18 12.5 31t33.5 13h292q23 0 36 -13.5t13 -30.5v-843q0 -175 -51.5 -294t-138.5 -191.5t-201.5 -104t-240.5 -31.5t-241 32.5t-202 106t-138.5 192t-51.5 290.5v843 q0 17 11.5 30.5t28.5 13.5h300q15 0 31.5 -12.5t16.5 -31.5v-848zM492 1947q19 42 53 42h212q19 0 26 -7t7 -18q0 -8 -3 -18.5t-8 -20.5l-88 -205q-12 -22 -23.5 -32t-30.5 -10h-219q-26 0 -26 22q0 8 1 17t8 20zM944 1947q19 42 53 42h212q19 0 26 -7t7 -18q0 -8 -3 -18.5 t-8 -20.5l-88 -205q-12 -22 -23.5 -32t-30.5 -10h-219q-26 0 -26 22q0 8 1 17t8 20z" />
<glyph unicode="&#x171;" horiz-adv-x="1283" d="M1141 61q0 -31 -14 -45.5t-47 -14.5h-130q-28 0 -47.5 11t-33 30t-23 43.5t-16.5 50.5q-18 -21 -50.5 -46.5t-74.5 -48t-90.5 -37.5t-97.5 -15q-114 0 -190.5 30.5t-122.5 91.5t-65.5 153.5t-19.5 217.5v451q0 24 15 37.5t36 13.5h251q27 0 39 -12t12 -37v-478 q0 -69 34 -104t111 -35q23 0 51 9t53.5 26t43.5 41.5t20 56.5v483q0 25 11.5 37.5t43.5 12.5h248q27 0 40 -14.5t13 -36.5v-872zM368 1443q19 42 53 42h212q19 0 26 -7t7 -18q0 -8 -3 -18.5t-8 -20.5l-88 -205q-12 -22 -23.5 -32t-30.5 -10h-219q-26 0 -26 22q0 8 1 17t8 20 zM820 1443q19 42 53 42h212q19 0 26 -7t7 -18q0 -8 -3 -18.5t-8 -20.5l-88 -205q-12 -22 -23.5 -32t-30.5 -10h-219q-26 0 -26 22q0 8 1 17t8 20z" />
<glyph unicode="&#x172;" horiz-adv-x="1548" d="M544 593q0 -74 20.5 -125.5t54 -84t78 -47.5t92.5 -15q50 0 94.5 17.5t78 52t53 85.5t19.5 117v848q0 18 12.5 31t33.5 13h292q23 0 36 -13.5t13 -30.5v-843q0 -175 -51.5 -294t-138.5 -191.5t-201.5 -104t-240.5 -31.5t-241 32.5t-202 106t-138.5 192t-51.5 290.5v843 q0 17 11.5 30.5t28.5 13.5h300q15 0 31.5 -12.5t16.5 -31.5v-848zM898 0q14 -14 17 -25.5t3 -22.5q0 -29 -15 -51t-37.5 -40t-48.5 -33.5t-48.5 -31t-37.5 -32.5t-15 -39q0 -63 171 -106q11 -6 11 -22q0 -9 -11 -35.5t-27 -54.5t-34 -50t-33 -22h-5q-76 23 -138.5 57.5 t-107 74.5t-69 81t-24.5 77q0 37 15.5 64.5t38.5 49t49.5 38t49.5 30.5t38.5 28t15.5 30q0 20 -22 35h264z" />
<glyph unicode="&#x173;" horiz-adv-x="1263" d="M1141 61q0 -31 -14 -45.5t-47 -14.5h-130q-28 0 -47.5 11t-33 30t-23 43.5t-16.5 50.5q-18 -21 -50.5 -46.5t-74.5 -48t-90.5 -37.5t-97.5 -15q-114 0 -190.5 30.5t-122.5 91.5t-65.5 153.5t-19.5 217.5v451q0 24 15 37.5t36 13.5h251q27 0 39 -12t12 -37v-478 q0 -69 34 -104t111 -35q23 0 51 9t53.5 26t43.5 41.5t20 56.5v483q0 25 11.5 37.5t43.5 12.5h248q27 0 40 -14.5t13 -36.5v-872zM1138 36q14 -14 17 -25.5t3 -22.5q0 -29 -15 -51t-37.5 -40t-48.5 -33.5t-48.5 -31t-37.5 -32.5t-15 -39q0 -63 171 -106q11 -6 11 -22 q0 -9 -11 -35.5t-27 -54.5t-34 -50t-33 -22h-5q-76 23 -138.5 57.5t-107 74.5t-69 81t-24.5 77q0 37 15.5 64.5t38.5 49t49.5 38t49.5 30.5t38.5 28t15.5 30q0 20 -22 35h264z" />
<glyph unicode="&#x174;" horiz-adv-x="2156" d="M571 21q-10 17 -19 35t-16 36q-129 340 -257 674t-257 674q0 5 -1.5 9t-1.5 8q0 28 37 28h322q38 0 52 -38l306 -911l283 911q11 38 55 38h325q23 0 32.5 -8.5t9.5 -22.5v-5.5t-1 -8.5q-45 -128 -89 -255t-89 -255l134 -393l324 910q14 38 55 38h315q23 0 32.5 -8.5 t9.5 -22.5v-5.5t-1 -8.5q-68 -176 -138.5 -351t-142 -350t-142.5 -350.5t-138 -350.5q-4 -11 -18 -24.5t-34 -13.5h-245q-22 0 -33.5 8.5t-16.5 22.5l-158 416q-34 -90 -67 -178.5t-66 -178.5q-5 -14 -11.5 -29.5t-15.5 -29t-20.5 -22.5t-26.5 -9h-245q-31 0 -42 21z M1036 2093q7 5 11 7t11 2q8 0 20 -9l277 -276q8 -6 8 -23q0 -9 -9 -19l-108 -110q-7 -5 -13.5 -8t-13.5 -3q-5 0 -11 2t-11 7l-139 142l-142 -143q-7 -2 -13 -4t-10 -2q-12 0 -21 9l-110 107q-5 5 -6.5 10.5t-2.5 11.5q0 8 2 14t7 8z" />
<glyph unicode="&#x175;" horiz-adv-x="1671" d="M389 25q-8 13 -15 26.5t-12 27.5l-329 843q-2 2 -3.5 10.5t-1.5 15.5q0 34 44 34h288q20 0 35 -11.5t23 -31.5q18 -61 34.5 -119.5l33 -117t33.5 -117t37 -119.5l149 474q13 43 61 43h241q28 0 39 -11t11 -30q0 -9 -1 -14l-51 -165q6 -20 17.5 -53.5t26 -74.5t30 -85.5 t30.5 -85.5l138 476q9 23 22.5 33t36.5 10h288q44 0 44 -29q0 -9 -5 -26l-334 -853q-5 -12 -11 -25t-14.5 -24.5t-20 -18.5t-26.5 -7h-236q-25 0 -40.5 14t-17.5 25l-101 274l-88 -236q-4 -11 -10 -24.5t-14.5 -25t-19.5 -19.5t-26 -8h-237q-20 0 -31 7t-17 18zM820 1589 q7 5 11 7t11 2q8 0 20 -9l277 -276q8 -6 8 -23q0 -9 -9 -19l-108 -110q-7 -5 -13.5 -8t-13.5 -3q-5 0 -11 2t-11 7l-139 142l-142 -143q-7 -2 -13 -4t-10 -2q-12 0 -21 9l-110 107q-5 5 -6.5 10.5t-2.5 11.5q0 8 2 14t7 8z" />
<glyph unicode="&#x176;" horiz-adv-x="1410" d="M706 937l242 517q6 12 10 17.5t8 8t8 3t11 2.5h385q7 0 11.5 -4.5t4.5 -10.5q0 -5 -4.5 -11t-9.5 -14l-474 -839v-559q0 -47 -46 -47h-300q-20 0 -31 12.5t-11 34.5v561l-473 837q-5 8 -9 14t-4 11q0 6 4 10.5t11 4.5h385q7 -2 11 -2.5t8 -3t8 -8t11 -17.5zM682 2093 q7 5 11 7t11 2q8 0 20 -9l277 -276q8 -6 8 -23q0 -9 -9 -19l-108 -110q-7 -5 -13.5 -8t-13.5 -3q-5 0 -11 2t-11 7l-139 142l-142 -143q-7 -2 -13 -4t-10 -2q-12 0 -21 9l-110 107q-5 5 -6.5 10.5t-2.5 11.5q0 8 2 14t7 8z" />
<glyph unicode="&#x177;" horiz-adv-x="1160" d="M44 921q-3 2 -4 9.5t-1 14.5q0 36 44 36h274q23 0 38 -11.5t20 -31.5q21 -60 43.5 -127.5t45 -135.5t45 -135.5t44.5 -127.5l172 526q8 23 23 33t39 10h269q27 0 37.5 -11t10.5 -29q0 -10 -1 -15q-38 -101 -81 -214.5t-87.5 -230.5t-89.5 -233t-85.5 -223t-75 -200.5 t-58.5 -165.5q-5 -19 -20.5 -31.5t-35.5 -12.5h-249q-17 0 -32.5 6.5t-15.5 28.5q0 8 5 25l104 306zM582 1589q7 5 11 7t11 2q8 0 20 -9l277 -276q8 -6 8 -23q0 -9 -9 -19l-108 -110q-7 -5 -13.5 -8t-13.5 -3q-5 0 -11 2t-11 7l-139 142l-142 -143q-7 -2 -13 -4t-10 -2 q-12 0 -21 9l-110 107q-5 5 -6.5 10.5t-2.5 11.5q0 8 2 14t7 8z" />
<glyph unicode="&#x178;" horiz-adv-x="1410" d="M706 937l242 517q6 12 10 17.5t8 8t8 3t11 2.5h385q7 0 11.5 -4.5t4.5 -10.5q0 -5 -4.5 -11t-9.5 -14l-474 -839v-559q0 -47 -46 -47h-300q-20 0 -31 12.5t-11 34.5v561l-473 837q-5 8 -9 14t-4 11q0 6 4 10.5t11 4.5h385q7 -2 11 -2.5t8 -3t8 -8t11 -17.5zM329 1752 q0 33 12.5 61.5t34 50t50 34t60.5 12.5q34 0 63 -12.5t50 -34t33 -50t12 -61.5q0 -32 -12 -60.5t-33 -50t-50 -34t-63 -12.5q-32 0 -60.5 12.5t-50 34t-34 50t-12.5 60.5zM769 1754q0 33 12.5 62t33.5 50.5t49.5 34t60.5 12.5q34 0 63 -12.5t50.5 -34t33.5 -50.5t12 -62 q0 -32 -12 -60.5t-33.5 -49.5t-50.5 -33.5t-63 -12.5q-32 0 -60.5 12.5t-49.5 33.5t-33.5 49.5t-12.5 60.5z" />
<glyph unicode="&#x179;" horiz-adv-x="1432" d="M88 1441q0 20 12.5 32t34.5 12h1161q19 0 32.5 -11t13.5 -33v-202q0 -8 -0.5 -15t-5.5 -18l-724 -863h687q19 0 32 -11t13 -34v-249q0 -17 -12.5 -33t-32.5 -16h-1161q-20 0 -33.5 13t-13.5 36v215q0 15 7 26l722 851h-685q-22 0 -34.5 11.5t-12.5 37.5v251zM882 1720 q-19 -42 -53 -42h-212q-19 0 -26 7t-7 18q0 8 3 18.5t8 20.5l88 205q12 22 23.5 32t30.5 10h219q26 0 26 -22q0 -8 -1 -17t-8 -20z" />
<glyph unicode="&#x17a;" horiz-adv-x="1097" d="M116 928q0 24 13.5 38t39.5 14h785q22 0 37.5 -13t15.5 -39v-179q0 -8 -1 -15.5t-6 -18.5q-48 -51 -100.5 -101.5t-106 -101.5t-106 -101.5t-100.5 -101.5h366q23 0 38 -13.5t15 -39.5v-199q0 -19 -14.5 -38t-38.5 -19h-794q-29 0 -43.5 20t-16.5 46v150q0 24 11 43 t30 39q43 45 92 92.5t99 95.5t97.5 94.5t88.5 89.5h-348q-53 0 -53 57v201zM716 1216q-19 -42 -53 -42h-212q-19 0 -26 7t-7 18q0 8 3 18.5t8 20.5l88 205q12 22 23.5 32t30.5 10h219q26 0 26 -22q0 -8 -1 -17t-8 -20z" />
<glyph unicode="&#x17b;" horiz-adv-x="1432" d="M88 1441q0 20 12.5 32t34.5 12h1161q19 0 32.5 -11t13.5 -33v-202q0 -8 -0.5 -15t-5.5 -18l-724 -863h687q19 0 32 -11t13 -34v-249q0 -17 -12.5 -33t-32.5 -16h-1161q-20 0 -33.5 13t-13.5 36v215q0 15 7 26l722 851h-685q-22 0 -34.5 11.5t-12.5 37.5v251zM533 1841 q0 37 14.5 70.5t39 58t57.5 39t70 14.5q39 0 72.5 -14.5t57.5 -39t38 -58t14 -70.5t-14 -70t-38 -57.5t-57.5 -39t-72.5 -14.5q-37 0 -70 14.5t-57.5 39t-39 57.5t-14.5 70z" />
<glyph unicode="&#x17c;" horiz-adv-x="1097" d="M116 928q0 24 13.5 38t39.5 14h785q22 0 37.5 -13t15.5 -39v-179q0 -8 -1 -15.5t-6 -18.5q-48 -51 -100.5 -101.5t-106 -101.5t-106 -101.5t-100.5 -101.5h366q23 0 38 -13.5t15 -39.5v-199q0 -19 -14.5 -38t-38.5 -19h-794q-29 0 -43.5 20t-16.5 46v150q0 24 11 43 t30 39q43 45 92 92.5t99 95.5t97.5 94.5t88.5 89.5h-348q-53 0 -53 57v201zM404 1337q0 37 14.5 70.5t39 58t57.5 39t70 14.5q39 0 72.5 -14.5t57.5 -39t38 -58t14 -70.5t-14 -70t-38 -57.5t-57.5 -39t-72.5 -14.5q-37 0 -70 14.5t-57.5 39t-39 57.5t-14.5 70z" />
<glyph unicode="&#x17d;" horiz-adv-x="1432" d="M88 1441q0 20 12.5 32t34.5 12h1161q19 0 32.5 -11t13.5 -33v-202q0 -8 -0.5 -15t-5.5 -18l-724 -863h687q19 0 32 -11t13 -34v-249q0 -17 -12.5 -33t-32.5 -16h-1161q-20 0 -33.5 13t-13.5 36v215q0 15 7 26l722 851h-685q-22 0 -34.5 11.5t-12.5 37.5v251zM391 1913 q-5 2 -7 8t-2 14q1 6 2.5 12t6.5 10l110 107q6 10 22 10q3 -1 9 -2.5t13 -4.5l142 -143l139 142q5 5 11 7t11 2q13 0 27 -11l108 -110q9 -11 9 -19q0 -17 -8 -23l-277 -276q-7 -5 -11 -7t-9 -2q-7 0 -11 2.5t-11 6.5z" />
<glyph unicode="&#x17e;" horiz-adv-x="1097" d="M116 928q0 24 13.5 38t39.5 14h785q22 0 37.5 -13t15.5 -39v-179q0 -8 -1 -15.5t-6 -18.5q-48 -51 -100.5 -101.5t-106 -101.5t-106 -101.5t-100.5 -101.5h366q23 0 38 -13.5t15 -39.5v-199q0 -19 -14.5 -38t-38.5 -19h-794q-29 0 -43.5 20t-16.5 46v150q0 24 11 43 t30 39q43 45 92 92.5t99 95.5t97.5 94.5t88.5 89.5h-348q-53 0 -53 57v201zM279 1409q-5 2 -7 8t-2 14q1 6 2.5 12t6.5 10l110 107q6 10 22 10q3 -1 9 -2.5t13 -4.5l142 -143l139 142q5 5 11 7t11 2q13 0 27 -11l108 -110q9 -11 9 -19q0 -17 -8 -23l-277 -276q-7 -5 -11 -7 t-9 -2q-7 0 -11 2.5t-11 6.5z" />
<glyph unicode="&#x192;" horiz-adv-x="732" d="M49 944q0 50 52 50h63v88q0 49 13.5 96.5t37.5 91t56.5 81.5t70.5 68q63 46 136 67t155 21q28 0 42.5 -14t14.5 -37v-224q0 -21 -11 -32.5t-29 -11.5h-5q-27 0 -50 -7.5t-40 -21t-27 -34t-10 -45.5v-86h105q23 0 37.5 -12t14.5 -38v-179q0 -21 -14 -38t-38 -17h-105v-667 q0 -112 -44 -205t-130 -162q-63 -45 -142 -65t-158 -20q-53 0 -53 49v225q0 20 11.5 32t29.5 12h4q24 0 47 7t41 20.5t29 33.5t11 46v694h-63q-52 0 -52 55v179z" />
<glyph unicode="&#x1fc;" horiz-adv-x="2295" d="M1109 1446q11 13 31 26t40 13h959q23 0 34.5 -13t11.5 -35v-248q0 -17 -12 -32.5t-35 -15.5h-633v-252h131.5h126.5t126.5 0.5t131.5 0.5q19 0 31.5 -10t12.5 -30v-216q0 -14 -11 -27t-32 -13h-523v-250h679q24 0 34.5 -11.5t10.5 -34.5v-252q0 -20 -14 -33t-34 -13 h-1024q-41 0 -41 37q0 51 1 101.5t3 101.5h-520l-152 -203q-28 -37 -66 -37h-314q-28 0 -28 17q0 5 2.5 10.5t6.5 12.5q160 216 426.5 567t639.5 839zM832 561h300v398zM1457 1720q-19 -42 -53 -42h-212q-19 0 -26 7t-7 18q0 8 3 18.5t8 20.5l88 205q12 22 23.5 32t30.5 10 h219q26 0 26 -22q0 -8 -1 -17t-8 -20z" />
<glyph unicode="&#x1fd;" horiz-adv-x="1873" d="M1073 1216q-19 -42 -53 -42h-212q-19 0 -26 7t-7 18q0 8 3 18.5t8 20.5l88 205q12 22 23.5 32t30.5 10h219q26 0 26 -22q0 -8 -1 -17t-8 -20zM1108 57q0 -29 -18.5 -43t-41.5 -14h-195q-17 0 -26.5 4.5t-16 12t-10.5 18.5t-9 24l-22 58q-14 -21 -30.5 -44.5t-41 -44 t-59 -33.5t-83.5 -13h-11q-108 0 -197.5 38.5t-154.5 106t-101 160.5t-36 201q0 111 35.5 204t100 160.5t154.5 105.5t199 38q51 0 92.5 -14.5t73 -38t53.5 -53.5t35 -61l30 93q7 21 11.5 32.5t10.5 17.5t15 7.5t25 1.5h158q24 0 42 -15.5t18 -41.5v-867zM410 485 q0 -40 12 -74t34 -59t53.5 -39t69.5 -14q39 0 72.5 14t57.5 39t37.5 59t13.5 74q0 39 -13.5 73t-37.5 59.5t-57.5 40.5t-72.5 15q-38 0 -69.5 -15t-53.5 -40.5t-34 -59.5t-12 -73zM1647 82q-66 -52 -146 -80t-168 -28q-105 0 -197.5 40t-162 110t-110 164t-40.5 201 q0 101 36.5 194t102 164t154.5 113t194 42q98 0 186.5 -37t155 -101.5t105.5 -152t39 -187.5q0 -34 -7 -59t-24 -41t-46.5 -24t-74.5 -8h-495q10 -34 30.5 -59.5t46 -43t53 -26t51.5 -8.5q40 0 80.5 11.5t66.5 27.5q22 10 32 19.5t24 9.5q8 0 15.5 -4.5t18.5 -16.5l101 -144 q10 -14 10 -29q0 -14 -8.5 -26t-22.5 -21zM1316 722q-27 0 -52 -9t-45.5 -24.5t-37 -35.5t-26.5 -42h335q-12 21 -28 41t-36.5 35.5t-47.5 25t-62 9.5z" />
<glyph unicode="&#x1fe;" horiz-adv-x="1714" d="M1010 1720q-19 -42 -53 -42h-212q-19 0 -26 7t-7 18q0 8 3 18.5t8 20.5l88 205q12 22 23.5 32t30.5 10h219q26 0 26 -22q0 -8 -1 -17t-8 -20zM478 742q0 -83 28 -155t78.5 -125.5t119.5 -84t152 -30.5t152.5 30.5t120 84t78.5 125.5t28 155q0 82 -28 154.5t-78.5 126.5 t-120 85t-152.5 31t-152 -31t-119.5 -85t-78.5 -126.5t-28 -154.5zM379 144q-66 52 -119 118t-90.5 142t-57.5 161t-20 176q0 106 27 203.5t77 183t119.5 155.5t154.5 119.5t182.5 77t203.5 27.5q67 0 132 -12l38 83q9 20 26 34t44 14h304q22 0 39 -8.5t17 -25.5 q0 -12 -2 -14l-60 -133l-52 -113q64 -53 115.5 -118.5t88 -140.5t56 -159t19.5 -173q0 -106 -27.5 -203.5t-77 -182t-119.5 -154t-155 -119.5t-183 -77t-203 -27q-32 0 -62 2.5t-60 7.5l-35 -78q-12 -27 -23 -37.5t-34 -10.5h-328q-45 0 -45 28q0 2 1 5q1 4 3 15z" />
<glyph unicode="&#x1ff;" horiz-adv-x="1209" d="M81 488q0 106 41 198.5t111.5 160t166 106.5t205.5 39q20 0 38.5 -1.5t37.5 -3.5l44 102q6 13 17.5 22.5t29.5 9.5h204q15 0 26 -6t11 -17q0 -8 -1 -9l-89 -200q46 -34 84 -77.5t64.5 -94.5t41 -109t14.5 -120q0 -106 -41 -198.5t-111.5 -160.5t-166 -107.5t-203.5 -39.5 q-56 0 -105 10l-50 -96q-8 -18 -15 -25t-23 -7h-221q-30 0 -30 19q0 1 1 3t1 4t1 6l99 206q-85 69 -133.5 168.5t-48.5 217.5zM437 485q0 -40 12 -74t34 -59t53.5 -39t70.5 -14t70 14t53 39t34 59t12 74q0 39 -12 73t-34 59.5t-53 40.5t-70 15t-70.5 -15t-53.5 -40.5 t-34 -59.5t-12 -73zM733 1216q-19 -42 -53 -42h-212q-19 0 -26 7t-7 18q0 8 3 18.5t8 20.5l88 205q12 22 23.5 32t30.5 10h219q26 0 26 -22q0 -8 -1 -17t-8 -20z" />
<glyph unicode="&#x218;" horiz-adv-x="1312" d="M348 479q17 -14 43.5 -37.5t60.5 -46.5q50 -34 100.5 -53t105.5 -19q51 0 85.5 11.5t54.5 30.5t28.5 44t8.5 53q0 31 -23.5 55.5t-57.5 43.5t-71 32.5t-64 22.5q-120 42 -210 90.5t-150 108t-90 131.5t-30 159q0 93 37.5 169t107 130t167.5 83.5t219 29.5 q90 0 174.5 -20.5t164.5 -65.5q34 -20 64.5 -41t53.5 -41.5t36.5 -38.5t13.5 -31t-6.5 -24t-19.5 -25l-153 -163q-17 -17 -34 -17q-14 0 -25.5 8t-25.5 20l-9 8q-20 17 -44.5 35t-52.5 32.5t-59 24t-63 9.5q-33 0 -62 -5.5t-51 -17.5t-35 -31.5t-13 -47.5t14 -48.5t42 -38 t69.5 -33t96.5 -33.5q106 -35 195.5 -73.5t154.5 -91t101.5 -125.5t36.5 -177q0 -110 -45 -199.5t-123.5 -152.5t-184.5 -97.5t-228 -34.5q-77 0 -153.5 19.5t-147 54t-133 80.5t-110.5 99l-3 3l-4 4l-4 4q-23 24 -23 40q0 17 23 38l173 165q21 15 34 15q9 0 19 -6t24 -18z M467 -296q0 39 14.5 72t39 57t57.5 38t70 14q39 0 72.5 -14t58 -39.5t38 -62t13.5 -80.5q0 -96 -19 -166.5t-45.5 -117.5t-54 -70t-45.5 -23q-11 0 -17.5 2.5t-14.5 8.5l-42 32q-9 8 -14.5 20t-5.5 21q0 18 8 30.5t17 24.5t17 26t8 36v10q-31 5 -59 21.5t-49.5 41t-34 55 t-12.5 63.5z" />
<glyph unicode="&#x219;" horiz-adv-x="956" d="M287 340q48 -39 89.5 -58.5t74.5 -19.5q24 0 45 2.5t37 7.5t25.5 14t9.5 23q0 28 -37 43t-101 32q-99 26 -165.5 60t-107 75.5t-57.5 90t-17 104.5q0 64 30.5 116.5t84.5 89.5t127.5 57.5t159.5 20.5q51 0 99.5 -5t93.5 -18.5t87 -37.5t81 -62q11 -14 11 -26 q-1 -9 -5 -18.5t-15 -18.5q-9 -8 -27.5 -26.5t-39 -40t-38.5 -40.5t-26 -27q-7 -7 -14.5 -9.5t-14.5 -2.5q-12 0 -22.5 6t-21.5 17q-13 13 -31 22.5t-37.5 16t-38.5 10t-35 3.5t-32 -3.5t-28.5 -10.5t-20 -17.5t-7.5 -23.5q0 -19 15 -30.5t37 -18t46.5 -11t44.5 -10.5 q74 -23 139 -46.5t113.5 -58t76.5 -84.5t28 -125q0 -77 -35 -137t-95.5 -101t-141 -62.5t-170.5 -21.5q-104 0 -200.5 37t-170.5 118q-20 22 -20 42q0 17 16 33l133 139q7 7 14 9.5t13 3.5q9 0 18.5 -6t22.5 -16zM283 -296q0 39 14.5 72t39 57t57.5 38t70 14q39 0 72.5 -14 t58 -39.5t38 -62t13.5 -80.5q0 -96 -19 -166.5t-45.5 -117.5t-54 -70t-45.5 -23q-11 0 -17.5 2.5t-14.5 8.5l-42 32q-9 8 -14.5 20t-5.5 21q0 18 8 30.5t17 24.5t17 26t8 36v10q-31 5 -59 21.5t-49.5 41t-34 55t-12.5 63.5z" />
<glyph unicode="&#x21a;" horiz-adv-x="1267" d="M80 1441q0 20 13.5 32t33.5 12h1077q18 0 32 -11t16 -33v-249q0 -18 -12.5 -34.5t-35.5 -16.5h-345v-1094q0 -18 -13 -32.5t-34 -14.5h-294q-17 0 -32 13.5t-15 33.5v1094h-344q-20 0 -33.5 13t-13.5 38v249zM440 -296q0 39 14.5 72t39 57t57.5 38t70 14q39 0 72.5 -14 t58 -39.5t38 -62t13.5 -80.5q0 -96 -19 -166.5t-45.5 -117.5t-54 -70t-45.5 -23q-11 0 -17.5 2.5t-14.5 8.5l-42 32q-9 8 -14.5 20t-5.5 21q0 18 8 30.5t17 24.5t17 26t8 36v10q-31 5 -59 21.5t-49.5 41t-34 55t-12.5 63.5z" />
<glyph unicode="&#x21b;" horiz-adv-x="668" d="M149 1255q0 20 13.5 35.5t39.5 20.5l248 39q20 0 32 -13.5t12 -35.5v-300h89q25 0 41.5 -14.5t16.5 -43.5v-156q0 -25 -16 -43t-42 -18h-89v-675q0 -51 -56 -51h-237q-52 0 -52 51v675h-56q-59 0 -59 61v156q0 58 59 58h56v254zM146 -296q0 39 14.5 72t39 57t57.5 38 t70 14q39 0 72.5 -14t58 -39.5t38 -62t13.5 -80.5q0 -96 -19 -166.5t-45.5 -117.5t-54 -70t-45.5 -23q-11 0 -17.5 2.5t-14.5 8.5l-42 32q-9 8 -14.5 20t-5.5 21q0 18 8 30.5t17 24.5t17 26t8 36v10q-31 5 -59 21.5t-49.5 41t-34 55t-12.5 63.5z" />
<glyph unicode="&#x237;" horiz-adv-x="650" d="M159 930q0 24 15 38t38 14h249q21 0 37.5 -15t16.5 -37v-899q0 -104 -32.5 -187t-92.5 -141t-144 -88.5t-186 -30.5q-29 0 -44 15t-15 40v191q0 23 13.5 36t34.5 13h4q21 0 40 8t33.5 22t23.5 34.5t9 46.5v940z" />
<glyph unicode="&#x2c6;" horiz-adv-x="748" d="M353 1589q7 5 11 7t11 2q8 0 20 -9l277 -276q8 -6 8 -23q0 -9 -9 -19l-108 -110q-7 -5 -13.5 -8t-13.5 -3q-5 0 -11 2t-11 7l-139 142l-142 -143q-7 -2 -13 -4t-10 -2q-12 0 -21 9l-110 107q-5 5 -6.5 10.5t-2.5 11.5q0 8 2 14t7 8z" />
<glyph unicode="&#x2c7;" horiz-adv-x="741" d="M78 1409q-5 2 -7 8t-2 14q1 6 2.5 12t6.5 10l110 107q6 10 22 10q3 -1 9 -2.5t13 -4.5l142 -143l139 142q5 5 11 7t11 2q13 0 27 -11l108 -110q9 -11 9 -19q0 -17 -8 -23l-277 -276q-7 -5 -11 -7t-9 -2q-7 0 -11 2.5t-11 6.5z" />
<glyph unicode="&#x2c9;" horiz-adv-x="981" d="M103 1355q0 35 36 35h701q36 0 36 -35v-77q0 -11 -8.5 -25t-27.5 -14h-701q-36 0 -36 39v77z" />
<glyph unicode="&#x2d8;" horiz-adv-x="653" d="M323 1199q-59 1 -109 22.5t-87 56.5t-58 79.5t-21 92.5q0 17 11.5 27t26.5 10h144q11 0 17 -6.5t6 -15.5q0 -23 18 -41.5t56 -18.5q34 0 52.5 19t18.5 41q0 9 5 15.5t16 6.5h146q15 0 26.5 -10t11.5 -27q0 -49 -21.5 -94t-59.5 -79.5t-89 -55.5t-110 -22z" />
<glyph unicode="&#x2d9;" horiz-adv-x="543" d="M91 1293q0 33 12.5 61.5t34 50t50 34t60.5 12.5q34 0 63 -12.5t50 -34t33 -50t12 -61.5q0 -32 -12 -60.5t-33 -50t-50 -34t-63 -12.5q-32 0 -60.5 12.5t-50 34t-34 50t-12.5 60.5z" />
<glyph unicode="&#x2da;" horiz-adv-x="767" d="M374 1522q43 0 81.5 -16.5t67.5 -45.5t45.5 -67.5t16.5 -81.5q0 -44 -16.5 -82t-45.5 -66.5t-67.5 -44.5t-81.5 -16q-44 0 -82 16t-66.5 44.5t-44.5 66.5t-16 82q0 43 16 81.5t44.5 67.5t66.5 45.5t82 16.5zM375 1372q-26 0 -42 -17t-16 -43t16 -42t42 -16t43 16t17 42 t-17 43t-43 17z" />
<glyph unicode="&#x2db;" horiz-adv-x="516" d="M475 0q14 -14 17 -25.5t3 -22.5q0 -29 -15 -51t-37.5 -40t-48.5 -33.5t-48.5 -31t-37.5 -32.5t-15 -39q0 -63 171 -106q11 -6 11 -22q0 -9 -11 -35.5t-27 -54.5t-34 -50t-33 -22h-5q-76 23 -138.5 57.5t-107 74.5t-69 81t-24.5 77q0 37 15.5 64.5t38.5 49t49.5 38 t49.5 30.5t38.5 28t15.5 30q0 20 -22 35h264z" />
<glyph unicode="&#x2dc;" horiz-adv-x="881" d="M94 1368q39 54 94 84t119 30q37 -2 78.5 -15t76.5 -36l55 -35q15 -10 23.5 -12.5t21.5 -2.5q20 0 35 8t26 22l30 36q9 11 26 11q8 0 19 -8l105 -103q12 -12 12 -26q0 -10 -6 -17l-25 -32q-42 -54 -97.5 -84t-121.5 -30q-40 0 -80 13.5t-76 36.5l-55 35q-11 7 -21 11 t-24 4q-20 0 -34 -8t-25 -21l-31 -38q-4 -6 -10.5 -8t-14.5 -2q-6 0 -10.5 0.5t-9.5 5.5l-106 104q-5 5 -8.5 9t-3.5 14q0 2 1 4t5 7.5t11.5 15.5t20.5 27z" />
<glyph unicode="&#x2dd;" horiz-adv-x="1031" d="M197 1443q19 42 53 42h212q19 0 26 -7t7 -18q0 -8 -3 -18.5t-8 -20.5l-88 -205q-12 -22 -23.5 -32t-30.5 -10h-219q-26 0 -26 22q0 8 1 17t8 20zM649 1443q19 42 53 42h212q19 0 26 -7t7 -18q0 -8 -3 -18.5t-8 -20.5l-88 -205q-12 -22 -23.5 -32t-30.5 -10h-219 q-26 0 -26 22q0 8 1 17t8 20z" />
<glyph unicode="&#x37e;" horiz-adv-x="528" d="M120 952q0 37 14.5 70.5t39 58t57.5 39t70 14.5q39 0 72.5 -14.5t57.5 -39t38 -58t14 -70.5t-14 -70t-38 -57.5t-57.5 -39t-72.5 -14.5q-37 0 -70 14.5t-57.5 39t-39 57.5t-14.5 70zM117 159q0 39 14.5 72t39 57t57.5 38t70 14q39 0 72.5 -14t58 -39.5t38 -62t13.5 -80.5 q0 -96 -19 -166.5t-45.5 -117.5t-54 -70t-45.5 -23q-11 0 -17.5 2.5t-14.5 8.5l-47 34q-18 18 -18 35q0 12 7 23.5t16 25.5q11 11 20.5 28t9.5 44v10q-31 5 -59 21.5t-49.5 41t-34 55t-12.5 63.5z" />
<glyph unicode="&#x384;" horiz-adv-x="517" d="M172 1128q-16 2 -26.5 10.5t-10.5 25.5l-34 299q1 9 7.5 16.5t18.5 7.5h193q14 0 22 -8t5 -21l-31 -294q-2 -14 -11.5 -25t-22.5 -11h-110z" />
<glyph unicode="&#x385;" horiz-adv-x="860" d="M79 1320q0 44 17.5 59.5t57.5 15.5h44q16 0 29.5 -3.5t23.5 -12t16 -23t6 -36.5v-44q0 -40 -17.5 -57.5t-57.5 -17.5h-44q-40 0 -57.5 17.5t-17.5 57.5v44zM576 1320q0 44 17.5 59.5t57.5 15.5h44q16 0 29.5 -3.5t23.5 -12t16 -23t6 -36.5v-44q0 -40 -17.5 -57.5 t-57.5 -17.5h-44q-40 0 -57.5 17.5t-17.5 57.5v44zM394 1195q-20 2 -33 12t-13 32l-33 294q-2 15 8 25.5t27 10.5h141q18 0 29 -12t8 -30l-31 -288q-2 -17 -14.5 -30.5t-29.5 -13.5h-59z" />
<glyph unicode="&#x386;" horiz-adv-x="1533" d="M150 1130q-16 2 -26.5 10.5t-10.5 25.5l-34 299q1 9 7.5 16.5t18.5 7.5h193q14 0 22 -8t5 -21l-31 -294q-2 -14 -11.5 -25t-22.5 -11h-110zM586 1446q5 12 21 25.5t33 13.5h256q17 0 30 -9.5t17 -19.5l550 -1411q3 -9 3 -15q0 -30 -44 -30h-287q-23 0 -35.5 8.5 t-19.5 28.5q-20 51 -39 101.5t-38 101.5h-531q-19 -51 -38.5 -101.5t-38.5 -101.5q-14 -37 -51 -37h-295q-16 0 -27.5 6.5t-11.5 20.5q0 5 3 13zM768 1018q-19 -51 -38 -110t-38.5 -119t-39 -118.5t-38.5 -109.5h307z" />
<glyph unicode="&#x387;" horiz-adv-x="455" />
<glyph unicode="&#x388;" horiz-adv-x="1383" d="M14 1128q-16 2 -26.5 10.5t-10.5 25.5l-34 299q1 9 7.5 16.5t18.5 7.5h193q14 0 22 -8t5 -21l-31 -294q-2 -14 -11.5 -25t-22.5 -11h-110zM259 1439q0 21 11.5 33.5t32.5 12.5h993q22 0 34 -13t12 -35v-248q0 -17 -12 -32.5t-35 -15.5h-648v-247h500q19 0 31.5 -9 t12.5 -30v-216q0 -14 -11 -27t-32 -13h-501v-255h672q45 0 45 -46v-252q0 -20 -14 -33t-35 -13h-1012q-20 0 -32 10.5t-12 32.5v1396z" />
<glyph unicode="&#x389;" horiz-adv-x="1652" d="M19 1130q-16 2 -26.5 10.5t-10.5 25.5l-34 299q1 9 7.5 16.5t18.5 7.5h193q14 0 22 -8t5 -21l-31 -294q-2 -14 -11.5 -25t-22.5 -11h-110zM293 1441q0 17 12 30.5t31 13.5h297q15 0 31 -12.5t16 -31.5v-474h497v474q0 18 12.5 31t32.5 13h293q20 0 35 -10t15 -32v-1399 q0 -22 -13 -33t-34 -11h-296q-20 0 -32.5 11t-12.5 33v568h-497v-568q0 -21 -13.5 -32.5t-36.5 -11.5h-294q-41 0 -43 39v1402z" />
<glyph unicode="&#x38a;" horiz-adv-x="802" d="M14 1127q-16 2 -26.5 10.5t-10.5 25.5l-34 299q1 9 7.5 16.5t18.5 7.5h193q14 0 22 -8t5 -21l-31 -294q-2 -14 -11.5 -25t-22.5 -11h-110zM254 1441q0 18 11 31t33 13h294q15 0 32 -12t17 -32v-1397q0 -44 -49 -44h-294q-44 0 -44 44v1397z" />
<glyph unicode="&#x38c;" horiz-adv-x="1760" d="M524 742q0 -83 28 -155t78.5 -125.5t119.5 -84t152 -30.5t152.5 30.5t120 84t78.5 125.5t28 155q0 82 -28 154.5t-78.5 126.5t-120 85t-152.5 31t-152 -31t-119.5 -85t-78.5 -126.5t-28 -154.5zM138 741q0 106 27 203.5t77 183t119.5 155.5t154.5 119.5t182.5 77 t203.5 27.5q105 0 203 -27.5t183 -77t155 -119.5t119.5 -155.5t77 -183t27.5 -203.5t-27.5 -203.5t-77 -182t-119.5 -154t-155 -119.5t-183 -77t-203 -27q-106 0 -203.5 27t-182.5 77t-154.5 119.5t-119.5 154t-77 182t-27 203.5zM25 1128q-16 2 -26.5 10.5t-10.5 25.5 l-34 299q1 9 7.5 16.5t18.5 7.5h193q14 0 22 -8t5 -21l-31 -294q-2 -14 -11.5 -25t-22.5 -11h-110z" />
<glyph unicode="&#x38e;" horiz-adv-x="1626" d="M44 1128q-16 2 -26.5 10.5t-10.5 25.5l-34 299q1 9 7.5 16.5t18.5 7.5h193q14 0 22 -8t5 -21l-31 -294q-2 -14 -11.5 -25t-22.5 -11h-110zM924 937l242 517q6 12 10 17.5t8 8t8 3t11 2.5h385q7 0 11.5 -4.5t4.5 -10.5q0 -5 -4.5 -11t-9.5 -14l-474 -839v-559 q0 -47 -46 -47h-300q-20 0 -31 12.5t-11 34.5v561l-473 837q-5 8 -9 14t-4 11q0 6 4 10.5t11 4.5h385q7 -2 11 -2.5t8 -3t8 -8t11 -17.5z" />
<glyph unicode="&#x38f;" horiz-adv-x="1560" d="M-2 1130q-16 2 -26.5 10.5t-10.5 25.5l-34 299q1 9 7.5 16.5t18.5 7.5h193q14 0 22 -8t5 -21l-31 -294q-2 -14 -11.5 -25t-22.5 -11h-110zM213 0q-8 0 -16 2q-21 0 -32 14.5t-11 31.5v221q0 21 13 33t31 12h150v39q-98 91 -154 216t-56 271q0 92 23.5 177.5t66.5 159.5 t103.5 134.5t134.5 103.5t159 66.5t177 23.5q139 0 260 -52t211 -142t142 -211t52 -260q0 -146 -55.5 -270t-152.5 -215v-41h150q18 0 31 -12t13 -33v-221q0 -17 -10 -30.5t-29 -15.5q-3 -2 -6.5 -2h-6.5h-459q-44 0 -44 44v487q0 13 7.5 21.5t21.5 8.5q40 18 73.5 47 t57.5 65.5t37.5 79.5t13.5 90q0 64 -24.5 121t-67 99.5t-99.5 67t-121 24.5q-65 0 -121.5 -24.5t-98.5 -67t-66 -99.5t-24 -121q0 -47 13 -90t37 -79.5t57.5 -65.5t73.5 -47q12 0 21.5 -8t9.5 -22v-487q0 -44 -46 -44h-440v0z" />
<glyph unicode="&#x390;" horiz-adv-x="495" d="M-117 1230q0 33 12.5 61.5t34 50t50 34t60.5 12.5q34 0 63 -12.5t50 -34t33 -50t12 -61.5q0 -32 -12 -60.5t-33 -50t-50 -34t-63 -12.5q-32 0 -60.5 12.5t-50 34t-34 50t-12.5 60.5zM443 1232q0 33 12.5 62t33.5 50.5t49.5 34t60.5 12.5q34 0 63 -12.5t50.5 -34 t33.5 -50.5t12 -62q0 -32 -12 -60.5t-33.5 -49.5t-50.5 -33.5t-63 -12.5q-32 0 -60.5 12.5t-49.5 33.5t-33.5 49.5t-12.5 60.5zM264 1269q-16 2 -26.5 10.5t-10.5 25.5l-34 299q1 9 7.5 16.5t18.5 7.5h193q14 0 22 -8t5 -21l-31 -294q-2 -14 -11.5 -25t-22.5 -11h-110z M142 931q0 21 12.5 36.5t37.5 15.5h250q8 0 17.5 -4t18 -10.5t14 -16t5.5 -21.5v-880q0 -51 -55 -51h-250q-50 0 -50 51v880z" />
<glyph unicode="&#x391;" horiz-adv-x="1531" d="M586 1446q5 12 21 25.5t33 13.5h256q17 0 30 -9.5t17 -19.5l550 -1411q3 -9 3 -15q0 -30 -44 -30h-287q-23 0 -35.5 8.5t-19.5 28.5q-20 51 -39 101.5t-38 101.5h-531q-19 -51 -38.5 -101.5t-38.5 -101.5q-14 -37 -51 -37h-295q-16 0 -27.5 6.5t-11.5 20.5q0 5 3 13z M768 1018q-19 -51 -38 -110t-38.5 -119t-39 -118.5t-38.5 -109.5h307z" />
<glyph unicode="&#x392;" horiz-adv-x="1410" d="M158 1439q0 21 11.5 33.5t32.5 12.5h634q88 0 166 -33.5t136.5 -92t92.5 -137t34 -168.5q0 -75 -23.5 -139.5t-66.5 -115.5q71 -66 113.5 -157.5t42.5 -192.5q0 -91 -35 -172.5t-94.5 -143t-139 -97.5t-167.5 -36h-693q-20 0 -32 10.5t-12 32.5v1396zM934 464 q0 30 -11.5 60t-32 53.5t-49 38.5t-61.5 15h-234v-334h234q33 0 61 14t49 37.5t32.5 53.5t11.5 62zM881 1045q0 30 -11 56t-31 46t-48 31.5t-61 11.5h-184v-290h181q34 0 62.5 10.5t48.5 30t31.5 46t11.5 58.5z" />
<glyph unicode="&#x393;" horiz-adv-x="1210" d="M162 1442q0 44 44 44h893q21 0 32.5 -14.5t11.5 -31.5v-263q0 -21 -13 -33t-31 -12h-550v-1088q0 -20 -14.5 -32t-31.5 -12h-296q-21 0 -33 13t-12 31v1398z" />
<glyph unicode="&#x395;" horiz-adv-x="1350" d="M161 1439q0 21 11.5 33.5t32.5 12.5h993q22 0 34 -13t12 -35v-248q0 -17 -12 -32.5t-35 -15.5h-648v-247h500q19 0 31.5 -9t12.5 -30v-216q0 -14 -11 -27t-32 -13h-501v-255h672q45 0 45 -46v-252q0 -20 -14 -33t-35 -13h-1012q-20 0 -32 10.5t-12 32.5v1396z" />
<glyph unicode="&#x396;" horiz-adv-x="1364" d="M88 1441q0 20 12.5 32t34.5 12h1161q19 0 32.5 -11t13.5 -33v-202q0 -8 -0.5 -15t-5.5 -18l-724 -863h687q19 0 32 -11t13 -34v-249q0 -17 -12.5 -33t-32.5 -16h-1161q-20 0 -33.5 13t-13.5 36v215q0 15 7 26l722 851h-685q-22 0 -34.5 11.5t-12.5 37.5v251z" />
<glyph unicode="&#x397;" horiz-adv-x="1606" d="M169 1441q0 17 12 30.5t31 13.5h297q15 0 31 -12.5t16 -31.5v-474h497v474q0 18 12.5 31t32.5 13h293q20 0 35 -10t15 -32v-1399q0 -22 -13 -33t-34 -11h-296q-20 0 -32.5 11t-12.5 33v568h-497v-568q0 -21 -13.5 -32.5t-36.5 -11.5h-294q-41 0 -43 39v1402z" />
<glyph unicode="&#x398;" horiz-adv-x="1758" d="M117 741q0 106 27 203.5t77 183t119.5 155.5t154.5 119.5t182.5 77t203.5 27.5q105 0 203 -27.5t183 -77t155 -119.5t119.5 -155.5t77 -183t27.5 -203.5t-27.5 -203.5t-77 -182t-119.5 -154t-155 -119.5t-183 -77t-203 -27q-106 0 -203.5 27t-182.5 77t-154.5 119.5 t-119.5 154t-77 182t-27 203.5zM881 347q64 0 120.5 18.5t102 52t79.5 80.5t54 103h-711q19 -56 53 -103t79.5 -80.5t102 -52t120.5 -18.5zM881 1139q-62 0 -117 -18t-100 -50t-79 -76.5t-55 -98.5h702q-20 54 -54 98.5t-79.5 76.5t-100.5 50t-117 18z" />
<glyph unicode="&#x399;" horiz-adv-x="709" d="M161 1441q0 18 11 31t33 13h294q15 0 32 -12t17 -32v-1397q0 -44 -49 -44h-294q-44 0 -44 44v1397z" />
<glyph unicode="&#x39a;" horiz-adv-x="1529" d="M159 1441q0 18 11.5 31t32.5 13h296q15 0 31.5 -12t16.5 -32v-545q108 139 214 276t213 276q11 17 28.5 27.5t34.5 10.5h380q24 0 24 -15q0 -10 -11 -24l-471 -621l521 -784q11 -17 11 -27q0 -15 -22 -15h-378q-17 0 -33.5 10t-27.5 27q-53 72 -96.5 138t-84.5 131.5 t-83 132.5t-92 141l-127 -146v-390q0 -44 -48 -44h-295q-45 0 -45 44v1397z" />
<glyph unicode="&#x39b;" horiz-adv-x="1437" d="M878.035 1464q10.999 -17.999 19.498 -36.9971q8.5 -18.999 16.499 -38.998l512.969 -1342.92q0 -5 1.5 -8.99902q1.5 -4 1.5 -8q0 -27.998 -36.998 -27.998h-321.979q-37.998 0 -51.9971 37.9971l-304.981 909.945q-40.998 -113.993 -78.4951 -227.486 q-37.498 -113.493 -74.4961 -227.486q-36.9971 -113.993 -73.9951 -227.486t-77.9951 -227.486q-13.999 -37.9971 -54.9971 -37.9971h-314.98q-22.998 0 -32.498 8.49902q-9.49902 8.5 -9.49902 22.499q0 6.99902 1 10.999l515.968 1345.92q5 13.999 12 30.998 q6.99902 16.999 15.999 31.498q8.99902 14.499 20.998 24.499q12 9.99902 26.999 9.99902h246.984q29.998 0 40.998 -20.999z" />
<glyph unicode="&#x39c;" horiz-adv-x="1832" d="M217 1441q2 18 14 31t34 13h346q36 0 48 -38l272 -908l274 908q6 20 20 29t31 9h342q18 0 32.5 -12.5t16.5 -31.5q35 -352 71.5 -698.5t71.5 -698.5v-5q0 -39 -44 -39h-283q-46 0 -48 44l-87 773l-225 -778q-1 -5 -5 -11.5t-9.5 -12.5t-12 -10t-12.5 -4h-263 q-12 0 -25.5 13.5t-14.5 24.5l-225 776l-87 -771q-2 -44 -49 -44h-283q-43 0 -43 44z" />
<glyph unicode="&#x39d;" horiz-adv-x="1643" d="M169 1441q0 18 11 31t33 13h327q14 0 29 -7t26 -24q126 -204 252 -404t253 -404v801q4 18 16 28t28 10h285q21 0 35 -11.5t14 -32.5v-1402q0 -20 -12 -29.5t-33 -9.5h-319q-13 0 -23 9t-21 24q-132 219 -263 435t-264 435v-859q0 -22 -10 -33t-36 -11h-284 q-23 0 -33.5 12.5t-10.5 30.5v1398z" />
<glyph unicode="&#x39e;" horiz-adv-x="1390" d="M94 296q0 44 44 44h1105q18 0 31 -11.5t13 -32.5v-247q0 -15 -12 -31.5t-32 -16.5h-1105q-44 0 -44 48v247zM251 851q0 44 44 44h802q18 0 31 -11.5t13 -32.5v-203q0 -15 -12 -31.5t-32 -16.5h-802q-44 0 -44 48v203zM94 1441q0 44 44 44h1105q18 0 31 -11.5t13 -32.5 v-253q0 -15 -12 -31.5t-32 -16.5h-1105q-44 0 -44 48v253z" />
<glyph unicode="&#x39f;" horiz-adv-x="1705" d="M478 742q0 -83 28 -155t78.5 -125.5t119.5 -84t152 -30.5t152.5 30.5t120 84t78.5 125.5t28 155q0 82 -28 154.5t-78.5 126.5t-120 85t-152.5 31t-152 -31t-119.5 -85t-78.5 -126.5t-28 -154.5zM92 741q0 106 27 203.5t77 183t119.5 155.5t154.5 119.5t182.5 77 t203.5 27.5q105 0 203 -27.5t183 -77t155 -119.5t119.5 -155.5t77 -183t27.5 -203.5t-27.5 -203.5t-77 -182t-119.5 -154t-155 -119.5t-183 -77t-203 -27q-106 0 -203.5 27t-182.5 77t-154.5 119.5t-119.5 154t-77 182t-27 203.5z" />
<glyph unicode="&#x3a0;" horiz-adv-x="1537" d="M983 1131h-429v-1089q0 -42 -47 -42h-303q-44 0 -44 42v1397q0 46 44 46h1126q17 0 32 -12t15 -32v-1397q0 -44 -47 -44h-303q-44 0 -44 44v1087z" />
<glyph unicode="&#x3a1;" horiz-adv-x="1259" d="M162 1439q0 21 11 33.5t33 12.5h639q69 0 130 -19t112 -52.5t92 -80t69.5 -100.5t43.5 -113.5t15 -120.5q0 -90 -32.5 -176t-92.5 -153t-144 -108.5t-186 -42.5h-303v-476q0 -43 -46 -43h-297q-20 0 -32 10.5t-12 32.5v1396zM915 1001q0 30 -10.5 60t-30.5 53.5 t-48.5 38.5t-64.5 15h-212v-334h212q36 0 65 14.5t48.5 37.5t30 53t10.5 62z" />
<glyph unicode="&#x3a3;" horiz-adv-x="1393" d="M968 785q10 -10 10 -23q0 -14 -10 -22l-336 -397h627q19 0 32 -11t13 -34v-249q0 -17 -12.5 -33t-32.5 -16h-1101q-20 0 -33.5 13t-13.5 36v215q0 15 7 26l406 475l-410 441q-5 11 -5.5 18t-0.5 15v202q0 22 13.5 33t32.5 11h1101q22 0 34.5 -12t12.5 -32v-251 q0 -26 -12.5 -37.5t-34.5 -11.5h-625l338 -356v0z" />
<glyph unicode="&#x3a4;" horiz-adv-x="1332" d="M80 1441q0 20 13.5 32t33.5 12h1077q18 0 32 -11t16 -33v-249q0 -18 -12.5 -34.5t-35.5 -16.5h-345v-1094q0 -18 -13 -32.5t-34 -14.5h-294q-17 0 -32 13.5t-15 33.5v1094h-344q-20 0 -33.5 13t-13.5 38v249z" />
<glyph unicode="&#x3a5;" horiz-adv-x="1410" d="M706 937l242 517q6 12 10 17.5t8 8t8 3t11 2.5h385q7 0 11.5 -4.5t4.5 -10.5q0 -5 -4.5 -11t-9.5 -14l-474 -839v-559q0 -47 -46 -47h-300q-20 0 -31 12.5t-11 34.5v561l-473 837q-5 8 -9 14t-4 11q0 6 4 10.5t11 4.5h385q7 -2 11 -2.5t8 -3t8 -8t11 -17.5z" />
</font>
</defs>
</svg>
