<?xml version="1.0" standalone="no"?><!DOCTYPE svg PUBLIC "-//W3C//DTD SVG 1.1//EN" "http://www.w3.org/Graphics/SVG/1.1/DTD/svg11.dtd"><svg width="100%" height="100%" viewBox="0 0 40 64" version="1.1" xmlns="http://www.w3.org/2000/svg" xmlns:xlink="http://www.w3.org/1999/xlink" xml:space="preserve" style="fill-rule:evenodd;clip-rule:evenodd;stroke-linejoin:round;stroke-miterlimit:1.41421;"><path d="M17.681,63.983c0,0 1.095,-20.579 5.01,-27.398c2.554,-4.45 8.23,-5.971 12.667,-3.394c4.437,2.576 5.966,8.28 3.411,12.73c-3.914,6.819 -21.088,18.062 -21.088,18.062Z" style="fill:#333;"/><g id="Calque1"><path d="M17.677,64c0,0 -17.677,-32.426 -17.677,-46.323c0,-9.756 7.921,-17.677 17.677,-17.677c9.756,0 17.677,7.921 17.677,17.677c0,13.897 -17.677,46.323 -17.677,46.323Z" style="fill:#ffeb3b;"/><path d="M17.285,25.976c-0.17,0 -0.305,-0.127 -0.407,-0.379l-4.674,-11.07l-1.13,11.654c0,0.3 -0.153,0.45 -0.458,0.45l-0.855,0c-0.306,0 -0.459,-0.15 -0.459,-0.45c0.245,-2.403 0.489,-4.788 0.733,-7.153c0.245,-2.366 0.493,-4.75 0.744,-7.153c0,-0.129 0.046,-0.237 0.137,-0.322c0.092,-0.086 0.206,-0.128 0.341,-0.128l1.273,0c0.115,0 0.209,0.036 0.28,0.107c0.071,0.072 0.127,0.169 0.168,0.292l4.714,11.418c0.795,-1.919 1.584,-3.822 2.368,-5.709c0.784,-1.888 1.569,-3.791 2.357,-5.709c0.034,-0.123 0.088,-0.22 0.163,-0.292c0.074,-0.071 0.166,-0.107 0.275,-0.107l1.313,0c0.136,0 0.244,0.044 0.326,0.133c0.081,0.089 0.122,0.194 0.122,0.317l1.487,14.306c0,0.3 -0.153,0.45 -0.459,0.45l-0.855,0c-0.305,0 -0.458,-0.15 -0.458,-0.45l-1.14,-11.654l-4.674,11.07c-0.102,0.252 -0.244,0.379 -0.428,0.379l-0.804,0Z" style="fill:#00b8d4;fill-rule:nonzero;"/></g></svg>